<?xml version="1.0" standalone="no"?>
<!DOCTYPE svg PUBLIC "-//W3C//DTD SVG 1.1//EN" "http://www.w3.org/Graphics/SVG/1.1/DTD/svg11.dtd" >
<svg xmlns="http://www.w3.org/2000/svg">
<metadata>
This is a custom SVG font generated by IcoMoon.</metadata>
<defs>
<font id="VM-UI-Icons" horiz-adv-x="512" >
<font-face units-per-em="512" ascent="480" descent="-32" />
<missing-glyph horiz-adv-x="512" />
<glyph unicode="&#xe000;" d="M 9.143,278.857M 477.482,35.846L 261.703,251.625c-0.013,0.012-0.025,0.022-0.039,0.035c 15.127,21.571, 24.01,47.839, 24.01,76.186
	C 285.675,401.218, 226.195,460.698, 152.822,460.698C 79.449,460.698, 19.968,401.218, 19.968,327.846c0.00-73.373, 59.48-132.853, 132.853-132.853
	c 24.479,0.00, 47.408,6.628, 67.101,18.175c 0.504-0.594, 1.018-1.185, 1.579-1.746l 215.779-215.778c 11.101-11.10, 29.10-11.10, 40.201,0.00
	C 488.581,6.744, 488.581,24.745, 477.482,35.846z M 150.501,233.281c-51.585,0.00-93.403,41.818-93.403,93.403
	c0.00,51.585, 41.818,93.402, 93.403,93.402s 93.404-41.818, 93.404-93.402C 243.905,275.099, 202.087,233.281, 150.501,233.281zM 222.476,327.619c0.00-8.415-6.823-15.238-15.238-15.238L 89.397,312.381 c-8.415,0.00-15.238,6.823-15.238,15.238l0.00,0.00c0.00,8.415, 6.823,15.238, 15.238,15.238l 117.841,0.00 
	C 215.654,342.857, 222.476,336.035, 222.476,327.619L 222.476,327.619z" />
<glyph unicode="&#xe001;" d="M 9.143,278.857M 477.482,35.846L 261.703,251.625c-0.013,0.012-0.025,0.022-0.039,0.035c 15.127,21.571, 24.01,47.839, 24.01,76.186
	C 285.675,401.218, 226.195,460.698, 152.822,460.698C 79.449,460.698, 19.968,401.218, 19.968,327.846c0.00-73.373, 59.48-132.853, 132.853-132.853
	c 24.479,0.00, 47.408,6.628, 67.101,18.175c 0.504-0.594, 1.018-1.185, 1.579-1.746l 215.779-215.778c 11.101-11.10, 29.10-11.10, 40.201,0.00
	C 488.581,6.744, 488.581,24.745, 477.482,35.846z M 150.501,233.281c-51.585,0.00-93.403,41.818-93.403,93.403
	c0.00,51.585, 41.818,93.402, 93.403,93.402s 93.404-41.818, 93.404-93.402C 243.905,275.099, 202.087,233.281, 150.501,233.281zM 222.476,327.619c0.00-8.415-6.823-15.238-15.238-15.238L 89.397,312.381 c-8.415,0.00-15.238,6.823-15.238,15.238l0.00,0.00c0.00,8.415, 6.823,15.238, 15.238,15.238l 117.841,0.00 
	C 215.654,342.857, 222.476,336.035, 222.476,327.619L 222.476,327.619zM 151.365,401.778c 8.415,0.00, 15.238-6.823, 15.238-15.238l0.00-117.841 c0.00-8.415-6.823-15.238-15.238-15.238l0.00,0.00c-8.415,0.00-15.238,6.823-15.238,15.238L 136.127,386.54 C 136.127,394.955, 142.95,401.778, 151.365,401.778
	L 151.365,401.778z" />
<glyph unicode="&#xe002;" d="M 455.908,74.798L 404.188,23.079L 55.083,372.184L 106.803,423.903zM 404.182,423.908L 455.901,372.188L 106.796,23.084L 55.077,74.804z" />
<glyph unicode="&#xe003;" d="M 472.651,6.333c 14.283,14.282, 14.282,37.437,0.00,51.718L 201.122,329.581c-14.282,14.283-37.438,14.283-51.72,0.00l0.00,0.00
	c-14.282-14.282-14.282-37.438,0.00-51.719l 271.53-271.529C 435.213-7.948, 458.369-7.95, 472.651,6.333L 472.651,6.333zM 189.313,421.166L 101.396,445.512L 88.947,433.269L 131.53,408.505L 155.783,364.247L 115.704,324.831L 71.688,349.993L 47.809,392.812L 36.355,381.547L 59.227,293.236L 157.303,271.936L 208.124,322.696 z" />
<glyph unicode="&#xe004;" d="M 489.884,266.143C 469.476,379.464, 371.216,461.713, 256.247,461.713
			c-14.128,0.00-28.398-1.281-42.411-3.806C 151.357,446.653, 97.001,411.739, 60.781,359.599c-36.222-52.141-49.969-115.264-38.708-177.74
			c 20.413-113.322, 118.673-195.57, 233.643-195.57c 14.127,0.00, 28.396,1.28, 42.409,3.805c 62.478,11.261, 116.836,46.175, 153.054,98.312
			C 487.399,140.545, 501.144,203.667, 489.884,266.143z M 290.977,40.821c-1.212-8.872-1.635-15.348-1.556-20.053
			c-11.17-1.841-22.49-2.783-33.705-2.783c-99.618,0.00-184.759,71.283-202.45,169.494c-9.758,54.146, 2.156,108.852, 33.545,154.039
			c 7.606,10.948, 16.142,21.012, 25.469,30.129l 7.162,1.291l 6.644-14.757l-2.853-28.437l-2.473-8.431l-15.15-26.663l-0.381-20.019
			l 9.129-6.326l 4.868-27.055l 10.51-14.061l-9.432,30.212l 8.431-2.472l 2.079-11.588l 11.207-17.927l 2.79-15.455l 22.807-15.835
			l 11.588,2.081l 13.68-9.496l 7.721,1.394l 9.826-10.204l 22.098-11.968l 14.769,6.643l 3.474-19.321l-9.509-13.68l-1.079-16.152
			l 24.899-27.435l 25.967-11.27C 297.872,68.993, 296.58,81.721, 290.977,40.821z M 425.148,106.489
			c-27.734-39.922-67.741-68.179-114.029-80.953c 4.333,8.10, 7.611,16.287, 7.611,16.287l 15.452,2.788l 2.473,8.42l 7.026,5.262
			l 17.229,15.073l 8.81,17.534l 10.207,9.826l 12.665,18.245l-2.791,15.453l 15.849,22.796l-9.827,10.205l-18.61-7.353l-5.261,7.038
			l-11.587-2.093l-12.299,1.775l 2.475,8.43l-9.813,10.193l-23.189-4.171l-18.229,12.665l-10.206-9.811l-16.848,4.943l-8.42,2.475
			l-13.375-14.378l-19.308-3.487l-9.825,10.206l-6.644,14.758l-12.286,1.775l 1.775,12.285l-1.394,7.733l-10.902-5.957
			c-24.012-27.272-26.663,15.149-26.663,15.149c-3.283,29.325, 47.454,24.494, 47.454,24.494l 6.642-14.757l 7.723,1.395l-7.342,18.624
			l 11.981,22.097l 2.473,8.431l 15.138,26.662l 16.151-1.077l 17.229,15.074c0.00,0.00, 4.578,7.81, 2.475,8.431
			c-2.105,0.609-11.588-2.092-11.588-2.092l-3.564-5.134l-5.946-8.546l-8.42,2.473l-12.296,1.775l 5.64,12.983l 15.454,2.776
			l 6.338,9.128c-16.074-4.893-22.794,15.835-22.794,15.835l-1.775-12.285l-8.432,2.472l-5.248,7.024l-12.298,1.775l 1.395-7.721
			l 5.96-10.89l-7.037-5.261l 2.093-11.588l-12.284,1.775l-2.093,11.588l-17.546,8.811l-1.395,7.722l 9.509,13.679l 12.982-5.642
			l 1.079,16.152l 12.284-1.776l 5.262-7.024l 8.418-2.472l 2.473,8.419l-25.966,11.283l-18.624-7.341c0.00,0.00-22.885-5.727-26.098-8.071
			c 0.192-0.664, 0.146-0.958-0.261-0.677c-0.239,0.168-0.118,0.40, 0.261,0.677c-0.883,3.059-6.904,14.093-6.904,14.093
			l-11.587-2.092l-1.828,10.118c 21.02,12.542, 44.346,21.327, 69.157,25.797c 12.166,2.193, 24.543,3.304, 36.791,3.304
			c 22.843,0.00, 44.919-3.758, 65.601-10.719l 10.105-8.063l 3.791,2.827c 8.998-3.775, 17.677-8.185, 25.993-13.162l 0.744-4.118l-25.268,7.417
			l 11.905-21.794l 7.024,5.261l 22.111-11.98l 2.092-11.588l 15.062-17.229l 6.338,9.115l-6.644,14.757l-1.142,6.333
			c 5.10-4.602, 9.969-9.46, 14.591-14.557l 2.323-12.871l-7.734-1.395l 8.038-22.477l 6.961-38.643l 9.128-6.339l 2.774-15.454l 24.203-23.556
			l 6.169,7.357C 466.674,198.76, 454.339,148.509, 425.148,106.489zM 245.465,222.324L 247.446,229.079L 225.219,228.267 		zM 258.966,218.362L 267.703,223.137L 254.76,224.00 		zM 366.964,374.786c-3.281,13.796-34.307,13.003-34.307,13.003l-11.266-8.422
		l 7.304-5.079l 17.158-6.502l 1.666-9.285l 20.255-5.943C 354.997,370.235, 370.245,361.001, 366.964,374.786z" />
<glyph unicode="&#xe005;" d="M 176.084,56.194L 82.671,311.33C 14.947,130.925, 176.084,56.194, 176.084,56.194zM 206.444,43.933c0.00,0.00, 67.725-23.354, 120.853,4.086l-60.719,166.394L 206.444,43.933zM 436.475,324.174c 2.335-35.03-5.255-56.048-5.255-56.048c 0.583-10.509-68.308-204.342-68.308-204.342
		C 519.379,166.54, 436.475,324.174, 436.475,324.174zM 384.512,287.413c-25.686,23.917-25.69,53.738-25.69,53.738c 2.335,38.533, 35.608,36.247, 35.608,36.247
		C 221.614,514.015, 98.417,341.30, 98.417,341.30c 7.572-3.889, 63.071,0.385, 63.071,0.385c 14.596,3.503, 8.174-12.261, 8.174-12.261
		c 0.584-5.25-27.441-5.25-27.441-5.25l 71.228-209.595L 256.00,240.682L 224.508,324.571l-14.561,0.00 c-14.596,0.00-12.845,10.307-12.845,10.307
		c0.00,9.341, 9.341,8.559, 9.341,8.559c 21.017-7.59, 99.836-2.334, 99.836-2.334c 13.429,4.087, 13.429-6.421, 13.429-6.421
		c 7.59-12.262-30.36-10.503-30.36-10.503l 71.531-209.598l 31.527,103.929C 410.666,264.036, 384.512,287.413, 384.512,287.413zM 261.897,461.096c-127.043,0.00-230.031-102.988-230.031-230.031c0.00-127.043, 102.988-230.031, 230.031-230.031
		s 230.031,102.988, 230.031,230.031C 491.927,358.106, 388.939,461.096, 261.897,461.096z M 261.395,13.212
		c-120.593,0.00-218.355,97.759-218.355,218.354c0.00,120.593, 97.761,218.354, 218.355,218.354c 120.594,0.00, 218.354-97.761, 218.354-218.354
		C 479.749,110.972, 381.99,13.212, 261.395,13.212z" />
<glyph unicode="&#xe006;" d="M 27.175,240.454L 214.405,244.622L 214.405,425.333L 27.175,407.439 	zM 257.233,428.159L 257.233,244.307L 486.095,249.286L 486.095,449.915 	zM 27.175,30.859L 214.405,17.799L 214.405,198.51L 27.175,197.844 	zM 257.233,13.544L 486.095-2.538L 486.095,198.092L 257.233,197.393 	z" />
<glyph unicode="&#xe007;" d="M 255.999,423.957L 25.577,24.856l 460.846,0.00 L 255.999,423.957z
	 M 275.728,63.613l-36.887,0.00 l0.00,36.531 l 36.887,0.00 L 275.728,63.613 z M 267.888,128.477l-20.671,0.00 l-9.801,138.458l0.00,57.914 l 39.738,0.00 l0.00-57.914 L 267.888,128.477z" />
<glyph unicode="&#xe008;" d="M 261.462,100.866l-44.467,44.469c 43.12,43.12, 42.832,113.481-0.202,156.515l 44.469,44.467
		C 329.359,278.22, 329.515,168.915, 261.462,100.866zM 375.848-4.244l-82.828,82.828c 80.318,80.319, 80.318,210.836,0.00,291.159L 375.848,452.571
		C 502.60,325.817, 502.60,122.509, 375.848-4.244zM 88.12,304.468L 38.434,304.468L 38.434,148.82L 88.12,148.82L 88.12,148.667L 197.079,85.76L 197.079,367.376 z" />
<glyph unicode="&#xe009;" d="M 261.462,100.866l-44.467,44.469c 43.12,43.12, 42.832,113.481-0.202,156.515l 44.469,44.467
		C 329.359,278.22, 329.515,168.915, 261.462,100.866zM 88.12,304.468L 38.434,304.468L 38.434,148.82L 88.12,148.82L 88.12,148.667L 197.079,85.76L 197.079,367.376 z" />
<glyph unicode="&#xe00a;" d="M 88.12,304.468L 38.434,304.468L 38.434,148.82L 88.12,148.82L 88.12,148.667L 197.079,85.76L 197.079,367.376 z" />
<glyph unicode="&#xe00b;" d="M 9.143,278.857M 17.436,283.609l 26.878,26.878l 124.143-124.143l 113.045,112.699c0.00,0.00, 36.063,37.104, 75.942-3.121l 135.932-135.587
	l-27.741-27.74L 334.556,263.674c0.00,0.00-18.379,19.071-39.531-7.282l 95.707-95.707l-28.088-28.087l-96.054,96.054l-22.54-22.194
	l 46.813-46.812L 262.776,131.556l-47.16,47.506l-47.16-47.16L 17.436,283.609z" />
<glyph unicode="&#xe00c;" d="M 474.836,332.318L 387.953,282.156L 387.953,333.011L 37.164,333.011L 37.164,112.956L 387.953,112.956L 387.953,163.812L 474.836,113.649 z" />
<glyph unicode="&#xe00d;" d="M 242.785,231.26c 32.52,14.637, 55.183,47.333, 55.183,85.284
		c0.00,51.594-41.88,93.476-93.476,93.476c-51.594,0.00-93.475-41.881-93.475-93.476c0.00-37.643, 22.297-70.111, 54.392-84.92
		C 93.268,212.308, 39.604,143.275, 39.604,111.604c0.00-114.259, 73.35-114.259, 163.831-114.259c 90.481,0.00, 163.831,0.00, 163.831,114.259
		C 367.267,143.082, 314.259,211.459, 242.785,231.26zM 348.435,269.863c 32.52,14.638, 55.183,47.333, 55.183,85.285
		c0.00,51.594-41.88,93.476-93.476,93.476c-26.489,0.00-50.415-11.042-67.43-28.766c 47.977-3.943, 85.731-44.168, 85.731-93.154
		c0.00-37.951-22.664-70.647-55.183-85.285c 71.474-19.80, 124.482-88.179, 124.482-119.656c0.00-40.966-9.431-67.242-25.699-84.098
		c 59.231,5.234, 100.873,26.456, 100.873,112.542C 472.917,181.685, 419.91,250.062, 348.435,269.863z" />
<glyph unicode="&#xe00e;" d="M 200.215,219.491c 29.173,13.129, 49.502,42.458, 49.502,76.504
		c0.00,46.284-37.569,83.854-83.853,83.854c-46.283,0.00-83.852-37.571-83.852-83.854c0.00-33.77, 20.002-62.895, 48.794-76.179
		C 66.088,202.487, 17.947,140.559, 17.947,112.148C 17.947,9.651, 83.748,9.651, 164.916,9.651c 81.169,0.00, 146.968,0.00, 146.968,102.498
		C 311.884,140.385, 264.332,201.726, 200.215,219.491zM 496.762,329.382L 405.548,329.382L 405.548,421.04L 373.668,421.04L 373.668,329.382L 281.567,329.382L 281.567,297.502L 373.668,297.502L 373.668,205.845L 405.548,205.845L 405.548,297.502L 496.762,297.502 	z" />
<glyph unicode="&#xe00f;" d="M 200.215,219.491c 29.173,13.129, 49.502,42.458, 49.502,76.504
		c0.00,46.284-37.569,83.854-83.853,83.854c-46.283,0.00-83.852-37.571-83.852-83.854c0.00-33.77, 20.002-62.895, 48.794-76.179
		C 66.088,202.487, 17.947,140.559, 17.947,112.148C 17.947,9.651, 83.748,9.651, 164.916,9.651c 81.169,0.00, 146.968,0.00, 146.968,102.498
		C 311.884,140.385, 264.332,201.726, 200.215,219.491zM 284.952,331.045L 496.762,331.045L 496.762,299.665L 284.952,299.665z" />
<glyph unicode="&#xe010;" d="M 200.215,219.49c 29.173,13.13, 49.502,42.459, 49.502,76.504
		c0.00,46.284-37.569,83.854-83.853,83.854c-46.283,0.00-83.852-37.571-83.852-83.854c0.00-33.77, 20.002-62.895, 48.794-76.179
		C 66.088,202.487, 17.947,140.559, 17.947,112.148C 17.947,9.651, 83.748,9.651, 164.916,9.651c 81.169,0.00, 146.968,0.00, 146.968,102.498
		C 311.884,140.386, 264.332,201.726, 200.215,219.49zM 469.826,235.651L 397.316,308.161L 469.477,380.322L 444.254,405.544L 372.094,333.383L 299.584,405.893L 274.363,380.673L 346.873,308.162L 274.011,235.301L 299.235,210.078L 372.095,282.94L 444.606,210.43 	z" />
<glyph unicode="&#xe011;" d="M 200.215,219.49c 29.173,13.13, 49.502,42.459, 49.502,76.504
		c0.00,46.284-37.569,83.854-83.853,83.854c-46.283,0.00-83.852-37.571-83.852-83.854c0.00-33.77, 20.002-62.895, 48.794-76.179
		C 66.088,202.487, 17.947,140.559, 17.947,112.148C 17.947,9.651, 83.748,9.651, 164.916,9.651c 81.169,0.00, 146.968,0.00, 146.968,102.498
		C 311.884,140.386, 264.332,201.726, 200.215,219.49zM 451.682,401.559L 331.734,281.613L 289.869,323.478L 265.332,298.941L 331.194,233.079L 331.738,233.624L 332.28,233.083L 476.219,377.022 	z" />
<glyph unicode="&#xe012;" d="M 200.215,219.491c 29.173,13.129, 49.502,42.458, 49.502,76.504
		c0.00,46.284-37.569,83.854-83.853,83.854c-46.283,0.00-83.852-37.571-83.852-83.854c0.00-33.77, 20.002-62.895, 48.794-76.179
		C 66.088,202.487, 17.947,140.559, 17.947,112.148C 17.947,9.651, 83.748,9.651, 164.916,9.651c 81.169,0.00, 146.968,0.00, 146.968,102.498
		C 311.884,140.385, 264.332,201.726, 200.215,219.491zM 386.387,442.921c-55.918,0.00-101.249-45.331-101.249-101.249s 45.331-101.249, 101.249-101.249c 55.919,0.00, 101.249,45.331, 101.249,101.249
	S 442.305,442.921, 386.387,442.921z M 386.387,256.698c-46.757,0.00-84.661,37.904-84.661,84.661c0.00,46.758, 37.904,84.661, 84.661,84.661
	s 84.661-37.903, 84.661-84.661C 471.048,294.602, 433.144,256.698, 386.387,256.698zM 394.838,344.182c0.00-4.929-3.784-8.925-8.451-8.925l0.00,0.00c-4.667,0.00-8.45,3.996-8.45,8.925L 377.937,408.643 
	c0.00,4.929, 3.784,8.925, 8.45,8.925l0.00,0.00c 4.668,0.00, 8.451-3.996, 8.451-8.925L 394.838,344.182 zM 447.419,349.966c 4.666,0.00, 8.449-3.784, 8.449-8.45l0.00,0.00c0.00-4.668-3.784-8.452-8.449-8.452L 386.387,333.064 
	c-4.667,0.00-8.45,3.784-8.45,8.452l0.00,0.00c0.00,4.666, 3.784,8.45, 8.45,8.45L 447.419,349.966 L 447.419,349.966z" />
<glyph unicode="&#xe013;" d="M 299.913,260.522c 36.43,16.397, 61.819,53.025, 61.819,95.54
	c0.00,57.799-46.917,104.717-104.716,104.717c-57.798,0.00-104.715-46.918-104.715-104.717c0.00-42.171, 24.978-78.543, 60.934-95.132
	C 132.414,239.291, 72.297,161.956, 72.297,126.476c0.00-128.00, 82.171-128.00, 183.535-128.00c 101.364,0.00, 183.535,0.00, 183.535,128.00
	C 439.365,161.738, 379.982,238.34, 299.913,260.522z" />
<glyph unicode="&#xe014;" d="M 27.937,68.063L 485.079,68.063L 485.079-5.079L 27.937-5.079zM 27.937,114.794L 165.079,114.794L 165.079,68.063L 27.937,68.063zM 347.937,114.794L 485.079,114.794L 485.079,68.063L 347.937,68.063zM 365.626,312.381L 255.956,458.159L 146.286,312.381L 219.429,312.381L 219.429,92.952L 292.571,92.952L 292.571,312.381 z" />
<glyph unicode="&#xe015;" d="M 148.277,260.571L 148.277,396.698L 365.755,396.698L 365.755,332.698L 414.152,332.698L 414.152,396.698L 414.152,451.556L 365.755,451.556L 99.881,451.556L 99.881,416.00L 99.881,396.698L 99.881,260.571L 55.365,260.571L 55.365-13.714L 458.667-13.714L 458.667,260.571 z" />
<glyph unicode="&#xe016;" d="M 338.718,421.694l-92.999-92.998c-22.138-22.138-21.72-57.615, 0.418-79.753l 3.416-3.415l-14.50-14.50l-3.415,3.416
		c-22.138,22.138-57.613,22.556-79.752,0.419l-92.997-92.997c-22.138-22.139-22.277-58.173-0.139-80.31l 35.276-35.277
		c 22.138-22.137, 58.172-21.999, 80.311,0.14l 92.997,92.997c 22.138,22.138, 21.719,57.615-0.418,79.752l-3.415,3.416l 14.499,14.499
		l 3.415-3.415c 22.138-22.139, 57.615-22.555, 79.752-0.418l 92.999,92.998c 22.136,22.136, 22.277,58.172, 0.14,80.31L 419.027,421.834
		C 396.889,443.972, 360.855,443.832, 338.718,421.694z M 191.762,130.85l 13.665,13.663l 15.675,15.675
		c 4.997-10.615, 2.253-23.40-6.743-32.397l-47.80-47.801c-11.317-11.317-29.031-12.443-39.478-1.995l-16.649,16.649
		c-10.447,10.448-9.289,28.127, 2.029,39.445l 47.799,47.80c 9.01,9.01, 21.802,11.764, 32.409,6.756l-15.687-15.687l-13.663-13.663
		c-7.97-7.97-8.179-20.682-0.208-28.652C 171.08,122.672, 183.793,122.88, 191.762,130.85z M 402.586,353.502
		c 10.448-10.448, 9.323-28.161-1.996-39.48l-47.80-47.80c-8.997-8.998-21.782-11.741-32.397-6.743l 15.675,15.676l 13.663,13.663
		c 7.972,7.97, 8.181,20.683, 0.209,28.655c-7.971,7.971-20.683,7.761-28.653-0.209l-13.663-13.663l-15.688-15.687
		c-5.009,10.606-2.253,23.40, 6.755,32.407l 47.80,47.80c 11.319,11.319, 29.00,12.477, 39.447,2.03L 402.586,353.502zM 152.036,256.067c 1.754-0.237, 3.425,0.39, 4.587,1.552c 0.817,0.817, 1.381,1.897, 1.545,3.129
		c 0.401,2.986-1.693,5.732-4.68,6.133L 35.146,282.776c-2.985,0.40-5.732-1.693-6.132-4.68c-0.401-2.986, 1.693-5.733, 4.68-6.133
		L 152.036,256.067zM 189.793,290.79c 2.131,2.131, 2.13,5.585,0.00,7.715l-78.691,78.691c-2.13,2.13-5.584,2.13-7.715,0.00
		c-2.131-2.13-2.13-5.585,0.00-7.716l 78.691-78.69C 184.207,288.66, 187.662,288.659, 189.793,290.79zM 218.758,321.337c 1.23,0.165, 2.312,0.729, 3.129,1.545c 1.162,1.162, 1.786,2.831, 1.552,4.587L 207.542,445.809
		c-0.399,2.988-3.147,5.081-6.132,4.681c-2.985-0.40-5.081-3.148-4.68-6.132l 15.894-118.342
		C 213.026,323.03, 215.77,320.936, 218.758,321.337zM 362.252,187.112c-2.987,0.401-5.733-1.693-6.133-4.68c-0.399-2.986, 1.693-5.733, 4.681-6.134l 118.342-15.894
		c 1.752-0.238, 3.423,0.39, 4.587,1.55c 0.817,0.817, 1.381,1.897, 1.545,3.128c 0.40,2.985-1.693,5.733-4.68,6.133L 362.252,187.112zM 324.495,152.39c-2.13-2.13-2.131-5.584,0.00-7.716l 78.691-78.69c 2.13-2.131, 5.584-2.131, 7.716,0.00
		c 2.131,2.132, 2.13,5.583-0.001,7.714l-78.692,78.692C 330.079,154.52, 326.626,154.52, 324.495,152.39zM 295.53,121.843c-2.988-0.402-5.081-3.148-4.682-6.132l 15.895-118.341c 0.402-2.985, 3.148-5.082, 6.134-4.679
		c 1.232,0.166, 2.311,0.73, 3.128,1.545c 1.161,1.162, 1.788,2.832, 1.551,4.587l-15.896,118.341
		C 301.261,120.148, 298.516,122.244, 295.53,121.843z" />
<glyph unicode="&#xe017;" d="M 28.444,87.869l 12.466,237.796l 67.309-66.974C 369.60,562.255, 491.913,188.444, 491.913,188.444
	C 340.334,469.949, 217.51,233.927, 191.303,176.016l 74.87-74.498L 28.444,87.869z" />
<glyph unicode="&#xe018;" d="M 333.839,439.657L 333.839,450.57 L 475.429,450.57 l0.00-10.915 l-15.046,0.00 c-15.734,0.00-27.829-6.591-36.282-19.764c-4.13-6.097-6.194-20.257-6.194-42.477
		l0.00-162.237 c0.00-40.117-3.982-71.237-11.947-93.361c-7.964-22.123-23.599-41.103-46.902-56.93C 335.757,49.062, 304.047,41.143, 263.929,41.143
		c-43.656,0.00-76.795,7.572-99.407,22.713c-22.616,15.141-38.642,35.494-48.081,61.06c-6.296,17.50-9.439,50.339-9.439,98.521L 107.001,379.776 
		c0.00,24.58-3.392,40.707-10.177,48.376c-6.784,7.67-17.749,11.505-32.89,11.505L 48.891,439.657 L 48.891,450.57 l 172.856,0.00 l0.00-10.915 l-15.339,0.00 
		c-16.519,0.00-28.317-5.212-35.397-15.634c-4.918-7.079-7.374-21.828-7.374-44.246l0.00-174.331 c0.00-15.537, 1.423-33.333, 4.277-53.391
		c 2.849-20.057, 8.01-35.692, 15.487-46.902c 7.471-11.208, 18.238-20.454, 32.30-27.727c 14.058-7.278, 31.314-10.914, 51.769-10.914
		c 26.151,0.00, 49.555,5.701, 70.204,17.109c 20.649,11.402, 34.757,26.004, 42.329,43.803c 7.567,17.796, 11.356,47.934, 11.356,90.411L 391.359,379.776 
		c0.00,24.972-2.757,40.605-8.26,46.902c-7.669,8.651-19.075,12.979-34.217,12.979L 333.839,439.657 zM 45.714,22.857L 475.429,22.857L 475.429-4.571L 45.714-4.571z" />
<glyph unicode="&#xe019;" d="M 360.131,407.397A44.667,44.667 180.00 1,0 449.465,407.397A44.667,44.667 180.00 1,0 360.131,407.397zM 37.078,221.46A44.667,44.667 180.00 1,0 126.412,221.45999999999998A44.667,44.667 180.00 1,0 37.078,221.45999999999998zM 360.132,35.523A44.666,44.666 180.00 1,0 449.464,35.523000000000025A44.666,44.666 180.00 1,0 360.132,35.523000000000025zM 228.21,309.755l-38.434,64.402c-62.326-39.473-72.713-99.721-72.713-99.721c 61.287-50.899,0.00-109.068,0.00-109.068
		c 16.62-65.442, 73.751-97.643, 73.751-97.643l 37.395,67.519C 132.645,226.654, 228.21,309.755, 228.21,309.755zM 409.816,235.031l 74.99,1.113c-3.051,73.71-50.049,112.811-50.049,112.811c-74.711-27.656-94.478,54.497-94.478,54.497
		c-64.991,18.302-121.431-15.097-121.431-15.097l 39.801-66.128C 385.583,359.334, 409.816,235.031, 409.816,235.031zM 405.938,205.565C 374.955,77.003, 255.077,117.841, 255.077,117.841l-36.353-65.598c 65.453-34.036, 122.757-12.731, 122.757-12.731
		c 13.193,78.567, 94.286,54.828, 94.286,54.828c 48.217,47.265, 47.338,112.839, 47.338,112.839L 405.938,205.565z" />
<glyph unicode="&#xe01a;" d="M 458.034,457.544L 53.626,457.544 c-17.187,0.00-31.17-13.982-31.17-31.17l0.00-404.408 c0.00-17.189, 13.982-31.172, 31.17-31.172l 404.408,0.00 
		c 17.189,0.00, 31.172,13.983, 31.172,31.172L 489.206,426.374 C 489.207,443.561, 475.222,457.544, 458.034,457.544z M 479.048,21.966
		c0.00-11.586-9.426-21.014-21.014-21.014L 53.626,0.952 c-11.585,0.00-21.011,9.426-21.011,21.014L 32.615,426.374 c0.00,11.585, 9.425,21.011, 21.011,21.011
		l 404.408,0.00 c 11.586,0.00, 21.013-9.425, 21.013-21.011L 479.048,21.966L 479.048,21.966zM 79.171,364.171c0.00,0.00, 70.436-91.196, 174.976-87.489c0.00,0.00-15.57,93.42, 77.849,102.317c0.00,0.00, 40.778,2.965, 62.28-25.949
	c0.00,0.00, 29.657,2.224, 54.865,20.759c0.00,0.00-3.707-25.232-33.364-45.98c0.00,0.00, 17.794-0.728, 44.485,11.133c0.00,0.00-24.466-33.363-41.52-42.261
	c0.00,0.00, 14.087-231.323-237.256-251.342c0.00,0.00-57.831-3.707-129.748,37.813c0.00,0.00, 85.263-8.155, 120.852,34.846
	c0.00,0.00-54.125-1.482-75.626,58.572c0.00,0.00, 19.277-6.673, 34.847,2.224c0.00,0.00-61.538,14.086-64.504,83.039c0.00,0.00, 24.466-14.829, 36.33-8.897
	C 103.637,252.956, 46.548,290.769, 79.171,364.171z" />
<glyph unicode="&#xe01b;" d="M 168.294,32.067c-16.148,0.00-74.223,3.109-143.508,43.109L 4.589,86.836l 23.218-2.204c 0.07-0.007, 7.158-0.667, 18.035-0.667
		c 27.998,0.00, 76.886,4.161, 105.77,30.439c-19.565,2.953-59.613,15.471-78.436,68.043l-3.573,9.979l 10.015-3.467
		c 0.061-0.02, 7.162-2.41, 16.088-2.41c 1.925,0.00, 3.787,0.109, 5.581,0.325c-6.413,2.867-14.296,7.132-22.281,13.286
		c-16.948,13.059-37.526,37.406-39.326,79.235l-0.407,9.48l 8.115-4.918c 0.153-0.092, 13.641-8.182, 25.326-10.293
		c-5.757,5.54-13.046,13.867-19.132,24.988c-10.963,20.034-19.896,53.223-0.186,97.57l 3.457,7.78l 5.204-6.737
		c 0.186-0.24, 19.054-24.415, 51.271-48.238c 29.525-21.831, 76.679-47.856, 133.649-47.856c 0.414,0.00, 0.829,0.001, 1.245,0.004
		c-1.249,14.004-1.923,50.361, 19.99,78.867c 15.894,20.677, 40.247,32.713, 72.385,35.774l 0.113,0.009
		c 0.153,0.011, 1.578,0.11, 4.004,0.11c 10.714,0.00, 46.583-2.127, 68.346-28.861c 8.194,1.088, 33.975,5.659, 56.153,21.967l 9.802,7.208
		l-1.768-12.038c-0.155-1.057-3.566-22.521-25.873-43.809c 8.044,1.612, 18.713,4.611, 31.236,10.177l 17.454,7.757l-11.294-15.403
		c-1.093-1.49-25.826-35.042-45.38-47.18c 0.38-14.042-0.015-71.291-27.875-131.546c-18.504-40.02-45.338-72.879-79.757-97.665
		c-42.889-30.885-97.654-49.175-162.774-54.362C 172.839,32.169, 171.223,32.067, 168.294,32.067z M 48.765,73.819
		c 58.495-29.128, 105.501-31.594, 119.529-31.594c 2.564,0.00, 3.955,0.084, 3.968,0.085c 114.645,9.132, 193.415,58.308, 234.033,146.158
		c 30.341,65.622, 26.866,129.211, 26.827,129.846l-0.199,3.288l 2.921,1.524c 10.477,5.465, 23.986,20.188, 33.407,31.483
		c-18.315-5.857-30.82-6.228-33.675-6.228c-0.60,0.00-0.91,0.014-0.91,0.014l-14.92,0.676l 12.215,8.562
		c 17.242,12.062, 26.21,25.599, 30.772,35.226c-25.417-14.095-50.337-16.127-51.55-16.217l-2.788-0.209l-1.669,2.243
		c-18.697,25.144-52.19,27.098-62.011,27.098c-1.83,0.00-2.982-0.065-3.225-0.08c-29.185-2.793-51.127-13.506-65.223-31.845
		c-24.479-31.846-17.406-76.356-17.332-76.802l 0.952-5.706l-5.781-0.205c-2.365-0.084-4.762-0.126-7.128-0.126
		c-59.855,0.00-109.137,27.207-139.94,50.032C 83.748,358.299, 67.471,375.40, 59.53,384.458c-11.24-29.587-10.253-56.781, 2.963-80.931
		c 10.686-19.526, 25.591-29.543, 25.74-29.641l 7.322-4.85l-7.856-3.928c-2.793-1.397-6.122-2.104-9.896-2.104c0.00,0.00,0.00,0.00,0.00,0.00
		c-9.199,0.00-19.963,4.27-27.25,7.773c 3.101-26.201, 14.733-47.221, 34.654-62.572c 16.565-12.763, 32.733-16.57, 32.894-16.606
		l 12.686-2.904l-11.30-6.456c-6.792-3.881-14.793-5.849-23.783-5.849c-3.455,0.00-6.664,0.297-9.438,0.702
		c 23.288-51.864, 70.402-53.432, 75.96-53.432l 0.264,0.002l 11.123,0.255l-7.082-8.571C 137.503,80.269, 81.51,74.15, 48.765,73.819z
		" />
<glyph unicode="&#xe01c;" d="M 58.037,394.157c0.00,0.00, 78.853-102.094, 195.888-97.944c0.00,0.00-17.43,104.585, 87.154,114.545c0.00,0.00, 45.651,3.32, 69.723-29.051
	c0.00,0.00, 33.202,2.49, 61.422,23.24c0.00,0.00-4.15-28.248-37.352-51.476c0.00,0.00, 19.92-0.816, 49.802,12.465c0.00,0.00-27.391-37.352-46.482-47.312
	c0.00,0.00, 15.77-258.969-265.611-281.382c0.00,0.00-64.743-4.15-145.256,42.332c0.00,0.00, 95.453-9.131, 135.296,39.01
	c0.00,0.00-60.593-1.659-84.664,65.574c0.00,0.00, 21.581-7.471, 39.012,2.49c0.00,0.00-68.892,15.77-72.213,92.964c0.00,0.00, 27.391-16.60, 40.673-9.961
	C 85.428,269.651, 21.515,311.983, 58.037,394.157z" />
<glyph unicode="&#xe01d;" d="M 109.714,265.651l0.00,62.437 c0.00,0.00, 95.681,47.315, 97.435,134.643L 268.19,462.73 l0.00-123.635 l 122.921,0.522L 391.111,264.635 L 270.334,264.635 l 0.582-162.027
	c0.00,0.00, 9.464-80.659, 131.369-20.986l0.00-79.467 c0.00,0.00-205.854-62.691-233.935,60.163l 0.386,203.598" />
<glyph unicode="&#xe01e;" d="M 32.762,114.286L 55.365,114.286 c0.00-20.198, 16.374-36.571, 36.571-36.571s 36.571,16.374, 36.571,36.571l 196.825,0.00 L 325.333,333.714 l-292.571,0.00 L 32.762,114.286 zM 434.032,176.254l0.00,29.46 l-1.507,0.00 l-88.906,59.937l0.00-59.937 l0.00-1.016 l0.00-90.413 l 45.206,0.00 c0.00-20.198, 16.373-36.571, 36.571-36.571s 36.571,16.374, 36.571,36.571l 17.27,0.00 l0.00,61.968 L 434.032,176.254 z" />
<glyph unicode="&#xe01f;" d="M 9.143,113.778L 256.00,333.714L 502.857,113.778 z" />
<glyph unicode="&#xe020;" d="M 145.778,470.095L 365.714,223.238L 145.778-23.619 z" />
<glyph unicode="&#xe021;" d="M 366.222-23.111L 146.286,223.746L 366.222,470.603 z" />
<glyph unicode="&#xe022;" d="M 503.111,333.206L 256.254,113.27L 9.397,333.206 z" />
<glyph unicode="&#xe023;" d="M 345.405,409.873L 345.405,451.387 L 168.971,451.387 l0.00-41.514 L 70.172,409.873 l0.00-41.515 l 46.906,0.00 
	l0.00-373.624 l 280.217,0.00 L 397.296,368.36 l 46.50,0.00 L 443.795,409.873 L 345.405,409.873 z M 194.714,36.249l-41.515,0.00 L 153.20,368.36 l 41.515,0.00 L 194.714,36.249 z M 277.74,36.249l-41.513,0.00 L 236.227,368.36 
	L 277.74,368.36 L 277.74,36.249 z M 360.771,36.249l-41.517,0.00 L 319.254,368.36 l 41.517,0.00 L 360.771,36.249 z" />
<glyph unicode="&#xe024;" d="M 410.921,406.349l0.00,36.571 l-71.789,0.00 l0.00-36.571 L 173.884,406.349 l0.00,36.571 L 102.095,442.921 l0.00-36.571 l-28.444,0.00 l0.00-365.714 l 365.714,0.00 l0.00,365.714 L 410.921,406.349 z M 417.693,58.921L 93.968,58.921 l0.00,298.667 l 323.725,0.00 L 417.693,58.921 zM 215.662,322.285L 203.753,334.195L 145.534,275.976L 125.213,296.297L 113.304,284.387L 145.271,252.42L 145.536,252.684L 145.799,252.422 zM 218.764,240.85L 206.854,252.76L 148.635,194.542L 128.316,214.862L 116.406,202.952L 148.373,170.985L 148.637,171.251L 148.901,170.987 zM 218.764,155.538L 206.854,167.448L 148.635,109.23L 128.316,129.55L 116.406,117.641L 148.373,85.674L 148.637,85.939L 148.901,85.676 zM 232.127,303.746L 388.571,303.746L 388.571,279.365L 232.127,279.365zM 231.111,223.492L 387.556,223.492L 387.556,199.111L 231.111,199.111zM 228.063,138.159L 384.508,138.159L 384.508,113.778L 228.063,113.778z" />
<glyph unicode="&#xe025;" d="M 410.921,406.349l0.00,36.571 l-71.789,0.00 l0.00-36.571 L 173.884,406.349 l0.00,36.571 L 102.095,442.921 l0.00-36.571 l-28.444,0.00 l0.00-365.714 l 365.714,0.00 l0.00,365.714 L 410.921,406.349 z M 417.693,58.921L 93.968,58.921 l0.00,298.667 l 323.725,0.00 L 417.693,58.921 zM 113.301,195.322L 146.508,228.528L 235.636,139.399L 202.43,106.193zM 203.905,106.195L 170.699,139.401L 365.489,334.19L 398.695,300.984z" />
<glyph unicode="&#xe026;" d="M 430.691,306.037l-84.416,0.00 c 6.566,25.439, 21.439,93.743, 10.337,154.806l-1.173,6.459l-76.279,0.00 l-0.402-7.443
	c-0.026-0.488-2.861-49.401-22.737-102.016c-22.92-60.672-57.784-100.573-103.811-118.941l0.00,36.232 L 29.714,275.133 l0.00-280.95 l 122.494,0.00 l0.00,34.838 
	l 44.02,0.00 l 50.008-48.323l 183.306,0.00 l 55.87,52.801L 485.413,253.774 L 430.691,306.037z M 469.68,40.276l-46.395-43.845L 252.596-3.569 l-50.009,48.323
	L 152.208,44.754 L 152.208,222.117 c 26.957,9.671, 50.774,25.955, 70.964,48.606c 19.297,21.649, 35.30,49.089, 47.565,81.559
	c 16.305,43.156, 21.571,83.156, 23.132,99.285l 48.328,0.00 c 10.406-69.959-13.528-150.288-13.778-151.117l-3.071-10.147l 99.036,0.00 l 45.295-43.259
	L 469.68,40.276 z" />
<glyph unicode="&#xe027;" d="M 485.413,194.226L 485.413,414.501 L 429.543,467.302L 246.236,467.302 l-50.008-48.323L 152.208,418.979 L 152.208,453.817 L 29.714,453.817 l0.00-280.95 l 122.494,0.00 l0.00,36.232 
	c 46.027-18.367, 80.891-58.269, 103.811-118.941c 19.877-52.616, 22.711-101.528, 22.737-102.017l 0.402-7.442l 76.279,0.00 l 1.173,6.458
	c 11.103,61.063-3.771,129.367-10.337,154.806l 84.416,0.00 L 485.413,194.226z M 469.68,200.955l-45.295-43.259l-99.036,0.00 l 3.071-10.147
	c 0.25-0.829, 24.185-81.159, 13.778-151.118l-48.328,0.00 c-1.561,16.13-6.829,56.129-23.132,99.285
	c-12.266,32.469-28.269,59.91-47.565,81.558c-20.19,22.653-44.008,38.936-70.964,48.607L 152.208,403.245 l 50.379,0.00 l 50.009,48.323l 170.688,0.00 
	l 46.395-43.845L 469.68,200.955 z" />
<glyph unicode="&#xe028;" d="M 219.325,39.517l 37.952,104.664l 144.504,0.00 L 442.093,39.517l 52.097,0.00 L 352.75,385.101L 303.482,385.101 L 183.055,71.519l-64.765,158.245L 91.087,229.764 
	L 17.809,38.958l 26.812,0.00 l 20.954,57.789l 79.786,0.00 l 22.257-57.789 M 72.866,117.311l 20.954,55.967c 4.425,12.058, 7.853,24.208, 10.283,36.442
	c 2.949-10.326, 7.462-23.514, 13.537-39.566l 19.914-52.844L 72.866,117.311 z M 270.479,181.429l 37.952,101.366
	c 8.016,21.841, 14.221,43.846, 18.623,66.005c 5.341-18.704, 13.515-42.59, 24.517-71.663l 36.068-95.707L 270.479,181.43 z" />
<glyph unicode="&#xe029;" d="M 21.293,262.297l 227.721-221.108l 154.332,149.917L 175.623,412.216
		l-73.389,0.00 L 21.293,333.797L 21.293,262.297 z M 83.655,301.669c-14.18,13.534-14.18,35.895,0.00,49.768c 14.18,13.858, 37.48,13.858, 51.659,0.00
		c 14.166-13.873, 14.166-36.233,0.00-49.768C 121.135,287.811, 97.835,287.811, 83.655,301.669zM 258.457,404.972M 229.749,404.972L 236.419,397.729L 243.971,390.807L 251.214,383.563L 449.639,191.107L 310.117,55.676L 332.17,34.267L 471.692,169.699L 493.746,191.107L 471.692,212.53L 273.268,404.972 	
		z" />
<glyph unicode="&#xe02a;" d="M 20.571,269.398L 302.905-12.952L 493.968,178.095L 211.618,460.444
	l-90.958,0.00 L 20.571,360.357L 20.571,269.398 z M 98.007,319.442c-17.586,17.585-17.586,45.983,0.00,63.566c 17.583,17.584, 45.981,17.584, 63.565,0.00
	c 17.586-17.584, 17.586-45.982,0.00-63.566C 143.989,301.859, 115.59,301.859, 98.007,319.442z" />
<glyph unicode="&#xe02b;" d="M 27.429,434.286L 484.571,434.286L 484.571,416.00L 27.429,416.00zM 27.429,370.286L 484.571,370.286L 484.571,352.00L 27.429,352.00zM 279.873,306.286L 484.571,306.286L 484.571,288.00L 279.873,288.00zM 279.873,242.286L 484.571,242.286L 484.571,224.00L 279.873,224.00zM 279.873,178.286L 484.571,178.286L 484.571,160.00L 279.873,160.00zM 27.429,114.286L 484.571,114.286L 484.571,96.00L 27.429,96.00zM 27.429,50.286L 484.571,50.286L 484.571,32.00L 27.429,32.00zM 259.048,160.00L 259.048,306.286L 235.175,306.286L 235.175,243.407L 176.762,277.131L 176.762,251.937L 32.00,251.937L 32.00,218.413L 176.762,218.413L 176.762,189.154L 235.175,222.878L 235.175,160.00 	z" />
<glyph unicode="&#xe02c;" d="M 27.429,434.286L 484.571,434.286L 484.571,416.00L 27.429,416.00zM 27.429,370.286L 484.571,370.286L 484.571,352.00L 27.429,352.00zM 27.429,306.286L 232.127,306.286L 232.127,288.00L 27.429,288.00zM 27.429,242.286L 232.127,242.286L 232.127,224.00L 27.429,224.00zM 27.429,178.286L 232.127,178.286L 232.127,160.00L 27.429,160.00zM 27.429,114.286L 484.571,114.286L 484.571,96.00L 27.429,96.00zM 27.429,50.286L 484.571,50.286L 484.571,32.00L 27.429,32.00zM 252.952,306.286L 252.952,160.00L 276.825,160.00L 276.825,222.878L 335.238,189.154L 335.238,218.413L 480.00,218.413L 480.00,251.937L 335.238,251.937L 335.238,277.131L 276.825,243.407L 276.825,306.286 	z" />
<glyph unicode="&#xe02d;" d="M 230.923,231.247l 89.433-132.714c 14.827-22.00, 25.384-35.354, 31.683-40.055c 6.295-4.703, 13.75-7.532, 22.358-8.489L 374.398,41.143 
		L 216.338,41.143 l0.00,8.847 c 12.591,0.957, 20.721,2.87, 24.39,5.739c 3.665,2.87, 5.50,6.375, 5.50,10.521c0.00,2.87-0.56,5.419-1.672,7.652
		c-2.235,4.783-7.813,13.709-16.74,26.782l-47.347,70.064l-49.498-60.499c-14.826-18.334-22.238-30.769-22.238-37.304
		c0.00-4.626, 1.913-8.93, 5.739-12.913c 3.826-3.986, 9.482-6.856, 16.978-8.609c 3.347-0.957, 10.20-1.435, 20.564-1.435L 152.014,41.143 L 27.429,41.143 l0.00,8.847 
		c 14.187,2.069, 25.347,5.897, 33.478,11.478c 10.678,7.331, 25.587,22.635, 44.717,45.912l 64.324,78.433L 87.449,307.05
		c-13.551,19.925-21.283,31.004-23.195,33.238c-4.304,5.261-8.529,9.005-12.674,11.239c-4.148,2.231-9.886,3.905-17.217,5.021l0.00,8.847 
		l 160.932,0.00 l0.00-8.847 l-8.129,0.00 c-9.247,0.00-15.703-1.475-19.37-4.423c-3.669-2.951-5.50-6.658-5.50-11.119c0.00-3.509, 0.557-6.539, 1.674-9.087
		l 16.499-24.869l 40.173-61.217l 34.195,41.847c 17.535,21.521, 26.305,36.587, 26.305,45.195c0.00,4.304-1.238,8.286-3.706,11.956
		c-2.474,3.665-6.02,6.535-10.642,8.609c-4.626,2.07-11.798,3.109-21.521,3.109l0.00,8.847 l 119.323,0.00 l0.00-8.847 
		c-9.408-0.161-16.978-1.315-22.717-3.467c-5.738-2.153-11.877-6.18-18.413-12.076c-4.148-3.826-14.508-15.703-31.087-35.63
		L 230.923,231.247zM 482.573,288.00L 384.00,288.00 l0.00,2.718 c 30.221,35.986, 48.565,60.197, 55.03,72.632c 6.465,12.434, 9.698,24.582, 9.698,36.44
		c0.00,8.647-2.678,15.83-8.029,21.556c-5.355,5.723-11.90,8.585-19.64,8.585c-12.682,0.00-22.524-6.343-29.523-19.024l-4.569,1.606
		c 4.446,15.811, 11.197,27.504, 20.258,35.081c 9.058,7.575, 19.517,11.365, 31.375,11.365c 8.482,0.00, 16.222-1.976, 23.223-5.929
		c 6.998-3.954, 12.476-9.369, 16.428-16.244c 3.954-6.877, 5.93-13.321, 5.93-19.331c0.00-10.953-3.048-22.071-9.141-33.352
		c-8.318-15.236-26.477-36.482-54.474-63.739l 36.194,0.00 c 8.893,0.00, 14.678,0.371, 17.354,1.111c 2.676,0.741, 4.88,1.996, 6.609,3.768
		c 1.73,1.77, 3.994,5.498, 6.794,11.18l 4.447,0.00 L 482.573,288.00z" />
<glyph unicode="&#xe02e;" d="M 232.058,132.629L 472.82,132.629L 472.82,96.961L 232.058,96.961zM 221.968,15.492L 112.484,15.492 L 112.484,432.508 l 199.779,0.00 l0.00-78.527 c0.00-4.488, 3.639-8.127, 8.127-8.127l 79.13,0.00 L 399.519,241.778 l 16.254,0.00 L 415.773,353.982 c0.00,0.003-0.001,0.007-0.001,0.01
	c-0.001,0.269-0.014,0.539-0.042,0.808c-0.01,0.09-0.026,0.178-0.04,0.267c-0.022,0.173-0.045,0.346-0.078,0.518
	c-0.025,0.127-0.063,0.25-0.093,0.375c-0.033,0.132-0.063,0.265-0.104,0.397c-0.037,0.122-0.084,0.24-0.127,0.36
	c-0.047,0.13-0.089,0.262-0.143,0.391c-0.046,0.109-0.101,0.212-0.149,0.319c-0.063,0.134-0.122,0.27-0.192,0.401
	c-0.054,0.10-0.114,0.192-0.172,0.29c-0.077,0.131-0.151,0.264-0.238,0.392c-0.073,0.11-0.156,0.212-0.235,0.318
	c-0.078,0.107-0.152,0.216-0.238,0.319c-0.17,0.205-0.348,0.402-0.536,0.59c-0.004,0.003-0.007,0.008-0.011,0.012l-87.256,86.654
	c-0.06,0.059-0.123,0.108-0.185,0.165c-0.132,0.123-0.263,0.247-0.402,0.361c-0.103,0.083-0.207,0.156-0.313,0.234
	c-0.107,0.08-0.214,0.164-0.326,0.239c-0.118,0.079-0.241,0.148-0.363,0.22c-0.106,0.063-0.21,0.129-0.319,0.188
	c-0.123,0.066-0.25,0.123-0.376,0.182c-0.114,0.054-0.229,0.11-0.345,0.157c-0.123,0.051-0.249,0.093-0.375,0.138
	c-0.125,0.044-0.248,0.091-0.375,0.129s-0.256,0.067-0.385,0.10c-0.128,0.031-0.255,0.067-0.387,0.092
	c-0.146,0.028-0.292,0.047-0.44,0.067c-0.115,0.016-0.23,0.038-0.346,0.049c-0.203,0.019-0.407,0.026-0.614,0.03
	c-0.06,0.001-0.116,0.009-0.178,0.009l-0.023,0.00 c-0.002,0.00-0.004,0.00-0.006,0.00L 104.357,448.763 c-4.488,0.00-8.127-3.639-8.127-8.127l0.00-433.27 c0.00-4.488, 3.639-8.127, 8.127-8.127
	L 221.968-0.761 L 221.968,15.492 z M 328.516,421.11l 59.411-59.002l-59.411,0.00 L 328.516,421.11 z" />
<glyph unicode="&#xe02f;" d="M 230.923,231.247l 89.433-132.714c 14.827-22.00, 25.384-35.354, 31.683-40.055c 6.295-4.703, 13.75-7.532, 22.358-8.489L 374.398,41.143 
		L 216.338,41.143 l0.00,8.847 c 12.591,0.957, 20.721,2.87, 24.39,5.739c 3.665,2.87, 5.50,6.375, 5.50,10.521c0.00,2.87-0.56,5.419-1.672,7.652
		c-2.235,4.783-7.813,13.709-16.74,26.782l-47.347,70.064l-49.498-60.499c-14.826-18.334-22.238-30.769-22.238-37.304
		c0.00-4.626, 1.913-8.93, 5.739-12.913c 3.826-3.986, 9.482-6.856, 16.978-8.609c 3.347-0.957, 10.20-1.435, 20.564-1.435L 152.014,41.143 L 27.429,41.143 l0.00,8.847 
		c 14.187,2.069, 25.347,5.897, 33.478,11.478c 10.678,7.331, 25.587,22.635, 44.717,45.912l 64.324,78.433L 87.449,307.05
		c-13.551,19.925-21.283,31.004-23.195,33.238c-4.304,5.261-8.529,9.005-12.674,11.239c-4.148,2.231-9.886,3.905-17.217,5.021l0.00,8.847 
		l 160.932,0.00 l0.00-8.847 l-8.129,0.00 c-9.247,0.00-15.703-1.475-19.37-4.423c-3.669-2.951-5.50-6.658-5.50-11.119c0.00-3.509, 0.557-6.539, 1.674-9.087
		l 16.499-24.869l 40.173-61.217l 34.195,41.847c 17.535,21.521, 26.305,36.587, 26.305,45.195c0.00,4.304-1.238,8.286-3.706,11.956
		c-2.474,3.665-6.02,6.535-10.642,8.609c-4.626,2.07-11.798,3.109-21.521,3.109l0.00,8.847 l 119.323,0.00 l0.00-8.847 
		c-9.408-0.161-16.978-1.315-22.717-3.467c-5.738-2.153-11.877-6.18-18.413-12.076c-4.148-3.826-14.508-15.703-31.087-35.63
		L 230.923,231.247zM 482.573-13.714L 384.00-13.714 l0.00,2.718 c 30.221,35.986, 48.565,60.197, 55.03,72.632c 6.465,12.434, 9.698,24.582, 9.698,36.44
		c0.00,8.647-2.678,15.83-8.029,21.556c-5.355,5.723-11.90,8.585-19.64,8.585c-12.682,0.00-22.524-6.343-29.523-19.024l-4.569,1.606
		c 4.446,15.811, 11.197,27.504, 20.258,35.081c 9.058,7.575, 19.517,11.365, 31.375,11.365c 8.482,0.00, 16.222-1.976, 23.223-5.929
		c 6.998-3.954, 12.476-9.369, 16.428-16.244c 3.954-6.877, 5.93-13.321, 5.93-19.331c0.00-10.953-3.048-22.071-9.141-33.352
		c-8.318-15.236-26.477-36.482-54.474-63.739l 36.194,0.00 c 8.893,0.00, 14.678,0.371, 17.354,1.111c 2.676,0.741, 4.88,1.996, 6.609,3.768
		c 1.73,1.77, 3.994,5.498, 6.794,11.18l 4.447,0.00 L 482.573-13.714z" />
<glyph unicode="&#xe030;" d="M 360.635,267.662l0.00,57.806 c-4.145,89.20-103.104,82.452-103.104,82.452C 150.396,411.75, 148.317,318.14, 148.317,318.14l0.00-170.033 
		c-27.113-56.883-50.794,0.00-50.794,0.00L 97.524,219.937 L 18.286,219.937 l0.00-94.489 c 6.002-85.525, 104.827-85.506, 104.827-85.506c 97.343-0.019, 105.275,84.984, 105.275,84.984
		l-0.034,182.22c 27.587,32.792, 53.407,0.00, 53.407,0.00l-0.003-40.686l 33.56-12.754L 360.635,267.662zM 410.413,211.869l0.00-63.762 c-26.413-45.562-50.794,0.00-50.794,0.00L 359.619,213.902 l-48.383-16.888L 280.381,212.086l0.00-82.556 c 6.049-92.02, 104.635-89.602, 104.635-89.602
		c 104.635,2.253, 104.635,78.955, 104.635,78.955L 489.651,212.48 L 410.413,211.869z" />
<glyph unicode="&#xe031;" d="M 488.734,186.347c-6.017-13.997-12.208-23.659-18.566-28.977c-9.026-7.755-19.204-11.628-30.54-11.628
	c-15.852,0.00-28.432,7.258-37.742,21.777c-5.327,8.305-9.124,17.341-11.404,27.102l 102.109,0.00 l0.00,30.21 L 388.158,224.832 
	c 1.06,15.379, 5.661,28.003, 13.816,37.868c 7.054,8.561, 16.368,12.842, 27.938,12.842c 7.172,0.00, 12.78-1.734, 16.831-5.205
	c 4.045-3.587, 6.39-8.791, 7.027-15.618c 0.634-6.827, 1.936-11.452, 3.905-13.882c 3.468-4.398, 8.615-6.594, 15.444-6.594
	c 5.09,0.00, 9.048,1.359, 11.886,4.078c 2.834,2.716, 4.253,6.274, 4.253,10.672c0.00,8.907-5.032,17.496-15.098,25.77
	c-10.063,8.27-22.906,12.407-38.524,12.407c-20.823,0.00-38.668-7.809-53.531-23.427c-10.233-10.75-16.943-23.721-20.132-38.91l-27.601,0.00 
	c-2.14,16.851-7.884,30.668-17.255,41.426c-12.146,13.94-26.377,20.91-42.688,20.91c-17.815,0.00-34.418-10.702-49.801-32.104
	l-0.001,0.00 L 224.627,370.286 l-7.809,0.00 l-47.721-19.435l 2.429-6.073c 4.859,1.848, 8.907,2.775, 12.148,2.775c 2.776,0.00, 5.09-0.755, 6.941-2.257
	c 1.849-1.505, 3.209-4.338, 4.077-8.503c 0.869-4.164, 1.302-15.271, 1.302-33.317l0.00-78.648 l-53.966,0.00 l0.00,7.851 
	c0.00,15.383-1.041,25.564-3.124,30.54c-3.24,7.634-8.273,13.245-15.097,16.831c-9.024,4.743-20.593,7.115-34.706,7.115
	c-18.394,0.00-32.683-4.166-42.861-12.495c-10.181-8.329-15.271-17.469-15.271-27.416c0.00-5.206, 1.358-9.314, 4.078-12.319
	c 2.716-3.01, 6.218-4.511, 10.499-4.511c 4.395,0.00, 7.952,1.446, 10.672,4.338c 2.717,2.89, 4.079,6.998, 4.079,12.321l-0.347,10.064
	c0.00,5.09, 2.196,9.602, 6.595,13.535c 4.277,3.932, 10.064,5.90, 17.352,5.90c 9.601,0.00, 16.919-2.949, 21.951-8.849
	c 5.032-5.90, 7.548-16.775, 7.548-32.623l0.00-6.247 c-3.769-1.373-7.373-2.715-10.845-4.032L 19.302,224.831 l0.00-30.21 l 22.698,0.00 
	c-5.157-4.279-9.128-8.713-11.897-13.307c-3.471-5.669-5.206-12.378-5.206-20.127c0.00-12.264, 3.559-22.155, 10.674-29.673
	c 7.113-7.522, 16.165-11.279, 27.156-11.279c 7.055,0.00, 13.708,1.448, 19.956,4.339c 4.165,1.968, 14.402,9.254, 30.713,21.864
	c 0.114-9.487, 1.85-16.199, 5.205-20.131c 3.354-3.929, 7.865-5.897, 13.534-5.897c 11.799,0.00, 24.177,8.674, 37.135,26.028l0.00,9.718 
	c-6.941-6.941-11.627-11.164-14.055-12.668c-1.388-0.811-3.009-1.214-4.859-1.214c-1.735,0.00-3.269,0.577-4.598,1.736
	c-1.332,1.155-2.286,3.439-2.863,6.853c-0.581,3.411-0.868,12.693-0.868,27.851l0.00,15.907 l 53.966,0.00 l0.00-55.818 
	c 9.948-6.712, 19.696-11.746, 29.24-15.097c 9.544-3.354, 18.942-5.033, 28.199-5.033c 19.781,0.00, 37.712,7.405, 53.794,22.212
	c 15.426,14.187, 24.487,32.105, 27.216,53.736l 25.616,0.00 c 1.30-21.963, 7.914-39.709, 19.876-53.213
	c 13.419-15.158, 29.153-22.734, 47.199-22.734c 15.156,0.00, 28.978,5.64, 41.472,16.919c 12.497,11.279, 20.881,27.387, 25.162,48.326
	L 488.734,186.347z M 113.395,157.717c-14.345-11.572-25.915-17.355-34.705-17.355c-6.479,0.00-12.208,2.747-17.179,8.243
	c-4.975,5.493-7.461,12.408-7.461,20.737c0.00,6.591, 1.966,12.667, 5.899,18.22c 1.697,2.397, 3.91,4.749, 6.579,7.058l 46.867,0.00 L 113.395,157.717 z
	 M 224.626,243.958c 7.171,6.941, 13.07,11.567, 17.70,13.882c 6.131,3.125, 12.259,4.686, 18.393,4.686
	c 11.567,0.00, 21.892-5.465, 30.973-16.398c 4.80-5.778, 8.318-12.886, 10.581-21.298l-77.648,0.00 L 224.625,243.958 z M 291.693,148.693
	c-9.081-11.572-18.887-17.355-29.411-17.355c-6.596,0.00-13.047,1.475-19.348,4.425c-6.306,2.951-12.408,7.313-18.307,13.101l0.00,45.755 
	l 80.617,0.00 C 304.651,174.76, 300.136,159.446, 291.693,148.693z" />
<glyph unicode="&#xe032;" d="M 162.918-3.175L 29.841,129.902L 29.841,318.098L 162.918,451.175L 351.114,451.175L 484.19,318.098L 484.19,129.902L 351.114-3.175 z" />
<glyph unicode="&#xe033;" d="M 366.222,470.095L 218.921,304.764L 218.921,470.349L 145.778,470.349L 145.778-23.365L 218.921-23.365L 218.921,141.712L 366.222-23.619 z" />
<glyph unicode="&#xe034;" d="M 377.428,170.488l 120.705,114.844l-166.886,23.453L 256.925,456.041l-74.325-147.254L 15.716,285.333l 0.931-0.885
	l-0.931-0.131l 120.552-114.699l-28.429-161.307l 0.197,0.102l-0.197-1.117l 150.077,76.949l 148.095-75.933L 377.428,170.488z
	 M 471.451,276.773L 364.288,174.811l 25.461-144.463l-132.823,68.104L 256.925,427.97 l 0.256,0.508l 66.056-130.876L 471.451,276.773z" />
<glyph unicode="&#xe035;" d="M 406.011,8.311l-149.085,76.441l-149.087-76.441l 28.583,162.178L 15.716,285.333l 166.886,23.453
			l 74.325,147.254l 74.322-147.254l 166.886-23.453l-120.705-114.844L 406.011,8.311z M 42.397,276.773L 149.562,174.811l-25.461-144.463
			l 132.825,68.104l 132.823-68.104L 364.288,174.811l 107.163,101.961l-148.213,20.829L 256.925,428.986l-66.315-131.384L 42.397,276.773z
	M 256.00,23.151" />
<glyph unicode="&#xe036;" d="M 256.925,442.513L 327.243,303.194L 484.793,281.052L 370.858,172.65L 397.88,19.329L 256.925,91.602L 115.969,19.329L 142.991,172.65L 29.057,281.052L 186.606,303.194 		zM 406.011,8.311l-149.085,76.441l-149.087-76.441l 28.583,162.178L 15.716,285.333l 166.886,23.453
			l 74.325,147.254l 74.322-147.254l 166.886-23.453l-120.705-114.844L 406.011,8.311z M 42.397,276.773L 149.562,174.811l-25.461-144.463
			l 132.825,68.104l 132.823-68.104L 364.288,174.811l 107.163,101.961l-148.213,20.829L 256.925,428.986l-66.315-131.384L 42.397,276.773z
	M 256.00,23.151" />
<glyph unicode="&#xe037;" d="M 432.627,398.488l 4.022,2.354l0.00,30.984 l-4.245,2.307c-6.044,3.285-10.972,8.198-14.252,14.205L 415.842,452.571l-27.955,0.00 
		l-2.31-4.233c-6.238-11.43-18.245-18.53-31.336-18.53c-13.09,0.00-25.097,7.10-31.336,18.531L 320.594,452.571L 289.646,452.571 l-2.31-4.233
		c-6.238-11.43-18.245-18.53-31.336-18.53c-13.09,0.00-25.097,7.10-31.336,18.531L 222.353,452.571l-28.297,0.00 l-2.191-4.683
		c-5.818-12.438-18.50-20.476-32.31-20.476s-26.492,8.038-32.31,20.476L 125.055,452.571L 94.961,452.571 l-2.31-4.233
		c-3.083-5.649-7.675-10.369-13.276-13.647l-4.022-2.354l0.00-30.983 l 4.245-2.308c 11.422-6.21, 18.518-18.081, 18.518-30.979
		c0.00-12.898-7.096-24.768-18.518-30.978l-4.245-2.308l0.00-30.471 l 4.245-2.308c 11.422-6.21, 18.518-18.081, 18.518-30.978
		c0.00-12.899-7.096-24.768-18.518-30.979l-4.245-2.308l0.00-30.024 l 4.468-2.253c 12.024-6.065, 19.494-18.126, 19.494-31.479
		c0.00-13.353-7.47-25.415-19.494-31.48l-4.467-2.253l0.00-28.38 l 4.467-2.253c 12.024-6.066, 19.494-18.128, 19.494-31.48
		s-7.47-25.415-19.495-31.48l-4.467-2.253l0.00-30.024 l 4.245-2.307c 5.515-2.998, 10.152-7.406, 13.409-12.746L 95.38-4.571l 31.004,0.00 l 2.408,3.67
		c 6.608,10.079, 17.773,16.098, 29.865,16.098c 12.092,0.00, 23.257-6.018, 29.865-16.098l 2.408-3.67l 30.783,0.00 l 2.334,4.12
		c 6.309,11.13, 18.207,18.045, 31.054,18.045c 12.847,0.00, 24.746-6.915, 31.054-18.046l 2.335-4.119l 31.462,0.00 l 2.335,4.119
		c 6.31,11.131, 18.21,18.046, 31.055,18.046s 24.746-6.915, 31.054-18.045L 386.733-4.571l 31.086,0.00 l 2.376,3.897
		c 3.044,4.993, 7.344,9.208, 12.433,12.187l 4.021,2.354l0.00,32.053 l-3.799,2.39c-10.374,6.527-16.568,17.676-16.568,29.825
		c0.00,12.15, 6.194,23.30, 16.568,29.826l 3.799,2.39L 436.649,141.765 l-3.799,2.39c-10.374,6.527-16.568,17.676-16.568,29.826
		c0.00,12.149, 6.194,23.299, 16.568,29.825l 3.799,2.39l0.00,32.054 l-4.022,2.354c-10.821,6.333-17.544,17.99-17.544,30.42
		s 6.722,24.086, 17.544,30.42l 4.022,2.354l0.00,31.495 l-4.022,2.354c-10.821,6.333-17.544,17.989-17.544,30.42
		S 421.806,392.154, 432.627,398.488z M 420.395,409.904c-13.409-9.628-21.566-25.255-21.566-41.836c0.00-16.58, 8.156-32.207, 21.566-41.836
		l0.00-13.373 c-13.409-9.628-21.566-25.255-21.566-41.836c0.00-16.581, 8.156-32.207, 21.566-41.836l0.00-14.252 
		c-12.833-9.73-20.367-24.727-20.367-40.955c0.00-16.23, 7.535-31.226, 20.367-40.956l0.00-13.934 
		c-12.833-9.73-20.367-24.727-20.367-40.956c0.00-16.229, 7.535-31.225, 20.367-40.955l0.00-14.25 c-4.376-3.138-8.249-6.942-11.45-11.247
		l-13.007,0.00 c-9.636,13.781-25.545,22.164-42.596,22.164c-17.049,0.00-32.959-8.383-42.597-22.164l-13.051,0.00 
		c-9.636,13.781-25.545,22.164-42.596,22.164s-32.959-8.383-42.596-22.164l-13.031,0.00 c-9.801,12.455-24.749,19.768-40.819,19.768
		c-16.069,0.00-31.017-7.313-40.818-19.768l-13.584,0.00 c-3.498,4.711-7.781,8.803-12.651,12.089l0.00,10.901 
		c 14.899,9.427, 23.961,25.654, 23.961,43.461c0.00,17.808-9.062,34.035-23.961,43.461l0.00,8.923 c 14.90,9.426, 23.961,25.653, 23.961,43.461
		c0.00,17.809-9.062,34.036-23.961,43.46l0.00,10.90 c 14.153,9.542, 22.764,25.481, 22.764,42.682s-8.611,33.14-22.764,42.682l0.00,11.681 
		c 14.153,9.542, 22.764,25.481, 22.764,42.682s-8.611,33.14-22.764,42.682L 91.601,423.272 c 4.989,3.572, 9.298,7.99, 12.729,13.046l 10.684,0.00 
		c 9.283-15.437, 26.234-25.159, 44.538-25.159c 18.304,0.00, 35.255,9.722, 44.538,25.159l 8.885,0.00 c 9.587-14.154, 25.653-22.764, 43.022-22.764
		c 17.37,0.00, 33.436,8.61, 43.023,22.764l 12.197,0.00 c 9.587-14.154, 25.653-22.764, 43.022-22.764c 17.37,0.00, 33.437,8.61, 43.023,22.764l 9.203,0.00 
		c 3.709-5.478, 8.43-10.184, 13.929-13.889L 420.394,409.904 zM 139.683,48.762l 234.667,0.00 l0.00,347.429 l-234.667,0.00 L 139.683,48.762 z M 155.937,379.937l 202.159,0.00 l0.00-223.523 c-13.228,21.63-40.83,47.273-74.64,56.639
		c 21.71,9.772, 36.842,31.60, 36.842,56.937c0.00,34.444-27.96,62.405-62.406,62.405c-34.444,0.00-62.403-27.961-62.403-62.405
		c0.00-25.132, 14.886-46.807, 36.313-56.694c-34.495-9.235-62.655-35.493-75.864-57.422L 155.937,379.937 z" />
<glyph unicode="&#xe038;" d="M 27.937,452.063L 484.063,452.063L 484.063-6.095L 27.937-6.095z" />
<glyph unicode="&#xe039;" d="M 62.259,351.028l-34.84,6.285c 3.915,14.026, 10.658,24.41, 20.221,31.152c 9.564,6.74, 23.773,10.111, 42.628,10.111
		c 17.124,0.00, 29.876-2.029, 38.257-6.08c 8.38-4.054, 14.278-9.201, 17.693-15.439c 3.415-6.241, 5.123-17.693, 5.123-34.363l-0.41-44.814
		c0.00-12.753, 0.615-22.157, 1.845-28.214c 1.229-6.059, 3.529-12.549, 6.90-19.47l-37.983,0.00 c-1.004,2.549-2.233,6.329-3.689,11.34
		c-0.638,2.276-1.093,3.778-1.366,4.508c-6.558-6.377-13.573-11.158-21.041-14.346c-7.47-3.188-15.439-4.782-23.911-4.782
		c-14.939,0.00-26.711,4.051-35.319,12.16c-8.607,8.106-12.911,18.353-12.911,30.741c0.00,8.197, 1.958,15.507, 5.875,21.929
		c 3.915,6.421, 9.404,11.34, 16.464,14.756c 7.058,3.416, 17.236,6.398, 30.537,8.95c 17.943,3.369, 30.377,6.511, 37.30,9.427l0.00,3.826 
		c0.00,7.378-1.823,12.637-5.465,15.781c-3.644,3.142-10.52,4.714-20.631,4.714c-6.832,0.00-12.16-1.345-15.986-4.031
		C 67.724,362.481, 64.626,357.767, 62.259,351.028z M 113.631,319.876c-4.919-1.64-12.707-3.599-23.364-5.876
		c-10.658-2.278-17.625-4.508-20.905-6.695c-5.01-3.553-7.514-8.062-7.514-13.526c0.00-5.376, 2.002-10.021, 6.011-13.936
		c 4.008-3.917, 9.107-5.876, 15.302-5.876c 6.921,0.00, 13.526,2.276, 19.812,6.832c 4.646,3.461, 7.696,7.696, 9.154,12.707
		c 1.001,3.279, 1.502,9.518, 1.502,18.718L 113.629,319.876 zM 187.548,250.195L 187.548,450.494 l 38.393,0.00 l0.00-72.141 c 11.84,13.48, 25.868,20.222, 42.082,20.222c 17.67,0.00, 32.29-6.40, 43.858-19.197
		c 11.567-12.798, 17.352-31.175, 17.352-55.13c0.00-24.777-5.899-43.858-17.693-57.247c-11.797-13.39-26.12-20.085-42.97-20.085
		c-8.29,0.00-16.464,2.073-24.525,6.216c-8.062,4.145-15.009,10.269-20.837,18.377l0.00-21.314 L 187.548,250.194 z M 225.668,325.888
		c0.00-15.03, 2.368-26.143, 7.104-33.338c 6.649-10.202, 15.484-15.302, 26.507-15.302c 8.471,0.00, 15.688,3.621, 21.655,10.862
		c 5.965,7.241, 8.949,18.649, 8.949,34.226c0.00,16.577-3.005,28.532-9.017,35.865c-6.011,7.332-13.71,10.999-23.09,10.999
		c-9.202,0.00-16.852-3.576-22.955-10.726C 228.719,351.322, 225.668,340.46, 225.668,325.888zM 486.632,352.394l-37.847-6.832c-1.277,7.56-4.167,13.254-8.676,17.079c-4.509,3.826-10.363,5.739-17.557,5.739
		c-9.563,0.00-17.194-3.303-22.885-9.906c-5.694-6.604-8.539-17.649-8.539-33.133c0.00-17.215, 2.891-29.376, 8.677-36.481
		c 5.782-7.104, 13.547-10.657, 23.296-10.657c 7.286,0.00, 13.253,2.07, 17.897,6.217c 4.646,4.144, 7.925,11.272, 9.839,21.382l 37.709-6.421
		c-3.916-17.307-11.432-30.379-22.543-39.213c-11.114-8.837-26.007-13.253-44.677-13.253c-21.226,0.00-38.144,6.695-50.758,20.085
		c-12.617,13.389-18.924,31.924-18.924,55.608c0.00,23.955, 6.329,42.605, 18.992,55.95c 12.66,13.342, 29.784,20.017, 51.372,20.017
		c 17.671,0.00, 31.721-3.804, 42.151-11.408C 474.584,379.56, 482.075,367.971, 486.632,352.394zM 415.775,202.584L 378.596,239.765L 196.844,58.013L 133.405,121.452L 96.225,84.27L 196.023-15.528L 196.849-14.703L 197.67-15.522 z" />
<glyph unicode="&#xe03a;" d="M 256.17,452.405C 129.559,452.405, 26.921,349.767, 26.921,223.157c0.00-126.611, 102.639-229.25, 229.249-229.25
	c 126.611,0.00, 229.249,102.639, 229.249,229.25C 485.419,349.767, 382.781,452.405, 256.17,452.405z M 330.16,331.178
	c 19.076,0.00, 34.54-15.464, 34.54-34.54c0.00-19.076-15.464-34.54-34.54-34.54s-34.54,15.464-34.54,34.54C 295.62,315.714, 311.084,331.178, 330.16,331.178z
	 M 184.551,331.178c 19.076,0.00, 34.54-15.464, 34.54-34.54s-15.464-34.54-34.54-34.54s-34.54,15.464-34.54,34.54S 165.475,331.178, 184.551,331.178z M 255.999,25.062
	c-100.611,0.00-182.171,72.468-182.171,161.863l 364.344,0.00 C 438.171,97.53, 356.611,25.062, 255.999,25.062z" />
<glyph unicode="&#xe03b;" d="M 404.184,423.909L 455.902,372.188L 106.798,23.084L 55.079,74.803z" />
<glyph unicode="&#xe03c;" d="M 459.96,161.773c 5.846,19.747, 9.001,40.656, 9.001,62.306c0.00,120.71-97.584,218.565-217.959,218.565
	c-21.52,0.00-42.306-3.143-61.941-8.969c-40.265,26.356-94.814,21.854-130.189-13.521C 24.176,385.457, 19.20,332.324, 43.89,292.306
	c-7.029-21.469-10.846-44.401-10.846-68.228c0.00-120.71, 97.584-218.566, 217.959-218.566c 21.999,0.00, 43.229,3.28, 63.25,9.36
	c 40.79-34.462, 101.868-32.497, 140.312,5.947C 493.212,59.465, 494.99,120.986, 459.96,161.773z M 249.501,53.232
	c-33.139,0.00-61.561,5.708-85.265,17.124c-8.325,3.963-15.026,9.353-20.097,16.172c-5.075,6.819-7.612,14.586-7.612,23.307
	c0.00,8.565, 3.211,16.293, 9.634,23.19c 6.42,6.898, 13.913,10.347, 22.475,10.347c 7.293,0.00, 13.635-1.151, 19.027-3.449l 25.805-9.631
	c 12.526-4.917, 24.695-7.373, 36.508-7.373c 10.624,0.00, 20.098,2.99, 28.423,8.978c 8.323,5.986, 12.486,14.21, 12.486,24.677
	c0.00,10.62-4.043,18.55-12.131,23.782c-6.659,4.202-13.16,7.354-19.502,9.456c-6.344,2.10-17.205,5.448-32.584,10.049
	c-19.901,5.786-35.875,11.851-47.925,18.195c-12.052,6.341-21.703,15.319-28.957,26.934c-7.254,11.613-10.881,26.775-10.881,45.487
	c0.00,20.85, 5.47,39.164, 16.41,54.94c 10.942,15.775, 25.488,27.866, 43.644,36.271c 18.154,8.402, 37.459,12.606, 57.914,12.606
	c 12.288,0.00, 25.389-1.329, 39.303-3.983c 13.911-2.657, 26.022-7.394, 36.33-14.21c 10.304-6.82, 15.459-16.016, 15.459-27.59
	c0.00-10.149-3.209-18.79-9.631-25.924c-6.421-7.135-14.587-10.703-24.497-10.703c-4.283,0.00-8.01,0.515-11.179,1.546l-13.677,4.876
	c-11.815,4.201-23.032,6.302-33.654,6.302c-9.276,0.00-17.761-2.339-25.449-7.016c-7.691-4.679-11.535-11.259-11.535-19.742
	c0.00-13.318, 10.068-22.593, 30.206-27.827l 19.978-5.351c 31.395-8.486, 56.289-19.96, 74.681-34.428
	c 18.392-14.468, 31.233-35.459, 31.233-62.967c0.00-33.616-7.479-57.337-31.351-79.439c-11.941-11.055-24.835-20.732-41.444-26.281
	C 285.038,56.007, 267.656,53.232, 249.501,53.232z" />
<glyph unicode="&#xe03d;" d="M 19.471,186.612L 105.894,186.612L 105.894,14.561L 19.471,14.561zM 147.915,259.386L 234.337,259.386L 234.337,14.561L 147.915,14.561zM 277.153,333.884L 363.572,333.884L 363.572,14.562L 277.153,14.562zM 406.785,405.672L 493.205,405.672L 493.205,14.561L 406.785,14.561z" />
<glyph unicode="&#xe03e;" d="M 19.471,186.612L 105.894,186.612L 105.894,14.561L 19.471,14.561zM 147.915,259.386L 234.337,259.386L 234.337,14.561L 147.915,14.561zM 277.153,333.884L 363.572,333.884L 363.572,14.562L 277.153,14.562zM 406.785,69.268L 493.205,69.268L 493.205,14.561L 406.785,14.561z" />
<glyph unicode="&#xe03f;" d="M 19.471,186.612L 105.894,186.612L 105.894,14.561L 19.471,14.561zM 147.915,259.386L 234.337,259.386L 234.337,14.561L 147.915,14.561zM 277.153,69.268L 363.572,69.268L 363.572,14.561L 277.153,14.561zM 406.785,69.268L 493.205,69.268L 493.205,14.561L 406.785,14.561z" />
<glyph unicode="&#xe040;" d="M 19.471,186.612L 105.894,186.612L 105.894,14.561L 19.471,14.561zM 147.915,69.268L 234.337,69.268L 234.337,14.561L 147.915,14.561zM 277.153,69.268L 363.572,69.268L 363.572,14.561L 277.153,14.561zM 406.785,69.268L 493.205,69.268L 493.205,14.561L 406.785,14.561z" />
<glyph unicode="&#xe041;" d="M 359.045,168.692c0.00,0.00-111.153-21.406-117.039,57.798c0.00,0.00, 12.308,134.16-113.989,133.789L 26.337,360.279 l0.00-75.992 
		c0.00,0.00, 155.196,27.829, 142.352-55.657c0.00,0.00-6.421-123.086, 101.681-123.086l 88.676,0.00 l0.00-42.439 l 126.619,73.104l-126.619,73.104L 359.045,168.692 zM 259.91,261.435c 32.917,30.612, 99.135,17.873, 99.135,17.873l0.00-40.62 l 126.619,73.103L 359.045,384.897l0.00-42.439 l-88.676,0.00 
		c-17.51,0.00-31.994-3.247-44.005-8.662C 248.354,312.816, 256.811,283.833, 259.91,261.435zM 151.059,174.901c-38.631-26.62-124.723-11.187-124.723-11.187l0.00-75.993 l 101.68,0.00 c 30.795-0.09, 53.321,7.836, 69.822,19.848
		C 169.879,122.941, 156.973,150.853, 151.059,174.901z" />
<glyph unicode="&#xe042;" d="M 178.286,224.00A77.714,77.714 180.00 1,0 333.714,224A77.714,77.714 180.00 1,0 178.286,224zM 256.00,90.552c-66.50,0.00-121.791,48.896-131.82,112.623l-2.783,0.00 L 83.167,203.175 L 18.794,203.175 l0.00-39.619 l 73.964,0.00 
		C 117.376,97.274, 181.254,49.917, 256.00,49.917c 88.943,0.00, 162.509,67.051, 172.834,153.258L 387.82,203.175 
		C 377.791,139.448, 322.50,90.552, 256.00,90.552zM 419.989,282.413C 395.931,349.758, 331.508,398.084, 256.00,398.084c-89.641,0.00-163.663-68.106-173.066-155.29l 40.948,0.00 
		c 9.162,64.716, 64.913,114.655, 132.118,114.655c 67.204,0.00, 122.956-49.939, 132.119-114.655l 2.484,0.00 l 38.462,0.00 L 493.206,242.794 l0.00,39.619 L 419.989,282.413 z" />
<glyph unicode="&#xe043;" d="M 311.365,372.317c0.00-0.624, 0.031-1.241, 0.047-1.861L 173.684,281.966c-12.71,10.434-28.973,16.701-46.70,16.701
	c-40.677,0.00-73.651-32.974-73.651-73.651s 32.974-73.651, 73.651-73.651c 17.419,0.00, 33.415,6.061, 46.025,16.171l 138.379-88.91
	c-0.003-0.305-0.022-0.606-0.022-0.911c0.00-40.677, 32.974-73.651, 73.651-73.651s 73.651,32.974, 73.651,73.651s-32.974,73.651-73.651,73.651
	c-20.651,0.00-39.305-8.51-52.679-22.201l-132.488,85.124c 0.511,3.503, 0.786,7.084, 0.786,10.729c0.00,3.337-0.243,6.616-0.674,9.837
	l 132.945,85.418C 346.237,306.924, 364.662,298.667, 385.016,298.667c 40.677,0.00, 73.651,32.974, 73.651,73.651S 425.692,445.968, 385.016,445.968
	S 311.365,412.994, 311.365,372.317z" />
<glyph unicode="&#xe044;" d="M 356.753,260.752L 356.753,314.149 l-31.608,20.095c-1.977,5.677-4.308,11.189-6.965,16.509l 7.097,32.186l-37.757,37.757l-31.783-7.077
	c-5.515,2.801-11.242,5.245-17.145,7.311l-19.903,31.306L 165.293,452.236 l-20.028-31.358c-5.854-2.057-11.534-4.485-17.007-7.263L 96.538,420.677
	L 58.781,382.921l 7.078-32.10c-2.673-5.346-5.016-10.883-7.003-16.589l-31.592-20.084l0.00-53.397 l 32.003-20.439
	c 1.947-5.437, 4.218-10.716, 6.791-15.819l-7.237-32.497L 96.579,154.24l 32.903,7.256c 4.906-2.433, 9.971-4.588, 15.178-6.444
	l 20.633-32.306l 53.397,0.00 l 20.504,32.252c 5.258,1.869, 10.372,4.039, 15.321,6.493l 32.964-7.269l 37.757,37.757l-7.256,32.582
	c 2.557,5.078, 4.814,10.332, 6.753,15.739L 356.753,260.752z M 192.002,196.404c-50.509,0.00-91.455,40.946-91.455,91.455
	c0.00,50.509, 40.947,91.455, 91.455,91.455s 91.455-40.946, 91.455-91.455C 283.457,237.35, 242.511,196.404, 192.002,196.404zM 485.257,77.036l0.00,31.775 l-18.81,11.958c-1.176,3.379-2.564,6.658-4.146,9.825l 4.223,19.153l-22.467,22.467l-18.913-4.212
	c-3.281,1.668-6.691,3.121-10.203,4.351L 403.098,190.983l-31.774,0.00 l-11.918-18.661c-3.483-1.223-6.863-2.668-10.121-4.322l-18.876,4.203
	l-22.467-22.467l 4.212-19.101c-1.589-3.182-2.985-6.476-4.167-9.872l-18.80-11.952l0.00-31.775 l 19.045-12.163
	c 1.158-3.235, 2.51-6.377, 4.042-9.414l-4.307-19.337l 22.468-22.469l 19.58,4.318c 2.919-1.448, 5.934-2.731, 9.033-3.835l 12.278-19.223
	L 403.098-5.087 l 12.202,19.193c 3.13,1.112, 6.172,2.404, 9.117,3.864l 19.618-4.326l 22.468,22.468l-4.318,19.389
	c 1.522,3.022, 2.865,6.149, 4.02,9.365L 485.257,77.036z M 387.217,38.743c-30.058,0.00-54.422,24.367-54.422,54.424
	c0.00,30.056, 24.365,54.421, 54.422,54.421c 30.057,0.00, 54.422-24.366, 54.422-54.421C 441.64,63.11, 417.274,38.743, 387.217,38.743z" />
<glyph unicode="&#xe045;" d="M 484.754,186.364l0.00,74.139 l-43.887,27.901c-2.746,7.883-5.982,15.535-9.672,22.922l 9.854,44.689L 388.625,408.442l-44.129-9.827
	c-7.658,3.889-15.609,7.282-23.806,10.152l-27.635,43.469l-74.139,0.00 l-27.809-43.54c-8.129-2.857-16.015-6.226-23.614-10.086
	l-44.043,9.808l-52.424-52.424l 9.828-44.569c-3.712-7.422-6.966-15.111-9.725-23.035l-43.863-27.886l0.00-74.139 l 44.436-28.38
	c 2.704-7.548, 5.857-14.879, 9.429-21.965l-10.048-45.12l 52.424-52.425l 45.685,10.074c 6.81-3.377, 13.844-6.369, 21.075-8.947
	l 28.649-44.855l 74.139,0.00 l 28.469,44.782c 7.302,2.595, 14.402,5.609, 21.273,9.015l 45.77-10.093l 52.424,52.424l-10.074,45.24
	c 3.549,7.051, 6.685,14.346, 9.375,21.853L 484.754,186.364z M 256.00,97.017c-70.132,0.00-126.984,56.852-126.984,126.984c0.00,70.131, 56.852,126.984, 126.984,126.984
	c 70.131,0.00, 126.984-56.852, 126.984-126.984C 382.984,153.869, 326.131,97.017, 256.00,97.017z" />
<glyph unicode="&#xe046;" d="M 9.143,278.857M 477.482,35.846L 261.703,251.625c-0.013,0.012-0.025,0.022-0.039,0.035c 15.127,21.571, 24.01,47.839, 24.01,76.186
	C 285.675,401.218, 226.195,460.698, 152.822,460.698C 79.449,460.698, 19.968,401.218, 19.968,327.846c0.00-73.373, 59.48-132.853, 132.853-132.853
	c 24.479,0.00, 47.408,6.628, 67.101,18.175c 0.504-0.594, 1.018-1.185, 1.579-1.746l 215.779-215.778c 11.101-11.10, 29.10-11.10, 40.201,0.00
	C 488.581,6.744, 488.581,24.745, 477.482,35.846z M 150.501,233.281c-51.585,0.00-93.403,41.818-93.403,93.403
	c0.00,51.585, 41.818,93.402, 93.403,93.402s 93.404-41.818, 93.404-93.402C 243.905,275.099, 202.087,233.281, 150.501,233.281z" />
<glyph unicode="&#xe047;" d="M 348.982,460.511c-28.999,7.391-65.001-35.612-80.407-96.056l-12.581-50.243l-13.479,47.509
	c-17.279,59.934-54.601,101.80-83.356,93.509c-28.756-8.292-48.941-63.598-31.661-123.533
	c 13.914-48.256, 67.329-80.284, 98.389-86.608c 0.056-0.293, 0.121-0.58, 0.201-0.856l 7.578-19.197l-49.519-197.781
	c-4.567-28.083, 1.247-37.875, 10.873-40.327l 63.202,175.915l 69.553-176.18c 9.545,2.753, 15.051,12.721, 9.614,40.646l-56.418,198.86
	l 7.679,21.366c 0.069,0.279, 0.126,0.568, 0.172,0.862c 30.848,7.286, 83.247,40.622, 95.653,89.288
	C 399.882,398.128, 377.982,453.119, 348.982,460.511z M 152.264,335.699c-12.672,43.953-5.849,84.51, 15.238,90.59
	c 21.087,6.08, 37.575-24.62, 50.247-68.572c 12.672-43.953, 29.965-77.558, 8.878-83.639
	C 205.54,267.999, 164.936,291.748, 152.264,335.699z M 359.591,341.254c-11.298-44.325-51.136-69.661-72.404-64.242
	c-21.267,5.422-5.025,39.55, 6.274,83.874c 11.297,44.325, 26.815,75.863, 48.082,70.441C 362.81,425.906, 370.891,385.578, 359.591,341.254z
	" />
<glyph unicode="&#xe048;" d="M 27.598,452.402l0.00-457.143 l 394.403,0.00 l 62.74,50.582L 484.741,452.402 L 27.598,452.402 z M 76.36,418.878l-29.46,0.00 L 46.90,438.519 l 29.46,0.00 L 76.36,418.878 z M 412.614,11.175L 345.905,11.175 L 345.905,140.529 
	l-54.857,0.00 L 291.048,11.175 L 100.741,11.175 l0.00,161.524 l 311.873,0.00 L 412.614,11.175 z M 412.614,203.514l-311.873,0.00 L 100.741,426.328 l 311.873,0.00 L 412.614,203.514 z" />
<glyph unicode="&#xe049;" d="M 311.873,231.111l-4.063,5.418L 362.667,318.476l-75.852-62.646c0.00,0.00-5.809,2.102-16.91,3.386L 245.841,311.365l0.00-56.889 c0.00,0.00-9.196-4.644-15.916-11.175l-24.381,8.805
		l 16.254-20.317c0.00,0.00-4.91-7.789-4.741-18.963L 167.619,190.138l 54.349,0.17l 3.302-4.488l-57.608-86.729l 78.201,65.672c0.00,0.00, 6.01-2.306, 18.106-3.397
		L 286.476,112.592L 287.492,164.063c0.00,0.00, 9.625,5.20, 16.932,14.222l 24.381-8.805L 311.873,190.138c0.00,0.00, 2.655,6.917, 2.709,17.27L 366.053,231.111L 311.873,231.111 z M 228.571,191.154
		c-9.481,26.413-1.205,42.112, 8.631,49.893C 258.032,257.524, 279.365,250.074, 279.365,250.074L 249.566,224.00L 228.571,191.154z M 297.651,181.672
		c0.00,0.00-10.167-20.994-45.041-11.513L 279.365,195.217L 302.392,229.079C 302.392,229.079, 316.614,204.021, 297.651,181.672zM 266.643,411.45c-9.121,0.00-18.10-0.60-26.906-1.75C 239.737,409.769, 239.746,409.836, 239.746,409.905c0.00,3.126-0.922,6.024-2.493,8.42
		c 5.083,4.483, 8.249,10.759, 8.249,17.712C 245.503,449.657, 233.374,460.698, 218.413,460.698c-14.962,0.00-27.09-11.042-27.09-24.662
		c0.00-11.441, 8.559-21.058, 20.163-23.845C 211.376,411.444, 211.302,410.685, 211.302,409.905c0.00-2.019, 0.387-3.942, 1.082-5.698
		C 125.047,380.397, 60.833,300.525, 60.833,205.641c0.00-113.665, 92.145-205.81, 205.811-205.81
		c 113.665,0.00, 205.81,92.145, 205.81,205.81C 472.452,319.306, 380.307,411.45, 266.643,411.45z M 196.402,436.036
		c0.00,10.815, 9.63,19.583, 21.51,19.583c 11.88,0.00, 21.51-8.767, 21.51-19.583c0.00-5.32-2.339-10.137-6.12-13.667
		c-2.237,1.535-4.906,2.434-7.779,2.434c-5.409,0.00-10.11-3.162-12.516-7.818C 203.496,419.008, 196.402,426.76, 196.402,436.036z
		 M 266.23,56.042c-83.409,0.00-151.027,67.618-151.027,151.028C 115.203,290.478, 182.821,358.095, 266.23,358.095
		s 151.027-67.618, 151.027-151.026C 417.257,123.659, 349.64,56.042, 266.23,56.042zM 231.562,336.202L 234.265,313.287L 230.137,311.156L 230.20,308.40L 243.78,310.002L 243.742,312.971L 238.941,313.655L 237.037,329.807L 254.647,310.502L 260.139,312.14L 256.891,339.659L 261.027,341.529L 261.198,344.497L 247.669,342.901L 247.55,339.94L 252.509,339.011L 254.545,321.754L 236.893,341.63L 226.735,340.431L 226.752,337.407 	zM 298.615,94.182c-1.032,0.643-2.155,1.21-3.369,1.702s-2.418,0.927-3.61,1.308c-1.192,0.381-2.291,0.777-3.294,1.19
		c-1.005,0.41-1.841,0.925-2.503,1.542c-0.663,0.617-1.055,1.431-1.175,2.443c-0.119,1.011, 0.122,1.879, 0.723,2.603
		c 0.601,0.722, 1.424,1.146, 2.472,1.27c 1.045,0.123, 2.074-0.012, 3.086-0.405c 1.01-0.394, 1.762-0.901, 2.252-1.521l 1.328-4.172
		l 3.564-0.152l-0.308,8.36c-0.892,0.625-2.166,1.075-3.824,1.349c-1.658,0.274-3.207,0.324-4.647,0.154
		c-2.47-0.292-4.654-1.08-6.553-2.363c-3.269-2.211-4.683-5.168-4.247-8.871c 0.318-2.692, 1.578-4.752, 3.781-6.178
		c 0.961-0.634, 2.012-1.19, 3.154-1.662c 1.143-0.475, 2.274-0.893, 3.395-1.257c 1.121-0.363, 2.151-0.732, 3.09-1.108
		c 0.94-0.375, 1.726-0.857, 2.361-1.444c 0.634-0.584, 1.01-1.38, 1.128-2.383s-0.242-1.919-1.083-2.748
		c-0.84-0.828-1.861-1.316-3.062-1.458c-1.201-0.141-2.345-0.028-3.431,0.339c-1.085,0.367-1.931,0.898-2.534,1.592l-1.597,4.687
		l-3.663,0.115l 0.361-8.145c 0.917-1.005, 2.332-1.758, 4.244-2.264c 1.911-0.505, 4.041-0.618, 6.39-0.341
		c 2.349,0.276, 4.543,1.058, 6.582,2.342c 3.733,2.387, 5.378,5.467, 4.933,9.239C 302.237,90.672, 300.922,92.75, 298.615,94.182zM 397.845,249.833L 394.972,249.70L 394.417,244.70L 371.263,240.447L 368.886,244.355L 366.14,244.112L 371.306,215.994L 380.667,216.923L 380.468,220.152L 374.141,222.202L 372.133,233.13L 382.603,235.052L 383.618,229.524L 379.467,227.894L 380.702,224.46L 391.663,225.579L 390.301,229.12L 386.809,229.637L 385.709,235.623L 396.611,237.626L 398.515,227.259L 393.253,224.66L 393.372,221.286L 402.917,222.222 	zM 172.684,183.403L 150.812,185.195L 171.482,195.467L 169.111,201.439L 140.396,204.99L 138.587,207.985L 135.55,207.858L 138.137,194.801L 141.215,194.988L 141.559,199.65L 159.978,197.835L 139.883,187.861L 142.014,181.497L 163.968,179.828L 147.182,171.275L 145.208,175.107L 142.033,175.138L 145.229,159.007L 148.227,159.338L 148.804,163.623L 175.106,177.177 	z" />
<glyph unicode="&#xe04a;" d="M 256.17,452.405C 129.559,452.405, 26.921,349.767, 26.921,223.157c0.00-126.611, 102.639-229.25, 229.249-229.25
	c 126.611,0.00, 229.249,102.639, 229.249,229.25C 485.419,349.767, 382.781,452.405, 256.17,452.405z M 330.16,331.178
	c 19.076,0.00, 34.54-15.464, 34.54-34.54c0.00-19.076-15.464-34.54-34.54-34.54s-34.54,15.464-34.54,34.54C 295.62,315.714, 311.084,331.178, 330.16,331.178z
	 M 184.551,331.178c 19.076,0.00, 34.54-15.464, 34.54-34.54s-15.464-34.54-34.54-34.54s-34.54,15.464-34.54,34.54S 165.475,331.178, 184.551,331.178z M 125.066,90.757
	c0.00,64.335, 58.697,116.488, 131.103,116.488c 72.407,0.00, 131.105-52.153, 131.105-116.488L 125.066,90.757 z" />
<glyph unicode="&#xe04b;" d="M 272.569-21.841l-95.528,0.00 c0.00,92.444-75.265,168.328-167.897,168.328l0.00,95.529 C 155.33,242.015, 272.569,124.444, 272.569-21.841zM 499.81-22.857L 321.877-22.857 c0.00,172.543-140.191,312.732-312.734,312.732L 9.143,467.81 C 281.436,467.81, 499.81,249.436, 499.81-22.857zM 9.143,27.429A50.286,50.286 180.00 1,0 109.714,27.428999999999974A50.286,50.286 180.00 1,0 9.143,27.428999999999974z" />
<glyph unicode="&#xe04c;" d="M 17.444,191.493l 222.137,112.735l 104.714,104.716c0.00,0.00, 97.921,70.908, 146.545,46.596c0.00,0.00, 19.583-50.647-48.624-144.517
	L 337.50,206.309L 224.765-15.828l 12.007,121.408l-0.527-0.527l-11.48,11.48l-43.896-16.883l-47.947,47.948l 16.883,43.895
	l-11.48,11.481l 0.528,0.527L 17.444,191.493z" />
<glyph unicode="&#xe04d;" d="M 483.048,434.794L 483.048,245.59L 388.368,245.59L 362.068,152.284L 293.689,152.284L 293.689,245.59L 293.689,434.794 zM 219.327,434.794L 219.327,245.59L 124.647,245.59L 98.348,152.284L 29.968,152.284L 29.968,245.59L 29.968,434.794 z" />
<glyph unicode="&#xe04e;" d="M 229.114,451.048c-59.153,0.00-107.107-50.941-107.107-113.78l0.00-0.633 l 123.947,0.00 L 245.954,451.048 L 229.114,451.048 zM 399.134,331.556L 262.487,331.556 L 262.487,456.127 l 24.463,0.00 c 61.86,0.00, 112.185-53.32, 112.185-118.859L 399.135,331.556 z M 272.646,341.714l 116.246,0.00 
			C 386.695,399.599, 341.811,445.968, 286.951,445.968l-14.305,0.00 L 272.646,341.714 zM 122.007,109.708c0.00-62.838, 47.952-113.78, 107.107-113.78l 57.837,0.00 c 59.153,0.00, 107.106,50.942, 107.106,113.78L 394.056,313.752 
			L 122.007,313.752 L 122.007,109.708 z" />
<glyph unicode="&#xe04f;" d="M 438.349,470.095L 218.413,223.238L 438.349-23.619 zM 293.079,471.111L 73.143,224.254L 293.079-22.603 z" />
<glyph unicode="&#xe050;" d="M 258.457,404.972M 27.259,39.281L 393.651,39.281L 393.651,1.354L 27.259,1.354zM 27.259,294.603L 76.021,294.603L 76.021,39.281L 27.259,39.281zM 344.888,294.603L 393.651,294.603L 393.651,39.281L 344.888,39.281zM 27.259,332.53L 393.651,332.53L 393.651,294.603L 27.259,294.603zM 431.237,369.778L 480.00,369.778L 480.00,114.455L 431.237,114.455zM 113.608,407.704L 480.00,407.704L 480.00,369.778L 113.608,369.778zM 393.65,114.454L 480.00,114.454L 480.00,76.528L 393.65,76.528zM 76.021,407.704L 113.609,407.704L 113.609,332.53L 76.021,332.53z" />
<glyph unicode="&#xe051;" d="M 173.254,364.038c 50.02,32.017, 109.534,34.42, 160.575,6.969
		l-45.179-46.946l 131.88,14.953L 420.53,461.42 l-45.24-47.346c-72.977,45.985-160.388,45.717-233.518-1.219
		C 67.395,364.825, 30.802,282.567, 44.947,195.178l 57.466,9.053C 91.764,268.383, 118.979,328.617, 173.254,364.038zM 467.31,251.471l-57.505-9.052
		c 10.646-64.172-16.106-124.39-70.803-159.806c-50.102-32.07-109.412-34.429-160.749-7.141l 45.314,47.118L 92.107,107.634
		L 91.723-14.772l 45.219,46.964c 73.01-45.602, 160.417-45.334, 233.503,1.601C 444.861,81.822, 481.455,164.081, 467.31,251.471z" />
<glyph unicode="&#xe052;" d="M 256.00,71.619c-84.023,0.00-152.381,68.358-152.381,152.381c0.00,84.023, 68.358,152.381, 152.381,152.381c 32.194,0.00, 62.082-10.044, 86.712-27.152L 292.571,302.222
	l 155.807-27.29L 438.857,439.365l-50.988-47.801C 351.549,420.21, 305.74,437.333, 256.00,437.333C 138.368,437.333, 42.667,341.632, 42.667,224.00
	c0.00-117.632, 95.701-213.333, 213.333-213.333c 83.328,0.00, 155.64,48.03, 190.735,117.855l-60.845,15.887C 359.057,100.777, 310.872,71.619, 256.00,71.619z" />
<glyph unicode="&#xe053;" d="M 491.913,87.869l-12.466,237.796l-67.309-66.974C 150.757,562.255, 28.444,188.444, 28.444,188.444
	c 151.579,281.505, 274.403,45.483, 300.609-12.428l-74.87-74.498L 491.913,87.869z" />
<glyph unicode="&#xe054;" d="M 475.558,266.172c-10.887,13.579-24.422,21.272-40.221,22.868c-19.415,1.969-37.591-6.19-48.872-12.898
		c-32.695,19.067-73.141,30.331-116.079,32.39l 21.186,93.937l 62.032-34.167c 0.577-0.318, 1.167-0.584, 1.767-0.813
		c-0.907-3.842-1.436-7.825-1.436-11.941c0.00-28.692, 23.343-52.035, 52.035-52.035s 52.034,23.343, 52.034,52.035
		s-23.342,52.035-52.034,52.035c-14.58,0.00-27.757-6.044-37.214-15.738c-0.51,0.381-1.007,0.775-1.582,1.092l-78.419,43.193
		c-0.153,0.085-0.318,0.124-0.475,0.202c-0.435,0.22-0.887,0.401-1.349,0.576c-0.452,0.173-0.906,0.334-1.367,0.457
		c-0.174,0.045-0.324,0.126-0.50,0.167c-0.261,0.059-0.517,0.053-0.778,0.097c-0.489,0.081-0.975,0.149-1.466,0.179
		c-0.464,0.029-0.92,0.026-1.379,0.008c-0.437-0.016-0.868-0.044-1.299-0.102c-0.484-0.065-0.955-0.156-1.425-0.269
		c-0.406-0.098-0.805-0.206-1.201-0.339c-0.453-0.152-0.893-0.328-1.327-0.526c-0.393-0.179-0.778-0.369-1.154-0.583
		c-0.401-0.229-0.783-0.476-1.159-0.744c-0.363-0.255-0.714-0.523-1.055-0.816c-0.357-0.308-0.69-0.636-1.016-0.978
		c-0.294-0.314-0.579-0.631-0.848-0.972c-0.319-0.401-0.599-0.826-0.874-1.263c-0.135-0.217-0.305-0.399-0.432-0.626
		c-0.085-0.153-0.123-0.318-0.203-0.475c-0.216-0.434-0.398-0.886-0.573-1.348c-0.174-0.455-0.335-0.905-0.456-1.366
		c-0.047-0.174-0.129-0.324-0.168-0.50L 242.337,312.009c-0.262-1.164-0.324-2.32-0.294-3.461
		c-43.618-2.044-84.695-13.568-117.691-33.136c-31.198,23.513-66.981,7.293-82.544-5.676l-1.516-1.263l-1.11-1.631
		c-14.385-21.156-15.003-44.604-1.742-66.027c 5.428-8.767, 12.044-15.417, 16.858-19.608c-0.651-4.739-0.997-9.535-0.997-14.38
		c0.00-40.262, 22.696-77.247, 63.901-104.141c 37.502-24.469, 86.812-37.948, 138.853-37.948c 52.041,0.00, 101.354,13.48, 138.852,37.948
		c 41.211,26.894, 63.903,63.879, 63.903,104.141c0.00,8.233-1.00,16.316-2.858,24.215c 16.034,13.442, 25.338,27.622, 27.659,42.342
		C 486.478,251.57, 477.605,263.667, 475.558,266.172z M 405.969,387.896c 17.862,0.00, 32.345-14.48, 32.345-32.345
		s-14.483-32.346-32.345-32.346s-32.347,14.481-32.347,32.346S 388.107,387.896, 405.969,387.896z M 61.322,249.296
		c 4.967,3.652, 21.155,14.017, 37.736,8.106c-15.852-13.465-27.829-28.743-35.533-45.238
		C 56.916,221.202, 52.115,234.296, 61.322,249.296z M 256.055,52.864c-96.445,0.00-174.628,51.021-174.628,113.963
		c0.00,62.939, 78.184,113.962, 174.628,113.962c 96.445,0.00, 174.629-51.022, 174.629-113.962C 430.683,103.885, 352.50,52.864, 256.055,52.864z
		 M 455.828,237.765c-0.687-4.35-1.124-11.737-9.38-21.201c-7.78,14.957-19.165,28.828-33.795,41.175
		c 6.315,2.416, 13.30,4.005, 19.956,3.306c 8.098-0.845, 14.979-4.938, 21.04-12.514l 0.358-0.429
		C 454.036,248.069, 456.828,244.106, 455.828,237.765zM 321.581,123.095c-82.274-36.088-127.573-3.286-129.641-1.733c-6.116,4.702-14.898,3.601-19.658-2.488
		c-4.783-6.119-3.697-14.959, 2.424-19.741c 1.593-1.245, 27.65-20.983, 74.253-20.983c 23.089,0.00, 51.221,4.846, 83.921,19.188
		c 7.112,3.119, 10.35,11.414, 7.23,18.53C 336.989,122.974, 328.699,126.213, 321.581,123.095zM 158.341,193.692A25.863,25.863 180.00 1,0 210.067,193.692A25.863,25.863 180.00 1,0 158.341,193.692zM 301.787,193.692A25.863,25.863 180.00 1,0 353.514,193.692A25.863,25.863 180.00 1,0 301.787,193.692z" />
<glyph unicode="&#xe055;" d="M 268.369,222.585L 398.03,297.446L 268.369,372.305L 268.369,331.722L 97.776,331.722L 28.275,331.722L 28.275,263.169L 28.275,147.823L 97.776,147.823L 97.776,263.169L 268.369,263.169 	zM 414.316,297.288L 414.316,181.942L 243.722,181.942L 243.722,222.526L 114.061,147.664L 243.722,72.805L 243.722,113.388L 414.316,113.388L 483.817,113.388L 483.817,181.942L 483.817,297.288 	z" />
<glyph unicode="&#xe056;" d="M 332.535,364.342C 313.786,381.478, 288.67,390.044, 257.183,390.044c-29.734,0.00-53.641-7.984-71.727-23.946
		c-18.09-15.964-28.965-38.96-32.624-68.981l 40.641-4.833c 3.515,22.408, 10.909,38.885, 22.189,49.429
		c 11.276,10.545, 25.335,15.817, 42.18,15.817c 17.427,0.00, 32.147-5.822, 44.157-17.465c 12.007-11.643, 18.014-25.154, 18.014-40.531
		c0.00-8.497-2.053-16.332-6.152-23.506c-4.101-7.176-12.999-16.806-26.691-28.888c-13.696-12.084-23.176-21.274-28.45-27.571
		c-7.177-8.644-12.377-17.212-15.598-25.704c-4.394-11.28-6.59-24.681-6.59-40.202c0.00-2.636, 0.072-6.59, 0.219-11.863l 38.007,0.00 
		c 0.29,15.817, 1.389,27.242, 3.294,34.27c 1.902,7.031, 4.834,13.253, 8.786,18.674c 3.955,5.417, 12.375,13.839, 25.264,25.265
		c 19.185,16.986, 32.075,31.414, 38.666,43.277s 9.885,24.825, 9.885,38.885C 360.654,326.48, 351.28,347.207, 332.535,364.342zM 234.335,107.53L 279.371,107.53L 279.371,62.494L 234.335,62.494zM 256.508,452.402c-126.423,0.00-228.91-102.486-228.91-228.91S 130.085-5.419, 256.508-5.419
		c 126.424,0.00, 228.911,102.487, 228.911,228.911S 382.932,452.402, 256.508,452.402z M 256.508,31.108
		c-106.251,0.00-192.384,86.133-192.384,192.383c0.00,106.251, 86.133,192.384, 192.384,192.384s 192.384-86.133, 192.384-192.384
		C 448.892,117.241, 362.759,31.108, 256.508,31.108z" />
<glyph unicode="&#xe057;" d="M 256.508,452.402c-126.423,0.00-228.91-102.486-228.91-228.91S 130.085-5.419, 256.508-5.419
	c 126.424,0.00, 228.911,102.487, 228.911,228.911S 382.932,452.402, 256.508,452.402z M 278.355,60.463l-45.036,0.00 L 233.32,105.498 l 45.036,0.00 L 278.355,60.463 z
	 M 349.755,261.255c-6.59-11.863-19.481-26.291-38.666-43.277c-12.889-11.426-21.31-19.848-25.264-25.265
	c-3.954-5.421-6.885-11.643-8.786-18.674c-1.906-7.029-3.005-18.453-3.294-34.27l-38.007,0.00 c-0.147,5.272-0.219,9.227-0.219,11.863
	c0.00,15.522, 2.196,28.923, 6.59,40.202c 3.219,8.491, 8.421,17.06, 15.598,25.704c 5.272,6.295, 14.753,15.487, 28.45,27.571
	c 13.693,12.083, 22.59,21.711, 26.691,28.888c 4.098,7.175, 6.152,15.01, 6.152,23.506c0.00,15.377-6.008,28.888-18.014,40.531
	c-12.01,11.643-26.73,17.465-44.157,17.465c-16.844,0.00-30.903-5.272-42.18-15.817c-11.279-10.545-18.674-27.021-22.189-49.429
	l-40.641,4.833c 3.659,30.022, 14.534,53.016, 32.624,68.981c 18.086,15.962, 41.993,23.946, 71.727,23.946
	c 31.487,0.00, 56.602-8.568, 75.351-25.703c 18.745-17.135, 28.119-37.862, 28.122-62.169C 359.64,286.08, 356.345,273.118, 349.755,261.255z" />
<glyph unicode="&#xe058;" d="M 146.794,40.635M 374.349,133.079M 281.977,67.668c0.00,0.00, 27.718-23.94, 25.199-45.36c0.00,0.00-3.149-49.139-54.179-42.839c0.00,0.00-42.838-1.189-49.139,43.821
	c0.00,0.00-7.559,14.139, 27.72,44.379c0.00,0.00, 3.78,22.679-28.399,17.64c0.00,0.00-70.511-1.89-86.26-10.081c0.00,0.00-13.861-3.214-12.601,9.103
	c0.00,0.00-11.97,60.825-5.671,94.845c0.00,0.00, 0.541,15.708, 11.169,16.988c 0.835,0.102, 1.73,0.113, 2.693,0.021
	c 13.229-1.26, 14.489-7.559, 28.978-19.53c0.00,0.00, 51.66-25.83, 63.629,44.73c0.00,0.00, 3.78,52.288-45.359,57.328
	c0.00,0.00-15.75,3.781-34.02-20.159c0.00,0.00-21.42-18.899-25.20,6.929c0.00,0.00-11.34,52.291, 6.929,103.95c0.00,0.00, 75.649-11.288, 103.319-8.821
	c0.00,0.00, 13.861,1.89, 20.79,12.60c0.00,0.00-3.15,19.529-20.16,27.718c0.00,0.00-32.13,51.661, 41.579,68.04c0.00,0.00, 40.645,4.41, 54.343-41.58
	c0.00,0.00, 2.986-24.571-22.843-42.839c0.00,0.00-11.339-17.01, 13.86-21.42c0.00,0.00, 86.17,1.029, 106.471,6.30c0.00,0.00, 15.119-74.34, 8.82-100.801
	c0.00,0.00, 1.26-36.538-29.611-6.299c0.00,0.00-16.379,20.16-32.127,15.749c0.00,0.00-42.841-0.443-42.841-54.084c0.00,0.00-9.451-50.493, 39.061-53.013
	c0.00,0.00, 25.199-1.891, 37.167,20.79c0.00,0.00, 26.462,20.16, 29.885-13.23l-10.983-91.978c0.00,0.00, 3.78-11.97-27.722-6.30
	c0.00,0.00-69.30,6.93-77.488,3.781C 298.987,84.048, 282.608,86.569, 281.977,67.668z" />
<glyph unicode="&#xe059;" d="M 146.794,40.635M 374.349,133.079M 99.668,198.022c0.00,0.00-23.94-27.718-45.36-25.199c0.00,0.00-49.139,3.149-42.839,54.179c0.00,0.00-1.189,42.838, 43.82,49.139
	c0.00,0.00, 14.139,7.559, 44.379-27.72c0.00,0.00, 22.679-3.78, 17.64,28.399c0.00,0.00-1.89,70.511-10.081,86.26c0.00,0.00-3.214,13.861, 9.103,12.601
	c0.00,0.00, 60.825,11.97, 94.845,5.671c0.00,0.00, 15.708-0.541, 16.988-11.169c 0.102-0.835, 0.113-1.73, 0.021-2.693
	c-1.26-13.229-7.559-14.489-19.53-28.978c0.00,0.00-25.829-51.66, 44.73-63.629c0.00,0.00, 52.288-3.78, 57.328,45.359
	c0.00,0.00, 3.781,15.75-20.159,34.02c0.00,0.00-18.899,21.42, 6.929,25.20c0.00,0.00, 52.291,11.34, 103.95-6.929c0.00,0.00-11.288-75.649-8.821-103.319
	c0.00,0.00, 1.89-13.861, 12.60-20.79c0.00,0.00, 19.529,3.15, 27.718,20.16c0.00,0.00, 51.661,32.13, 68.04-41.579c0.00,0.00, 4.41-40.645-41.58-54.343
	c0.00,0.00-24.571-2.986-42.839,22.843c0.00,0.00-17.01,11.339-21.42-13.86c0.00,0.00, 1.029-86.17, 6.30-106.471c0.00,0.00-74.34-15.119-100.801-8.82
	c0.00,0.00-36.538-1.26-6.299,29.611c0.00,0.00, 20.16,16.379, 15.749,32.127c0.00,0.00-0.443,42.841-54.084,42.841c0.00,0.00-50.493,9.451-53.013-39.061
	c0.00,0.00-1.891-25.199, 20.79-37.167c0.00,0.00, 20.16-26.462-13.23-29.885l-91.978,10.983c0.00,0.00-11.97-3.78-6.30,27.722
	c0.00,0.00, 6.93,69.30, 3.781,77.488C 116.048,181.012, 118.569,197.391, 99.668,198.022z" />
<glyph unicode="&#xe05a;" d="M 272.151,110.869l 187.328,0.00 c0.00,45.128-34.099,85.002-86.232,109.058L 330.001,394.353c 30.889,14.775, 50.981,38.758, 50.981,65.838
	L 134.269,460.19 c0.00-27.372, 20.525-51.585, 51.982-66.319L 143.268,220.505c-52.847-23.993-87.498-64.145-87.498-109.636l 187.328,0.00 L 257.625-14.73
	L 272.151,110.869z M 149.988,205.704l 7.164,3.253l 1.894,7.636l 42.984,173.366l 3.214,12.966l-12.096,5.666
	c-19.276,9.028-32.941,21.597-39.045,35.346l 207.037,0.00 c-6.021-13.525-19.365-25.934-38.15-34.921l-11.951-5.716l 3.188-12.858
	l 43.247-174.426l 1.879-7.576l 7.088-3.271c 23.815-10.988, 43.468-25.541, 56.833-42.083c 9.265-11.466, 15.334-23.509, 18.142-35.962L 73.881,127.123 
	C 81.013,158.219, 108.341,186.797, 149.988,205.704z" />
<glyph unicode="&#xe05b;" d="M 373.248,219.926L 330.001,394.353c 30.889,14.775, 50.981,38.758, 50.981,65.838L 134.269,460.19 c0.00-27.372, 20.525-51.585, 51.982-66.319
	L 143.268,220.505c-52.847-23.993-87.498-64.145-87.498-109.636l 403.71,0.00 C 459.48,155.997, 425.381,195.871, 373.248,219.926zM 242.709,114.233L 257.625-14.73L 272.54,114.233 z" />
<glyph unicode="&#xe05c;" d="M 403.302,226.54L 403.302,180.317L 108.698,180.317L 108.698,227.048L 27.429,227.048L 27.429,180.317L 27.429,65.524L 484.571,65.524L 484.571,179.81L 484.571,180.317L 484.571,226.54 	zM 384.00,447.492L 129.016,447.492 l0.00-246.349 l 254.984,0.00 L 384.00,447.492 z M 367.746,217.397L 145.27,217.397 L 145.27,431.238 l 222.476,0.00 L 367.746,217.397 zM 108.698,44.19L 403.302,44.19L 403.302,0.508L 108.698,0.508z" />
<glyph unicode="&#xe05d;" d="M 256.508,459.175c-122.60,0.00-222.34-99.742-222.34-222.34c0.00-101.296, 68.093-186.982, 160.909-213.703l0.00,46.849 
		C 127.22,95.044, 78.71,160.378, 78.71,236.835c0.00,98.039, 79.759,177.798, 177.798,177.798s 177.799-79.759, 177.799-177.798
		c0.00-77.149-49.40-142.969-118.222-167.518l0.00-46.706 c 93.761,26.108, 162.765,112.256, 162.765,214.224
		C 478.848,359.432, 379.108,459.175, 256.508,459.175zM 229.022,326.252L 285.031,326.252L 285.031-14.826L 229.022-14.826z" />
<glyph unicode="&#xe05e;" d="M 219.937,470.349L 293.079,470.349L 293.079-23.365L 219.937-23.365zM 8.635,260.063L 502.349,260.063L 502.349,186.921L 8.635,186.921z" />
<glyph unicode="&#xe05f;" d="M 256.846,442.921c-121.00,0.00-219.09-98.09-219.09-219.09c0.00-121.00, 98.09-219.09, 219.09-219.09
	S 475.937,102.831, 475.937,223.83C 475.937,344.831, 377.846,442.921, 256.846,442.921z M 256.847,39.957c-101.177,0.00-183.196,82.02-183.196,183.195
	C 73.651,324.33, 155.67,406.349, 256.847,406.349c 101.176,0.00, 183.195-82.02, 183.195-183.196C 440.043,121.977, 358.023,39.957, 256.847,39.957
	zM 177.80,107.014L 375.173,220.968L 177.80,334.92 z" />
<glyph unicode="&#xe060;" d="M 294.581,264.064l 157.04-118.143c 15.109,15.109, 15.109,39.61,0.00,54.717L 294.581,357.679L 294.581,414.54 
	c0.00,24.089-17.324,43.619-38.691,43.619c-21.37,0.00-38.693-19.528-38.693-43.619l0.00-57.086 L 60.38,200.638
	c-15.109-15.108-15.109-39.608,0.00-54.717l 156.815,117.974l0.00-114.326 c0.00-13.56, 5.492-40.792, 14.101-62.014l-1.594,0.00 l-70.61-70.609
	c-7.486-7.484-7.486-19.622,0.00-27.106l 96.905,41.075l 96.909-41.075c 7.487,7.484, 7.487,19.622,0.00,27.106l-70.611,70.609l-1.819,0.00 
	c 8.612,21.222, 14.104,48.454, 14.104,62.014L 294.581,264.064 z" />
<glyph unicode="&#xe061;" d="M 152.606,223.25c0.00,0.00-62.039,55.621, 9.983,149.75c0.00,0.00, 48.372,51.136, 109.062,42.526c 0.962-0.136, 1.916-0.372, 2.894-0.454
	c 62.751-5.333, 86.997-27.811, 103.399-86.998c0.00,0.00, 24.958-112.669-54.196-154.742c0.00,0.00-81.292-37.079-74.875,47.064l 19.966,66.318
	c0.00,0.00, 24.958,62.41-30.662,69.17c0.00,0.00-81.293-1.055-47.778-114.809l-34.942-146.184c0.00,0.00-12.122-81.965-3.566-109.104
	c0.00,0.00, 48.491,37.083, 59.90,86.286c0.00,0.00, 18.54,69.884, 17.113,76.30c0.00,0.00, 66.317-75.588, 161.872,4.991c0.00,0.00, 100.548,102.686, 36.368,224.626
	c0.00,0.00-54.197,116.234-227.477,73.449c0.00,0.00-96.981-19.253-124.079-132.635c0.00,0.00-19.254-95.462, 49.204-130.497
	c0.00,0.00, 19.254-12.836, 22.106,5.704L 152.606,223.25z" />
<glyph unicode="&#xe062;" d="M 278.836,234.667l 188.601-108.889C 527.573,229.94, 491.886,363.129, 387.724,423.268
					c-34.685,20.025-68.837,29.177-108.889,29.177L 278.835,234.667 zM 238.201,204.19L 238.201,421.968 c-120.278,0.00-217.778-97.502-217.778-217.778c0.00-120.277, 97.50-217.778, 217.778-217.778
					c 80.104,0.00, 148.549,39.518, 188.601,108.889L 238.201,204.19z" />
<glyph unicode="&#xe063;" d="M 28.275,452.402l0.00-457.143 l 456.465,0.00 l0.00,457.143 L 28.275,452.402 z M 457.651,426.667l0.00-375.917 L 321.828,284.87L 197.628,68.707l-65.734,113.855
		L 56.043,51.182L 56.043,426.667 L 457.651,426.667 zM 82.454,342.687A65.693,65.693 180.00 1,0 213.841,342.687A65.693,65.693 180.00 1,0 82.454,342.687z" />
<glyph unicode="&#xe064;" d="M 353.524,232.127l-22.723,0.00 l-6.446-40.579l 20.004,0.185c 21.733,5.925, 19.72,23.852, 19.72,23.852C 366.414,231.931, 353.524,232.127, 353.524,232.127zM 252.695,307.671c-106.729,0.00-193.249-45.838-193.249-102.385c0.00-56.543, 86.521-102.383, 193.249-102.383
		c 106.73,0.00, 193.25,45.839, 193.25,102.383C 445.945,261.833, 359.425,307.671, 252.695,307.671z M 264.827,231.931l-22.186-0.584
		L 231.619,174.222l-26.343,0.00 l 5.32,26.569c-12.454-38.126-66.623-27.829-66.623-27.829L 138.159,145.778l-25.129,0.00 l 21.059,105.291l 47.25,0.713
		C 214.618,250.614, 216.369,224.00, 216.369,224.00L 226.54,277.841l 24.884,0.00 l-3.527-27.788c 52.545,7.135, 49.042-16.37, 49.042-16.37L 288.508,173.206l-26.60,0.00 
		l 9.925,50.623C 273.001,233.414, 264.827,231.931, 264.827,231.931z M 389.768,217.159c-4.087-42.619-39.116-43.611-39.116-43.611
		l-31.528-0.584L 313.905,145.778l-25.724,0.00 l 21.619,105.651l 51.945,0.00 C 395.023,246.349, 389.768,217.159, 389.768,217.159zM 154.483,230.764l-5.838-37.366c0.00,0.00, 36.782-9.926, 39.701,18.683C 188.345,212.081, 195.351,238.937, 154.483,230.764z" />
<glyph unicode="&#xe065;" d="M 50.46,404.979c-79.405-92.214, 103.59-281.786, 103.37-281.564l 0.365,0.365l-0.625,0.626
	c0.00,0.00, 187.707-187.726, 283.069-105.608l 10.405-10.404l 49.867,49.865l-94.257,94.258l-49.866-49.867l 8.012-8.011
	c-33.471-33.997-146.782,68.331-157.721,79.258l 0.617-0.616c-10.94,10.939-111.026,120.555-77.394,155.857l 8.012-8.012
	l 49.865,49.864L 89.923,465.249L 40.058,415.383L 50.46,404.979z" />
<glyph unicode="&#xe066;" d="M 293.079,406.349L 402.794,406.349L 402.794,40.635L 293.079,40.635zM 404.317,39.111L 291.556,39.111 L 291.556,407.873 l 112.762,0.00 L 404.317,39.111 z M 294.603,42.159l 106.667,0.00 L 401.27,404.825 L 294.603,404.825 L 294.603,42.159 zM 110.222,406.349L 219.937,406.349L 219.937,40.635L 110.222,40.635zM 221.46,39.111L 108.698,39.111 L 108.698,407.873 l 112.762,0.00 L 221.46,39.111 z M 111.746,42.159l 106.667,0.00 L 218.413,404.825 L 111.746,404.825 L 111.746,42.159 z" />
<glyph unicode="&#xe067;" d="M 393.098,431.913l-79.897,0.00 L 313.201,460.444 L 198.80,460.444 l0.00-28.532 l-79.898,0.00 c-12.173,0.00-22.041-9.868-22.041-22.041l0.00-400.274 
	c0.00-12.172, 9.868-22.041, 22.041-22.041l 274.196,0.00 c 12.173,0.00, 22.041,9.869, 22.041,22.041L 415.14,409.871 
	C 415.14,422.044, 405.271,431.913, 393.098,431.913z M 318.935,381.685l 51.563-51.206l-51.563,0.00 L 318.935,381.685 z M 380.558,29.653L 131.445,29.653 L 131.445,391.576 
	l 67.356,0.00 l0.00-18.563 l 106.029,0.00 l0.00-49.589 c0.00-3.895, 3.157-7.053, 7.053-7.053l 68.676,0.00 L 380.559,29.653 z" />
<glyph unicode="&#xe068;" d="M 293.504,404.998L 119.703,404.998 l0.00-62.307 l 48.508,0.00 l0.00-301.714 l 33.863,0.00 l0.00,301.714 l 57.565,0.00 l0.00-302.73 l 33.863,0.00 L 293.503,232.127 c 47.737,0.00, 86.437,38.699, 86.437,86.435
	C 379.941,366.299, 341.241,404.998, 293.504,404.998z" />
<glyph unicode="&#xe069;" d="M 50.343,174.625c-36.52-44.042-32.248-109.457, 10.527-148.322c 43.758-39.756, 111.322-36.743, 151.387,6.563l 0.009-0.007
	l 240.793,265.032l-0.061,0.054C 486.017,337.112, 503.873,386.54, 460.123,425.081c-35.897,32.614-85.945,29.233-121.603-10.017l-0.049,0.043
	L 97.68,150.075l 16.851-15.309L 355.323,399.798l-0.124,0.114c 28.116,30.946, 62.963,35.852, 91.267,10.137
	c 34.042-30.113, 15.512-66.255-10.147-96.949l-0.11,0.101l-240.127-264.30l-0.002,0.002c-31.523-34.694-85.202-37.268-119.897-5.744
	c-34.695,31.521-37.268,85.20-5.746,119.895l-0.003,0.002L 307.899,424.427L 291.048,439.735L 50.255,174.705L 50.343,174.625z" />
<glyph unicode="&#xe06a;" d="M 19.81,460.19l0.00-472.381 l 472.381,0.00 l0.00,472.381 L 19.81,460.19 z M 472.089,7.911L 39.912,7.911 L 39.912,440.088 l 432.178,0.00 L 472.089,7.911 zM 72.575,407.425L 256.00,407.425L 256.00,267.972L 72.575,267.972zM 279.871,407.425L 444.451,407.425L 444.451,382.298L 279.871,382.298zM 279.871,347.121L 444.451,347.121L 444.451,321.994L 279.871,321.994zM 281.127,291.842L 445.706,291.842L 445.706,266.715L 281.127,266.715zM 73.832,235.307L 445.706,235.307L 445.706,210.18L 73.832,210.18zM 72.575,177.516L 444.45,177.516L 444.45,152.389L 72.575,152.389zM 72.575,120.981L 444.45,120.981L 444.45,95.855L 72.575,95.855zM 73.832,64.446L 445.706,64.446L 445.706,39.319L 73.832,39.319z" />
<glyph unicode="&#xe06b;" d="M 257.361,459.673c0.00,0.00-209.807,11.465-221.272-235.029c0.00,0.00,0.00-231.246, 221.272-237.323c0.00,0.00, 201.813-19.321, 223.564,236.176
	C 480.925,223.497, 490.097,453.941, 257.361,459.673z M 256.214,38.913c-90.572-6.878-82.547,185.731-82.547,185.731
	c-4.587,201.782, 82.547,185.731, 82.547,185.731c 92.865,0.303, 83.563-184.833, 83.563-184.833
	C 342.349,30.984, 256.214,38.913, 256.214,38.913z" />
<glyph unicode="&#xe06c;" d="M 297.905,117.079L 297.905,330.924 l 90.496-16.088l-137.142,91.429l0.00-60.444 l-0.084,0.00 L 251.175,175.624 c-6.889,2.317-14.256,3.592-21.926,3.592
	c-37.964,0.00-68.741-30.776-68.741-68.74c0.00-37.965, 30.776-68.741, 68.741-68.741c 37.964,0.00, 68.741,30.776, 68.741,68.741
	c0.00,2.228-0.115,4.429-0.322,6.603L 297.905,117.079 z" />
<glyph unicode="&#xe06d;" d="M 137.313,451.048l0.00-67.048 l0.00-163.621 c-6.913,2.337-14.31,3.622-22.011,3.622c-37.965,0.00-68.741-30.777-68.741-68.741
	s 30.776-68.741, 68.741-68.741s 68.741,30.777, 68.741,68.741L 184.043,268.648 l 236.697-43.698l0.00-51.302 C 413.827,175.984, 406.431,177.27, 398.73,177.27
	c-37.964,0.00-68.74-30.776-68.74-68.74s 30.776-68.74, 68.74-68.74s 68.74,30.776, 68.74,68.74L 467.47,323.048 l0.00,14.222 l0.00,52.825 L 137.313,451.048z
	 M 420.74,280.696l-236.697,43.698l0.00,50.98 l 236.697-43.699L 420.74,280.696 z" />
<glyph unicode="&#xe06e;" d="M 137.313,451.048l0.00-67.048 l0.00-163.621 c-6.913,2.337-14.31,3.622-22.011,3.622c-37.965,0.00-68.741-30.777-68.741-68.741
	s 30.776-68.741, 68.741-68.741s 68.741,30.777, 68.741,68.741L 184.043,375.373 l 236.697-43.699l0.00-158.026 C 413.827,175.984, 406.431,177.27, 398.73,177.27
	c-37.964,0.00-68.74-30.776-68.74-68.74s 30.776-68.74, 68.74-68.74s 68.74,30.776, 68.74,68.74L 467.47,323.048 l0.00,14.222 l0.00,52.825 L 137.313,451.048z" />
<glyph unicode="&#xe06f;" d="M 415.73,354.80c-0.009,0.09-0.026,0.178-0.04,0.267c-0.022,0.173-0.045,0.346-0.078,0.518
	c-0.025,0.127-0.062,0.25-0.093,0.375c-0.033,0.132-0.062,0.265-0.103,0.397c-0.037,0.122-0.084,0.24-0.127,0.36
	c-0.047,0.13-0.089,0.262-0.143,0.391c-0.046,0.109-0.10,0.212-0.149,0.319c-0.063,0.134-0.122,0.27-0.193,0.401
	c-0.053,0.10-0.114,0.192-0.172,0.29c-0.077,0.131-0.151,0.264-0.238,0.392c-0.073,0.11-0.156,0.212-0.235,0.318
	c-0.079,0.107-0.153,0.216-0.239,0.319c-0.17,0.205-0.348,0.402-0.536,0.59c-0.004,0.003-0.007,0.008-0.011,0.012l-87.256,86.654
	c-0.059,0.059-0.123,0.108-0.184,0.165c-0.132,0.123-0.263,0.247-0.402,0.361c-0.102,0.083-0.207,0.156-0.312,0.234
	c-0.108,0.08-0.214,0.164-0.327,0.239c-0.118,0.079-0.241,0.148-0.363,0.22c-0.106,0.063-0.21,0.129-0.319,0.188
	c-0.124,0.066-0.251,0.123-0.377,0.182c-0.114,0.054-0.228,0.11-0.344,0.157c-0.124,0.051-0.25,0.093-0.376,0.138
	c-0.125,0.044-0.248,0.091-0.375,0.129s-0.256,0.067-0.385,0.10c-0.128,0.031-0.255,0.067-0.386,0.092
	c-0.146,0.028-0.293,0.047-0.44,0.067c-0.115,0.016-0.23,0.038-0.346,0.049c-0.203,0.019-0.407,0.026-0.614,0.03
	c-0.06,0.001-0.117,0.009-0.178,0.009l-0.024,0.00 c-0.002,0.00-0.004,0.00-0.006,0.00L 104.357,448.763 c-4.488,0.00-8.127-3.639-8.127-8.127l0.00-433.27 c0.00-4.488, 3.639-8.127, 8.127-8.127
	l 303.289,0.00 c 4.488,0.00, 8.127,3.639, 8.127,8.127l0.00,346.616 c0.00,0.003-0.001,0.007-0.001,0.01C 415.77,354.261, 415.758,354.532, 415.73,354.80z
	 M 328.516,421.11l 59.411-59.002l-59.411,0.00 L 328.516,421.11 z M 312.262,353.981c0.00-4.488, 3.639-8.127, 8.127-8.127l 79.129,0.00 l0.00-330.362 l-287.035,0.00 L 112.484,432.508 l 199.779,0.00 L 312.262,353.981 z" />
<glyph unicode="&#xe070;" d="M 88.12,304.468L 38.434,304.468L 38.434,148.82L 88.12,148.82L 88.12,148.667L 197.079,85.76L 197.079,367.376 zM 245.843,304.396L 272.919,331.472L 455.685,148.706L 428.61,121.63zM 272.909,121.643L 245.833,148.719L 428.599,331.483L 455.674,304.408z" />
<glyph unicode="&#xe071;" d="M 221.847,371.18c0.00,15.365, 10.149,28.359, 24.107,32.649L 245.954,451.048 l-16.841,0.00 c-59.153,0.00-107.107-50.941-107.107-113.78l0.00-0.633 l 99.84,0.00 
		L 221.846,371.18 zM 286.951,451.048l-19.384,0.00 l0.00-47.727 c 13.17-4.74, 22.587-17.339, 22.587-32.141l0.00-34.545 l 103.901,0.00 l0.00,0.633 
		C 394.055,400.107, 346.103,451.048, 286.951,451.048zM 290.154,306.408c0.00-18.862-15.291-34.154-34.154-34.154c-18.862,0.00-34.153,15.291-34.153,34.154l0.00,7.345 l-99.84,0.00 l0.00-204.043 
		c0.00-62.838, 47.952-113.78, 107.107-113.78l 57.837,0.00 c 59.153,0.00, 107.106,50.942, 107.106,113.78L 394.056,313.752 L 290.154,313.752 L 290.154,306.408 zM 245.954,301.136c0.00-6.974, 4.838-12.628, 10.806-12.628c 5.968,0.00, 10.807,5.654, 10.807,12.628l0.00,73.283 
		c0.00,6.974-4.839,12.628-10.807,12.628c-5.968,0.00-10.806-5.654-10.806-12.628L 245.954,301.136 z" />
<glyph unicode="&#xe072;" d="M 229.114,451.048c-59.153,0.00-107.107-50.941-107.107-113.78l0.00-0.633 l 123.947,0.00 L 245.954,451.048 L 229.114,451.048 zM 286.951,451.048l-19.384,0.00 l0.00-114.413 l 126.489,0.00 l0.00,0.633 C 394.055,400.107, 346.103,451.048, 286.951,451.048zM 122.007,109.708c0.00-62.838, 47.952-113.78, 107.107-113.78l 57.837,0.00 c 59.153,0.00, 107.106,50.942, 107.106,113.78L 394.056,313.752 L 122.007,313.752 
		L 122.007,109.708 z" />
<glyph unicode="&#xe073;" d="M 323.671,394.867C 350.535,362.969, 366.73,321.792, 366.73,276.825c0.00-101.27-82.096-183.365-183.365-183.365
	c-23.515,0.00-45.995,4.432-66.655,12.498C 150.346,66.02, 200.712,40.635, 257.016,40.635c 101.27,0.00, 183.365,82.096, 183.365,183.365
	C 440.381,301.754, 391.983,368.198, 323.671,394.867z" />
<glyph unicode="&#xe074;" d="M 484.741,113.10L 484.741,442.921 l-457.143,0.00 l0.00-329.82 L 193.524,113.10 l0.00-44.698 l-74.497,0.00 l0.00-28.444 l 274.963,0.00 l0.00,28.444 l-73.819,0.00 l0.00,44.698 L 484.741,113.10 z M 74.328,152.381L 74.328,407.027 l 363.683,0.00 L 438.011,152.381 
	L 74.328,152.381 z" />
<glyph unicode="&#xe075;" d="M 256.17,452.402c-126.236,0.00-228.571-102.335-228.571-228.571
	s 102.335-228.571, 228.571-228.571c 126.236,0.00, 228.571,102.334, 228.571,228.571S 382.406,452.402, 256.17,452.402z M 292.065,198.572l0.00,0.201 l-78.561,0.00 l0.00-0.201 L 85.503,198.572 
	l0.00,50.518 l 135.789,0.00 l 10.152,0.00 l 50.516,0.00 l 17.894,0.00 l 126.645,0.00 l0.00-50.518 L 292.065,198.572 z" />
<glyph unicode="&#xe076;" d="M 8.635,260.063L 502.349,260.063L 502.349,186.921L 8.635,186.921z" />
<glyph unicode="&#xe077;" d="M 14.945,335.759L 134.761,345.192L 144.193,465.008L 92.053,412.868L 53.622,451.299L 28.241,425.918L 66.672,387.486 zM 498.195,335.759L 378.379,345.192L 368.947,465.008L 421.087,412.868L 459.518,451.299L 484.899,425.918L 446.468,387.486 zM 14.376,110.932L 134.192,101.50L 143.624-18.315L 91.483,33.823L 53.053-4.607L 27.672,20.774L 66.103,59.205 zM 497.626,110.932L 377.809,101.50L 368.377-18.315L 420.518,33.823L 458.948-4.607L 484.33,20.774L 445.899,59.205 
	zM 366.90,164.571c0.00-28.052-22.741-50.794-50.794-50.794L 197.587,113.778 c-28.052,0.00-50.794,22.741-50.794,50.794l0.00,117.841 c0.00,28.052, 22.741,50.794, 50.794,50.794l 118.519,0.00 
	c 28.052,0.00, 50.794-22.741, 50.794-50.794L 366.90,164.571 z" />
<glyph unicode="&#xe078;" d="M 258.457,404.972M 72.973,77.884L 439.365,77.884L 439.365,39.957L 72.973,39.957z" />
<glyph unicode="&#xe079;" d="M 256.677,171.175c 27.623,0.00, 50.014,22.391, 50.014,50.013L 306.691,401.541 c0.00,27.622-22.392,50.014-50.014,50.014
		c-27.622,0.00-50.013-22.392-50.013-50.014l0.00-180.353 C 206.663,193.565, 229.055,171.175, 256.677,171.175zM 375.635,215.365l 0.256,0.00 l0.00,48.084 L 324.063,263.449 l0.00-47.045 C 316.933,178.267, 289.458,149.841, 256.614,149.841c-33.127,0.00-60.807,28.919-67.642,67.556
		l0.00,48.084 L 137.143,265.481 L 137.143,217.397 c0.00-54.337, 44.017-99.327, 101.418-107.153L 238.561,34.54 L 146.794,34.54 l0.00-36.571 l 219.429,0.00 l0.00,36.571 l-91.429,0.00 l0.00,75.78 
		C 331.21,118.254, 374.555,162.115, 375.635,215.365z" />
<glyph unicode="&#xe07a;" d="M 258.457,404.972M 72.973,77.884L 439.365,77.884L 439.365,39.957L 72.973,39.957zM 72.973,333.206L 121.735,333.206L 121.735,77.884L 72.973,77.884zM 390.602,333.206L 439.365,333.206L 439.365,77.884L 390.602,77.884zM 72.973,371.133L 439.365,371.133L 439.365,333.206L 72.973,333.206z" />
<glyph unicode="&#xe07b;" d="M 258.457,404.972M 258.456,461.183c-100.989,0.00-182.857-81.868-182.857-182.857s 182.857-294.603, 182.857-294.603
	s 182.857,193.614, 182.857,294.603S 359.446,461.183, 258.456,461.183z M 258.457,183.536c-62.09,0.00-112.424,50.332-112.424,112.423
	S 196.367,408.381, 258.457,408.381c 62.089,0.00, 112.423-50.333, 112.423-112.424S 320.547,183.536, 258.457,183.536z" />
<glyph unicode="&#xe07c;" d="M 131.483,365.611L 131.483,432.107 L 61.245,432.107 l0.00-66.497 l0.00-4.317 l0.00-185.672 c0.00-47.997, 16.781-87.971, 48.529-115.594
	c 43.048-37.458, 104.229-44.133, 142.383-44.133c 1.31,0.00, 2.589,0.009, 3.843,0.023c 1.256-0.015, 2.535-0.023, 3.845-0.023
	c 38.155,0.00, 99.338,6.677, 142.382,44.133c 31.747,27.624, 48.529,67.597, 48.529,115.594L 450.756,365.611 l-0.286,0.00 L 450.47,432.107 l-70.241,0.00 l0.00-66.497 l-0.286,0.00 
	l0.00-189.99 c0.00-27.595-7.874-47.892-24.063-62.056c-20.241-17.703-51.538-24.419-78.246-26.327l-0.115,0.833
	c-5.158-0.694-12.639-1.288-21.487-1.427c-8.876,0.139-16.382,0.732-21.55,1.427l-0.115-0.835
	c-26.705,1.91-58.005,8.627-78.245,26.329c-16.192,14.163-24.063,34.46-24.063,62.056 M 388.865,423.471l 52.969,0.00 l0.00-53.543 l-52.969,0.00 
	L 388.865,423.471 z M 69.881,423.471l 52.968,0.00 l0.00-53.543 l-52.968,0.00 L 69.881,423.471 z" />
<glyph unicode="&#xe07d;" d="M 414.152,260.571L 414.152,396.698 L 414.152,451.556 L 365.755,451.556 L 99.881,451.556 l0.00-35.556 l0.00-19.302 l0.00-136.127 L 55.365,260.571 l0.00-274.286 l 403.302,0.00 L 458.667,260.571 L 414.152,260.571 z M 148.277,396.698l 217.478,0.00 l0.00-136.127 L 148.277,260.571 L 148.277,396.698 z" />
<glyph unicode="&#xe07e;" d="M 120.381,370.286L 475.429,370.286L 475.429,352.00L 120.381,352.00zM 120.381,242.286L 475.429,242.286L 475.429,224.00L 120.381,224.00zM 120.381,114.286L 475.429,114.286L 475.429,96.00L 120.381,96.00zM 103.111,337.27c0.00-6.732-5.458-12.19-12.19-12.19l-53.841,0.00 c-6.732,0.00-12.19,5.458-12.19,12.19l0.00,53.841 c0.00,6.732, 5.458,12.19, 12.19,12.19l 53.841,0.00 c 6.732,0.00, 12.19-5.458, 12.19-12.19
	L 103.111,337.27 zM 103.111,206.222c0.00-6.732-5.458-12.19-12.19-12.19l-53.841,0.00 c-6.732,0.00-12.19,5.458-12.19,12.19l0.00,53.841 c0.00,6.732, 5.458,12.19, 12.19,12.19l 53.841,0.00 c 6.732,0.00, 12.19-5.458, 12.19-12.19
	L 103.111,206.222 zM 103.111,78.222c0.00-6.732-5.458-12.19-12.19-12.19l-53.841,0.00 c-6.732,0.00-12.19,5.458-12.19,12.19l0.00,53.841 c0.00,6.732, 5.458,12.19, 12.19,12.19l 53.841,0.00 c 6.732,0.00, 12.19-5.458, 12.19-12.19
	L 103.111,78.222 z" />
</font>
</defs>
</svg>
