<?xml version="1.0" encoding="utf-8"?>
<!-- Generator: Adobe Illustrator 15.1.0, SVG Export Plug-In . SVG Version: 6.00 Build 0)  -->
<!DOCTYPE svg PUBLIC "-//W3C//DTD SVG 1.1//EN" "http://www.w3.org/Graphics/SVG/1.1/DTD/svg11.dtd">
<svg version="1.1" id="Layer_1" xmlns="http://www.w3.org/2000/svg" xmlns:xlink="http://www.w3.org/1999/xlink" x="0px" y="0px"
	 width="504px" height="504px" viewBox="0 0 504 504" enable-background="new 0 0 504 504" xml:space="preserve">
<g>
	<path d="M129,374.383C129,390.951,141.147,406,168.35,406H175v44.519C175,469.563,185.474,485,199,485
		c13.528,0,24-15.438,24-34.481V406h64v44.519C287,469.563,298.472,485,312,485c13.526,0,25-15.438,25-34.481v-45.011
		c28-0.175,38-16.61,38-31.125V194H129V374.383z"/>
	<path d="M85,194.371c-13.525,0-25,15.437-25,34.481v108.371c0,19.045,11.475,34.482,25,34.482c13.527,0,25-15.438,25-34.482
		V228.852C110,209.808,98.527,194.371,85,194.371z"/>
	<path d="M419,194.371c-13.527,0-25,15.437-25,34.481v108.371c0,19.045,11.473,34.482,25,34.482c13.525,0,25-15.438,25-34.482
		V228.852C444,209.808,432.525,194.371,419,194.371z"/>
	<path d="M328.48,72.373l37.536-40.385c2.78-2.985,2.617-7.693-0.371-10.474c-2.982-2.78-7.663-2.636-10.444,0.356l-39.079,41.966
		c-18.477-10.965-40.091-17.24-63.205-17.24c-23.476,0-45.416,6.459-64.085,17.75l-39.557-42.49
		c-2.78-2.992-7.461-3.154-10.443-0.374c-2.988,2.781-3.151,7.457-0.37,10.441l38.108,41.062
		C148.073,95.374,129.769,129,129.769,170h246.296C376.065,129,357.425,94.733,328.48,72.373z M189.847,122.123
		c-7.253,0-13.138-5.88-13.138-13.135c0-7.253,5.884-13.135,13.138-13.135c7.254,0,13.133,5.881,13.133,13.135
		C202.98,116.242,197.102,122.123,189.847,122.123z M317.922,122.123c-7.255,0-13.139-5.883-13.139-13.138
		s5.884-13.132,13.139-13.132c7.254,0,13.132,5.878,13.132,13.132S325.176,122.123,317.922,122.123z"/>
</g>
</svg>
