<?xml version="1.0" encoding="utf-8"?>
<!-- Generator: Adobe Illustrator 15.1.0, SVG Export Plug-In . SVG Version: 6.00 Build 0)  -->
<!DOCTYPE svg PUBLIC "-//W3C//DTD SVG 1.1//EN" "http://www.w3.org/Graphics/SVG/1.1/DTD/svg11.dtd">
<svg version="1.1" id="Layer_1" xmlns="http://www.w3.org/2000/svg" xmlns:xlink="http://www.w3.org/1999/xlink" x="0px" y="0px"
	 width="504px" height="504px" viewBox="0 0 504 504" enable-background="new 0 0 504 504" xml:space="preserve">
<g>
	<path d="M327.999,21.3c-82.487,30.131-62.453,95.673-62.453,95.673C339.758,112.244,327.999,21.3,327.999,21.3z"/>
	<path d="M411.11,253.224c0-34.643,18.783-65.389,47.798-84.64c-12.38-19.392-26.078-26.97-26.078-26.97
		c-81.518-64.294-163.575-6.234-171.336-0.457c-7.763-5.778-89.82-63.837-171.337,0.457c0,0-102.56,56.71,0,257.004
		c0,0,37.404,78.429,74.809,83.255c0,0,10.86,6.033,55.503-14.479c0,0,30.014-12.893,40.421-12.269v0.169
		c0.188-0.048,0.398-0.074,0.604-0.104c0.204,0.03,0.415,0.057,0.603,0.104v-0.169c10.406-0.624,40.42,12.269,40.42,12.269
		c44.646,20.513,55.504,14.479,55.504,14.479c37.404-4.826,74.81-83.255,74.81-83.255c11.164-21.805,19.896-41.905,26.596-60.419
		C430.12,318.972,411.11,288.072,411.11,253.224z"/>
</g>
</svg>
