<?xml version="1.0" encoding="utf-8"?>
<!-- Generator: Adobe Illustrator 15.1.0, SVG Export Plug-In . SVG Version: 6.00 Build 0)  -->
<!DOCTYPE svg PUBLIC "-//W3C//DTD SVG 1.1//EN" "http://www.w3.org/Graphics/SVG/1.1/DTD/svg11.dtd">
<svg version="1.1" id="Layer_1" xmlns="http://www.w3.org/2000/svg" xmlns:xlink="http://www.w3.org/1999/xlink" x="0px" y="0px"
	 width="504px" height="504px" viewBox="0 0 504 504" enable-background="new 0 0 504 504" xml:space="preserve">
<g>
	<path d="M352.224,61.504c-0.589-19.082-25.52-30.221-28.36-31.428l-1.674-0.712H181.811l-1.674,0.712
		c-2.841,1.207-27.771,12.346-28.36,31.428c-0.341,11.031,7.364,21.068,22.923,29.884v318.193
		c-0.145,3.136-0.209,19.565,12.974,33.893c13.258,14.408,34.9,21.714,64.327,21.714s51.07-7.306,64.328-21.715
		c13.183-14.327,13.118-30.757,12.973-33.892V91.389C344.859,82.572,352.565,72.536,352.224,61.504z M316.377,78.038l-4.938,2.468
		v329.311l0.03,0.742c0.01,0.108,0.653,11.104-8.286,20.82c-9.599,10.433-27.298,15.947-51.184,15.947
		c-23.678,0-41.293-5.424-50.94-15.686c-8.884-9.451-8.574-20.141-8.526-21.117l0.027-330.018l-4.937-2.468
		c-13.413-6.707-18.09-12.648-17.995-15.973c0.142-4.93,8.898-11.45,15.935-14.839h132.881c6.908,3.319,15.774,9.922,15.926,14.83
		C334.474,65.381,329.8,71.326,316.377,78.038z"/>
	<path d="M299.333,80.578h-94.667v329.489c0,0-2.679,24.31,47.333,24.31s47.333-24.31,47.333-24.31V80.578z"/>
</g>
</svg>
