<?xml version="1.0" encoding="utf-8"?>
<!-- Generator: Adobe Illustrator 15.1.0, SVG Export Plug-In . SVG Version: 6.00 Build 0)  -->
<!DOCTYPE svg PUBLIC "-//W3C//DTD SVG 1.1//EN" "http://www.w3.org/Graphics/SVG/1.1/DTD/svg11.dtd">
<svg version="1.1" id="Layer_1" xmlns="http://www.w3.org/2000/svg" xmlns:xlink="http://www.w3.org/1999/xlink" x="0px" y="0px"
	 width="504px" height="504px" viewBox="0 0 504 504" enable-background="new 0 0 504 504" xml:space="preserve">
<path d="M374.223,173.813C349.409,131.167,329.707,68.21,329.707,68.21c-4.322-17.291-20.531-19.452-20.531-19.452h-19.452
	c-1.802-24.32-27.237-29.115-35.661-30.039V18.5c0,0-0.498,0.018-1.352,0.086c-0.853-0.069-1.351-0.086-1.351-0.086v0.219
	c-8.424,0.924-33.86,5.719-35.661,30.039h-19.452c0,0-16.209,2.162-20.532,19.452c0,0-19.701,62.957-44.515,105.603
	c-38.845,66.762-75.436,81.349-98.13,186.171c0,0,76.39,79.111,189.535,92.186c7.028,20.488,27.643,35.331,51.99,35.331
	c27.848,0,50.806-19.417,54.14-44.493c87.403-24.81,143.618-83.023,143.618-83.023C449.659,255.161,413.066,240.575,374.223,173.813
	z M359.838,373.378l-24.748,24.749l-82.379-82.378l-82.377,82.378l-24.749-24.749L227.962,291l-82.378-82.378l24.749-24.749
	l82.377,82.378l82.379-82.378l24.748,24.749L277.461,291L359.838,373.378z"/>
</svg>
