<?xml version="1.0" encoding="utf-8"?>
<!-- Generator: Adobe Illustrator 15.1.0, SVG Export Plug-In . SVG Version: 6.00 Build 0)  -->
<!DOCTYPE svg PUBLIC "-//W3C//DTD SVG 1.1//EN" "http://www.w3.org/Graphics/SVG/1.1/DTD/svg11.dtd">
<svg version="1.1" id="Layer_1" xmlns="http://www.w3.org/2000/svg" xmlns:xlink="http://www.w3.org/1999/xlink" x="0px" y="0px"
	 width="504px" height="504px" viewBox="0 0 504 504" enable-background="new 0 0 504 504" xml:space="preserve">
<g>
	<path d="M73.473,22.803h181.555c35.939,0,62.738,1.501,80.398,4.493c17.659,2.997,33.461,9.246,47.402,18.744
		c13.942,9.502,25.561,22.152,34.854,37.953c9.295,15.801,13.942,33.514,13.942,53.134c0,21.276-5.731,40.795-17.195,58.557
		c-11.463,17.766-27.008,31.088-46.628,39.967c27.676,8.055,48.952,21.794,63.823,41.206c14.871,19.417,22.307,42.241,22.307,68.47
		c0,20.656-4.802,40.741-14.406,60.26c-9.604,19.52-22.724,35.116-39.348,46.783c-16.628,11.672-37.13,18.851-61.499,21.532
		c-15.288,1.656-52.156,2.688-110.606,3.099h-154.6V22.803z M165.18,98.399v105.029h60.105c35.731,0,57.937-0.514,66.611-1.549
		c15.694-1.859,28.039-7.281,37.023-16.266c8.985-8.985,13.478-20.807,13.478-35.475c0-14.044-3.873-25.454-11.618-34.235
		c-7.745-8.776-19.262-14.097-34.545-15.956c-9.092-1.031-35.218-1.549-78.385-1.549H165.18z M165.18,279.024v121.45h84.891
		c33.044,0,54.01-0.93,62.894-2.789c13.632-2.479,24.732-8.52,33.306-18.124c8.568-9.604,12.857-22.462,12.857-38.572
		c0-13.633-3.307-25.197-9.914-34.7c-6.613-9.498-16.164-16.421-28.658-20.758c-12.5-4.338-39.609-6.507-81.329-6.507H165.18z"/>
</g>
</svg>
