<?xml version="1.0" encoding="utf-8"?>
<!-- Generator: Adobe Illustrator 15.1.0, SVG Export Plug-In . SVG Version: 6.00 Build 0)  -->
<!DOCTYPE svg PUBLIC "-//W3C//DTD SVG 1.1//EN" "http://www.w3.org/Graphics/SVG/1.1/DTD/svg11.dtd">
<svg version="1.1" id="Layer_1" xmlns="http://www.w3.org/2000/svg" xmlns:xlink="http://www.w3.org/1999/xlink" x="0px" y="0px"
	 width="504px" height="504px" viewBox="0 0 504 504" enable-background="new 0 0 504 504" xml:space="preserve">
<path d="M450.476,122.429h-99.768V63.104c0-3.095-5.175-5.604-11.561-5.604H165.305c-6.383,0-11.56,2.509-11.56,5.604v59.324H58.131
	c-15.478,0-28.025,11.752-28.025,26.249v262.497c0,14.497,12.547,26.25,28.025,26.25h392.345c15.477,0,28.024-11.753,28.024-26.25
	V148.678C478.5,134.181,465.952,122.429,450.476,122.429z M324.364,119.242c0,1.96-3.622,3.55-8.092,3.55h-125.29
	c-4.468,0-8.092-1.589-8.092-3.55V86.744c0-1.96,3.624-3.55,8.092-3.55h125.29c4.47,0,8.092,1.589,8.092,3.55V119.242z"/>
</svg>
