<?xml version="1.0" encoding="utf-8"?>
<!-- Generator: Adobe Illustrator 15.1.0, SVG Export Plug-In . SVG Version: 6.00 Build 0)  -->
<!DOCTYPE svg PUBLIC "-//W3C//DTD SVG 1.1//EN" "http://www.w3.org/Graphics/SVG/1.1/DTD/svg11.dtd">
<svg version="1.1" id="Layer_1" xmlns="http://www.w3.org/2000/svg" xmlns:xlink="http://www.w3.org/1999/xlink" x="0px" y="0px"
	 width="504px" height="504px" viewBox="0 0 504 504" enable-background="new 0 0 504 504" xml:space="preserve">
<path stroke="#000000" stroke-width="3" stroke-miterlimit="10" d="M434.188,321.907l29.029-8.547c0,0-34.598-43.764-89.778-42.543
	c-0.598-14.434-2.101-28.451-4.423-41.895c15.668-3.966,52-10.136,69.419,12l26.822-14.01c0,0-45.257-38.653-101.671-23.008
	c-10.515-39.976-28.564-73.21-51.169-94.719c7.123-13.274,14.355-33.256,15.837-61.093c3.086-57.998-13.03-13.018-13.03-13.018
	s-1.136,50.307-16.617,62.851c-14.319-9.861-30.015-15.314-46.476-15.314c-17.344,0-33.835,6.053-48.765,16.938
	c-17.873-8.85-19.129-64.475-19.129-64.475s-16.116-44.979-13.03,13.018c1.6,30.061,9.906,50.964,17.539,64.147
	c-21.454,21.842-38.521,54.437-48.495,93.28c-1.19-0.366-2.419-0.734-3.727-1.106c-56.717-16.124-102.32,22.833-102.32,22.833
	l26.823,14.011c19.426-24.687,62.378-14.169,73.955-10.764c-2.201,13.135-3.621,26.811-4.18,40.877
	c-57.955-3.975-94.558,42.324-94.558,42.324l29.029,8.547c12.719-24.934,49.176-26.065,65.473-25.24
	c0.582,16.427,2.338,32.327,5.137,47.469c-0.874,0.032-1.772,0.072-2.699,0.119c-58.887,3.017-89.501,54.593-89.501,54.593
	l29.909,4.618c10.959-31.126,59.013-33.845,68.11-34.08c5.036,18.119,11.634,34.784,19.51,49.525
	c-1.147,0.215-2.322,0.441-3.561,0.698c-57.736,11.966-80.122,67.61-80.122,67.61h30.262c6.725-35.866,63.585-44.322,63.585-44.322
	s1.269-1.019,3.092-2.646c21.065,29.119,48.135,46.634,77.664,46.634c28.738,0,55.143-16.594,75.956-44.322l0,0
	c0,0,56.86,8.456,63.585,44.322h30.261c0,0-22.147-55.031-79.186-67.403c8.024-14.908,14.738-31.804,19.841-50.192
	c15.272,1.06,53.64,6.453,63.282,33.842l29.908-4.618c0,0-29.883-50.333-87.385-54.456c2.818-15.27,4.578-31.311,5.142-47.883
	C391.337,296.234,422.605,299.201,434.188,321.907z"/>
</svg>
