<?xml version="1.0" encoding="utf-8"?>
<!-- Generator: Adobe Illustrator 15.1.0, SVG Export Plug-In . SVG Version: 6.00 Build 0)  -->
<!DOCTYPE svg PUBLIC "-//W3C//DTD SVG 1.1//EN" "http://www.w3.org/Graphics/SVG/1.1/DTD/svg11.dtd">
<svg version="1.1" id="Layer_1" xmlns="http://www.w3.org/2000/svg" xmlns:xlink="http://www.w3.org/1999/xlink" x="0px" y="0px"
	 width="504px" height="504px" viewBox="0 0 504 504" enable-background="new 0 0 504 504" xml:space="preserve">
<g>
	<path d="M404.5,72.5v-36h-70.667v36H171.167v-36H100.5v36h-28v360h360v-360H404.5z M411.167,414.5H92.5v-294h318.667V414.5z"/>
	<path d="M188.998,345.937c-7.301,0-13.521-2.674-18.66-8.021c-5.138-5.344-8.297-13.07-9.465-23.183l-36.782,4.812
		c1.893,17.985,8.743,32.54,20.556,43.669c11.805,11.133,26.68,16.696,44.623,16.696c18.931,0,34.752-6.61,47.462-19.829
		c12.71-13.219,19.065-29.212,19.065-47.973c0-12.927-3.406-23.961-10.208-33.099c-6.81-9.136-15.888-15.018-27.247-17.643
		c19.018-11.177,28.531-26.148,28.531-44.91c0-13.218-4.646-25.079-13.927-35.577c-11.272-12.832-26.233-19.247-44.893-19.247
		c-10.912,0-20.756,2.211-29.546,6.634c-8.79,4.425-15.644,10.499-20.554,18.227c-4.917,7.728-8.588,18.058-11.022,30.985
		l35.024,6.416c0.988-9.332,3.786-16.426,8.383-21.289c4.598-4.86,10.142-7.291,16.632-7.291c6.577,0,11.851,2.139,15.821,6.416
		c3.962,4.279,5.95,10.012,5.95,17.205c0,8.458-2.705,15.237-8.113,20.341c-5.409,5.104-13.252,7.509-23.528,7.218l-4.191,33.39
		c6.761-2.04,12.575-3.062,17.443-3.062c7.388,0,13.657,3.014,18.796,9.041c5.138,6.028,7.707,14.194,7.707,24.495
		c0,10.888-2.685,19.539-8.045,25.955C203.44,342.728,196.841,345.937,188.998,345.937z"/>
	<path d="M338.688,376.265h37.997V161.633h-30.83c-4.328,13.028-12.306,24.423-23.935,34.192
		c-11.63,9.769-22.402,16.404-32.318,19.903v37.182c18.842-6.708,35.201-17.061,49.086-31.058V376.265z"/>
</g>
</svg>
