<?xml version="1.0" encoding="utf-8"?>
<!-- Generator: Adobe Illustrator 15.1.0, SVG Export Plug-In . SVG Version: 6.00 Build 0)  -->
<!DOCTYPE svg PUBLIC "-//W3C//DTD SVG 1.1//EN" "http://www.w3.org/Graphics/SVG/1.1/DTD/svg11.dtd">
<svg version="1.1" id="Layer_1" xmlns="http://www.w3.org/2000/svg" xmlns:xlink="http://www.w3.org/1999/xlink" x="0px" y="0px"
	 width="504px" height="504px" viewBox="0 0 504 504" enable-background="new 0 0 504 504" xml:space="preserve">
<path d="M369.5,151.7l-23.4-70.2H158.9l-23.4,70.2h-117v280.8h468V151.7H369.5z M59,216.5c-7.456,0-13.5-6.044-13.5-13.5
	s6.044-13.5,13.5-13.5s13.5,6.044,13.5,13.5S66.456,216.5,59,216.5z M246.65,409.1c-61.387,0-111.15-49.764-111.15-111.149
	c0-61.387,49.763-111.15,111.15-111.15c61.387,0,111.15,49.763,111.15,111.15C357.8,359.336,308.037,409.1,246.65,409.1z"/>
</svg>
