<?xml version="1.0" encoding="utf-8"?>
<!-- Generator: Adobe Illustrator 15.1.0, SVG Export Plug-In . SVG Version: 6.00 Build 0)  -->
<!DOCTYPE svg PUBLIC "-//W3C//DTD SVG 1.1//EN" "http://www.w3.org/Graphics/SVG/1.1/DTD/svg11.dtd">
<svg version="1.1" id="Layer_1" xmlns="http://www.w3.org/2000/svg" xmlns:xlink="http://www.w3.org/1999/xlink" x="0px" y="0px"
	 width="504px" height="504px" viewBox="0 0 504 504" enable-background="new 0 0 504 504" xml:space="preserve">
<path d="M100.333,99.667c-84.223,84.223-84.223,220.775,0,304.999c84.223,84.223,220.775,84.224,304.999,0
	c84.223-84.223,84.223-220.776,0-304.999C321.109,15.444,184.557,15.444,100.333,99.667z M125.79,125.122
	c66.208-66.208,171.088-70.165,241.928-11.882L113.907,367.05C55.625,296.211,59.581,191.332,125.79,125.122z M380.82,380.152
	c-66.049,66.049-170.584,70.151-241.415,12.313l253.727-253.727C450.971,209.569,446.868,314.104,380.82,380.152z"/>
</svg>
