<?xml version="1.0" encoding="utf-8"?>
<!-- Generator: Adobe Illustrator 15.1.0, SVG Export Plug-In . SVG Version: 6.00 Build 0)  -->
<!DOCTYPE svg PUBLIC "-//W3C//DTD SVG 1.1//EN" "http://www.w3.org/Graphics/SVG/1.1/DTD/svg11.dtd">
<svg version="1.1" id="Layer_1" xmlns="http://www.w3.org/2000/svg" xmlns:xlink="http://www.w3.org/1999/xlink" x="0px" y="0px"
	 width="504px" height="504px" viewBox="0 0 504 504" enable-background="new 0 0 504 504" xml:space="preserve">
<g>
	<circle cx="251.964" cy="255.337" r="87.255"/>
	<path d="M251.963,148.435l208.025,0.578c0,0-45.65-117.881-195.312-129.438c0,0-116.148-13.291-195.313,90.145l79.165,139.261
		C148.529,248.98,154.885,153.058,251.963,148.435z"/>
	<path d="M467.082,166.043l-160.19-0.415c0,0,80.112,53.138,35.931,139.704L239.048,485.624c0,0,124.991,18.896,209.323-105.284
		C448.371,380.34,517.569,286.114,467.082,166.043z"/>
	<path d="M162.154,305.512L60.043,124.273c0,0-80.024,97.856-16.253,233.746c0,0,45.731,107.589,174.757,125.433l82.09-137.559
		C300.638,345.893,214.062,387.68,162.154,305.512z"/>
</g>
</svg>
