<?xml version="1.0" encoding="utf-8"?>
<!-- Generator: Adobe Illustrator 15.1.0, SVG Export Plug-In . SVG Version: 6.00 Build 0)  -->
<!DOCTYPE svg PUBLIC "-//W3C//DTD SVG 1.1//EN" "http://www.w3.org/Graphics/SVG/1.1/DTD/svg11.dtd">
<svg version="1.1" id="Layer_1" xmlns="http://www.w3.org/2000/svg" xmlns:xlink="http://www.w3.org/1999/xlink" x="0px" y="0px"
	 width="504px" height="504px" viewBox="0 0 504 504" enable-background="new 0 0 504 504" xml:space="preserve">
<g>
	<path d="M252,500c-66.244,0-128.522-25.813-175.363-72.682C29.796,380.449,4,318.135,4,251.853
		c0-66.282,25.796-128.597,72.637-175.465C123.478,29.518,185.756,3.706,252,3.706c66.244,0,128.522,25.812,175.363,72.682
		C474.204,123.256,500,185.571,500,251.853c0,66.282-25.796,128.596-72.637,175.465S318.243,500,252,500z M252,13.706
		c-131.234,0-238,106.832-238,238.147S120.766,490,252,490c131.233,0,238-106.832,238-238.147S383.233,13.706,252,13.706z"/>
</g>
</svg>
