<?xml version="1.0" encoding="utf-8"?>
<!-- Generator: Adobe Illustrator 15.1.0, SVG Export Plug-In . SVG Version: 6.00 Build 0)  -->
<!DOCTYPE svg PUBLIC "-//W3C//DTD SVG 1.1//EN" "http://www.w3.org/Graphics/SVG/1.1/DTD/svg11.dtd">
<svg version="1.1" id="Layer_1" xmlns="http://www.w3.org/2000/svg" xmlns:xlink="http://www.w3.org/1999/xlink" x="0px" y="0px"
	 width="504px" height="504px" viewBox="0 0 504 504" enable-background="new 0 0 504 504" xml:space="preserve">
<ellipse fill="none" stroke="#000000" stroke-width="3" stroke-miterlimit="10" cx="252" cy="251.853" rx="243" ry="243.147"/>
<g>
	<g>
		<g>
			<g>
				<g>
					<path d="M257,500h-5c-66.244,0-128.522-25.797-175.363-72.638S4,318.243,4,252c0-66.244,25.796-128.522,72.637-175.363
						S185.756,4,252,4h5V500z M247,14.052C118.07,16.728,14,122.44,14,252s104.07,235.272,233,237.948V14.052z"/>
				</g>
			</g>
		</g>
		<g>
			<g>
				<g>
					<path d="M252,252V9c134.205,0,243,108.794,243,243c0,134.205-108.795,243-243,243l0,0V252z"/>
					<path d="M252,500h-5V4h5c66.243,0,128.521,25.796,175.362,72.637S500,185.756,500,252c0,66.243-25.797,128.521-72.638,175.362
						S318.243,500,252,500z M257,14.052v475.896C385.93,487.272,490,381.56,490,252S385.93,16.728,257,14.052z"/>
				</g>
			</g>
		</g>
	</g>
</g>
</svg>
