<?xml version="1.0" encoding="utf-8"?>
<!-- Generator: Adobe Illustrator 15.1.0, SVG Export Plug-In . SVG Version: 6.00 Build 0)  -->
<!DOCTYPE svg PUBLIC "-//W3C//DTD SVG 1.1//EN" "http://www.w3.org/Graphics/SVG/1.1/DTD/svg11.dtd">
<svg version="1.1" id="Layer_1" xmlns="http://www.w3.org/2000/svg" xmlns:xlink="http://www.w3.org/1999/xlink" x="0px" y="0px"
	 width="504px" height="504px" viewBox="0 0 504 504" enable-background="new 0 0 504 504" xml:space="preserve">
<g>
	<path fill="none" d="M257.001,14.052v475.896c128.93-2.676,233-108.39,233-237.948C490.001,122.441,385.931,16.728,257.001,14.052z
		"/>
	<path d="M500.001,252c0-66.244-25.797-128.522-72.638-175.363C381.703,30.977,321.372,5.326,257.001,4.061V4h-5h-5v0.061
		C182.63,5.326,122.298,30.977,76.639,76.637C29.797,123.478,4.001,185.756,4.001,252c0,66.243,25.796,128.521,72.638,175.362
		c45.66,45.66,105.991,71.312,170.362,72.577V500h5h5v-0.061c64.371-1.266,124.702-26.917,170.362-72.577
		C474.204,380.521,500.001,318.243,500.001,252z M257.001,489.948V14.052c128.93,2.676,233,108.389,233,237.948
		C490.001,381.559,385.931,487.272,257.001,489.948z"/>
</g>
</svg>
