<?xml version="1.0" encoding="utf-8"?>
<!-- Generator: Adobe Illustrator 15.1.0, SVG Export Plug-In . SVG Version: 6.00 Build 0)  -->
<!DOCTYPE svg PUBLIC "-//W3C//DTD SVG 1.1//EN" "http://www.w3.org/Graphics/SVG/1.1/DTD/svg11.dtd">
<svg version="1.1" id="Layer_1" xmlns="http://www.w3.org/2000/svg" xmlns:xlink="http://www.w3.org/1999/xlink" x="0px" y="0px"
	 width="504px" height="504px" viewBox="0 0 504 504" enable-background="new 0 0 504 504" xml:space="preserve">
<ellipse fill="none" stroke="#000000" stroke-width="3" stroke-miterlimit="10" cx="252" cy="251.853" rx="243" ry="243.147"/>
<g>
	<path fill="none" d="M257,14.052V257H14.052C16.728,385.93,122.44,490,252,490c131.233,0,238-106.768,238-238
		C490,122.44,385.93,16.728,257,14.052z"/>
	<path d="M427.362,76.637C381.702,30.977,321.371,5.326,257,4.061V4h-5h-5v0.061C182.629,5.326,122.298,30.977,76.638,76.637
		C30.977,122.297,5.326,182.628,4.061,247H4v5v5h0.061c1.265,64.371,26.916,124.702,72.577,170.362
		C123.479,474.203,185.757,500,252,500s128.521-25.797,175.362-72.638S500,318.243,500,252
		C500,185.756,474.203,123.478,427.362,76.637z M252,490C122.44,490,16.728,385.93,14.052,257H257V14.052
		C385.93,16.728,490,122.44,490,252C490,383.232,383.233,490,252,490z"/>
</g>
</svg>
