<?xml version="1.0" encoding="utf-8"?>
<!-- Generator: Adobe Illustrator 15.1.0, SVG Export Plug-In . SVG Version: 6.00 Build 0)  -->
<!DOCTYPE svg PUBLIC "-//W3C//DTD SVG 1.1//EN" "http://www.w3.org/Graphics/SVG/1.1/DTD/svg11.dtd">
<svg version="1.1" id="Layer_1" xmlns="http://www.w3.org/2000/svg" xmlns:xlink="http://www.w3.org/1999/xlink" x="0px" y="0px"
	 width="504px" height="504px" viewBox="0 0 504 504" enable-background="new 0 0 504 504" xml:space="preserve">
<ellipse fill="none" stroke="#000000" stroke-width="3" stroke-miterlimit="10" cx="252" cy="251.853" rx="243" ry="243.147"/>
<g>
	<g>
		<g>
			<g>
				<g>
					<path d="M252.001,500h-5V4h5c66.243,0,128.521,25.796,175.362,72.637S500.001,185.756,500.001,252
						c0,66.243-25.797,128.521-72.638,175.362S318.244,500,252.001,500z M257.001,14.052v475.896
						c128.93-2.676,233-108.389,233-237.948S385.931,16.728,257.001,14.052z"/>
				</g>
			</g>
		</g>
		<g>
			<g>
				<g>
					<path d="M252.001,252V9c-134.205,0-243,108.794-243,243c0,134.205,108.795,243,243,243l0,0V252z"/>
					<path d="M257.001,500h-5c-66.243,0-128.521-25.797-175.362-72.638C29.797,380.521,4.001,318.243,4.001,252
						c0-66.244,25.796-128.522,72.638-175.363C123.479,29.796,185.758,4,252.001,4h5V500z M247.001,14.052
						c-128.93,2.676-233,108.389-233,237.948s104.07,235.272,233,237.948V14.052z"/>
				</g>
			</g>
		</g>
	</g>
</g>
</svg>
