<?xml version="1.0" encoding="utf-8"?>
<!-- Generator: Adobe Illustrator 15.1.0, SVG Export Plug-In . SVG Version: 6.00 Build 0)  -->
<!DOCTYPE svg PUBLIC "-//W3C//DTD SVG 1.1//EN" "http://www.w3.org/Graphics/SVG/1.1/DTD/svg11.dtd">
<svg version="1.1" id="Layer_1" xmlns="http://www.w3.org/2000/svg" xmlns:xlink="http://www.w3.org/1999/xlink" x="0px" y="0px"
	 width="504px" height="504px" viewBox="0 0 504 504" enable-background="new 0 0 504 504" xml:space="preserve">
<ellipse fill="none" stroke="#000000" stroke-width="3" stroke-miterlimit="10" cx="252" cy="251.853" rx="243" ry="243.147"/>
<g>
	<g>
		<g>
			<g>
				<g>
					<path d="M500.001,257h-253V4h5c66.243,0,128.521,25.796,175.362,72.637S500.001,185.756,500.001,252V257z M257.001,247h232.948
						C487.308,119.736,384.265,16.693,257.001,14.052V247z"/>
				</g>
			</g>
		</g>
		<g>
			<g>
				<g>
					<path d="M252.001,252V9c-134.205,0-243,108.794-243,243c0,134.205,108.795,243,243,243s243-108.795,243-243l0,0H252.001z"/>
					<path d="M252.001,500c-66.243,0-128.521-25.797-175.362-72.638C29.797,380.521,4.001,318.243,4.001,252
						c0-66.244,25.796-128.522,72.638-175.363C123.479,29.796,185.758,4,252.001,4h5v243h243v5
						c0,66.243-25.797,128.521-72.638,175.362S318.244,500,252.001,500z M247.001,14.052c-128.93,2.676-233,108.389-233,237.948
						c0,131.233,106.766,238,238,238c129.56,0,235.272-104.07,237.948-233H247.001V14.052z"/>
				</g>
			</g>
		</g>
	</g>
</g>
</svg>
