<?xml version="1.0" encoding="utf-8"?>
<!-- Generator: Adobe Illustrator 15.1.0, SVG Export Plug-In . SVG Version: 6.00 Build 0)  -->
<!DOCTYPE svg PUBLIC "-//W3C//DTD SVG 1.1//EN" "http://www.w3.org/Graphics/SVG/1.1/DTD/svg11.dtd">
<svg version="1.1" id="Layer_1" xmlns="http://www.w3.org/2000/svg" xmlns:xlink="http://www.w3.org/1999/xlink" x="0px" y="0px"
	 width="504px" height="504px" viewBox="0 0 504 504" enable-background="new 0 0 504 504" xml:space="preserve">
<g>
	<path fill="none" d="M489.949,247C487.308,119.736,384.265,16.693,257.001,14.052V247H489.949z"/>
	<path d="M499.94,247c-1.265-64.372-26.917-124.703-72.577-170.363C381.703,30.977,321.372,5.326,257.001,4.061V4h-5h-5v0.061
		C182.63,5.326,122.298,30.977,76.639,76.637C29.797,123.478,4.001,185.756,4.001,252c0,66.243,25.796,128.521,72.638,175.362
		C123.48,474.203,185.758,500,252.001,500s128.521-25.797,175.362-72.638c45.66-45.66,71.312-105.991,72.577-170.362h0.061v-5v-5
		H499.94z M489.949,247H257.001V14.052C384.265,16.693,487.308,119.736,489.949,247z"/>
</g>
</svg>
