<?xml version="1.0" encoding="utf-8"?>
<!-- Generator: Adobe Illustrator 15.1.0, SVG Export Plug-In . SVG Version: 6.00 Build 0)  -->
<!DOCTYPE svg PUBLIC "-//W3C//DTD SVG 1.1//EN" "http://www.w3.org/Graphics/SVG/1.1/DTD/svg11.dtd">
<svg version="1.1" id="Layer_1" xmlns="http://www.w3.org/2000/svg" xmlns:xlink="http://www.w3.org/1999/xlink" x="0px" y="0px"
	 width="504px" height="504px" viewBox="0 0 504 504" enable-background="new 0 0 504 504" xml:space="preserve">
<g>
	<path d="M252.833,48.5c-119.109,0-215.667,96.557-215.667,215.667c0,119.108,96.557,215.667,215.667,215.667
		c119.11,0,215.667-96.559,215.667-215.667C468.5,145.057,371.942,48.5,252.833,48.5z M252.834,445.167
		c-99.596,0-180.334-80.737-180.334-180.333C72.5,165.238,153.238,84.5,252.834,84.5c99.595,0,180.333,80.738,180.333,180.334
		C433.167,364.43,352.429,445.167,252.834,445.167z"/>
	<path d="M382.833,246.499H270.834V121.513c0-10.5-8.059-19.012-18-19.012c-9.942,0-18.001,8.512-18.001,19.012V258.82
		c0,0.996,0.094,1.967,0.234,2.92c-0.139,0.902-0.233,1.818-0.233,2.759c0,9.942,8.059,18.002,18,18.002h129.999
		c9.941,0,18-8.06,18-18.002C400.833,254.559,392.774,246.499,382.833,246.499z"/>
	<path d="M166.546,42.125c-21.253-25.783-64.88-24.924-97.444,1.919c-32.564,26.842-41.734,69.504-20.481,95.287L166.546,42.125z"/>
	<path d="M433.587,44.044c-32.563-26.843-76.19-27.702-97.444-1.919l117.926,97.206C475.321,113.549,466.151,70.887,433.587,44.044z
		"/>
</g>
</svg>
