<?xml version="1.0" encoding="utf-8"?>
<!-- Generator: Adobe Illustrator 15.1.0, SVG Export Plug-In . SVG Version: 6.00 Build 0)  -->
<!DOCTYPE svg PUBLIC "-//W3C//DTD SVG 1.1//EN" "http://www.w3.org/Graphics/SVG/1.1/DTD/svg11.dtd">
<svg version="1.1" id="Layer_1" xmlns="http://www.w3.org/2000/svg" xmlns:xlink="http://www.w3.org/1999/xlink" x="0px" y="0px"
	 width="504px" height="504px" viewBox="0 0 504 504" enable-background="new 0 0 504 504" xml:space="preserve">
<path d="M252.833,36.5c-119.109,0-215.667,96.557-215.667,215.667c0,119.109,96.557,215.667,215.667,215.667
	S468.5,371.276,468.5,252.167C468.5,133.057,371.942,36.5,252.833,36.5z M252.834,433.167c-99.596,0-180.334-80.738-180.334-180.333
	C72.5,153.238,153.238,72.5,252.834,72.5c99.595,0,180.333,80.738,180.333,180.334C433.167,352.429,352.429,433.167,252.834,433.167
	z"/>
<path d="M270.834,246.821c0,10.5-8.059,19.012-18,19.012l0,0c-9.942,0-18.001-8.512-18.001-19.012V109.513
	c0-10.5,8.059-19.012,18.001-19.012l0,0c9.941,0,18,8.512,18,19.012V246.821z"/>
<path d="M382.833,234.499c9.941,0,18,8.059,18,18l0,0c0,9.942-8.059,18.002-18,18.002H252.834c-9.941,0-18-8.06-18-18.002l0,0
	c0-9.941,8.059-18,18-18H382.833z"/>
</svg>
