<?xml version="1.0" encoding="utf-8"?>
<!-- Generator: Adobe Illustrator 15.1.0, SVG Export Plug-In . SVG Version: 6.00 Build 0)  -->
<!DOCTYPE svg PUBLIC "-//W3C//DTD SVG 1.1//EN" "http://www.w3.org/Graphics/SVG/1.1/DTD/svg11.dtd">
<svg version="1.1" id="Layer_1" xmlns="http://www.w3.org/2000/svg" xmlns:xlink="http://www.w3.org/1999/xlink" x="0px" y="0px"
	 width="504px" height="504px" viewBox="0 0 504 504" enable-background="new 0 0 504 504" xml:space="preserve">
<path d="M405.95,189.868c0.889-4.359,1.355-8.874,1.355-13.497c0-36.971-29.828-66.942-66.622-66.942
	c-20.229,0-38.339,9.072-50.558,23.373c-22.438-14.742-49.587-23.373-78.843-23.373c-77.126,0-139.649,59.942-139.649,133.884
	c0,1.374,0.029,2.742,0.071,4.106c-31.355,10.115-53.881,37.859-53.881,70.523c0,38.596,31.437,70.345,71.747,74.228v0.401h249.832
	v-0.161c80.682-3.058,144.774-50.284,144.774-108.099C484.177,243.754,452.633,208.412,405.95,189.868z M245.083,392.57l-69.719-86
	h30.718V182.499h78V306.57h30.719L245.083,392.57z"/>
</svg>
