<?xml version="1.0" encoding="utf-8"?>
<!-- Generator: Adobe Illustrator 15.1.0, SVG Export Plug-In . SVG Version: 6.00 Build 0)  -->
<!DOCTYPE svg PUBLIC "-//W3C//DTD SVG 1.1//EN" "http://www.w3.org/Graphics/SVG/1.1/DTD/svg11.dtd">
<svg version="1.1" id="Layer_1" xmlns="http://www.w3.org/2000/svg" xmlns:xlink="http://www.w3.org/1999/xlink" x="0px" y="0px"
	 width="504px" height="504px" viewBox="0 0 504 504" enable-background="new 0 0 504 504" xml:space="preserve">
<path d="M443.01,81.658H188.712c-21.119,0-38.24,17.121-38.24,38.24v10.707h181.641c21.119,0,38.24,17.121,38.24,38.24v133.841
	h1.147l71.126,58.89l0.383-58.89c21.119,0,38.24-17.121,38.24-38.24V119.898C481.25,98.779,464.129,81.658,443.01,81.658z"/>
<path d="M22.75,326.396c0,21.119,17.121,38.24,38.24,38.24l0.382,58.89l71.127-58.89h182.788c21.12,0,38.24-17.121,38.24-38.24
	V181.847c0-21.119-17.12-38.24-38.24-38.24H60.99c-21.119,0-38.24,17.121-38.24,38.24V326.396z"/>
</svg>
