<?xml version="1.0" encoding="utf-8"?>
<!-- Generator: Adobe Illustrator 15.1.0, SVG Export Plug-In . SVG Version: 6.00 Build 0)  -->
<!DOCTYPE svg PUBLIC "-//W3C//DTD SVG 1.1//EN" "http://www.w3.org/Graphics/SVG/1.1/DTD/svg11.dtd">
<svg version="1.1" id="Layer_1" xmlns="http://www.w3.org/2000/svg" xmlns:xlink="http://www.w3.org/1999/xlink" x="0px" y="0px"
	 width="504px" height="504px" viewBox="0 0 504 504" enable-background="new 0 0 504 504" xml:space="preserve">
<g>
	<path stroke="#000000" stroke-miterlimit="10" d="M396.5,395.5l-24.676-62.368c8.016-11.84,14.309-24.938,18.536-38.935L485.5,253
		l-94.798-41.048c-4.269-14.573-10.775-28.188-19.13-40.447L396.5,108.5l-63.004,24.929c-12.119-8.26-25.565-14.712-39.951-18.983
		L252,18.5l-41.694,96.287c-13.587,4.158-26.319,10.27-37.87,18.011L108.5,107.5l25.18,63.642
		c-8.063,11.752-14.432,24.757-18.745,38.668L17.5,252l97.094,42.043c4.271,14.198,10.67,27.474,18.834,39.452L108.5,396.5
		l63.004-24.929c11.47,7.817,24.128,14.021,37.647,18.283L251,486.5l41.397-95.604c15.187-4.37,29.339-11.175,42.017-19.96
		L396.5,395.5z M252.5,133.5c65.723,0,119,53.278,119,119c0,65.723-53.277,119-119,119c-65.722,0-119-53.277-119-119
		C133.5,186.778,186.778,133.5,252.5,133.5z"/>
	<polygon stroke="#000000" stroke-miterlimit="10" points="311.9,323.322 251,182.678 190.099,323.322 250.061,286.936 	"/>
</g>
</svg>
