<?xml version="1.0" encoding="utf-8"?>
<!-- Generator: Adobe Illustrator 15.1.0, SVG Export Plug-In . SVG Version: 6.00 Build 0)  -->
<!DOCTYPE svg PUBLIC "-//W3C//DTD SVG 1.1//EN" "http://www.w3.org/Graphics/SVG/1.1/DTD/svg11.dtd">
<svg version="1.1" id="Layer_1" xmlns="http://www.w3.org/2000/svg" xmlns:xlink="http://www.w3.org/1999/xlink" x="0px" y="0px"
	 width="504px" height="504px" viewBox="0 0 504 504" enable-background="new 0 0 504 504" xml:space="preserve">
<g>
	<path fill="#221E1F" d="M253,107.5c-79.805,0-144.5,64.919-144.5,145s64.695,145,144.5,145c79.805,0,144.5-64.919,144.5-145
		S332.805,107.5,253,107.5z M343.844,343.736C319.575,368.089,287.313,381.5,253,381.5c-34.313,0-66.575-13.411-90.844-37.764
		C137.873,319.369,124.5,286.968,124.5,252.5s13.373-66.869,37.656-91.236C186.425,136.911,218.687,123.5,253,123.5
		c34.313,0,66.575,13.412,90.844,37.764c24.283,24.367,37.656,56.769,37.656,91.236C381.5,286.968,368.127,319.369,343.844,343.736z
		"/>
	<circle fill="#221E1F" cx="252" cy="64" r="27.5"/>
	<circle fill="#221E1F" cx="252" cy="444" r="27.5"/>
	<circle fill="#221E1F" cx="63" cy="252" r="27.5"/>
	<circle fill="#221E1F" cx="443" cy="252" r="27.5"/>
	<circle fill="#221E1F" cx="117.943" cy="120.357" r="27.5"/>
	<circle fill="#221E1F" cx="386.643" cy="389.058" r="27.5"/>
	<circle fill="#221E1F" cx="117.235" cy="386.936" r="27.5"/>
	<circle fill="#221E1F" cx="385.936" cy="118.236" r="27.5"/>
</g>
</svg>
