<?xml version="1.0" encoding="utf-8"?>
<!-- Generator: Adobe Illustrator 15.1.0, SVG Export Plug-In . SVG Version: 6.00 Build 0)  -->
<!DOCTYPE svg PUBLIC "-//W3C//DTD SVG 1.1//EN" "http://www.w3.org/Graphics/SVG/1.1/DTD/svg11.dtd">
<svg version="1.1" id="Layer_1" xmlns="http://www.w3.org/2000/svg" xmlns:xlink="http://www.w3.org/1999/xlink" x="0px" y="0px"
	 width="504px" height="504px" viewBox="0 0 504 504" enable-background="new 0 0 504 504" xml:space="preserve">
<g>
	<g>
		<path d="M253,107.5V107c-79.805,0-144.5,64.919-144.5,145c0,0.083,0.003,0.167,0.003,0.25s-0.003,0.167-0.003,0.25
			c0,80.081,64.695,145,144.5,145c79.805,0,144.5-64.919,144.5-145S332.805,107.5,253,107.5z M343.844,343.736
			C319.575,368.089,287.313,381.5,253,381.5v-258c34.313,0,66.575,13.412,90.844,37.764c24.283,24.367,37.656,56.769,37.656,91.236
			C381.5,286.968,368.127,319.369,343.844,343.736z"/>
	</g>
	<g>
		<circle cx="252" cy="64" r="27.5"/>
	</g>
	<g>
		<circle cx="252" cy="444" r="27.5"/>
	</g>
	<g>
		<circle cx="63" cy="252" r="27.5"/>
	</g>
	<g>
		<circle cx="443" cy="252" r="27.5"/>
	</g>
	<g>
		<circle cx="117.943" cy="120.357" r="27.5"/>
	</g>
	<g>
		<circle cx="386.643" cy="389.058" r="27.5"/>
	</g>
	<g>
		<circle cx="117.235" cy="386.936" r="27.5"/>
	</g>
	<g>
		<circle cx="385.936" cy="118.236" r="27.5"/>
	</g>
</g>
</svg>
