<?xml version="1.0" encoding="utf-8"?>
<!-- Generator: Adobe Illustrator 15.1.0, SVG Export Plug-In . SVG Version: 6.00 Build 0)  -->
<!DOCTYPE svg PUBLIC "-//W3C//DTD SVG 1.1//EN" "http://www.w3.org/Graphics/SVG/1.1/DTD/svg11.dtd">
<svg version="1.1" id="Layer_1" xmlns="http://www.w3.org/2000/svg" xmlns:xlink="http://www.w3.org/1999/xlink" x="0px" y="0px"
	 width="504px" height="504px" viewBox="0 0 504 504" enable-background="new 0 0 504 504" xml:space="preserve">
<path d="M423.453,112.994c0-0.252-0.013-0.504-0.038-0.755c-0.009-0.084-0.024-0.166-0.037-0.25
	c-0.021-0.162-0.041-0.324-0.072-0.484c-0.025-0.119-0.059-0.233-0.088-0.35c-0.031-0.124-0.058-0.248-0.096-0.37
	c-0.034-0.114-0.078-0.224-0.118-0.336c-0.044-0.122-0.083-0.245-0.134-0.365c-0.042-0.102-0.093-0.199-0.14-0.298
	c-0.059-0.125-0.114-0.252-0.181-0.374c-0.049-0.093-0.106-0.18-0.16-0.271c-0.073-0.123-0.142-0.247-0.223-0.366
	c-0.068-0.102-0.146-0.198-0.22-0.296c-0.074-0.1-0.143-0.202-0.224-0.298c-0.158-0.192-0.325-0.375-0.5-0.551
	c-0.004-0.003-0.007-0.007-0.011-0.011l-81.491-80.93c-0.056-0.055-0.116-0.101-0.172-0.153c-0.123-0.115-0.245-0.231-0.376-0.337
	c-0.095-0.077-0.194-0.146-0.291-0.219c-0.102-0.075-0.201-0.152-0.306-0.223c-0.11-0.073-0.226-0.138-0.34-0.206
	c-0.099-0.059-0.196-0.121-0.298-0.175c-0.116-0.062-0.234-0.114-0.352-0.169c-0.107-0.05-0.213-0.103-0.322-0.147
	c-0.116-0.048-0.233-0.087-0.351-0.129c-0.117-0.041-0.232-0.085-0.351-0.121c-0.119-0.036-0.239-0.063-0.359-0.093
	c-0.119-0.029-0.238-0.063-0.36-0.086c-0.137-0.027-0.273-0.043-0.411-0.063c-0.107-0.015-0.213-0.035-0.323-0.046
	c-0.189-0.018-0.381-0.024-0.572-0.029c-0.056,0-0.109-0.008-0.166-0.008h-0.023c-0.001,0-0.003,0-0.005,0H132.611
	c-4.192,0-7.59,3.398-7.59,7.59v23.482h-34.37c-0.16,0-0.317,0.014-0.474,0.024c-0.158-0.01-0.314-0.024-0.474-0.024
	c-4.192,0-7.59,3.398-7.59,7.59V474.91c0,4.191,3.398,7.59,7.59,7.59h294.116c4.192,0,7.591-3.398,7.591-7.59v-30.599h24.454
	c4.192,0,7.591-3.397,7.591-7.589V113.004C423.454,113.001,423.453,112.998,423.453,112.994z M341.963,50.31l55.486,55.104h-55.486
	V50.31z M376.229,467.319H97.292V70.737h27.728v365.986c0,4.191,3.398,7.589,7.59,7.589h243.618V467.319z M408.273,429.132H140.201
	V39.665h186.581v73.339c0,4.192,3.397,7.59,7.59,7.59h73.901V429.132z"/>
</svg>
