<?xml version="1.0" encoding="utf-8"?>
<!-- Generator: Adobe Illustrator 15.1.0, SVG Export Plug-In . SVG Version: 6.00 Build 0)  -->
<!DOCTYPE svg PUBLIC "-//W3C//DTD SVG 1.1//EN" "http://www.w3.org/Graphics/SVG/1.1/DTD/svg11.dtd">
<svg version="1.1" id="Layer_1" xmlns="http://www.w3.org/2000/svg" xmlns:xlink="http://www.w3.org/1999/xlink" x="0px" y="0px"
	 width="504px" height="504px" viewBox="0 0 504 504" enable-background="new 0 0 504 504" xml:space="preserve">
<g>
	<path d="M440.318,392.221H65.682c-18.296,0-33.182-14.885-33.182-33.182V144.961c0-18.296,14.886-33.182,33.182-33.182h374.636
		c18.297,0,33.182,14.886,33.182,33.182v214.078C473.5,377.336,458.615,392.221,440.318,392.221z M65.682,124.624
		c-11.214,0-20.337,9.124-20.337,20.337v214.078c0,11.214,9.124,20.337,20.337,20.337h374.636c11.214,0,20.337-9.123,20.337-20.337
		V144.961c0-11.214-9.123-20.337-20.337-20.337H65.682z"/>
</g>
<path d="M309.468,166.637c-20.441,0-40.196,7.354-55.685,20.702c-14.955-12.885-34.394-20.702-55.635-20.702
	c-47.069,0-85.364,38.294-85.364,85.363s38.294,85.363,85.364,85.363c21.229,0,40.659-7.809,55.61-20.68l1.07,0.893
	c15.298,12.76,34.703,19.787,54.64,19.787c47.07,0,85.364-38.294,85.364-85.363S356.538,166.637,309.468,166.637z M198.148,320.237
	c-37.626,0-68.237-30.61-68.237-68.237c0-37.626,30.611-68.237,68.237-68.237c37.626,0,68.237,30.611,68.237,68.237
	C266.385,289.627,235.774,320.237,198.148,320.237z"/>
</svg>
