<?xml version="1.0" encoding="utf-8"?>
<!-- Generator: Adobe Illustrator 15.1.0, SVG Export Plug-In . SVG Version: 6.00 Build 0)  -->
<!DOCTYPE svg PUBLIC "-//W3C//DTD SVG 1.1//EN" "http://www.w3.org/Graphics/SVG/1.1/DTD/svg11.dtd">
<svg version="1.1" id="Layer_1" xmlns="http://www.w3.org/2000/svg" xmlns:xlink="http://www.w3.org/1999/xlink" x="0px" y="0px"
	 width="504px" height="504px" viewBox="0 0 504 504" enable-background="new 0 0 504 504" xml:space="preserve">
<path d="M252.5,103.5c108.626,0,197,88.374,197,197h40c0-63.305-24.652-122.821-69.416-167.584
	C375.321,88.152,315.805,63.5,252.5,63.5c-63.305,0-122.821,24.652-167.584,69.416C40.152,177.679,15.5,237.195,15.5,300.5h40
	C55.5,191.874,143.874,103.5,252.5,103.5z"/>
<path d="M405.337,224.471l-128.049,80.72c-7.852-3.02-16.373-4.691-25.288-4.691c-38.936,0-70.5,31.564-70.5,70.5
	c0,38.937,31.564,70.5,70.5,70.5c38.936,0,70.5-31.563,70.5-70.5c0-4.496-0.438-8.887-1.243-13.148L405.337,224.471z"/>
</svg>
