<?xml version="1.0" encoding="utf-8"?>
<!-- Generator: Adobe Illustrator 15.1.0, SVG Export Plug-In . SVG Version: 6.00 Build 0)  -->
<!DOCTYPE svg PUBLIC "-//W3C//DTD SVG 1.1//EN" "http://www.w3.org/Graphics/SVG/1.1/DTD/svg11.dtd">
<svg version="1.1" id="Layer_1" xmlns="http://www.w3.org/2000/svg" xmlns:xlink="http://www.w3.org/1999/xlink" x="0px" y="0px"
	 width="504px" height="504px" viewBox="0 0 504 504" enable-background="new 0 0 504 504" xml:space="preserve">
<path d="M252.5,103.5c108.626,0,197,88.374,197,197h40c0-63.305-24.652-122.821-69.416-167.584
	C375.321,88.152,315.805,63.5,252.5,63.5c-63.305,0-122.821,24.652-167.584,69.416C40.152,177.679,15.5,237.195,15.5,300.5h40
	C55.5,191.874,143.874,103.5,252.5,103.5z"/>
<path d="M252,300.5c-8.916,0-17.436,1.672-25.288,4.691l-128.049-80.72l84.08,133.379c-0.804,4.262-1.243,8.653-1.243,13.149
	c0,38.937,31.564,70.5,70.5,70.5c38.936,0,70.5-31.563,70.5-70.5C322.5,332.064,290.936,300.5,252,300.5z"/>
</svg>
