<?xml version="1.0" encoding="utf-8"?>
<!-- Generator: Adobe Illustrator 15.1.0, SVG Export Plug-In . SVG Version: 6.00 Build 0)  -->
<!DOCTYPE svg PUBLIC "-//W3C//DTD SVG 1.1//EN" "http://www.w3.org/Graphics/SVG/1.1/DTD/svg11.dtd">
<svg version="1.1" id="Layer_1" xmlns="http://www.w3.org/2000/svg" xmlns:xlink="http://www.w3.org/1999/xlink" x="0px" y="0px"
	 width="504px" height="504px" viewBox="0 0 504 504" enable-background="new 0 0 504 504" xml:space="preserve">
<path fill-rule="evenodd" clip-rule="evenodd" d="M454.196,113.965h-0.64C450.568,71.258,362.11,37,253.419,37
	C142.84,37,53.198,72.457,53.198,116.196v39.04h0.322c5.851,41.664,93.105,74.734,199.898,74.734
	c108.691,0,197.149-34.257,200.138-76.964h0.64V113.965z"/>
<path fill-rule="evenodd" clip-rule="evenodd" d="M452.134,196.786c-3.354,42.578-91.655,76.686-200.109,76.686
	c-106.792,0-194.048-33.07-199.898-74.734h-0.304c-0.003,0.187-0.018,0.372-0.018,0.558v39.04h0.322
	c5.851,41.663,93.106,74.734,199.898,74.734c108.691,0,197.149-34.258,200.138-76.965h0.641v-39.041h-0.641
	C452.155,196.971,452.142,196.88,452.134,196.786z"/>
<path fill-rule="evenodd" clip-rule="evenodd" d="M452.134,272.636c-3.354,42.578-91.655,76.686-200.109,76.686
	c-106.792,0-194.048-33.07-199.898-74.733h-0.304c-0.003,0.186-0.018,0.371-0.018,0.558v39.04h0.322
	c5.851,41.663,93.106,74.734,199.898,74.734c108.691,0,197.149-34.258,200.138-76.965h0.641v-39.041h-0.641
	C452.155,272.82,452.142,272.729,452.134,272.636z"/>
<path fill-rule="evenodd" clip-rule="evenodd" d="M452.134,350.716c-3.354,42.578-91.655,76.687-200.109,76.687
	c-106.792,0-194.048-33.071-199.898-74.734h-0.304c-0.003,0.187-0.018,0.371-0.018,0.558v39.04h0.322
	C57.977,433.929,145.232,467,252.024,467c108.691,0,197.149-34.257,200.138-76.965h0.641v-39.04h-0.641
	C452.155,350.901,452.142,350.81,452.134,350.716z"/>
</svg>
