<?xml version="1.0" encoding="utf-8"?>
<!-- Generator: Adobe Illustrator 15.1.0, SVG Export Plug-In . SVG Version: 6.00 Build 0)  -->
<!DOCTYPE svg PUBLIC "-//W3C//DTD SVG 1.1//EN" "http://www.w3.org/Graphics/SVG/1.1/DTD/svg11.dtd">
<svg version="1.1" id="Layer_1" xmlns="http://www.w3.org/2000/svg" xmlns:xlink="http://www.w3.org/1999/xlink" x="0px" y="0px"
	 width="504px" height="504px" viewBox="0 0 504 504" enable-background="new 0 0 504 504" xml:space="preserve">
<g>
	<path d="M337.705,216.2c-2.289-32.73-70.083-58.985-153.384-58.985c-84.748,0-153.448,27.174-153.448,60.695v29.92h0.247
		c4.484,31.931,71.355,57.276,153.201,57.276c83.301,0,151.095-26.255,153.385-58.985h0.491V216.2H337.705z"/>
	<path d="M336.615,279.674c-2.569,32.633-70.244,58.773-153.362,58.773c-81.845,0-148.718-25.346-153.201-57.277h-0.233
		c-0.002,0.144-0.014,0.285-0.014,0.428v29.92h0.247c4.484,31.931,71.356,57.276,153.201,57.276
		c83.3,0,151.094-26.255,153.385-58.985h0.491v-29.922h-0.491C336.632,279.816,336.621,279.746,336.615,279.674z"/>
	<path d="M336.615,337.805c-2.569,32.633-70.244,58.772-153.362,58.772c-81.845,0-148.718-25.345-153.201-57.274h-0.233
		c-0.002,0.143-0.014,0.283-0.014,0.427v29.921h0.247c4.484,31.93,71.356,57.275,153.201,57.275
		c83.3,0,151.094-26.255,153.385-58.985h0.491V338.02h-0.491C336.632,337.947,336.621,337.877,336.615,337.805z"/>
	<path d="M336.615,397.646c-2.569,32.632-70.244,58.773-153.362,58.773c-81.845,0-148.718-25.346-153.201-57.276h-0.233
		c-0.002,0.143-0.014,0.284-0.014,0.427v29.921h0.247c4.483,31.93,71.355,57.275,153.2,57.275
		c83.301,0,151.095-26.255,153.386-58.986h0.49v-29.92h-0.49C336.632,397.787,336.621,397.718,336.615,397.646z"/>
</g>
<polygon stroke="#000000" stroke-width="3" stroke-miterlimit="10" points="477.5,105.444 399.932,105.444 399.932,27.5 
	372.82,27.5 372.82,105.444 294.5,105.444 294.5,132.556 372.82,132.556 372.82,210.5 399.932,210.5 399.932,132.556 477.5,132.556 
	"/>
</svg>
