<?xml version="1.0" encoding="utf-8"?>
<!-- Generator: Adobe Illustrator 15.1.0, SVG Export Plug-In . SVG Version: 6.00 Build 0)  -->
<!DOCTYPE svg PUBLIC "-//W3C//DTD SVG 1.1//EN" "http://www.w3.org/Graphics/SVG/1.1/DTD/svg11.dtd">
<svg version="1.1" id="Layer_1" xmlns="http://www.w3.org/2000/svg" xmlns:xlink="http://www.w3.org/1999/xlink" x="0px" y="0px"
	 width="504px" height="504px" viewBox="0 0 504 504" enable-background="new 0 0 504 504" xml:space="preserve">
<path d="M482.515,140.412c-0.001-0.055-0.016-0.106-0.015-0.162c0-0.026,0.005-0.051,0.006-0.077
	c-0.017-0.054-0.034-0.107-0.048-0.163c-0.02-0.016-0.036-0.028-0.065-0.054c-7.893-3.606-7.087-3.358-9.893-4.642v0.036
	L254.088,32.641l-0.359,0.768l-0.36-0.766L33.5,136.282l-9.581,4.218h-0.02c-0.133,0.063-0.267,0.123-0.399,0.185v8.482V364.5h459
	V149.167v-8.512C482.372,140.581,482.431,140.499,482.515,140.412z M253.734,43.526l203.383,95.64l9.654,5
	c0.433,0.248,0.812,0.465,1.163,0.667c-0.352,0.202-0.73,0.419-1.163,0.667l-9.654,5l-203.383,95.64L50.835,150.5l-11.513-5.667
	l11.513-5.667L253.734,43.526z M472.5,354.5h-439V153.385l219.868,103.639l0.36-0.766l0.359,0.768L472.5,154.317V354.5z"/>
</svg>
