<?xml version="1.0" encoding="utf-8"?>
<!-- Generator: Adobe Illustrator 15.1.0, SVG Export Plug-In . SVG Version: 6.00 Build 0)  -->
<!DOCTYPE svg PUBLIC "-//W3C//DTD SVG 1.1//EN" "http://www.w3.org/Graphics/SVG/1.1/DTD/svg11.dtd">
<svg version="1.1" id="Layer_1" xmlns="http://www.w3.org/2000/svg" xmlns:xlink="http://www.w3.org/1999/xlink" x="0px" y="0px"
	 width="504px" height="504px" viewBox="0 0 504 504" enable-background="new 0 0 504 504" xml:space="preserve">
<g>
	<path d="M479.137,245.398c-1.039-1.19-25.893-29.498-66.234-58.121c-53.84-38.201-109.693-58.392-161.523-58.392
		c-51.83,0-107.684,20.191-161.524,58.392c-40.342,28.623-65.195,56.93-66.234,58.121l-5.956,6.833l5.956,6.832
		c1.039,1.191,25.892,29.499,66.234,58.122c53.84,38.2,109.694,58.391,161.524,58.391c51.83,0,107.683-20.19,161.523-58.391
		c40.342-28.623,65.195-56.931,66.234-58.122l5.957-6.832L479.137,245.398z M251.379,354.779
		c-59.829,0-114.09-29.507-149.074-54.261c-26.955-19.073-46.966-38.36-56.603-48.281
		c23.308-23.939,107.357-102.555,205.677-102.555c59.829,0,114.091,29.508,149.074,54.262c26.956,19.073,46.966,38.36,56.604,48.282
		C433.749,276.164,349.7,354.779,251.379,354.779z"/>
	<circle cx="251.283" cy="252.673" r="80.378"/>
</g>
</svg>
