<?xml version="1.0" encoding="utf-8"?>
<!-- Generator: Adobe Illustrator 15.1.0, SVG Export Plug-In . SVG Version: 6.00 Build 0)  -->
<!DOCTYPE svg PUBLIC "-//W3C//DTD SVG 1.1//EN" "http://www.w3.org/Graphics/SVG/1.1/DTD/svg11.dtd">
<svg version="1.1" id="Layer_1" xmlns="http://www.w3.org/2000/svg" xmlns:xlink="http://www.w3.org/1999/xlink" x="0px" y="0px"
	 width="504px" height="504px" viewBox="0 0 504 504" enable-background="new 0 0 504 504" xml:space="preserve">
<g>
	<path fill="#231F20" d="M354.3,482h-90.104V271.583h-55.639v-85.761h55.639v-59.71c0-28.035,9.706-53.371,27.329-71.34
		c20.02-20.413,49.85-31.203,86.266-31.203c30.634,0,53.042,2.858,53.98,2.98l4.47,0.579l-2.027,80.173l-4.923-0.048
		c-0.23-0.002-23.39-0.223-48.307-0.223c-22.977,0-26.685,8.394-26.685,28.472v50.32h82.455l-4.05,85.761H354.3V482z M274.196,472
		H344.3V261.583h78.866l3.105-65.761H344.3v-60.429c0.02-23.031,6.287-38.364,36.685-38.364c18.131,0,35.332,0.117,43.481,0.182
		l1.549-61.247c-8.021-0.83-26.097-2.396-48.224-2.396c-76.38,0-103.595,47.805-103.595,92.543v69.71h-55.639v65.761h55.639V472z"/>
</g>
</svg>
