<?xml version="1.0" encoding="utf-8"?>
<!-- Generator: Adobe Illustrator 15.1.0, SVG Export Plug-In . SVG Version: 6.00 Build 0)  -->
<!DOCTYPE svg PUBLIC "-//W3C//DTD SVG 1.1//EN" "http://www.w3.org/Graphics/SVG/1.1/DTD/svg11.dtd">
<svg version="1.1" id="Layer_1" xmlns="http://www.w3.org/2000/svg" xmlns:xlink="http://www.w3.org/1999/xlink" x="0px" y="0px"
	 width="504px" height="504px" viewBox="0 0 504 504" enable-background="new 0 0 504 504" xml:space="preserve">
<g>
	<path d="M449.877,22.105H51.788c-16.918,0-30.683,13.764-30.683,30.683v398.089c0,16.92,13.764,30.685,30.683,30.685h398.089
		c16.92,0,30.685-13.765,30.685-30.685V52.788C480.562,35.87,466.797,22.105,449.877,22.105z M470.562,450.877
		c0,11.405-9.279,20.685-20.685,20.685H51.788c-11.404,0-20.683-9.279-20.683-20.685V52.788c0-11.404,9.278-20.683,20.683-20.683
		h398.089c11.405,0,20.685,9.278,20.685,20.683V450.877z"/>
	<path d="M350.841,279.222h61.519l3.283-69.493h-64.802v-38.441c0-15.708,3.004-21.284,19.881-21.284h1.566
		c18.292,0,18.628,0.003,36.197,0.173l5.082,0.049l1.644-64.98l-4.47-0.58c-0.74-0.096-18.404-2.35-42.528-2.35
		c-28.891,0-52.58,8.584-68.508,24.825c-14.038,14.313-21.769,34.476-21.769,56.773v45.815h-43.69v69.493h43.69v101.027H58.209
		v64.208h219.727h72.904h92.616v-64.208h-92.616V279.222z M340.841,269.222v111.027v54.208h-52.904v-54.208V269.222h-43.69v-49.493
		h43.69v-55.815c0-34.612,21.089-71.598,80.276-71.598c16.476,0,30.08,1.109,36.771,1.775l-1.165,46.04
		c-13.098-0.125-15.009-0.127-31.531-0.127h-1.566c-24.8,0-29.881,12.506-29.881,31.284v48.441h64.317l-2.338,49.493H340.841z"/>
</g>
</svg>
