<?xml version="1.0" encoding="utf-8"?>
<!-- Generator: Adobe Illustrator 15.1.0, SVG Export Plug-In . SVG Version: 6.00 Build 0)  -->
<!DOCTYPE svg PUBLIC "-//W3C//DTD SVG 1.1//EN" "http://www.w3.org/Graphics/SVG/1.1/DTD/svg11.dtd">
<svg version="1.1" id="Layer_1" xmlns="http://www.w3.org/2000/svg" xmlns:xlink="http://www.w3.org/1999/xlink" x="0px" y="0px"
	 width="504px" height="504px" viewBox="0 0 504 504" enable-background="new 0 0 504 504" xml:space="preserve">
<path d="M218.5,457.25H110.726V46.75h196.657v77.3c0,4.418,3.582,8,8,8h77.895V234.5h16V124.049c0-0.003-0.001-0.007-0.001-0.01
	c-0.001-0.265-0.015-0.531-0.041-0.795c-0.011-0.089-0.026-0.175-0.039-0.263c-0.022-0.17-0.044-0.341-0.077-0.51
	c-0.025-0.125-0.063-0.246-0.092-0.369c-0.032-0.13-0.063-0.261-0.103-0.391c-0.036-0.12-0.083-0.236-0.125-0.354
	c-0.046-0.128-0.088-0.258-0.141-0.385c-0.045-0.107-0.1-0.209-0.147-0.314c-0.062-0.132-0.12-0.266-0.188-0.395
	c-0.054-0.098-0.112-0.189-0.169-0.285c-0.076-0.129-0.149-0.26-0.234-0.386c-0.072-0.108-0.154-0.209-0.23-0.313
	c-0.077-0.105-0.15-0.213-0.234-0.314c-0.167-0.202-0.343-0.396-0.528-0.581c-0.004-0.003-0.007-0.008-0.011-0.012l-85.893-85.3
	c-0.06-0.058-0.121-0.106-0.183-0.162c-0.13-0.121-0.259-0.243-0.396-0.355c-0.102-0.082-0.204-0.154-0.309-0.23
	c-0.104-0.079-0.211-0.161-0.32-0.235c-0.116-0.078-0.237-0.146-0.357-0.217c-0.104-0.062-0.207-0.127-0.314-0.185
	c-0.12-0.065-0.245-0.121-0.369-0.179c-0.112-0.053-0.226-0.108-0.341-0.155c-0.12-0.05-0.244-0.092-0.368-0.136
	c-0.123-0.043-0.244-0.09-0.369-0.127s-0.252-0.066-0.379-0.098c-0.126-0.031-0.251-0.066-0.382-0.091
	c-0.144-0.028-0.286-0.046-0.433-0.066c-0.113-0.016-0.226-0.037-0.341-0.048c-0.2-0.019-0.401-0.026-0.604-0.03
	c-0.059-0.001-0.113-0.009-0.175-0.009h-0.022c-0.002,0-0.004,0-0.007,0H102.726c-4.418,0-8,3.582-8,8v426.5c0,4.418,3.582,8,8,8
	H218.5V457.25z M323.383,57.97l58.483,58.08h-58.483V57.97z"/>
<g>
	<path d="M251.234,415.729V310.127h54.386c10.085,0,17.793,0.864,23.123,2.593c5.331,1.729,9.628,4.935,12.895,9.617
		c3.265,4.683,4.898,10.385,4.898,17.108c0,5.859-1.25,10.913-3.748,15.163c-2.499,4.25-5.936,7.696-10.307,10.337
		c-2.787,1.682-6.607,3.073-11.461,4.178c3.887,1.299,6.719,2.597,8.495,3.894c1.199,0.865,2.938,2.716,5.219,5.552
		c2.279,2.837,3.804,5.023,4.571,6.562l15.803,30.6h-36.872l-17.442-32.271c-2.209-4.178-4.178-6.891-5.907-8.14
		c-2.354-1.632-5.019-2.449-7.995-2.449h-2.882v42.86H251.234z M284.01,352.915h13.759c1.488,0,4.369-0.479,8.645-1.44
		c2.16-0.432,3.926-1.536,5.294-3.313c1.369-1.776,2.053-3.817,2.053-6.123c0-3.409-1.08-6.026-3.241-7.852
		c-2.161-1.824-6.22-2.737-12.174-2.737H284.01V352.915z"/>
	<path d="M365.625,310.127h61.085c10.181,0,17.996,2.521,23.447,7.563c5.45,5.043,8.176,11.286,8.176,18.729
		c0,6.243-1.944,11.598-5.834,16.063c-2.594,2.978-6.388,5.33-11.382,7.06c7.587,1.825,13.17,4.959,16.748,9.4
		c3.577,4.442,5.366,10.025,5.366,16.748c0,5.475-1.272,10.397-3.817,14.767c-2.546,4.371-6.027,7.828-10.445,10.373
		c-2.737,1.585-6.868,2.737-12.39,3.458c-7.348,0.961-12.223,1.44-14.623,1.44h-56.331V310.127z M398.545,351.547h14.19
		c5.09,0,8.632-0.876,10.625-2.629c1.992-1.753,2.989-4.286,2.989-7.6c0-3.073-0.997-5.475-2.989-7.204
		c-1.993-1.729-5.463-2.593-10.409-2.593h-14.406V351.547z M398.545,393.039h16.64c5.619,0,9.581-0.996,11.886-2.99
		c2.306-1.992,3.458-4.67,3.458-8.031c0-3.121-1.142-5.63-3.422-7.527c-2.281-1.897-6.279-2.846-11.994-2.846h-16.567V393.039z"/>
</g>
</svg>
