<?xml version="1.0" encoding="utf-8"?>
<!-- Generator: Adobe Illustrator 15.1.0, SVG Export Plug-In . SVG Version: 6.00 Build 0)  -->
<!DOCTYPE svg PUBLIC "-//W3C//DTD SVG 1.1//EN" "http://www.w3.org/Graphics/SVG/1.1/DTD/svg11.dtd">
<svg version="1.1" id="Layer_1" xmlns="http://www.w3.org/2000/svg" xmlns:xlink="http://www.w3.org/1999/xlink" x="0px" y="0px"
	 width="504px" height="504px" viewBox="0 0 504 504" enable-background="new 0 0 504 504" xml:space="preserve">
<path d="M218.5,457.25H110.726V46.75h196.657v77.3c0,4.418,3.582,8,8,8h77.895V234.5h16V124.049c0-0.003-0.001-0.007-0.001-0.01
	c-0.001-0.265-0.015-0.531-0.041-0.795c-0.011-0.089-0.026-0.175-0.039-0.263c-0.022-0.17-0.044-0.341-0.077-0.51
	c-0.025-0.125-0.063-0.246-0.092-0.369c-0.032-0.13-0.063-0.261-0.103-0.391c-0.036-0.12-0.083-0.236-0.125-0.354
	c-0.046-0.128-0.088-0.258-0.141-0.385c-0.045-0.107-0.1-0.209-0.147-0.314c-0.062-0.132-0.12-0.266-0.188-0.395
	c-0.054-0.098-0.112-0.189-0.169-0.285c-0.076-0.129-0.149-0.26-0.234-0.386c-0.072-0.108-0.154-0.209-0.23-0.313
	c-0.077-0.105-0.15-0.213-0.234-0.314c-0.167-0.202-0.343-0.396-0.528-0.581c-0.004-0.003-0.007-0.008-0.011-0.012l-85.893-85.3
	c-0.06-0.058-0.121-0.106-0.183-0.162c-0.13-0.121-0.259-0.243-0.396-0.355c-0.102-0.082-0.204-0.154-0.309-0.23
	c-0.104-0.079-0.211-0.161-0.32-0.235c-0.116-0.078-0.237-0.146-0.357-0.217c-0.104-0.062-0.207-0.127-0.314-0.185
	c-0.12-0.065-0.245-0.121-0.369-0.179c-0.112-0.053-0.226-0.108-0.341-0.155c-0.12-0.05-0.244-0.092-0.368-0.136
	c-0.123-0.043-0.244-0.09-0.369-0.127s-0.252-0.066-0.379-0.098c-0.126-0.031-0.251-0.066-0.382-0.091
	c-0.144-0.028-0.286-0.046-0.433-0.066c-0.113-0.016-0.226-0.037-0.341-0.048c-0.2-0.019-0.401-0.026-0.604-0.03
	c-0.059-0.001-0.113-0.009-0.175-0.009h-0.022c-0.002,0-0.004,0-0.007,0H102.726c-4.418,0-8,3.582-8,8v426.5c0,4.418,3.582,8,8,8
	H218.5V457.25z M323.383,57.97l58.483,58.08h-58.483V57.97z"/>
<path d="M380.494,302.506v-34.842l-20.624-13.111c-1.29-3.704-2.812-7.301-4.545-10.772l4.631-21.001l-24.637-24.636l-20.737,4.617
	c-3.599-1.827-7.336-3.422-11.188-4.771l-12.986-20.427h-34.842l-13.067,20.461c-3.82,1.342-7.526,2.926-11.097,4.739l-20.697-4.608
	l-24.636,24.636l4.618,20.945c-1.744,3.488-3.273,7.101-4.57,10.825l-20.613,13.104v34.842l20.882,13.337
	c1.271,3.547,2.752,6.992,4.431,10.321l-4.722,21.204l24.637,24.636l21.469-4.734c3.201,1.587,6.506,2.993,9.903,4.204
	l13.464,21.079h34.841l13.379-21.044c3.431-1.22,6.768-2.636,9.997-4.237l21.509,4.742l24.636-24.635l-4.734-21.261
	c1.668-3.313,3.141-6.741,4.406-10.269L380.494,302.506z M272.994,344.492c-32.956,0-59.673-26.717-59.673-59.674
	s26.717-59.673,59.673-59.673c32.957,0,59.674,26.716,59.674,59.673S305.951,344.492,272.994,344.492z"/>
<path d="M464.342,422.379v-20.733l-12.273-7.802c-0.768-2.205-1.674-4.345-2.705-6.411l2.756-12.497l-14.66-14.66l-12.34,2.749
	c-2.141-1.089-4.365-2.037-6.658-2.84l-7.729-12.155H390l-7.775,12.176c-2.273,0.798-4.479,1.74-6.604,2.819l-12.316-2.742
	l-14.66,14.66l2.748,12.463c-1.037,2.076-1.947,4.227-2.719,6.441l-12.268,7.799v20.733l12.428,7.936
	c0.755,2.111,1.637,4.161,2.637,6.144l-2.811,12.617l14.66,14.66l12.775-2.817c1.904,0.945,3.872,1.782,5.895,2.503l8.012,12.543
	h20.73l7.963-12.523c2.041-0.727,4.027-1.568,5.949-2.521l12.799,2.822l14.66-14.66l-2.816-12.651
	c0.992-1.972,1.869-4.013,2.623-6.11L464.342,422.379z M400.371,447.364c-19.612,0-35.51-15.899-35.51-35.512
	c0-19.61,15.897-35.51,35.51-35.51c19.611,0,35.51,15.899,35.51,35.51C435.881,431.465,419.982,447.364,400.371,447.364z"/>
</svg>
