<?xml version="1.0" encoding="utf-8"?>
<!-- Generator: Adobe Illustrator 15.1.0, SVG Export Plug-In . SVG Version: 6.00 Build 0)  -->
<!DOCTYPE svg PUBLIC "-//W3C//DTD SVG 1.1//EN" "http://www.w3.org/Graphics/SVG/1.1/DTD/svg11.dtd">
<svg version="1.1" id="Layer_1" xmlns="http://www.w3.org/2000/svg" xmlns:xlink="http://www.w3.org/1999/xlink" x="0px" y="0px"
	 width="504px" height="504px" viewBox="0 0 504 504" enable-background="new 0 0 504 504" xml:space="preserve">
<path d="M218.5,457.25H110.726V46.75h196.657v77.3c0,4.418,3.582,8,8,8h77.895V234.5h16V124.049c0-0.003-0.001-0.007-0.001-0.01
	c-0.001-0.265-0.015-0.531-0.041-0.795c-0.011-0.089-0.026-0.175-0.039-0.263c-0.022-0.17-0.044-0.341-0.077-0.51
	c-0.025-0.125-0.063-0.246-0.092-0.369c-0.032-0.13-0.063-0.261-0.103-0.391c-0.036-0.12-0.083-0.236-0.125-0.354
	c-0.046-0.128-0.088-0.258-0.141-0.385c-0.045-0.107-0.1-0.209-0.147-0.314c-0.062-0.132-0.12-0.266-0.188-0.395
	c-0.054-0.098-0.112-0.189-0.169-0.285c-0.076-0.129-0.149-0.26-0.234-0.386c-0.072-0.108-0.154-0.209-0.23-0.313
	c-0.077-0.105-0.15-0.213-0.234-0.314c-0.167-0.202-0.343-0.396-0.528-0.581c-0.004-0.003-0.007-0.008-0.011-0.012l-85.893-85.3
	c-0.06-0.058-0.121-0.106-0.183-0.162c-0.13-0.121-0.259-0.243-0.396-0.355c-0.102-0.082-0.204-0.154-0.309-0.23
	c-0.104-0.079-0.211-0.161-0.32-0.235c-0.116-0.078-0.237-0.146-0.357-0.217c-0.104-0.062-0.207-0.127-0.314-0.185
	c-0.12-0.065-0.245-0.121-0.369-0.179c-0.112-0.053-0.226-0.108-0.341-0.155c-0.12-0.05-0.244-0.092-0.368-0.136
	c-0.123-0.043-0.244-0.09-0.369-0.127s-0.252-0.066-0.379-0.098c-0.126-0.031-0.251-0.066-0.382-0.091
	c-0.144-0.028-0.286-0.046-0.433-0.066c-0.113-0.016-0.226-0.037-0.341-0.048c-0.2-0.019-0.401-0.026-0.604-0.03
	c-0.059-0.001-0.113-0.009-0.175-0.009h-0.022c-0.002,0-0.004,0-0.007,0H102.726c-4.418,0-8,3.582-8,8v426.5c0,4.418,3.582,8,8,8
	H218.5V457.25z M323.383,57.97l58.483,58.08h-58.483V57.97z"/>
<g>
	<path d="M152.187,363c0-17.239,4.802-30.662,14.407-40.267c9.604-9.604,22.979-14.407,40.124-14.407
		c17.576,0,31.119,4.718,40.627,14.154c9.508,9.437,14.263,22.655,14.263,39.655c0,12.343-2.078,22.464-6.231,30.362
		c-4.154,7.9-10.156,14.047-18.008,18.441c-7.852,4.394-17.637,6.591-29.354,6.591c-11.911,0-21.767-1.896-29.57-5.69
		c-7.804-3.793-14.131-9.797-18.981-18.009C154.611,385.619,152.187,375.343,152.187,363z M184.819,363.145
		c0,10.661,1.981,18.321,5.942,22.979c3.962,4.659,9.353,6.987,16.172,6.987c7.011,0,12.438-2.28,16.28-6.843
		c3.842-4.562,5.763-12.75,5.763-24.563c0-9.941-2.005-17.204-6.015-21.791c-4.01-4.585-9.449-6.879-16.316-6.879
		c-6.58,0-11.862,2.33-15.848,6.987C186.811,344.68,184.819,352.388,184.819,363.145z"/>
	<path d="M267.946,310.127h99.191v26.076h-33.28v79.526h-32.632v-79.526h-33.279V310.127z"/>
	<path d="M382.049,310.127h80.679v22.69h-47.903v18.441h40.916v21.322h-40.916v43.148h-32.775V310.127z"/>
</g>
</svg>
