<?xml version="1.0" encoding="utf-8"?>
<!-- Generator: Adobe Illustrator 15.1.0, SVG Export Plug-In . SVG Version: 6.00 Build 0)  -->
<!DOCTYPE svg PUBLIC "-//W3C//DTD SVG 1.1//EN" "http://www.w3.org/Graphics/SVG/1.1/DTD/svg11.dtd">
<svg version="1.1" id="Layer_1" xmlns="http://www.w3.org/2000/svg" xmlns:xlink="http://www.w3.org/1999/xlink" x="0px" y="0px"
	 width="504px" height="504px" viewBox="0 0 504 504" enable-background="new 0 0 504 504" xml:space="preserve">
<path d="M218.5,457.25H110.726V46.75h196.657v77.3c0,4.418,3.582,8,8,8h77.895V234.5h16V124.049c0-0.003-0.001-0.007-0.001-0.01
	c-0.001-0.265-0.015-0.531-0.041-0.795c-0.011-0.089-0.026-0.175-0.039-0.263c-0.022-0.17-0.044-0.341-0.077-0.51
	c-0.025-0.125-0.063-0.246-0.092-0.369c-0.032-0.13-0.063-0.261-0.103-0.391c-0.036-0.12-0.083-0.236-0.125-0.354
	c-0.046-0.128-0.088-0.258-0.141-0.385c-0.045-0.107-0.1-0.209-0.147-0.314c-0.062-0.132-0.12-0.266-0.188-0.395
	c-0.054-0.098-0.112-0.189-0.169-0.285c-0.076-0.129-0.149-0.26-0.234-0.386c-0.072-0.108-0.154-0.209-0.23-0.313
	c-0.077-0.105-0.15-0.213-0.234-0.314c-0.167-0.202-0.343-0.396-0.528-0.581c-0.004-0.003-0.007-0.008-0.011-0.012l-85.893-85.3
	c-0.06-0.058-0.121-0.106-0.183-0.162c-0.13-0.121-0.259-0.243-0.396-0.355c-0.102-0.082-0.204-0.154-0.309-0.23
	c-0.104-0.079-0.211-0.161-0.32-0.235c-0.116-0.078-0.237-0.146-0.357-0.217c-0.104-0.062-0.207-0.127-0.314-0.185
	c-0.12-0.065-0.245-0.121-0.369-0.179c-0.112-0.053-0.226-0.108-0.341-0.155c-0.12-0.05-0.244-0.092-0.368-0.136
	c-0.123-0.043-0.244-0.09-0.369-0.127s-0.252-0.066-0.379-0.098c-0.126-0.031-0.251-0.066-0.382-0.091
	c-0.144-0.028-0.286-0.046-0.433-0.066c-0.113-0.016-0.226-0.037-0.341-0.048c-0.2-0.019-0.401-0.026-0.604-0.03
	c-0.059-0.001-0.113-0.009-0.175-0.009h-0.022c-0.002,0-0.004,0-0.007,0H102.726c-4.418,0-8,3.582-8,8v426.5c0,4.418,3.582,8,8,8
	H218.5V457.25z M323.383,57.97l58.483,58.08h-58.483V57.97z"/>
<g>
	<path d="M135.763,310.127h42.915l16.55,64.255l16.432-64.255h42.888v105.603h-26.725v-80.534l-20.592,80.534h-24.19l-20.553-80.534
		v80.534h-26.725V310.127z"/>
	<path d="M275.222,310.127h54.242c11.813,0,20.661,2.81,26.545,8.428c5.882,5.619,8.824,13.615,8.824,23.987
		c0,10.661-3.206,18.994-9.617,24.996c-6.411,6.004-16.196,9.005-29.354,9.005h-17.864v39.187h-32.776V310.127z M307.998,355.148
		h7.995c6.291,0,10.709-1.092,13.255-3.277c2.545-2.185,3.817-4.981,3.817-8.393c0-3.313-1.105-6.122-3.313-8.428
		c-2.209-2.305-6.363-3.458-12.462-3.458h-9.292V355.148z"/>
	<path d="M405.604,340.67l-27.733-4.971c2.305-8.836,6.735-15.606,13.29-20.313c6.556-4.706,15.836-7.06,27.842-7.06
		c13.782,0,23.746,2.569,29.895,7.708c6.146,5.139,9.22,11.597,9.22,19.377c0,4.563-1.249,8.692-3.745,12.39
		c-2.498,3.698-6.268,6.94-11.31,9.725c4.081,1.009,7.203,2.187,9.364,3.53c3.505,2.161,6.231,5.006,8.176,8.536
		c1.945,3.529,2.918,7.743,2.918,12.642c0,6.147-1.61,12.042-4.827,17.685c-3.218,5.644-7.852,9.989-13.902,13.038
		s-13.999,4.574-23.844,4.574c-9.604,0-17.18-1.129-22.727-3.386s-10.109-5.558-13.687-9.904c-3.578-4.346-6.328-9.809-8.248-16.388
		l29.318-3.891c1.152,5.907,2.94,10.002,5.366,12.282c2.425,2.281,5.511,3.422,9.257,3.422c3.937,0,7.215-1.44,9.833-4.322
		c2.616-2.882,3.926-6.723,3.926-11.525c0-4.898-1.261-8.691-3.782-11.382c-2.521-2.688-5.942-4.033-10.265-4.033
		c-2.306,0-5.475,0.576-9.509,1.729l1.513-20.962c1.632,0.24,2.905,0.36,3.817,0.36c3.842,0,7.048-1.225,9.617-3.674
		c2.568-2.449,3.854-5.354,3.854-8.717c0-3.217-0.961-5.786-2.881-7.707c-1.922-1.921-4.563-2.882-7.924-2.882
		c-3.458,0-6.268,1.045-8.429,3.134C407.838,331.773,406.372,335.436,405.604,340.67z"/>
</g>
</svg>
