<?xml version="1.0" encoding="utf-8"?>
<!-- Generator: Adobe Illustrator 15.1.0, SVG Export Plug-In . SVG Version: 6.00 Build 0)  -->
<!DOCTYPE svg PUBLIC "-//W3C//DTD SVG 1.1//EN" "http://www.w3.org/Graphics/SVG/1.1/DTD/svg11.dtd">
<svg version="1.1" id="Layer_1" xmlns="http://www.w3.org/2000/svg" xmlns:xlink="http://www.w3.org/1999/xlink" x="0px" y="0px"
	 width="504px" height="504px" viewBox="0 0 504 504" enable-background="new 0 0 504 504" xml:space="preserve">
<path d="M218.5,457.25H110.726V46.75h196.657v77.3c0,4.418,3.582,8,8,8h77.895V234.5h16V124.049c0-0.003-0.001-0.007-0.001-0.01
	c-0.001-0.265-0.015-0.531-0.041-0.795c-0.011-0.089-0.026-0.175-0.039-0.263c-0.022-0.17-0.044-0.341-0.077-0.51
	c-0.025-0.125-0.063-0.246-0.092-0.369c-0.032-0.13-0.063-0.261-0.103-0.391c-0.036-0.12-0.083-0.236-0.125-0.354
	c-0.046-0.128-0.088-0.258-0.141-0.385c-0.045-0.107-0.1-0.209-0.147-0.314c-0.062-0.132-0.12-0.266-0.188-0.395
	c-0.054-0.098-0.112-0.189-0.169-0.285c-0.076-0.129-0.149-0.26-0.234-0.386c-0.072-0.108-0.154-0.209-0.23-0.313
	c-0.077-0.105-0.15-0.213-0.234-0.314c-0.167-0.202-0.343-0.396-0.528-0.581c-0.004-0.003-0.007-0.008-0.011-0.012l-85.893-85.3
	c-0.06-0.058-0.121-0.106-0.183-0.162c-0.13-0.121-0.259-0.243-0.396-0.355c-0.102-0.082-0.204-0.154-0.309-0.23
	c-0.104-0.079-0.211-0.161-0.32-0.235c-0.116-0.078-0.237-0.146-0.357-0.217c-0.104-0.062-0.207-0.127-0.314-0.185
	c-0.12-0.065-0.245-0.121-0.369-0.179c-0.112-0.053-0.226-0.108-0.341-0.155c-0.12-0.05-0.244-0.092-0.368-0.136
	c-0.123-0.043-0.244-0.09-0.369-0.127s-0.252-0.066-0.379-0.098c-0.126-0.031-0.251-0.066-0.382-0.091
	c-0.144-0.028-0.286-0.046-0.433-0.066c-0.113-0.016-0.226-0.037-0.341-0.048c-0.2-0.019-0.401-0.026-0.604-0.03
	c-0.059-0.001-0.113-0.009-0.175-0.009h-0.022c-0.002,0-0.004,0-0.007,0H102.726c-4.418,0-8,3.582-8,8v426.5c0,4.418,3.582,8,8,8
	H218.5V457.25z M323.383,57.97l58.483,58.08h-58.483V57.97z"/>
<g>
	<path d="M146.784,380.793l31.047-1.945c0.672,5.043,2.041,8.885,4.106,11.525c3.361,4.275,8.164,6.411,14.407,6.411
		c4.657,0,8.248-1.092,10.769-3.277c2.521-2.185,3.782-4.718,3.782-7.6c0-2.737-1.201-5.187-3.602-7.348
		c-2.402-2.161-7.972-4.201-16.712-6.123c-14.312-3.217-24.517-7.491-30.615-12.822c-6.148-5.33-9.221-12.125-9.221-20.386
		c0-5.426,1.573-10.553,4.718-15.379c3.145-4.826,7.875-8.619,14.191-11.382c6.314-2.761,14.971-4.142,25.968-4.142
		c13.494,0,23.783,2.51,30.867,7.527c7.083,5.019,11.297,13.002,12.642,23.951l-30.758,1.802c-0.817-4.755-2.534-8.212-5.151-10.373
		c-2.618-2.161-6.231-3.242-10.841-3.242c-3.794,0-6.652,0.805-8.572,2.413c-1.921,1.61-2.881,3.566-2.881,5.871
		c0,1.682,0.792,3.194,2.377,4.538c1.537,1.394,5.187,2.69,10.949,3.89c14.263,3.074,24.479,6.185,30.651,9.329
		c6.17,3.146,10.661,7.048,13.47,11.705c2.81,4.659,4.214,9.869,4.214,15.632c0,6.771-1.873,13.015-5.619,18.729
		c-3.746,5.716-8.981,10.049-15.704,13.003c-6.724,2.953-15.199,4.43-25.428,4.43c-17.961,0-30.398-3.458-37.314-10.373
		C151.611,400.242,147.696,391.454,146.784,380.793z"/>
	<path d="M352.803,400.314c4.081,2.834,6.746,4.61,7.996,5.33c1.873,1.057,4.394,2.281,7.563,3.674l-9.076,18.297
		c-4.563-2.21-9.076-4.839-13.543-7.888c-4.466-3.051-7.588-5.342-9.364-6.88c-7.203,3.121-16.232,4.683-27.085,4.683
		c-16.04,0-28.694-4.178-37.962-12.534c-10.949-9.893-16.424-23.795-16.424-41.708c0-17.384,4.79-30.89,14.371-40.52
		c9.58-9.627,22.966-14.442,40.159-14.442c17.527,0,31.058,4.707,40.591,14.119c9.532,9.412,14.299,22.883,14.299,40.411
		C364.328,378.464,360.485,390.949,352.803,400.314z M327.807,383.603c2.594-4.658,3.89-11.622,3.89-20.891
		c0-10.661-1.98-18.271-5.942-22.835c-3.962-4.562-9.426-6.843-16.388-6.843c-6.483,0-11.742,2.33-15.775,6.987
		c-4.034,4.658-6.051,11.934-6.051,21.826c0,11.525,1.968,19.618,5.906,24.275c3.938,4.659,9.34,6.987,16.208,6.987
		c2.208,0,4.297-0.216,6.267-0.648c-2.737-2.64-7.06-5.138-12.966-7.491l5.114-11.741c2.882,0.528,5.126,1.177,6.735,1.944
		c1.608,0.769,4.742,2.786,9.4,6.051C325.31,381.994,326.51,382.786,327.807,383.603z"/>
	<path d="M381.904,310.127h32.632v79.598h50.929v26.005h-83.561V310.127z"/>
</g>
</svg>
