<?xml version="1.0" encoding="utf-8"?>
<!-- Generator: Adobe Illustrator 15.1.0, SVG Export Plug-In . SVG Version: 6.00 Build 0)  -->
<!DOCTYPE svg PUBLIC "-//W3C//DTD SVG 1.1//EN" "http://www.w3.org/Graphics/SVG/1.1/DTD/svg11.dtd">
<svg version="1.1" id="Layer_1" xmlns="http://www.w3.org/2000/svg" xmlns:xlink="http://www.w3.org/1999/xlink" x="0px" y="0px"
	 width="504px" height="504px" viewBox="0 0 504 504" enable-background="new 0 0 504 504" xml:space="preserve">
<path d="M218.5,457.25H110.726V46.75h196.657v77.3c0,4.418,3.582,8,8,8h77.895V234.5h16V124.049c0-0.003-0.001-0.007-0.001-0.01
	c-0.001-0.265-0.015-0.531-0.041-0.795c-0.011-0.089-0.026-0.175-0.039-0.263c-0.022-0.17-0.044-0.341-0.077-0.51
	c-0.025-0.125-0.063-0.246-0.092-0.369c-0.032-0.13-0.063-0.261-0.103-0.391c-0.036-0.12-0.083-0.236-0.125-0.354
	c-0.046-0.128-0.088-0.258-0.141-0.385c-0.045-0.107-0.1-0.209-0.147-0.314c-0.062-0.132-0.12-0.266-0.188-0.395
	c-0.054-0.098-0.112-0.189-0.169-0.285c-0.076-0.129-0.149-0.26-0.234-0.386c-0.072-0.108-0.154-0.209-0.23-0.313
	c-0.077-0.105-0.15-0.213-0.234-0.314c-0.167-0.202-0.343-0.396-0.528-0.581c-0.004-0.003-0.007-0.008-0.011-0.012l-85.893-85.3
	c-0.06-0.058-0.121-0.106-0.183-0.162c-0.13-0.121-0.259-0.243-0.396-0.355c-0.102-0.082-0.204-0.154-0.309-0.23
	c-0.104-0.079-0.211-0.161-0.32-0.235c-0.116-0.078-0.237-0.146-0.357-0.217c-0.104-0.062-0.207-0.127-0.314-0.185
	c-0.12-0.065-0.245-0.121-0.369-0.179c-0.112-0.053-0.226-0.108-0.341-0.155c-0.12-0.05-0.244-0.092-0.368-0.136
	c-0.123-0.043-0.244-0.09-0.369-0.127s-0.252-0.066-0.379-0.098c-0.126-0.031-0.251-0.066-0.382-0.091
	c-0.144-0.028-0.286-0.046-0.433-0.066c-0.113-0.016-0.226-0.037-0.341-0.048c-0.2-0.019-0.401-0.026-0.604-0.03
	c-0.059-0.001-0.113-0.009-0.175-0.009h-0.022c-0.002,0-0.004,0-0.007,0H102.726c-4.418,0-8,3.582-8,8v426.5c0,4.418,3.582,8,8,8
	H218.5V457.25z M323.383,57.97l58.483,58.08h-58.483V57.97z"/>
<g>
	<path d="M214.569,372.509l28.598,8.645c-1.921,8.021-4.947,14.72-9.076,20.098c-4.131,5.379-9.257,9.437-15.379,12.174
		c-6.123,2.737-13.915,4.105-23.375,4.105c-11.478,0-20.854-1.668-28.129-5.003s-13.555-9.201-18.837-17.6
		c-5.283-8.399-7.924-19.149-7.924-32.252c0-17.468,4.646-30.894,13.938-40.276c9.292-9.382,22.439-14.073,39.439-14.073
		c13.302,0,23.759,2.69,31.371,8.067c7.611,5.379,13.266,13.64,16.964,24.78l-28.814,6.411c-1.008-3.217-2.065-5.57-3.169-7.06
		c-1.826-2.496-4.059-4.418-6.699-5.763c-2.642-1.344-5.595-2.017-8.86-2.017c-7.396,0-13.063,2.975-17,8.922
		c-2.979,4.413-4.466,11.345-4.466,20.792c0,11.704,1.776,19.728,5.331,24.067c3.553,4.341,8.547,6.512,14.983,6.512
		c6.242,0,10.96-1.753,14.155-5.259C210.811,384.275,213.128,379.185,214.569,372.509z"/>
	<path d="M253.323,380.793l31.047-1.945c0.672,5.043,2.041,8.885,4.105,11.525c3.361,4.275,8.164,6.411,14.407,6.411
		c4.657,0,8.248-1.092,10.77-3.277c2.521-2.185,3.781-4.718,3.781-7.6c0-2.737-1.2-5.187-3.602-7.348s-7.972-4.201-16.712-6.123
		c-14.312-3.217-24.517-7.491-30.614-12.822c-6.148-5.33-9.221-12.125-9.221-20.386c0-5.426,1.572-10.553,4.718-15.379
		s7.876-8.619,14.191-11.382c6.314-2.761,14.971-4.142,25.968-4.142c13.494,0,23.783,2.51,30.867,7.527
		c7.083,5.019,11.297,13.002,12.642,23.951l-30.758,1.802c-0.817-4.755-2.534-8.212-5.151-10.373s-6.23-3.242-10.841-3.242
		c-3.794,0-6.651,0.805-8.572,2.413c-1.921,1.61-2.881,3.566-2.881,5.871c0,1.682,0.792,3.194,2.377,4.538
		c1.536,1.394,5.187,2.69,10.949,3.89c14.263,3.074,24.479,6.185,30.65,9.329c6.171,3.146,10.661,7.048,13.471,11.705
		c2.81,4.659,4.214,9.869,4.214,15.632c0,6.771-1.873,13.015-5.618,18.729c-3.746,5.716-8.981,10.049-15.704,13.003
		c-6.724,2.953-15.199,4.43-25.428,4.43c-17.962,0-30.398-3.458-37.314-10.373C258.149,400.242,254.235,391.454,253.323,380.793z"/>
	<path d="M355.18,310.127h34.112l23.768,75.996l23.464-75.996h33.119l-39.211,105.603h-35.369L355.18,310.127z"/>
</g>
</svg>
