<?xml version="1.0" encoding="utf-8"?>
<!-- Generator: Adobe Illustrator 15.1.0, SVG Export Plug-In . SVG Version: 6.00 Build 0)  -->
<!DOCTYPE svg PUBLIC "-//W3C//DTD SVG 1.1//EN" "http://www.w3.org/Graphics/SVG/1.1/DTD/svg11.dtd">
<svg version="1.1" id="Layer_1" xmlns="http://www.w3.org/2000/svg" xmlns:xlink="http://www.w3.org/1999/xlink" x="0px" y="0px"
	 width="504px" height="504px" viewBox="0 0 504 504" enable-background="new 0 0 504 504" xml:space="preserve">
<path d="M218.5,457.25H110.726V46.75h196.657v77.3c0,4.418,3.582,8,8,8h77.895V234.5h16V124.049c0-0.003-0.001-0.007-0.001-0.01
	c-0.001-0.265-0.015-0.531-0.041-0.795c-0.011-0.089-0.026-0.175-0.039-0.263c-0.022-0.17-0.044-0.341-0.077-0.51
	c-0.025-0.125-0.063-0.246-0.092-0.369c-0.032-0.13-0.063-0.261-0.103-0.391c-0.036-0.12-0.083-0.236-0.125-0.354
	c-0.046-0.128-0.088-0.258-0.141-0.385c-0.045-0.107-0.1-0.209-0.147-0.314c-0.062-0.132-0.12-0.266-0.188-0.395
	c-0.054-0.098-0.112-0.189-0.169-0.285c-0.076-0.129-0.149-0.26-0.234-0.386c-0.072-0.108-0.154-0.209-0.23-0.313
	c-0.077-0.105-0.15-0.213-0.234-0.314c-0.167-0.202-0.343-0.396-0.528-0.581c-0.004-0.003-0.007-0.008-0.011-0.012l-85.893-85.3
	c-0.06-0.058-0.121-0.106-0.183-0.162c-0.13-0.121-0.259-0.243-0.396-0.355c-0.102-0.082-0.204-0.154-0.309-0.23
	c-0.104-0.079-0.211-0.161-0.32-0.235c-0.116-0.078-0.237-0.146-0.357-0.217c-0.104-0.062-0.207-0.127-0.314-0.185
	c-0.12-0.065-0.245-0.121-0.369-0.179c-0.112-0.053-0.226-0.108-0.341-0.155c-0.12-0.05-0.244-0.092-0.368-0.136
	c-0.123-0.043-0.244-0.09-0.369-0.127s-0.252-0.066-0.379-0.098c-0.126-0.031-0.251-0.066-0.382-0.091
	c-0.144-0.028-0.286-0.046-0.433-0.066c-0.113-0.016-0.226-0.037-0.341-0.048c-0.2-0.019-0.401-0.026-0.604-0.03
	c-0.059-0.001-0.113-0.009-0.175-0.009h-0.022c-0.002,0-0.004,0-0.007,0H102.726c-4.418,0-8,3.582-8,8v426.5c0,4.418,3.582,8,8,8
	H218.5V457.25z M323.383,57.97l58.483,58.08h-58.483V57.97z"/>
<g>
	<path d="M152.907,415.729V310.127h54.386c10.084,0,17.792,0.864,23.123,2.593c5.331,1.729,9.628,4.935,12.894,9.617
		c3.265,4.683,4.898,10.385,4.898,17.108c0,5.859-1.25,10.913-3.748,15.163s-5.935,7.696-10.307,10.337
		c-2.787,1.682-6.607,3.073-11.46,4.178c3.887,1.299,6.719,2.597,8.495,3.894c1.2,0.865,2.939,2.716,5.219,5.552
		c2.279,2.837,3.803,5.023,4.571,6.562l15.803,30.6H219.91l-17.443-32.271c-2.209-4.178-4.178-6.891-5.907-8.14
		c-2.354-1.632-5.019-2.449-7.996-2.449h-2.881v42.86H152.907z M185.683,352.915h13.758c1.488,0,4.37-0.479,8.645-1.44
		c2.161-0.432,3.926-1.536,5.294-3.313c1.369-1.776,2.053-3.817,2.053-6.123c0-3.409-1.081-6.026-3.241-7.852
		c-2.161-1.824-6.22-2.737-12.174-2.737h-14.335V352.915z"/>
	<path d="M261.535,380.793l31.047-1.945c0.672,5.043,2.041,8.885,4.105,11.525c3.361,4.275,8.164,6.411,14.407,6.411
		c4.657,0,8.248-1.092,10.77-3.277c2.521-2.185,3.781-4.718,3.781-7.6c0-2.737-1.2-5.187-3.602-7.348s-7.972-4.201-16.712-6.123
		c-14.312-3.217-24.517-7.491-30.614-12.822c-6.148-5.33-9.221-12.125-9.221-20.386c0-5.426,1.572-10.553,4.718-15.379
		s7.876-8.619,14.191-11.382c6.314-2.761,14.971-4.142,25.968-4.142c13.494,0,23.783,2.51,30.867,7.527
		c7.083,5.019,11.297,13.002,12.642,23.951l-30.758,1.802c-0.817-4.755-2.534-8.212-5.151-10.373s-6.23-3.242-10.841-3.242
		c-3.794,0-6.651,0.805-8.572,2.413c-1.921,1.61-2.881,3.566-2.881,5.871c0,1.682,0.792,3.194,2.377,4.538
		c1.536,1.394,5.187,2.69,10.949,3.89c14.263,3.074,24.479,6.185,30.65,9.329c6.171,3.146,10.661,7.048,13.471,11.705
		c2.81,4.659,4.214,9.869,4.214,15.632c0,6.771-1.873,13.015-5.618,18.729c-3.746,5.716-8.981,10.049-15.704,13.003
		c-6.724,2.953-15.199,4.43-25.428,4.43c-17.962,0-30.398-3.458-37.314-10.373C266.361,400.242,262.447,391.454,261.535,380.793z"/>
	<path d="M368.074,380.793l31.047-1.945c0.672,5.043,2.041,8.885,4.105,11.525c3.361,4.275,8.164,6.411,14.407,6.411
		c4.657,0,8.248-1.092,10.77-3.277c2.521-2.185,3.781-4.718,3.781-7.6c0-2.737-1.2-5.187-3.602-7.348s-7.972-4.201-16.712-6.123
		c-14.312-3.217-24.517-7.491-30.614-12.822c-6.148-5.33-9.221-12.125-9.221-20.386c0-5.426,1.572-10.553,4.718-15.379
		s7.876-8.619,14.191-11.382c6.314-2.761,14.971-4.142,25.968-4.142c13.494,0,23.783,2.51,30.867,7.527
		c7.083,5.019,11.297,13.002,12.642,23.951l-30.758,1.802c-0.817-4.755-2.534-8.212-5.151-10.373s-6.23-3.242-10.841-3.242
		c-3.794,0-6.651,0.805-8.572,2.413c-1.921,1.61-2.881,3.566-2.881,5.871c0,1.682,0.792,3.194,2.377,4.538
		c1.536,1.394,5.187,2.69,10.949,3.89c14.263,3.074,24.479,6.185,30.65,9.329c6.171,3.146,10.661,7.048,13.471,11.705
		c2.81,4.659,4.214,9.869,4.214,15.632c0,6.771-1.873,13.015-5.618,18.729c-3.746,5.716-8.981,10.049-15.704,13.003
		c-6.724,2.953-15.199,4.43-25.428,4.43c-17.962,0-30.398-3.458-37.314-10.373C372.9,400.242,368.986,391.454,368.074,380.793z"/>
</g>
</svg>
