<?xml version="1.0" encoding="utf-8"?>
<!-- Generator: Adobe Illustrator 15.1.0, SVG Export Plug-In . SVG Version: 6.00 Build 0)  -->
<!DOCTYPE svg PUBLIC "-//W3C//DTD SVG 1.1//EN" "http://www.w3.org/Graphics/SVG/1.1/DTD/svg11.dtd">
<svg version="1.1" id="Layer_1" xmlns="http://www.w3.org/2000/svg" xmlns:xlink="http://www.w3.org/1999/xlink" x="0px" y="0px"
	 width="504px" height="504px" viewBox="0 0 504 504" enable-background="new 0 0 504 504" xml:space="preserve">
<path d="M218.5,457.25H110.726V46.75h196.657v77.3c0,4.418,3.582,8,8,8h77.895V234.5h16V124.049c0-0.003-0.001-0.007-0.001-0.01
	c-0.001-0.265-0.015-0.531-0.041-0.795c-0.011-0.089-0.026-0.175-0.039-0.263c-0.022-0.17-0.044-0.341-0.077-0.51
	c-0.025-0.125-0.063-0.246-0.092-0.369c-0.032-0.13-0.063-0.261-0.103-0.391c-0.036-0.12-0.083-0.236-0.125-0.354
	c-0.046-0.128-0.088-0.258-0.141-0.385c-0.045-0.107-0.1-0.209-0.147-0.314c-0.062-0.132-0.12-0.266-0.188-0.395
	c-0.054-0.098-0.112-0.189-0.169-0.285c-0.076-0.129-0.149-0.26-0.234-0.386c-0.072-0.108-0.154-0.209-0.23-0.313
	c-0.077-0.105-0.15-0.213-0.234-0.314c-0.167-0.202-0.343-0.396-0.528-0.581c-0.004-0.003-0.007-0.008-0.011-0.012l-85.893-85.3
	c-0.06-0.058-0.121-0.106-0.183-0.162c-0.13-0.121-0.259-0.243-0.396-0.355c-0.102-0.082-0.204-0.154-0.309-0.23
	c-0.104-0.079-0.211-0.161-0.32-0.235c-0.116-0.078-0.237-0.146-0.357-0.217c-0.104-0.062-0.207-0.127-0.314-0.185
	c-0.12-0.065-0.245-0.121-0.369-0.179c-0.112-0.053-0.226-0.108-0.341-0.155c-0.12-0.05-0.244-0.092-0.368-0.136
	c-0.123-0.043-0.244-0.09-0.369-0.127s-0.252-0.066-0.379-0.098c-0.126-0.031-0.251-0.066-0.382-0.091
	c-0.144-0.028-0.286-0.046-0.433-0.066c-0.113-0.016-0.226-0.037-0.341-0.048c-0.2-0.019-0.401-0.026-0.604-0.03
	c-0.059-0.001-0.113-0.009-0.175-0.009h-0.022c-0.002,0-0.004,0-0.007,0H102.726c-4.418,0-8,3.582-8,8v426.5c0,4.418,3.582,8,8,8
	H218.5V457.25z M323.383,57.97l58.483,58.08h-58.483V57.97z"/>
<g>
	<path d="M128.344,310.127h48.479c9.556,0,17.276,1.297,23.159,3.89c5.882,2.594,10.745,6.315,14.587,11.166
		c3.842,4.851,6.627,10.493,8.356,16.928c1.729,6.436,2.593,13.254,2.593,20.458c0,11.285-1.286,20.038-3.854,26.256
		c-2.57,6.22-6.135,11.431-10.697,15.632c-4.563,4.203-9.461,7-14.695,8.392c-7.156,1.922-13.64,2.882-19.449,2.882h-48.479V310.127
		z M160.976,334.042v57.7h7.996c6.818,0,11.669-0.757,14.551-2.27c2.881-1.513,5.138-4.153,6.771-7.924
		c1.632-3.77,2.449-9.88,2.449-18.332c0-11.189-1.826-18.849-5.475-22.979c-3.65-4.13-9.701-6.195-18.153-6.195H160.976z"/>
	<path d="M238.557,363c0-17.239,4.802-30.662,14.406-40.267s22.979-14.407,40.124-14.407c17.576,0,31.118,4.718,40.627,14.154
		s14.263,22.655,14.263,39.655c0,12.343-2.077,22.464-6.23,30.362c-4.154,7.9-10.157,14.047-18.009,18.441
		c-7.852,4.394-17.638,6.591-29.354,6.591c-11.91,0-21.767-1.896-29.57-5.69c-7.804-3.793-14.13-9.797-18.98-18.009
		C240.981,385.619,238.557,375.343,238.557,363z M271.188,363.145c0,10.661,1.98,18.321,5.942,22.979
		c3.962,4.659,9.353,6.987,16.172,6.987c7.011,0,12.438-2.28,16.279-6.843c3.842-4.562,5.763-12.75,5.763-24.563
		c0-9.941-2.005-17.204-6.015-21.791c-4.01-4.585-9.448-6.879-16.315-6.879c-6.58,0-11.862,2.33-15.848,6.987
		C273.181,344.68,271.188,352.388,271.188,363.145z"/>
	<path d="M435.858,372.509l28.598,8.645c-1.921,8.021-4.946,14.72-9.076,20.098c-4.131,5.379-9.257,9.437-15.379,12.174
		c-6.123,2.737-13.915,4.105-23.376,4.105c-11.478,0-20.854-1.668-28.129-5.003s-13.555-9.201-18.837-17.6
		c-5.283-8.399-7.924-19.149-7.924-32.252c0-17.468,4.646-30.894,13.938-40.276c9.292-9.382,22.438-14.073,39.438-14.073
		c13.302,0,23.76,2.69,31.371,8.067c7.611,5.379,13.266,13.64,16.965,24.78l-28.814,6.411c-1.008-3.217-2.065-5.57-3.169-7.06
		c-1.826-2.496-4.059-4.418-6.699-5.763c-2.642-1.344-5.596-2.017-8.86-2.017c-7.396,0-13.063,2.975-17,8.922
		c-2.979,4.413-4.467,11.345-4.467,20.792c0,11.704,1.776,19.728,5.331,24.067c3.553,4.341,8.547,6.512,14.983,6.512
		c6.242,0,10.96-1.753,14.154-5.259C432.101,384.275,434.418,379.185,435.858,372.509z"/>
</g>
</svg>
