<?xml version="1.0" encoding="utf-8"?>
<!-- Generator: Adobe Illustrator 15.1.0, SVG Export Plug-In . SVG Version: 6.00 Build 0)  -->
<!DOCTYPE svg PUBLIC "-//W3C//DTD SVG 1.1//EN" "http://www.w3.org/Graphics/SVG/1.1/DTD/svg11.dtd">
<svg version="1.1" id="Layer_1" xmlns="http://www.w3.org/2000/svg" xmlns:xlink="http://www.w3.org/1999/xlink" x="0px" y="0px"
	 width="504px" height="504px" viewBox="0 0 504 504" enable-background="new 0 0 504 504" xml:space="preserve">
<path d="M218.5,457.25H110.726V46.75h196.657v77.3c0,4.418,3.582,8,8,8h77.895V234.5h16V124.049c0-0.003-0.001-0.007-0.001-0.01
	c-0.001-0.265-0.015-0.531-0.041-0.795c-0.011-0.089-0.026-0.175-0.039-0.263c-0.022-0.17-0.044-0.341-0.077-0.51
	c-0.025-0.125-0.063-0.246-0.092-0.369c-0.032-0.13-0.063-0.261-0.103-0.391c-0.036-0.12-0.083-0.236-0.125-0.354
	c-0.046-0.128-0.088-0.258-0.141-0.385c-0.045-0.107-0.1-0.209-0.147-0.314c-0.062-0.132-0.12-0.266-0.188-0.395
	c-0.054-0.098-0.112-0.189-0.169-0.285c-0.076-0.129-0.149-0.26-0.234-0.386c-0.072-0.108-0.154-0.209-0.23-0.313
	c-0.077-0.105-0.15-0.213-0.234-0.314c-0.167-0.202-0.343-0.396-0.528-0.581c-0.004-0.003-0.007-0.008-0.011-0.012l-85.893-85.3
	c-0.06-0.058-0.121-0.106-0.183-0.162c-0.13-0.121-0.259-0.243-0.396-0.355c-0.102-0.082-0.204-0.154-0.309-0.23
	c-0.104-0.079-0.211-0.161-0.32-0.235c-0.116-0.078-0.237-0.146-0.357-0.217c-0.104-0.062-0.207-0.127-0.314-0.185
	c-0.12-0.065-0.245-0.121-0.369-0.179c-0.112-0.053-0.226-0.108-0.341-0.155c-0.12-0.05-0.244-0.092-0.368-0.136
	c-0.123-0.043-0.244-0.09-0.369-0.127s-0.252-0.066-0.379-0.098c-0.126-0.031-0.251-0.066-0.382-0.091
	c-0.144-0.028-0.286-0.046-0.433-0.066c-0.113-0.016-0.226-0.037-0.341-0.048c-0.2-0.019-0.401-0.026-0.604-0.03
	c-0.059-0.001-0.113-0.009-0.175-0.009h-0.022c-0.002,0-0.004,0-0.007,0H102.726c-4.418,0-8,3.582-8,8v426.5c0,4.418,3.582,8,8,8
	H218.5V457.25z M323.383,57.97l58.483,58.08h-58.483V57.97z"/>
<g>
	<path d="M254.692,377.479v-21.971h50.424v45.021c-9.652,6.58-18.188,11.058-25.608,13.435c-7.419,2.377-16.22,3.565-26.4,3.565
		c-12.534,0-22.751-2.136-30.65-6.411c-7.9-4.273-14.023-10.636-18.369-19.089c-4.347-8.452-6.519-18.152-6.519-29.102
		c0-11.526,2.377-21.55,7.131-30.075c4.754-8.523,11.717-14.994,20.89-19.413c7.155-3.409,16.784-5.114,28.886-5.114
		c11.669,0,20.396,1.057,26.184,3.17s10.59,5.391,14.407,9.832c3.818,4.442,6.687,10.074,8.608,16.893l-31.479,5.618
		c-1.296-3.985-3.493-7.034-6.591-9.148c-3.098-2.112-7.048-3.169-11.85-3.169c-7.156,0-12.858,2.485-17.108,7.455
		c-4.25,4.971-6.375,12.835-6.375,23.592c0,11.43,2.148,19.593,6.447,24.491c4.297,4.898,10.289,7.348,17.973,7.348
		c3.648,0,7.131-0.527,10.444-1.585c3.314-1.056,7.107-2.856,11.382-5.402v-9.94H254.692z"/>
	<path d="M325.79,310.127h32.704v105.603H325.79V310.127z"/>
	<path d="M382.049,310.127h80.679v22.69h-47.902v18.441h40.915v21.322h-40.915v43.148h-32.776V310.127z"/>
</g>
</svg>
