<?xml version="1.0" encoding="utf-8"?>
<!-- Generator: Adobe Illustrator 15.1.0, SVG Export Plug-In . SVG Version: 6.00 Build 0)  -->
<!DOCTYPE svg PUBLIC "-//W3C//DTD SVG 1.1//EN" "http://www.w3.org/Graphics/SVG/1.1/DTD/svg11.dtd">
<svg version="1.1" id="Layer_1" xmlns="http://www.w3.org/2000/svg" xmlns:xlink="http://www.w3.org/1999/xlink" x="0px" y="0px"
	 width="504px" height="504px" viewBox="0 0 504 504" enable-background="new 0 0 504 504" xml:space="preserve">
<g>
	<path d="M409.278,234.5V124.049c0-0.003-0.001-0.007-0.001-0.01c-0.001-0.265-0.016-0.531-0.041-0.795
		c-0.012-0.089-0.026-0.175-0.039-0.263c-0.022-0.17-0.044-0.341-0.077-0.51c-0.025-0.125-0.063-0.246-0.092-0.369
		c-0.032-0.13-0.063-0.261-0.104-0.391c-0.036-0.12-0.083-0.236-0.125-0.354c-0.046-0.128-0.088-0.258-0.141-0.385
		c-0.045-0.107-0.101-0.209-0.147-0.314c-0.062-0.132-0.12-0.266-0.188-0.395c-0.055-0.098-0.112-0.189-0.169-0.285
		c-0.076-0.129-0.149-0.26-0.234-0.386c-0.072-0.108-0.154-0.209-0.229-0.313c-0.077-0.105-0.15-0.213-0.234-0.314
		c-0.167-0.202-0.343-0.396-0.528-0.581c-0.004-0.003-0.007-0.008-0.011-0.012l-85.893-85.3c-0.061-0.058-0.121-0.106-0.184-0.162
		c-0.13-0.121-0.259-0.243-0.396-0.355c-0.103-0.082-0.204-0.154-0.31-0.23c-0.104-0.079-0.211-0.161-0.319-0.235
		c-0.116-0.078-0.237-0.146-0.357-0.217c-0.104-0.062-0.207-0.127-0.314-0.185c-0.119-0.065-0.244-0.121-0.368-0.179
		c-0.112-0.053-0.227-0.108-0.342-0.155c-0.119-0.05-0.243-0.092-0.367-0.136c-0.123-0.043-0.244-0.09-0.369-0.127
		s-0.252-0.066-0.379-0.098c-0.126-0.031-0.251-0.066-0.383-0.091c-0.144-0.028-0.285-0.046-0.433-0.066
		c-0.113-0.016-0.226-0.037-0.341-0.048c-0.2-0.019-0.401-0.026-0.604-0.03c-0.059-0.001-0.112-0.009-0.175-0.009h-0.021
		c-0.002,0-0.004,0-0.007,0h-212.63c-4.418,0-8,3.582-8,8v308.332H60.009v-36.954H27.377V415.73h32.632v-42.717h34.717v92.235
		c0,4.418,3.582,8,8,8H218.5V457.25H110.726v-41.52h17.716V310.127h-17.716V46.75h196.657v77.3c0,4.418,3.582,8,8,8h77.896V234.5
		H409.278z M323.383,116.05V57.97l58.483,58.08H323.383z"/>
	<polygon points="142.703,310.127 142.703,336.203 175.983,336.203 175.983,415.729 208.615,415.729 208.615,336.203 
		241.895,336.203 241.895,310.127 142.704,310.127 	"/>
	<polygon points="315.767,374.382 299.217,310.127 256.302,310.127 256.302,415.73 283.027,415.73 283.027,335.195 303.581,415.73 
		327.771,415.73 348.363,335.195 348.363,415.73 375.088,415.73 375.088,310.127 332.199,310.127 	"/>
	<polygon points="428.537,389.725 428.537,310.127 395.905,310.127 395.905,415.73 479.465,415.73 479.465,389.725 	"/>
</g>
</svg>
