<?xml version="1.0" encoding="utf-8"?>
<!-- Generator: Adobe Illustrator 15.1.0, SVG Export Plug-In . SVG Version: 6.00 Build 0)  -->
<!DOCTYPE svg PUBLIC "-//W3C//DTD SVG 1.1//EN" "http://www.w3.org/Graphics/SVG/1.1/DTD/svg11.dtd">
<svg version="1.1" id="Layer_1" xmlns="http://www.w3.org/2000/svg" xmlns:xlink="http://www.w3.org/1999/xlink" x="0px" y="0px"
	 width="504px" height="504px" viewBox="0 0 504 504" enable-background="new 0 0 504 504" xml:space="preserve">
<path d="M409.234,123.244c-0.01-0.089-0.026-0.175-0.039-0.263c-0.022-0.17-0.044-0.341-0.077-0.51
	c-0.025-0.125-0.062-0.246-0.092-0.369c-0.032-0.13-0.062-0.261-0.102-0.391c-0.036-0.12-0.083-0.236-0.125-0.354
	c-0.046-0.128-0.088-0.258-0.141-0.385c-0.045-0.107-0.099-0.209-0.147-0.314c-0.062-0.132-0.12-0.266-0.189-0.395
	c-0.053-0.098-0.112-0.189-0.169-0.285c-0.076-0.129-0.149-0.26-0.234-0.386c-0.072-0.108-0.154-0.209-0.231-0.313
	c-0.077-0.105-0.15-0.213-0.234-0.314c-0.167-0.202-0.343-0.396-0.528-0.581c-0.004-0.003-0.007-0.008-0.011-0.012l-85.893-85.3
	c-0.059-0.058-0.121-0.106-0.182-0.162c-0.13-0.121-0.259-0.243-0.396-0.355c-0.101-0.082-0.204-0.154-0.308-0.23
	c-0.105-0.079-0.211-0.161-0.321-0.235c-0.116-0.078-0.237-0.146-0.357-0.217c-0.104-0.062-0.207-0.127-0.314-0.185
	c-0.121-0.065-0.246-0.121-0.37-0.179c-0.112-0.053-0.225-0.108-0.34-0.155c-0.121-0.05-0.245-0.092-0.369-0.136
	c-0.123-0.043-0.244-0.09-0.369-0.127s-0.252-0.066-0.379-0.098c-0.126-0.031-0.251-0.066-0.381-0.091
	c-0.144-0.028-0.287-0.046-0.433-0.066c-0.113-0.016-0.226-0.037-0.341-0.048c-0.2-0.019-0.401-0.026-0.604-0.03
	c-0.059-0.001-0.114-0.009-0.175-0.009h-0.023c-0.002,0-0.004,0-0.006,0H102.726c-4.418,0-8,3.582-8,8v426.5c0,4.418,3.582,8,8,8
	h298.55c4.418,0,8-3.582,8-8v-341.2c0-0.003-0.001-0.007-0.001-0.01C409.274,123.774,409.262,123.508,409.234,123.244z
	 M323.383,57.97l58.483,58.08h-58.483V57.97z M307.383,124.05c0,4.418,3.582,8,8,8h77.894v325.2h-282.55V46.75h196.657V124.05z"/>
<path d="M462.106,426.842L283.617,248.353c-0.012-0.011-0.021-0.019-0.033-0.028c12.514-17.844,19.861-39.573,19.861-63.021
	c0-60.693-49.2-109.894-109.894-109.894c-60.693,0-109.896,49.201-109.896,109.894c0,60.694,49.202,109.895,109.895,109.895
	c20.249,0,39.215-5.483,55.505-15.035c0.417,0.492,0.842,0.98,1.306,1.444l178.49,178.489c9.183,9.182,24.07,9.182,33.253,0
	S471.287,436.024,462.106,426.842z M191.631,263.526c-42.67,0-77.262-34.592-77.262-77.263c0-42.67,34.592-77.261,77.262-77.261
	c42.671,0,77.264,34.592,77.264,77.261C268.895,228.935,234.303,263.526,191.631,263.526z"/>
</svg>
