<?xml version="1.0" encoding="utf-8"?>
<!-- Generator: Adobe Illustrator 15.1.0, SVG Export Plug-In . SVG Version: 6.00 Build 0)  -->
<!DOCTYPE svg PUBLIC "-//W3C//DTD SVG 1.1//EN" "http://www.w3.org/Graphics/SVG/1.1/DTD/svg11.dtd">
<svg version="1.1" id="Layer_1" xmlns="http://www.w3.org/2000/svg" xmlns:xlink="http://www.w3.org/1999/xlink" x="0px" y="0px"
	 width="504px" height="504px" viewBox="0 0 504 504" enable-background="new 0 0 504 504" xml:space="preserve">
<path d="M72.5,48c0,0,1,40,24.5,50.5c0,0,36.5-15,57-4c0,0,29-31.5,61.5-30.5c0,0-34.5,23-34.5,50c0,0,26,33,34.5,27.5l24,0.618
	c0,0,5.5,4.882,0,9.882c0,0-2.5,11.5-18,15.5c0,0-16.5,10.5-21.5,18.5c0,0,13,19.5,6.5,39.5c0,0-24-12-39.5-8.5
	c0,0-17.5,14.5,12.5,39c0,0,23.889,30.5,62.444,4.5c0,0,33.556-16.5,55.556,14c0,0,8.5,19-15,12c0,0-33.5,41.5-89,34
	c0,0,96.5,91.5,175.5-28.5c0,0,5.5,19,0,32.5c0,0,29-25,21.5-108.5c0,0,12.5,8.331,15,23.416c0,0,10-52.916-3.5-89.416
	c0,0,6.5-1.5,18.5,10c0,0,9-51-91-86.5c0,0,9-12,29.5-5c0,0-10.5-21.5-48-25.5c0,0,123-4.5,138,85.5c0,0,3.5-25.5-5-42.5
	c0,0,34,36.339,35,112.419c0,0,7.5-10.419,7-22.919c0,0,17,285.69-231,285.69c0,0-210.5-6.69-225.5-198.69c0,0-5.5-49,11-77.5
	c0,0-14,8-23,17.5c0,0,4-44.5,30.5-69C48,133.5,43,74,72.5,48z"/>
</svg>
