<?xml version="1.0" encoding="utf-8"?>
<!-- Generator: Adobe Illustrator 15.1.0, SVG Export Plug-In . SVG Version: 6.00 Build 0)  -->
<!DOCTYPE svg PUBLIC "-//W3C//DTD SVG 1.1//EN" "http://www.w3.org/Graphics/SVG/1.1/DTD/svg11.dtd">
<svg version="1.1" id="Layer_1" xmlns="http://www.w3.org/2000/svg" xmlns:xlink="http://www.w3.org/1999/xlink" x="0px" y="0px"
	 width="504px" height="504px" viewBox="0 0 504 504" enable-background="new 0 0 504 504" xml:space="preserve">
<polygon points="145.744,18.968 27.8,28.253 18.515,146.197 69.84,94.872 107.671,132.702 132.655,107.718 94.825,69.887 "/>
<polygon points="359.378,18.968 477.322,28.253 486.607,146.197 435.281,94.872 397.451,132.702 372.467,107.718 410.297,69.887 "/>
<polygon points="145.183,486.32 27.239,477.035 17.954,359.092 69.28,410.416 107.11,372.586 132.094,397.57 94.264,435.401 "/>
<polygon points="358.817,486.32 476.762,477.035 486.047,359.092 434.721,410.416 396.891,372.586 371.906,397.57 409.736,435.401 
	"/>
<path d="M361.167,310.5c0,27.614-22.386,50-50,50H194.5c-27.614,0-50-22.386-50-50v-116c0-27.614,22.386-50,50-50h116.667
	c27.614,0,50,22.386,50,50V310.5z"/>
</svg>
