<?xml version="1.0" encoding="utf-8"?>
<!-- Generator: Adobe Illustrator 15.1.0, SVG Export Plug-In . SVG Version: 6.00 Build 0)  -->
<!DOCTYPE svg PUBLIC "-//W3C//DTD SVG 1.1//EN" "http://www.w3.org/Graphics/SVG/1.1/DTD/svg11.dtd">
<svg version="1.1" id="Layer_1" xmlns="http://www.w3.org/2000/svg" xmlns:xlink="http://www.w3.org/1999/xlink" x="0px" y="0px"
	 width="504px" height="504px" viewBox="0 0 504 504" enable-background="new 0 0 504 504" xml:space="preserve">
<path d="M305.321,136.646c10.168-4.372,20.201-11.228,30.55-21.611c30.029-30.132,41.875-67.016,26.455-82.382
	c-15.418-15.368-52.263-3.399-82.293,26.733c-12.354,12.395-22.678,28.138-29.052,42.54c-6.363-14.482-16.745-30.356-29.183-42.836
	c-30.031-30.132-66.875-42.101-82.293-26.733c-15.419,15.367-3.574,52.25,26.456,82.382c10.594,10.629,19.506,17.551,28.175,21.907
	H28v108.475h29.288v233.221h156.204V142.524c8.945,1.14,18.686,0.585,30.578-0.616c17.377,1.825,32.792,2.548,47.523-0.804v337.237
	h154.034V245.121H476V136.646H305.321z M232.148,123.353c-10.355,10.322-35.101,2.283-55.271-17.956
	c-20.169-20.237-28.125-45.01-17.769-55.332s35.102-2.282,55.272,17.956C234.549,88.258,242.505,113.033,232.148,123.353z
	 M249.482,141.274c0.35-0.075,0.69-0.161,1.018-0.262C250.733,141.106,250.275,141.194,249.482,141.274z M269.684,123.649
	c-10.357-10.321-2.402-35.095,17.768-55.332c20.171-20.238,44.916-28.278,55.272-17.956c10.355,10.321,2.4,35.095-17.77,55.332
	C304.784,125.932,280.038,133.97,269.684,123.649z"/>
</svg>
