<?xml version="1.0" encoding="utf-8"?>
<!-- Generator: Adobe Illustrator 15.1.0, SVG Export Plug-In . SVG Version: 6.00 Build 0)  -->
<!DOCTYPE svg PUBLIC "-//W3C//DTD SVG 1.1//EN" "http://www.w3.org/Graphics/SVG/1.1/DTD/svg11.dtd">
<svg version="1.1" id="Layer_1" xmlns="http://www.w3.org/2000/svg" xmlns:xlink="http://www.w3.org/1999/xlink" x="0px" y="0px"
	 width="504px" height="504px" viewBox="0 0 504 504" enable-background="new 0 0 504 504" xml:space="preserve">
<g>
	<path d="M159.727,204.067h54.447v143.334l0.143,6.717c0,9.525-2.025,18.601-6.074,27.224c-4.05,8.621-9.432,15.599-16.148,20.936
		c-6.716,5.335-15.244,9.193-25.58,11.575c-10.338,2.381-22.175,3.573-35.512,3.573c-30.488,0-51.424-4.573-62.807-13.719
		c-11.386-9.146-17.077-21.39-17.077-36.728c0-1.906,0.094-4.479,0.286-7.717l56.448,6.431c1.429,5.238,3.62,8.86,6.574,10.861
		c4.287,2.951,9.668,4.43,16.148,4.43c8.382,0,14.648-2.239,18.792-6.717c4.145-4.479,6.217-12.29,6.217-23.437v-23.008
		c-5.716,6.766-11.433,11.672-17.149,14.72c-8.956,4.765-18.627,7.146-29.01,7.146c-20.293,0-36.68-8.86-49.16-26.581
		c-8.86-12.575-13.291-29.199-13.291-49.874c0-23.626,5.716-41.633,17.149-54.019c11.432-12.384,26.388-18.578,44.873-18.578
		c11.812,0,21.554,2.001,29.224,6.002c7.668,4.001,14.838,10.624,21.507,19.864V204.067z M104.994,277.663
		c0,10.957,2.333,19.078,7.002,24.366c4.667,5.287,10.812,7.931,18.435,7.931c7.239,0,13.313-2.737,18.221-8.217
		c4.906-5.478,7.36-13.741,7.36-24.794c0-11.051-2.572-19.507-7.717-25.366c-5.145-5.859-11.432-8.789-18.863-8.789
		s-13.362,2.693-17.792,8.074C107.209,256.252,104.994,265.184,104.994,277.663z"/>
	<path d="M251.473,146.333h58.163v39.585h-58.163V146.333z M251.473,204.067h58.163v151.766h-58.163V204.067z"/>
	<path d="M416.958,146.333v57.734h32.011v42.586h-32.011v53.768c0,6.467,0.619,10.745,1.858,12.835
		c1.904,3.233,5.238,4.85,10.003,4.85c4.287,0,10.289-1.234,18.006-3.709l4.288,40.15c-14.387,3.144-27.82,4.716-40.3,4.716
		c-14.482,0-25.151-1.855-32.011-5.566c-6.86-3.711-11.933-9.347-15.22-16.912s-4.931-19.815-4.931-36.752v-53.379h-21.436v-42.586
		h21.436V176.2L416.958,146.333z"/>
</g>
</svg>
