<?xml version="1.0" encoding="utf-8"?>
<!-- Generator: Adobe Illustrator 15.1.0, SVG Export Plug-In . SVG Version: 6.00 Build 0)  -->
<!DOCTYPE svg PUBLIC "-//W3C//DTD SVG 1.1//EN" "http://www.w3.org/Graphics/SVG/1.1/DTD/svg11.dtd">
<svg version="1.1" id="Layer_1" xmlns="http://www.w3.org/2000/svg" xmlns:xlink="http://www.w3.org/1999/xlink" x="0px" y="0px"
	 width="504px" height="504px" viewBox="0 0 504 504" enable-background="new 0 0 504 504" xml:space="preserve">
<path d="M416.049,87.951C372.23,44.132,313.97,20,252,20c-61.97,0-120.23,24.132-164.049,67.951S20,190.03,20,252
	s24.132,120.23,67.951,164.049S190.031,484,252,484c61.969,0,120.23-24.132,164.048-67.951C459.868,372.229,484,313.969,484,252
	S459.868,131.77,416.049,87.951z M224.021,441.955c-5.529-0.811-10.982-1.856-16.349-3.13l0.318-64.316
	c0,0,2.333-13.333,16.333-13.333L224.021,441.955z M243.657,443.808v-82.632c0,0,9.334-12.666,16.667,0.667v81.966
	C257.563,443.927,254.79,444,252,444C249.204,444,246.425,443.927,243.657,443.808z M296.991,438.663
	c-5.685,1.37-11.467,2.487-17.334,3.337v-80.824c0,0,13.334-3.333,17.334,14.667V438.663z M314.991,433.374v-90.198
	c0,0-0.006-29.295-32.299-35.029c77.791-5.775,77.808-35.503,77.808-71.313c0-21.608-0.01-41-17.102-54.254l7.536-38.132
	l-63.073,21.498c-10.269-0.947-21.984-1.445-35.361-1.445c-13.839,0-25.895,0.535-36.414,1.546l-63.372-21.6l7.72,39.064
	c-15.928,13.223-15.934,32.216-15.934,53.322c0,36.416,0.016,66.541,81.819,71.585c-12.762,2.771-37.329,11.241-37.329,35.424
	h-26.667c0,0-23.333-28.666-62.667-26c0,0,44.842,19.324,56.333,40c0,0,1.167,3.332,10.75,4.666h22.25l-0.594,70.649
	C113.695,406.854,60,335.585,60,252C60,146.13,146.131,60,252,60c105.869,0,192,86.13,192,192
	C444,335.813,390.013,407.244,314.991,433.374z"/>
</svg>
