<?xml version="1.0" encoding="utf-8"?>
<!-- Generator: Adobe Illustrator 15.1.0, SVG Export Plug-In . SVG Version: 6.00 Build 0)  -->
<!DOCTYPE svg PUBLIC "-//W3C//DTD SVG 1.1//EN" "http://www.w3.org/Graphics/SVG/1.1/DTD/svg11.dtd">
<svg version="1.1" id="Layer_1" xmlns="http://www.w3.org/2000/svg" xmlns:xlink="http://www.w3.org/1999/xlink" x="0px" y="0px"
	 width="504px" height="504px" viewBox="0 0 504 504" enable-background="new 0 0 504 504" xml:space="preserve">
<path d="M452.077,23.105H53.988c-16.918,0-30.683,13.764-30.683,30.683v398.089c0,16.92,13.764,30.685,30.683,30.685h398.089
	c16.92,0,30.685-13.765,30.685-30.685V53.788C482.763,36.87,468.997,23.105,452.077,23.105z M33.305,451.877v-16.476
	c7.389,12.645,21.755,27.687,49.61,37.161H53.988C42.584,472.563,33.305,463.283,33.305,451.877z M179.971,338.473
	c60.978,39.636,54.88,69.109,54.88,69.109c-0.115,1.019-0.252,2.019-0.411,2.999c-8.239,50.826-73.778,49.848-73.778,49.848
	c-102.646-1.017-90.45-64.026-90.45-64.026C78.001,329.404,179.971,338.473,179.971,338.473z M103.749,207.372
	c0,0-28.456-87.401,33.538-92.483c0,0,53.863-18.293,68.091,92.483c0,0,3.049,38.619-34.554,46.749
	C170.824,254.121,126.107,267.333,103.749,207.372z M452.077,472.563H194.544c31.481-10.669,66.378-33.672,73.845-83.274
	c0,0,2.032-44.717-48.782-80.287c0,0-18.293-7.114-25.407-27.44c0,0-6.098-10.162,23.375-35.569c0,0,34.554-20.326,33.538-59.961
	c0,0,7.114-42.685-33.538-70.125h30.489l30.488-21.68H150.499c0,0-95.532,14.566-99.597,94.854c0,0,2.033,92.482,99.597,80.287
	c0,0-17.277,32.521,12.195,52.848c0,0-100.065,2.852-129.389,54.208V53.788c0-11.404,9.278-20.683,20.683-20.683h398.089
	c11.405,0,20.685,9.278,20.685,20.683v107.809h-86.063V72.225h-19.151v89.372h-90.123v20.278h90.123v84.491h19.151v-84.491h86.063
	v270.002h0.001C472.763,463.282,463.483,472.563,452.077,472.563z"/>
</svg>
