<?xml version="1.0" encoding="utf-8"?>
<!-- Generator: Adobe Illustrator 15.1.0, SVG Export Plug-In . SVG Version: 6.00 Build 0)  -->
<!DOCTYPE svg PUBLIC "-//W3C//DTD SVG 1.1//EN" "http://www.w3.org/Graphics/SVG/1.1/DTD/svg11.dtd">
<svg version="1.1" id="Layer_1" xmlns="http://www.w3.org/2000/svg" xmlns:xlink="http://www.w3.org/1999/xlink" x="0px" y="0px"
	 width="504px" height="504px" viewBox="0 0 504 504" enable-background="new 0 0 504 504" xml:space="preserve">
<polygon points="64.937,440.059 64.937,19.5 18.495,19.5 18.495,440.059 18.495,486.5 64.937,486.5 485.494,486.5 485.494,440.059 
	"/>
<path d="M482.575,73.166c-3.688-3.359-9.398-3.091-12.758,0.596L345.368,210.411l-48.868-61.37
	c-0.013-0.017-0.027-0.031-0.042-0.048c-0.138-0.171-0.286-0.334-0.438-0.496c-0.055-0.06-0.107-0.123-0.164-0.18
	c-0.141-0.144-0.293-0.278-0.445-0.412c-0.075-0.067-0.147-0.139-0.225-0.202c-0.124-0.103-0.256-0.196-0.387-0.292
	c-0.114-0.084-0.225-0.172-0.342-0.251c-0.1-0.066-0.206-0.126-0.31-0.188c-0.155-0.095-0.309-0.191-0.468-0.275
	c-0.091-0.048-0.187-0.089-0.278-0.134c-0.18-0.087-0.358-0.174-0.541-0.249c-0.024-0.01-0.046-0.023-0.07-0.033
	c-0.084-0.033-0.17-0.056-0.255-0.087c-0.168-0.061-0.336-0.123-0.508-0.174c-0.141-0.042-0.281-0.075-0.423-0.11
	c-0.138-0.034-0.275-0.069-0.415-0.097c-0.166-0.034-0.333-0.057-0.499-0.082c-0.119-0.017-0.237-0.034-0.355-0.045
	c-0.176-0.018-0.352-0.028-0.527-0.035c-0.115-0.005-0.232-0.01-0.349-0.01c-0.169-0.001-0.336,0.006-0.504,0.015
	c-0.129,0.007-0.257,0.014-0.384,0.026c-0.151,0.014-0.301,0.035-0.45,0.057c-0.146,0.021-0.293,0.044-0.437,0.073
	c-0.131,0.025-0.257,0.055-0.385,0.087c-0.161,0.039-0.321,0.08-0.48,0.128c-0.114,0.035-0.226,0.074-0.338,0.113
	c-0.164,0.057-0.326,0.115-0.487,0.182c-0.113,0.047-0.223,0.099-0.334,0.148c-0.15,0.07-0.302,0.141-0.449,0.219
	c-0.128,0.067-0.251,0.141-0.374,0.215c-0.125,0.073-0.248,0.145-0.369,0.225c-0.151,0.1-0.298,0.208-0.442,0.317
	c-0.07,0.053-0.145,0.098-0.215,0.153c-0.02,0.016-0.036,0.034-0.056,0.05c-0.156,0.126-0.306,0.263-0.454,0.399
	c-0.072,0.068-0.149,0.132-0.22,0.202c-0.131,0.129-0.252,0.267-0.375,0.404c-0.079,0.089-0.162,0.175-0.238,0.266
	c-0.09,0.11-0.172,0.228-0.259,0.343c-0.095,0.127-0.193,0.253-0.283,0.385c-0.056,0.087-0.107,0.179-0.161,0.268
	c-0.105,0.169-0.21,0.337-0.301,0.512c-0.042,0.076-0.076,0.158-0.115,0.236c-0.095,0.193-0.187,0.386-0.268,0.583
	c-0.009,0.021-0.02,0.04-0.028,0.062l-62.137,155.339l-41.833-39.741c-0.003-0.004-0.006-0.008-0.01-0.01l-0.102-0.097
	c-0.077-0.073-0.16-0.135-0.239-0.205c-0.131-0.115-0.259-0.232-0.396-0.341c-0.148-0.117-0.302-0.222-0.456-0.327
	c-0.078-0.055-0.149-0.113-0.229-0.165c-0.015-0.01-0.03-0.017-0.045-0.026c-0.184-0.117-0.373-0.223-0.563-0.324
	c-0.077-0.041-0.152-0.088-0.229-0.127c-0.178-0.09-0.36-0.167-0.542-0.243c-0.096-0.042-0.191-0.088-0.29-0.126
	c-0.147-0.057-0.298-0.101-0.448-0.149c-0.136-0.045-0.27-0.094-0.407-0.131c-0.106-0.028-0.214-0.048-0.321-0.072
	c-0.181-0.043-0.361-0.087-0.544-0.118c-0.07-0.012-0.141-0.017-0.211-0.027c-0.218-0.031-0.437-0.062-0.655-0.076
	c-0.063-0.005-0.128-0.003-0.191-0.007c-0.224-0.01-0.447-0.02-0.67-0.014c-0.104,0.003-0.207,0.016-0.311,0.021
	c-0.181,0.01-0.363,0.018-0.543,0.039c-0.164,0.021-0.326,0.053-0.49,0.082c-0.119,0.02-0.238,0.035-0.355,0.061
	c-0.204,0.044-0.405,0.103-0.606,0.161c-0.075,0.021-0.151,0.038-0.226,0.061c-0.2,0.064-0.395,0.143-0.591,0.221
	c-0.075,0.028-0.152,0.053-0.226,0.084c-0.166,0.071-0.326,0.156-0.489,0.237c-0.102,0.051-0.206,0.097-0.306,0.152
	c-0.125,0.067-0.243,0.148-0.365,0.223c-0.134,0.082-0.269,0.16-0.398,0.249c-0.09,0.062-0.175,0.133-0.263,0.198
	c-0.154,0.114-0.31,0.229-0.457,0.354c-0.073,0.063-0.141,0.133-0.212,0.197c-0.152,0.139-0.305,0.276-0.449,0.427
	c-0.014,0.014-0.029,0.026-0.042,0.04c-0.073,0.077-0.136,0.16-0.206,0.239c-0.115,0.13-0.231,0.259-0.34,0.397
	c-0.114,0.145-0.217,0.295-0.321,0.444c-0.056,0.082-0.119,0.156-0.172,0.239l-0.072,0.112c-0.004,0.008-0.009,0.014-0.013,0.021
	L83.182,392.297c-2.706,4.19-1.503,9.78,2.686,12.484c1.516,0.979,3.213,1.446,4.892,1.446c2.963,0,5.866-1.457,7.594-4.132
	L172.428,287.4L216,328.793c0,0,0.001,0,0.001,0.001l0.133,0.127c0.062,0.059,0.129,0.107,0.191,0.164
	c0.14,0.126,0.279,0.25,0.426,0.367c0.107,0.084,0.218,0.161,0.329,0.241c0.123,0.088,0.244,0.178,0.372,0.261
	c0.163,0.106,0.332,0.2,0.5,0.295c0.083,0.045,0.163,0.096,0.248,0.14c0.255,0.133,0.515,0.253,0.779,0.359
	c0.007,0.002,0.013,0.007,0.021,0.009c0,0,0.001,0,0.003,0.001c0.249,0.1,0.502,0.186,0.757,0.263
	c0.026,0.008,0.051,0.018,0.076,0.025c0.173,0.051,0.348,0.087,0.523,0.126c0.663,0.15,1.33,0.234,1.991,0.234
	c0.033,0,0.065-0.008,0.097-0.008c0.358-0.004,0.713-0.034,1.067-0.079c0.111-0.015,0.221-0.03,0.33-0.05
	c0.373-0.062,0.743-0.142,1.107-0.249c0.009-0.002,0.018-0.004,0.027-0.008c0.383-0.114,0.755-0.265,1.122-0.432
	c0.078-0.035,0.153-0.073,0.23-0.111c0.313-0.153,0.62-0.325,0.917-0.517c0.047-0.031,0.098-0.058,0.145-0.09
	c0.319-0.215,0.625-0.454,0.921-0.715c0.088-0.077,0.171-0.161,0.257-0.243c0.11-0.104,0.224-0.201,0.33-0.313
	c0.101-0.106,0.188-0.22,0.282-0.328c0.074-0.086,0.15-0.17,0.222-0.258c0.249-0.313,0.476-0.635,0.678-0.969
	c0.034-0.055,0.063-0.115,0.096-0.173c0.197-0.342,0.369-0.691,0.517-1.051c0.013-0.03,0.031-0.057,0.043-0.088l0.063-0.155
	c0.002-0.008,0.005-0.015,0.009-0.022l61.241-153.104l45.794,57.509c0.042,0.052,0.09,0.096,0.132,0.148
	c0.134,0.159,0.271,0.313,0.417,0.464c0.098,0.104,0.197,0.206,0.301,0.303c0.047,0.044,0.087,0.092,0.135,0.136
	c0.092,0.084,0.189,0.157,0.284,0.236c0.104,0.086,0.204,0.175,0.311,0.257c0.18,0.138,0.366,0.264,0.553,0.386
	c0.073,0.048,0.143,0.101,0.216,0.146c0.264,0.162,0.536,0.307,0.813,0.44c0.075,0.036,0.152,0.065,0.229,0.099
	c0.211,0.095,0.424,0.183,0.641,0.26c0.094,0.033,0.187,0.062,0.281,0.092c0.206,0.065,0.413,0.125,0.623,0.175
	c0.098,0.024,0.194,0.047,0.292,0.068c0.219,0.045,0.438,0.08,0.658,0.109c0.088,0.011,0.175,0.026,0.265,0.036
	c0.299,0.03,0.598,0.048,0.897,0.049c0.009,0,0.017,0.001,0.023,0.001c0.012,0,0.022-0.002,0.034-0.003
	c0.424-0.002,0.845-0.042,1.262-0.103c0.104-0.016,0.206-0.029,0.31-0.047c0.417-0.075,0.828-0.177,1.232-0.312
	c0.081-0.027,0.159-0.059,0.238-0.088c0.393-0.142,0.775-0.309,1.147-0.507c0.041-0.021,0.083-0.038,0.123-0.06
	c0.404-0.223,0.788-0.484,1.16-0.771c0.037-0.028,0.076-0.046,0.112-0.074c0.058-0.046,0.108-0.098,0.165-0.146
	c0.117-0.099,0.234-0.202,0.349-0.308c0.13-0.121,0.256-0.246,0.377-0.372c0.053-0.055,0.109-0.103,0.161-0.159L483.172,85.923
	C486.529,82.235,486.262,76.524,482.575,73.166z"/>
</svg>
