<?xml version="1.0" encoding="utf-8"?>
<!-- Generator: Adobe Illustrator 15.1.0, SVG Export Plug-In . SVG Version: 6.00 Build 0)  -->
<!DOCTYPE svg PUBLIC "-//W3C//DTD SVG 1.1//EN" "http://www.w3.org/Graphics/SVG/1.1/DTD/svg11.dtd">
<svg version="1.1" id="Layer_1" xmlns="http://www.w3.org/2000/svg" xmlns:xlink="http://www.w3.org/1999/xlink" x="0px" y="0px"
	 width="504px" height="504px" viewBox="0 0 504 504" enable-background="new 0 0 504 504" xml:space="preserve">
<polygon points="64.937,440.059 64.937,19.5 18.495,19.5 18.495,440.059 18.495,486.5 64.937,486.5 485.494,486.5 485.494,440.059 
	"/>
<path d="M84.687,73.166c3.688-3.359,9.398-3.091,12.758,0.596l124.449,136.649l48.868-61.37c0.013-0.017,0.027-0.031,0.042-0.048
	c0.138-0.171,0.286-0.334,0.438-0.496c0.055-0.06,0.107-0.123,0.164-0.18c0.141-0.144,0.293-0.278,0.445-0.412
	c0.075-0.067,0.147-0.139,0.225-0.202c0.124-0.103,0.256-0.196,0.387-0.292c0.114-0.084,0.225-0.172,0.342-0.251
	c0.1-0.066,0.206-0.126,0.31-0.188c0.155-0.095,0.309-0.191,0.468-0.275c0.091-0.048,0.187-0.089,0.278-0.134
	c0.18-0.087,0.358-0.174,0.541-0.249c0.024-0.01,0.046-0.023,0.07-0.033c0.084-0.033,0.17-0.056,0.255-0.087
	c0.168-0.061,0.336-0.123,0.508-0.174c0.141-0.042,0.281-0.075,0.423-0.11c0.138-0.034,0.275-0.069,0.415-0.097
	c0.166-0.034,0.333-0.057,0.499-0.082c0.119-0.017,0.237-0.034,0.355-0.045c0.176-0.018,0.352-0.028,0.527-0.035
	c0.115-0.005,0.232-0.01,0.349-0.01c0.169-0.001,0.336,0.006,0.504,0.015c0.129,0.007,0.257,0.014,0.384,0.026
	c0.151,0.014,0.301,0.035,0.45,0.057c0.146,0.021,0.293,0.044,0.437,0.073c0.131,0.025,0.257,0.055,0.385,0.087
	c0.161,0.039,0.321,0.08,0.48,0.128c0.114,0.035,0.226,0.074,0.338,0.113c0.164,0.057,0.326,0.115,0.487,0.182
	c0.113,0.047,0.223,0.099,0.334,0.148c0.15,0.07,0.302,0.141,0.449,0.219c0.128,0.067,0.251,0.141,0.374,0.215
	c0.125,0.073,0.248,0.145,0.369,0.225c0.151,0.1,0.298,0.208,0.442,0.317c0.07,0.053,0.145,0.098,0.215,0.153
	c0.02,0.016,0.036,0.034,0.056,0.05c0.156,0.126,0.306,0.263,0.454,0.399c0.072,0.068,0.149,0.132,0.22,0.202
	c0.131,0.129,0.252,0.267,0.375,0.404c0.079,0.089,0.162,0.175,0.238,0.266c0.09,0.11,0.172,0.228,0.259,0.343
	c0.095,0.127,0.193,0.253,0.283,0.385c0.056,0.087,0.107,0.179,0.161,0.268c0.105,0.169,0.21,0.337,0.301,0.512
	c0.042,0.076,0.076,0.158,0.115,0.236c0.095,0.193,0.187,0.386,0.268,0.583c0.009,0.021,0.02,0.04,0.028,0.062l62.137,155.339
	l41.833-39.741c0.003-0.004,0.006-0.008,0.01-0.01l0.102-0.097c0.077-0.073,0.16-0.135,0.239-0.205
	c0.131-0.115,0.259-0.232,0.396-0.341c0.148-0.117,0.302-0.222,0.455-0.327c0.078-0.055,0.149-0.113,0.229-0.165
	c0.015-0.01,0.03-0.017,0.045-0.026c0.185-0.117,0.373-0.223,0.563-0.324c0.077-0.041,0.152-0.088,0.229-0.127
	c0.178-0.09,0.359-0.167,0.542-0.243c0.096-0.042,0.19-0.088,0.289-0.126c0.147-0.057,0.299-0.101,0.448-0.149
	c0.136-0.045,0.27-0.094,0.406-0.131c0.106-0.028,0.214-0.048,0.321-0.072c0.181-0.043,0.361-0.087,0.544-0.118
	c0.07-0.012,0.142-0.017,0.212-0.027c0.218-0.031,0.437-0.062,0.654-0.076c0.063-0.005,0.128-0.003,0.191-0.007
	c0.224-0.01,0.447-0.02,0.671-0.014c0.104,0.003,0.207,0.016,0.311,0.021c0.182,0.01,0.363,0.018,0.544,0.039
	c0.164,0.021,0.326,0.053,0.49,0.082c0.118,0.02,0.238,0.035,0.355,0.061c0.203,0.044,0.405,0.103,0.606,0.161
	c0.074,0.021,0.151,0.038,0.226,0.061c0.2,0.064,0.396,0.143,0.591,0.221c0.075,0.028,0.152,0.053,0.227,0.084
	c0.166,0.071,0.326,0.156,0.488,0.237c0.102,0.051,0.206,0.097,0.307,0.152c0.124,0.067,0.243,0.148,0.364,0.223
	c0.134,0.082,0.27,0.16,0.398,0.249c0.09,0.062,0.175,0.133,0.263,0.198c0.154,0.114,0.31,0.229,0.457,0.354
	c0.073,0.063,0.142,0.133,0.213,0.197c0.152,0.139,0.305,0.276,0.448,0.427c0.015,0.014,0.029,0.026,0.043,0.04
	c0.073,0.077,0.136,0.16,0.205,0.239c0.115,0.13,0.231,0.259,0.341,0.397c0.114,0.145,0.217,0.295,0.32,0.444
	c0.057,0.082,0.119,0.156,0.173,0.239l0.071,0.112c0.005,0.008,0.009,0.014,0.014,0.021l79.897,123.712
	c2.706,4.19,1.503,9.78-2.686,12.484c-1.516,0.979-3.213,1.446-4.892,1.446c-2.963,0-5.866-1.457-7.595-4.132L394.833,287.4
	l-43.571,41.393c0,0-0.001,0-0.001,0.001l-0.133,0.127c-0.062,0.059-0.129,0.107-0.191,0.164c-0.14,0.126-0.279,0.25-0.427,0.367
	c-0.107,0.084-0.218,0.161-0.328,0.241c-0.123,0.088-0.244,0.178-0.372,0.261c-0.163,0.106-0.332,0.2-0.5,0.295
	c-0.084,0.045-0.163,0.096-0.248,0.14c-0.255,0.133-0.516,0.253-0.779,0.359c-0.008,0.002-0.014,0.007-0.021,0.009
	c-0.001,0-0.002,0-0.003,0.001c-0.249,0.1-0.502,0.186-0.758,0.263c-0.025,0.008-0.051,0.018-0.076,0.025
	c-0.173,0.051-0.348,0.087-0.523,0.126c-0.663,0.15-1.329,0.234-1.991,0.234c-0.033,0-0.064-0.008-0.097-0.008
	c-0.358-0.004-0.713-0.034-1.067-0.079c-0.11-0.015-0.221-0.03-0.33-0.05c-0.373-0.062-0.743-0.142-1.106-0.249
	c-0.01-0.002-0.019-0.004-0.027-0.008c-0.383-0.114-0.755-0.265-1.121-0.432c-0.078-0.035-0.153-0.073-0.23-0.111
	c-0.313-0.153-0.62-0.325-0.918-0.517c-0.047-0.031-0.098-0.058-0.145-0.09c-0.319-0.215-0.626-0.454-0.921-0.715
	c-0.088-0.077-0.171-0.161-0.257-0.243c-0.11-0.104-0.225-0.201-0.33-0.313c-0.101-0.106-0.188-0.22-0.281-0.328
	c-0.074-0.086-0.15-0.17-0.222-0.258c-0.249-0.313-0.476-0.635-0.678-0.969c-0.034-0.055-0.063-0.115-0.096-0.173
	c-0.197-0.342-0.369-0.691-0.518-1.051c-0.013-0.03-0.03-0.057-0.043-0.088l-0.063-0.155c-0.003-0.008-0.006-0.015-0.009-0.022
	l-61.241-153.104l-45.794,57.509c-0.042,0.052-0.09,0.096-0.132,0.148c-0.134,0.159-0.271,0.313-0.417,0.464
	c-0.098,0.104-0.197,0.206-0.301,0.303c-0.047,0.044-0.087,0.092-0.135,0.136c-0.092,0.084-0.189,0.157-0.284,0.236
	c-0.104,0.086-0.204,0.175-0.311,0.257c-0.18,0.138-0.366,0.264-0.553,0.386c-0.073,0.048-0.143,0.101-0.216,0.146
	c-0.264,0.162-0.536,0.307-0.813,0.44c-0.075,0.036-0.152,0.065-0.229,0.099c-0.211,0.095-0.424,0.183-0.641,0.26
	c-0.094,0.033-0.187,0.062-0.281,0.092c-0.206,0.065-0.413,0.125-0.623,0.175c-0.098,0.024-0.194,0.047-0.292,0.068
	c-0.219,0.045-0.438,0.08-0.658,0.109c-0.088,0.011-0.175,0.026-0.265,0.036c-0.299,0.03-0.598,0.048-0.897,0.049
	c-0.009,0-0.017,0.001-0.023,0.001c-0.012,0-0.022-0.002-0.034-0.003c-0.424-0.002-0.845-0.042-1.262-0.103
	c-0.104-0.016-0.206-0.029-0.31-0.047c-0.417-0.075-0.828-0.177-1.232-0.312c-0.081-0.027-0.159-0.059-0.238-0.088
	c-0.393-0.142-0.775-0.309-1.147-0.507c-0.041-0.021-0.083-0.038-0.123-0.06c-0.404-0.223-0.788-0.484-1.16-0.771
	c-0.037-0.028-0.076-0.046-0.112-0.074c-0.058-0.046-0.108-0.098-0.165-0.146c-0.117-0.099-0.234-0.202-0.349-0.308
	c-0.13-0.121-0.256-0.246-0.377-0.372c-0.053-0.055-0.109-0.103-0.161-0.159L84.09,85.923C80.732,82.235,81,76.524,84.687,73.166z"
	/>
</svg>
