<?xml version="1.0" encoding="utf-8"?>
<!-- Generator: Adobe Illustrator 15.1.0, SVG Export Plug-In . SVG Version: 6.00 Build 0)  -->
<!DOCTYPE svg PUBLIC "-//W3C//DTD SVG 1.1//EN" "http://www.w3.org/Graphics/SVG/1.1/DTD/svg11.dtd">
<svg version="1.1" id="Layer_1" xmlns="http://www.w3.org/2000/svg" xmlns:xlink="http://www.w3.org/1999/xlink" x="0px" y="0px"
	 width="504px" height="504px" viewBox="0 0 504 504" enable-background="new 0 0 504 504" xml:space="preserve">
<g>
	<path fill-rule="evenodd" clip-rule="evenodd" fill="#221E1F" d="M477.047,274.397C473.733,153.311,374.541,56.167,252.652,56.167
		c-123.979,0-224.485,100.506-224.485,224.485c0,7.129,0.347,14.176,1,21.134v59.382H56.5V248.483
		c38.363-68.765,111.819-115.277,196.152-115.277c85.069,0,159.074,47.324,197.152,117.077v111.551h27.333V274.5L477.047,274.397z"
		/>
	<path fill-rule="evenodd" clip-rule="evenodd" fill="#221E1F" d="M90.167,281.5c-9.757,0-17.667,7.91-17.667,17.667V424.5
		c0,9.758,7.91,17.667,17.667,17.667c9.757,0,17.667-7.909,17.667-17.667V299.167C107.833,289.41,99.924,281.5,90.167,281.5z"/>
	<path fill-rule="evenodd" clip-rule="evenodd" fill="#221E1F" d="M414.167,281.5c-9.757,0-17.667,7.91-17.667,17.667V424.5
		c0,9.758,7.91,17.667,17.667,17.667s17.667-7.909,17.667-17.667V299.167C431.834,289.41,423.924,281.5,414.167,281.5z"/>
</g>
</svg>
