<?xml version="1.0" encoding="utf-8"?>
<!-- Generator: Adobe Illustrator 15.1.0, SVG Export Plug-In . SVG Version: 6.00 Build 0)  -->
<!DOCTYPE svg PUBLIC "-//W3C//DTD SVG 1.1//EN" "http://www.w3.org/Graphics/SVG/1.1/DTD/svg11.dtd">
<svg version="1.1" id="Layer_1" xmlns="http://www.w3.org/2000/svg" xmlns:xlink="http://www.w3.org/1999/xlink" x="0px" y="0px"
	 width="504px" height="504px" viewBox="0 0 504 504" enable-background="new 0 0 504 504" xml:space="preserve">
<path fill-rule="evenodd" clip-rule="evenodd" fill="#1F1E1F" stroke="#000000" stroke-width="12" stroke-linecap="round" stroke-miterlimit="10" d="
	M252,449.711"/>
<g>
	<path d="M252.027,455.713c-0.019,0-0.036,0-0.054,0c-0.999,0-2.011-0.249-2.942-0.775
		c-85.772-48.38-150.233-104.016-191.591-165.362C13.68,224.667,11.509,176.071,12.606,158.19
		c3.086-57.019,35.733-84.64,62.578-97.763c28.346-13.857,55.642-14.683,57.436-14.723c33.598-1.192,62.932,9.81,87.189,32.737
		c14.75,13.942,25.169,30.077,32.19,43.697c7.022-13.623,17.438-29.761,32.178-43.696c24.254-22.93,53.589-33.952,87.209-32.737
		c1.843,0.041,29.113,0.878,57.431,14.722c26.844,13.124,59.491,40.745,62.58,97.807c1.09,17.839-1.094,66.434-44.855,131.341
		c-41.36,61.347-105.814,116.982-191.572,165.362C254.038,455.463,253.025,455.713,252.027,455.713z M137.539,57.616
		c-1.496,0-3.002,0.027-4.534,0.083l-0.105,0.003c-0.255,0.005-26.46,0.694-52.803,13.682
		c-34.615,17.065-53.291,46.504-55.51,87.499c-1.025,16.701,1.1,62.125,42.804,123.985c39.836,59.09,101.942,112.898,184.61,159.96
		c82.654-47.062,144.754-100.87,184.593-159.96c41.707-61.86,43.843-107.285,42.824-123.943
		c-2.229-41.184-21.025-70.681-55.87-87.716c-26.34-12.877-52.187-13.501-52.444-13.506l-0.105-0.003
		c-67.323-2.434-99.985,49.602-113.489,80.838L252,151.276l-5.507-12.739C233.295,108.012,201.758,57.616,137.539,57.616z"/>
</g>
</svg>
