<?xml version="1.0" encoding="utf-8"?>
<!-- Generator: Adobe Illustrator 15.1.0, SVG Export Plug-In . SVG Version: 6.00 Build 0)  -->
<!DOCTYPE svg PUBLIC "-//W3C//DTD SVG 1.1//EN" "http://www.w3.org/Graphics/SVG/1.1/DTD/svg11.dtd">
<svg version="1.1" id="Layer_1" xmlns="http://www.w3.org/2000/svg" xmlns:xlink="http://www.w3.org/1999/xlink" x="0px" y="0px"
	 width="504px" height="504px" viewBox="0 0 504 504" enable-background="new 0 0 504 504" xml:space="preserve">
<path d="M491.396,158.234c-3.089-57.062-35.735-84.683-62.579-97.807c-28.318-13.844-55.589-14.681-57.432-14.722
	c-33.62-1.215-62.955,9.807-87.209,32.737c-14.739,13.935-25.155,30.073-32.178,43.696c-7.021-13.62-17.44-29.755-32.19-43.697
	c-24.257-22.927-53.591-33.929-87.189-32.737c-1.794,0.04-29.09,0.866-57.436,14.723C48.339,73.55,15.692,101.171,12.606,158.19
	c-1.097,17.881,1.074,66.477,44.834,131.386c41.358,61.346,105.819,116.981,191.591,165.362c0.931,0.525,1.943,0.774,2.942,0.774
	c0.018,0,0.035,0,0.054,0c0.999,0,2.011-0.25,2.943-0.775c85.758-48.381,150.212-104.016,191.572-165.362
	C490.303,224.668,492.487,176.073,491.396,158.234z"/>
</svg>
