<?xml version="1.0" encoding="utf-8"?>
<!-- Generator: Adobe Illustrator 15.1.0, SVG Export Plug-In . SVG Version: 6.00 Build 0)  -->
<!DOCTYPE svg PUBLIC "-//W3C//DTD SVG 1.1//EN" "http://www.w3.org/Graphics/SVG/1.1/DTD/svg11.dtd">
<svg version="1.1" id="Layer_1" xmlns="http://www.w3.org/2000/svg" xmlns:xlink="http://www.w3.org/1999/xlink" x="0px" y="0px"
	 width="504px" height="504px" viewBox="0 0 504 504" enable-background="new 0 0 504 504" xml:space="preserve">
<path d="M310.388,70.571c35.241-25.845,80.624-41.161,80.624-41.161c105.32-15.327,62.825,88.336,62.825,88.336
	c38.479-64.81,0.069-88.192,0.069-88.192c-52.583-28.716-118.007,8.372-146.073,27.503c-8.687,5.923-13.49,10.135-13.49,10.135
	C59.4,34.788,51.89,244.565,51.89,244.565C162.269,110.647,221.09,107.129,221.09,107.129C-56,347,51.89,470.114,51.89,470.114
	c42.246,48.16,162.152-36.064,162.152-36.064c25.844,2.698,47.38,1.672,47.38,1.672C405,436,454.855,301,454.855,301h-137.44
	c-10.572,46-56.311,42.475-56.311,42.475c-71.583,2.352-63.51-71.475-63.51-71.475h257.261
	C468.951,93,310.388,70.571,310.388,70.571z M202.294,430.178c0,0-196.178,109.252-117.472-75.18
	C84.823,354.998,124.762,419.605,202.294,430.178z M196.421,209c0,0,5.431-57.56,55.577-55.21c0,0,56.021-7.79,66.594,55.21H196.421
	z"/>
</svg>
