<?xml version="1.0" encoding="utf-8"?>
<!-- Generator: Adobe Illustrator 15.1.0, SVG Export Plug-In . SVG Version: 6.00 Build 0)  -->
<!DOCTYPE svg PUBLIC "-//W3C//DTD SVG 1.1//EN" "http://www.w3.org/Graphics/SVG/1.1/DTD/svg11.dtd">
<svg version="1.1" id="Layer_1" xmlns="http://www.w3.org/2000/svg" xmlns:xlink="http://www.w3.org/1999/xlink" x="0px" y="0px"
	 width="504px" height="504px" viewBox="0 0 504 504" enable-background="new 0 0 504 504" xml:space="preserve">
<g>
	<path fill-rule="evenodd" clip-rule="evenodd" fill="#221E1F" d="M285.587,396.506c-2.363-2.204-3.863-6.145-4.491-11.816
		c-1.418-14.494-2.127-31.983-2.127-52.467c0-21.898,0.551-55.854,1.654-101.861c0.314-14.181,1.023-27.179,2.128-38.996
		l-5.673-3.545c-14.339,5.605-26.037,9.579-35.096,11.913c-9.062,2.334-23.202,4.903-42.422,7.703v13.707h17.725
		c8.508,0,13.981,1.026,16.426,3.08c2.441,2.053,3.818,5.528,4.136,10.425c0.787,13.271,1.182,32.149,1.182,56.632
		c0,35.229-0.395,62.873-1.182,82.933c-0.473,12.954-1.617,20.58-3.427,22.869c-1.813,2.29-6.658,3.752-14.535,4.384l-20.325,2.131
		v13.707c18.907-1.104,37.655-1.654,56.248-1.654c18.907,0,39.86,0.55,62.866,1.654v-13.707l-16.071-2.128
		C293.622,400.369,287.95,398.715,285.587,396.506z"/>
	<path fill-rule="evenodd" clip-rule="evenodd" fill="#221E1F" d="M258.172,136.771c7.245,0,13.471-2.6,18.67-7.799
		c5.2-5.199,7.8-11.499,7.8-18.907c0-7.404-2.6-13.745-7.8-19.025c-5.199-5.277-11.425-7.917-18.67-7.917
		c-7.408,0-13.708,2.641-18.907,7.917c-5.199,5.281-7.799,11.621-7.799,19.025c0,7.408,2.6,13.708,7.799,18.907
		C244.464,134.172,250.764,136.771,258.172,136.771z"/>
	<path fill-rule="evenodd" clip-rule="evenodd" fill="#221E1F" d="M252.5,27.167c-124.448,0-225.333,100.885-225.333,225.333
		S128.052,477.834,252.5,477.834c124.449,0,225.334-100.886,225.334-225.334S376.949,27.167,252.5,27.167z M252.5,441.878
		c-104.591,0-189.378-84.787-189.378-189.377c0-104.591,84.787-189.378,189.378-189.378s189.378,84.787,189.378,189.378
		C441.878,357.091,357.091,441.878,252.5,441.878z"/>
</g>
</svg>
