<?xml version="1.0" encoding="utf-8"?>
<!-- Generator: Adobe Illustrator 15.1.0, SVG Export Plug-In . SVG Version: 6.00 Build 0)  -->
<!DOCTYPE svg PUBLIC "-//W3C//DTD SVG 1.1//EN" "http://www.w3.org/Graphics/SVG/1.1/DTD/svg11.dtd">
<svg version="1.1" id="Layer_1" xmlns="http://www.w3.org/2000/svg" xmlns:xlink="http://www.w3.org/1999/xlink" x="0px" y="0px"
	 width="504px" height="504px" viewBox="0 0 504 504" enable-background="new 0 0 504 504" xml:space="preserve">
<path fill-rule="evenodd" clip-rule="evenodd" fill="#221E1F" d="M252.5,27.167c-124.448,0-225.333,100.885-225.333,225.333
	S128.052,477.834,252.5,477.834c124.449,0,225.334-100.886,225.334-225.334S376.949,27.167,252.5,27.167z M232.648,92.827
	c5.2-5.277,11.5-7.917,18.907-7.917c7.245,0,13.471,2.641,18.67,7.917c5.2,5.281,7.8,11.621,7.8,19.025
	c0,7.408-2.6,13.708-7.8,18.907c-5.199,5.2-11.425,7.799-18.67,7.799c-7.408,0-13.708-2.6-18.907-7.799
	c-5.199-5.199-7.799-11.499-7.799-18.907C224.85,104.448,227.449,98.108,232.648,92.827z M312.058,419.091
	c-23.006-1.104-43.959-1.654-62.866-1.654c-18.592,0-37.341,0.55-56.248,1.654v-13.707l20.325-2.131
	c7.876-0.632,12.721-2.094,14.535-4.384c1.81-2.289,2.954-9.915,3.427-22.869c0.787-20.06,1.182-47.703,1.182-82.933
	c0-24.482-0.395-43.36-1.182-56.632c-0.317-4.896-1.695-8.372-4.136-10.425c-2.445-2.054-7.917-3.08-16.426-3.08h-17.725v-13.707
	c19.221-2.8,33.36-5.369,42.422-7.703c9.059-2.334,20.757-6.308,35.096-11.913l5.673,3.545c-1.104,11.817-1.813,24.815-2.128,38.996
	c-1.104,46.008-1.654,79.963-1.654,101.861c0,20.483,0.709,37.973,2.127,52.467c0.628,5.672,2.128,9.612,4.491,11.816
	c2.363,2.209,8.035,3.863,17.016,4.963l16.071,2.128V419.091z"/>
</svg>
