<?xml version="1.0" encoding="utf-8"?>
<!-- Generator: Adobe Illustrator 15.1.0, SVG Export Plug-In . SVG Version: 6.00 Build 0)  -->
<!DOCTYPE svg PUBLIC "-//W3C//DTD SVG 1.1//EN" "http://www.w3.org/Graphics/SVG/1.1/DTD/svg11.dtd">
<svg version="1.1" id="Layer_1" xmlns="http://www.w3.org/2000/svg" xmlns:xlink="http://www.w3.org/1999/xlink" x="0px" y="0px"
	 width="504px" height="504px" viewBox="0 0 504 504" enable-background="new 0 0 504 504" xml:space="preserve">
<g>
	<path d="M256.999,428.5c-9.098,0-16.5,7.402-16.5,16.5s7.402,16.5,16.5,16.5s16.5-7.402,16.5-16.5S266.097,428.5,256.999,428.5z"/>
	<path d="M357.333,27H146.666c-13.807,0-25,11.193-25,25v400c0,13.807,11.193,25,25,25h210.667c13.808,0,25-11.193,25-25V52
		C382.333,38.193,371.141,27,357.333,27z M234.333,53.667h35.334c2.393,0,4.333,1.94,4.333,4.333s-1.94,4.333-4.333,4.333h-35.334
		c-2.394,0-4.333-1.94-4.333-4.333S231.939,53.667,234.333,53.667z M256.999,464.5c-10.752,0-19.5-8.748-19.5-19.5
		s8.748-19.5,19.5-19.5s19.5,8.748,19.5,19.5S267.751,464.5,256.999,464.5z M356.333,414.334H149V91h207.333V414.334z"/>
</g>
</svg>
