<?xml version="1.0" encoding="utf-8"?>
<!-- Generator: Adobe Illustrator 15.1.0, SVG Export Plug-In . SVG Version: 6.00 Build 0)  -->
<!DOCTYPE svg PUBLIC "-//W3C//DTD SVG 1.1//EN" "http://www.w3.org/Graphics/SVG/1.1/DTD/svg11.dtd">
<svg version="1.1" id="Layer_1" xmlns="http://www.w3.org/2000/svg" xmlns:xlink="http://www.w3.org/1999/xlink" x="0px" y="0px"
	 width="504px" height="504px" viewBox="0 0 504 504" enable-background="new 0 0 504 504" xml:space="preserve">
<g>
	<path d="M295,464.722L291.35,477H106.171l4.646-12.278c18.584-0.441,30.863-1.991,36.836-4.646
		c9.732-3.76,16.925-8.96,21.571-15.598c7.3-10.396,14.819-28.979,22.566-55.752l78.318-271.461
		c6.637-22.566,9.956-39.599,9.956-51.105c0-5.75-1.441-10.619-4.313-14.602c-2.879-3.983-7.249-7.021-13.109-9.126
		c-5.864-2.1-17.313-3.152-34.347-3.152L232.278,27h173.894l-3.651,12.279c-14.159-0.218-24.671,1.328-31.525,4.646
		c-9.956,4.428-17.537,10.733-22.732,18.916c-5.201,8.188-11.896,26.332-20.078,54.424l-77.987,271.461
		c-7.083,25.003-10.619,40.933-10.619,47.788c0,5.532,1.379,10.235,4.148,14.104c2.764,3.873,7.188,6.859,13.274,8.96
		C263.083,461.683,275.752,463.395,295,464.722z"/>
</g>
</svg>
