<?xml version="1.0" encoding="utf-8"?>
<!-- Generator: Adobe Illustrator 15.1.0, SVG Export Plug-In . SVG Version: 6.00 Build 0)  -->
<!DOCTYPE svg PUBLIC "-//W3C//DTD SVG 1.1//EN" "http://www.w3.org/Graphics/SVG/1.1/DTD/svg11.dtd">
<svg version="1.1" id="Layer_1" xmlns="http://www.w3.org/2000/svg" xmlns:xlink="http://www.w3.org/1999/xlink" x="0px" y="0px"
	 width="504px" height="504px" viewBox="0 0 504 504" enable-background="new 0 0 504 504" xml:space="preserve">
<g>
	<path d="M251.854,271.482c0,0-42.257-61-36.068-83.985c0,0-0.884-27.406,39.782-53.927c0,0,76.026-44.2,43.318-115.811
		c0,0,15.702,57.463-46.961,94.594c0,0-72.387,45.084-61.548,80.449C190.376,192.802,196.865,233.468,251.854,271.482z"/>
	<path d="M352.813,112.35c0,0-102.551,30.943-97.246,81.333c0,0-0.884,27.406,22.102,45.087c0,0,26.422,22.985-7.073,46.856
		c0,0,62.769-35.364,28.29-64.537c0,0-28.289-21.218-9.725-59.232C289.161,161.857,298,140.639,352.813,112.35z"/>
	<path d="M219.321,312.801c0,0,95.478,1.495,133.492-20.797c0,0-117.139,12.418-163.543,9.534c0,0-94.601,0.889,7.066-30.056
		c0,0-77.798,9.723-77.798,27.403C118.538,298.886,122.075,313.983,219.321,312.801z"/>
	<path d="M352.813,359.002c0,0,67.188-16.798,70.726-54.812c0,0-2.651-40.666-59.233-28.29
		C364.306,275.9,466.855,276.785,352.813,359.002z"/>
	<path d="M307.059,336.9c-171.29,27.404-128.404-10.608-128.404-10.608c-61.885,32.71,30.059,38.014,30.059,38.014
		c64.535,4.421,129.955-17.478,129.955-17.478L307.059,336.9z"/>
	<path d="M199.872,412.044c68.071,12.376,125.536-10.608,125.536-10.608L299.77,387.29c-131.724,23.871-110.5-11.492-110.5-11.492
		C142.677,405.799,199.872,412.044,199.872,412.044z"/>
	<path d="M396.132,415.703c14.145,45.211-249.303,28.167-249.303,28.167c-87.522-9.725,4.42-31.826,4.42-31.826
		c-52.79-0.71-70.725,24.313-70.725,24.313c-15.913,21.657,155.151,24.311,155.151,24.311
		C453.596,453.595,396.132,415.703,396.132,415.703z"/>
	<path d="M423.539,436.349c-47.739,58.782-275.827,32.276-275.827,32.276c23.869,21.218,115.811,16.565,115.811,16.565
		C435.03,481.002,423.539,436.349,423.539,436.349z"/>
</g>
</svg>
