<?xml version="1.0" encoding="utf-8"?>
<!-- Generator: Adobe Illustrator 15.1.0, SVG Export Plug-In . SVG Version: 6.00 Build 0)  -->
<!DOCTYPE svg PUBLIC "-//W3C//DTD SVG 1.1//EN" "http://www.w3.org/Graphics/SVG/1.1/DTD/svg11.dtd">
<svg version="1.1" id="Layer_1" xmlns="http://www.w3.org/2000/svg" xmlns:xlink="http://www.w3.org/1999/xlink" x="0px" y="0px"
	 width="504px" height="504px" viewBox="0 0 504 504" enable-background="new 0 0 504 504" xml:space="preserve">
<path d="M27.5,344.238v106.296h113.623v-56.42h71.309v0.13l1.463-1.463v-66.819h65.824v-66.628l50.112,14.377l2.535,0.6
	c38.518,11.61,82.013,2.207,112.452-28.229c44.065-44.066,44.065-115.513,0-159.58c-40.306-40.305-103.5-43.72-147.715-10.298
	 M391.095,168.435c-19.909,0-36.046-16.139-36.046-36.046c0-19.908,16.137-36.046,36.046-36.046s36.046,16.138,36.046,36.046
	C427.141,152.296,411.004,168.435,391.095,168.435z"/>
</svg>
