<?xml version="1.0" encoding="utf-8"?>
<!-- Generator: Adobe Illustrator 15.1.0, SVG Export Plug-In . SVG Version: 6.00 Build 0)  -->
<!DOCTYPE svg PUBLIC "-//W3C//DTD SVG 1.1//EN" "http://www.w3.org/Graphics/SVG/1.1/DTD/svg11.dtd">
<svg version="1.1" id="Layer_1" xmlns="http://www.w3.org/2000/svg" xmlns:xlink="http://www.w3.org/1999/xlink" x="0px" y="0px"
	 width="504px" height="504px" viewBox="0 0 504 504" enable-background="new 0 0 504 504" xml:space="preserve">
<path d="M479.5,233.5v-28H185.188c-3.482-51.011-36.26-91-76.188-91c-42.25,0-76.5,44.771-76.5,100s34.25,100,76.5,100
	c37.279,0,68.325-34.859,75.115-81H390.5v25h-28v21v22h28v-22h62v22h27v-22v-21h-27v-25H479.5z M109,286.41
	c-30.382,0-55.011-32.194-55.011-71.91c0-39.715,24.629-71.91,55.011-71.91s55.011,32.195,55.011,71.91
	C164.011,254.216,139.382,286.41,109,286.41z"/>
</svg>
