<?xml version="1.0" encoding="utf-8"?>
<!-- Generator: Adobe Illustrator 15.1.0, SVG Export Plug-In . SVG Version: 6.00 Build 0)  -->
<!DOCTYPE svg PUBLIC "-//W3C//DTD SVG 1.1//EN" "http://www.w3.org/Graphics/SVG/1.1/DTD/svg11.dtd">
<svg version="1.1" id="Layer_1" xmlns="http://www.w3.org/2000/svg" xmlns:xlink="http://www.w3.org/1999/xlink" x="0px" y="0px"
	 width="504px" height="504px" viewBox="0 0 504 504" enable-background="new 0 0 504 504" xml:space="preserve">
<path d="M447.217,144.5H55.783c-15.62,0-28.283,11.193-28.283,25v166c0,13.807,12.663,25,28.283,25h391.434
	c15.62,0,28.283-11.193,28.283-25v-166C475.5,155.693,462.837,144.5,447.217,144.5z M264.5,184.833c0-4.603,3.73-8.333,8.334-8.333
	h21.332c4.604,0,8.334,3.731,8.334,8.333v21.333c0,4.604-3.73,8.334-8.334,8.334h-21.332c-4.604,0-8.334-3.73-8.334-8.334V184.833z
	 M301.5,240.834v21.332c0,4.604-3.73,8.334-8.334,8.334h-21.332c-0.812,0-1.593-0.121-2.334-0.338
	c-0.741,0.217-1.522,0.338-2.334,0.338h-21.332c-4.604,0-8.334-3.73-8.334-8.334v-21.332c0-4.604,3.73-8.334,8.334-8.334h21.332
	c0.812,0,1.593,0.122,2.334,0.337c0.741-0.216,1.522-0.337,2.334-0.337h21.332C297.77,232.5,301.5,236.23,301.5,240.834z
	 M211.5,184.833c0-4.603,3.73-8.333,8.334-8.333h21.332c4.604,0,8.334,3.731,8.334,8.333v21.333c0,4.604-3.73,8.334-8.334,8.334
	h-21.332c-4.604,0-8.334-3.73-8.334-8.334V184.833z M222.5,240.834v21.332c0,4.604-3.73,8.334-8.334,8.334h-21.333
	c-4.603,0-8.333-3.73-8.333-8.334v-21.332c0-4.604,3.731-8.334,8.333-8.334h21.333C218.77,232.5,222.5,236.23,222.5,240.834z
	 M158.5,184.833c0-4.603,3.731-8.333,8.333-8.333h21.333c4.603,0,8.333,3.731,8.333,8.333v21.333c0,4.604-3.731,8.334-8.333,8.334
	h-21.333c-4.603,0-8.333-3.73-8.333-8.334V184.833z M168.5,240.834v21.332c0,4.604-3.73,8.334-8.334,8.334h-21.333
	c-4.603,0-8.333-3.73-8.333-8.334v-21.332c0-4.604,3.731-8.334,8.333-8.334h21.333C164.77,232.5,168.5,236.23,168.5,240.834z
	 M104.5,184.833c0-4.603,3.731-8.333,8.333-8.333h21.333c4.604,0,8.334,3.731,8.334,8.333v21.333c0,4.604-3.73,8.334-8.334,8.334
	h-21.333c-4.603,0-8.333-3.73-8.333-8.334V184.833z M115.5,240.834v21.332c0,4.604-3.731,8.334-8.333,8.334H85.833
	c-4.603,0-8.333-3.73-8.333-8.334v-21.332c0-4.604,3.731-8.334,8.333-8.334h21.333C111.769,232.5,115.5,236.23,115.5,240.834z
	 M51.5,184.833c0-4.603,3.731-8.333,8.333-8.333h21.333c4.603,0,8.333,3.731,8.333,8.333v21.333c0,4.603-3.731,8.333-8.333,8.333
	H59.833c-4.603,0-8.333-3.731-8.333-8.333V184.833z M90.5,318.166c0,4.604-3.731,8.334-8.333,8.334H60.833
	c-4.603,0-8.333-3.73-8.333-8.334v-21.332c0-4.604,3.731-8.334,8.333-8.334h21.333c4.603,0,8.333,3.73,8.333,8.334V318.166z
	 M143.5,318.166c0,4.604-3.73,8.334-8.334,8.334h-21.333c-4.603,0-8.333-3.73-8.333-8.334v-21.332c0-4.604,3.731-8.334,8.333-8.334
	h21.333c4.604,0,8.334,3.73,8.334,8.334V318.166z M197.5,318.166c0,4.604-3.73,8.334-8.334,8.334h-21.333
	c-4.603,0-8.333-3.73-8.333-8.334v-21.332c0-4.604,3.731-8.334,8.333-8.334h21.333c4.604,0,8.334,3.73,8.334,8.334V318.166z
	 M250.5,318.166c0,4.604-3.73,8.334-8.334,8.334h-21.332c-4.604,0-8.334-3.73-8.334-8.334v-21.332c0-4.604,3.73-8.334,8.334-8.334
	h21.332c4.604,0,8.334,3.73,8.334,8.334V318.166z M303.5,318.166c0,4.604-3.73,8.334-8.334,8.334h-21.332
	c-4.604,0-8.334-3.73-8.334-8.334v-21.332c0-4.604,3.73-8.334,8.334-8.334h21.332c4.604,0,8.334,3.73,8.334,8.334V318.166z
	 M317.5,184.833c0-4.603,3.73-8.333,8.334-8.333h21.332c4.604,0,8.334,3.731,8.334,8.333v21.333c0,4.604-3.73,8.334-8.334,8.334
	h-21.332c-4.604,0-8.334-3.73-8.334-8.334V184.833z M356.5,318.166c0,4.604-3.73,8.334-8.334,8.334h-21.332
	c-4.604,0-8.334-3.73-8.334-8.334v-21.332c0-4.604,3.73-8.334,8.334-8.334h21.332c4.604,0,8.334,3.73,8.334,8.334V318.166z
	 M356.5,262.166c0,4.604-3.73,8.334-8.334,8.334h-21.332c-4.604,0-8.334-3.73-8.334-8.334v-21.333c0-4.603,3.73-8.333,8.334-8.333
	h21.332c4.604,0,8.334,3.731,8.334,8.333V262.166z M368.5,184.833c0-4.603,3.73-8.333,8.334-8.333h21.332
	c4.604,0,8.334,3.731,8.334,8.333v21.333c0,4.604-3.73,8.334-8.334,8.334h-21.332c-4.604,0-8.334-3.73-8.334-8.334V184.833z
	 M407.5,318.166c0,4.604-3.73,8.334-8.334,8.334h-21.332c-4.604,0-8.334-3.73-8.334-8.334v-21.332c0-4.604,3.73-8.334,8.334-8.334
	h21.332c4.604,0,8.334,3.73,8.334,8.334V318.166z M407.5,262.166c0,4.604-3.73,8.334-8.334,8.334h-21.332
	c-4.604,0-8.334-3.73-8.334-8.334v-21.333c0-4.603,3.73-8.333,8.334-8.333h21.332c4.604,0,8.334,3.731,8.334,8.333V262.166z
	 M420.5,184.833c0-4.603,3.73-8.333,8.334-8.333h21.332c4.604,0,8.334,3.731,8.334,8.333v21.333c0,4.604-3.73,8.334-8.334,8.334
	h-21.332c-4.604,0-8.334-3.73-8.334-8.334V184.833z M459.5,318.166c0,4.604-3.73,8.334-8.334,8.334h-21.332
	c-4.604,0-8.334-3.73-8.334-8.334v-21.332c0-4.604,3.73-8.334,8.334-8.334h21.332c4.604,0,8.334,3.73,8.334,8.334V318.166z
	 M459.5,262.166c0,4.604-3.73,8.334-8.334,8.334h-21.332c-4.604,0-8.334-3.73-8.334-8.334v-21.333c0-4.603,3.73-8.333,8.334-8.333
	h21.332c4.604,0,8.334,3.731,8.334,8.333V262.166z"/>
</svg>
