<?xml version="1.0" encoding="utf-8"?>
<!-- Generator: Adobe Illustrator 15.1.0, SVG Export Plug-In . SVG Version: 6.00 Build 0)  -->
<!DOCTYPE svg PUBLIC "-//W3C//DTD SVG 1.1//EN" "http://www.w3.org/Graphics/SVG/1.1/DTD/svg11.dtd">
<svg version="1.1" id="Layer_1" xmlns="http://www.w3.org/2000/svg" xmlns:xlink="http://www.w3.org/1999/xlink" x="0px" y="0px"
	 width="504px" height="504px" viewBox="0 0 504 504" enable-background="new 0 0 504 504" xml:space="preserve">
<path fill="#999999" d="M368.398,66.924c-42.58-45.56-110.037-47.868-123.127-47.868c-1.715,0-2.643,0.037-2.643,0.037
	c-0.065,0.002-0.139,0.007-0.205,0.012c-58.841,4.286-86.196,27.774-106.991,52.514c-33.05,39.257-42.278,88.657-26.686,142.859
	c11.644,40.479,32.709,69.005,33.601,70.198c0.1,0.135,0.205,0.264,0.316,0.389c32.519,36.7,39.581,83.527,40.824,94.499
	c-1.688,1.248-2.614,3.301-2.384,5.417l5.576,51.23c0.077,0.704,0.279,1.391,0.597,2.023c0.987,1.969,24.646,48.203,65.423,48.208
	c0.003,0,0.004,0,0.006,0c22.327,0,44.918-14.039,67.139-41.723c0.785-0.978,1.241-2.178,1.304-3.429l2.821-56.636
	c0.079-1.593-0.494-3.101-1.513-4.243c-0.011-0.097-0.013-0.193-0.027-0.291c-2.624-16.312,14.478-63.705,21.962-82.325
	c55.591-48.62,58.823-110.094,58.973-114.021C406.675,134.609,394.91,95.293,368.398,66.924z M252.705,474.541
	c-0.001,0-0.003,0-0.004,0c-23.259-0.002-40.584-19.988-49.035-32.27c17.411,8.173,33.328,10.895,46.749,10.895
	c7.88,0,14.903-0.929,20.863-2.228c20.713-4.512,33.323-14.203,33.85-14.614c1.555-1.211,1.831-3.451,0.621-5.007
	c-1.211-1.555-3.452-1.836-5.01-0.624c-0.117,0.09-11.963,9.17-31.178,13.31c-23.714,5.114-47.715,0.847-71.437-12.629
	l-2.105-19.336c19.69,10.654,37.726,14.302,53.187,14.302c32.354,0,53.435-15.954,54.772-16.995
	c1.556-1.211,1.837-3.454,0.626-5.011c-1.211-1.555-3.453-1.836-5.011-0.625c-0.116,0.091-11.882,9.118-31.021,13.278
	c-24.402,5.306-49.11,0.684-73.505-13.698l-0.802-7.372c19.924,11.483,40.174,17.294,60.347,17.294
	c25.779,0,45.547-9.437,56.845-16.604l-0.835,16.752c-5.144,3.609-15.642,10.142-29.588,14.5
	c-26.675,8.338-52.685,5.18-77.305-9.386c-1.697-1.004-3.887-0.442-4.891,1.254c-1.004,1.697-0.442,3.887,1.255,4.891
	c18.767,11.103,36.719,14.82,52.349,14.82c11.84,0,22.348-2.134,30.862-4.809c11.497-3.608,20.719-8.54,26.875-12.397l-0.823,16.525
	C289.924,462.503,270.87,474.541,252.705,474.541z M391.482,183.067c-0.004,0.069-0.008,0.138-0.01,0.208
	c-0.02,0.6-2.584,60.513-55.945,106.454c-0.714,0.615-1.271,1.392-1.628,2.265c-2.622,6.436-24.46,60.867-23.58,86.124
	c-7.197,4.609-28.578,16.519-57.28,16.519c-19.676,0-39.085-5.592-57.732-16.626c-1.4-12.803-8.837-61.312-43.553-100.631
	c-1.786-2.456-20.987-29.403-31.571-66.192c-14.65-50.929-6.457-95.308,24.357-131.908c22.077-26.266,47.306-44.533,98.63-48.297
	c0.246-0.007,0.966-0.025,2.101-0.025c12.229,0,75.211,2.126,114.432,44.093C383.893,100.933,394.584,137.275,391.482,183.067z"/>
</svg>
