<?xml version="1.0" encoding="utf-8"?>
<!-- Generator: Adobe Illustrator 15.1.0, SVG Export Plug-In . SVG Version: 6.00 Build 0)  -->
<!DOCTYPE svg PUBLIC "-//W3C//DTD SVG 1.1//EN" "http://www.w3.org/Graphics/SVG/1.1/DTD/svg11.dtd">
<svg version="1.1" id="Layer_1" xmlns="http://www.w3.org/2000/svg" xmlns:xlink="http://www.w3.org/1999/xlink" x="0px" y="0px"
	 width="504px" height="504px" viewBox="0 0 504 504" enable-background="new 0 0 504 504" xml:space="preserve">
<path d="M460.125,222H330v-6.125C330,176.18,298.57,144,258.875,144H92.125C52.43,144,20,176.18,20,215.875v63.25
	C20,318.82,52.43,351,92.125,351h166.75C298.57,351,330,318.82,330,279.125V273h130.125C474.416,273,486,261.79,486,247.5
	S474.416,222,460.125,222z M218.891,296h-85.707C112.89,296,96,281.13,96,262.396v-29.851C96,213.812,112.89,199,133.184,199h85.707
	c16.154,0,30.093,9,35.112,23h-52.628c-14.29,0-25.875,11.21-25.875,25.5s11.585,25.5,25.875,25.5h52.608
	C248.947,287,235.024,296,218.891,296z"/>
</svg>
