<?xml version="1.0" encoding="utf-8"?>
<!-- Generator: Adobe Illustrator 15.1.0, SVG Export Plug-In . SVG Version: 6.00 Build 0)  -->
<!DOCTYPE svg PUBLIC "-//W3C//DTD SVG 1.1//EN" "http://www.w3.org/Graphics/SVG/1.1/DTD/svg11.dtd">
<svg version="1.1" id="Layer_1" xmlns="http://www.w3.org/2000/svg" xmlns:xlink="http://www.w3.org/1999/xlink" x="0px" y="0px"
	 width="504px" height="504px" viewBox="0 0 504 504" enable-background="new 0 0 504 504" xml:space="preserve">
<polygon points="463.5,38.5 210.533,38.5 305.237,134.17 177.492,261.916 241.374,325.801 368.796,198.378 463.5,294.049 "/>
<path d="M350.5,257.5v178.899c0,11.653-9.447,21.101-21.101,21.101H68.6c-11.653,0-21.1-9.447-21.1-21.101V175.6
	c0-11.653,9.447-21.1,21.1-21.1H252v-28H44.5c-13.807,0-25,11.193-25,25v309c0,13.807,11.193,25,25,25h309c13.807,0,25-11.193,25-25
	v-203H350.5z"/>
</svg>
