<?xml version="1.0" encoding="utf-8"?>
<!-- Generator: Adobe Illustrator 15.1.0, SVG Export Plug-In . SVG Version: 6.00 Build 0)  -->
<!DOCTYPE svg PUBLIC "-//W3C//DTD SVG 1.1//EN" "http://www.w3.org/Graphics/SVG/1.1/DTD/svg11.dtd">
<svg version="1.1" id="Layer_1" xmlns="http://www.w3.org/2000/svg" xmlns:xlink="http://www.w3.org/1999/xlink" x="0px" y="0px"
	 width="504px" height="504px" viewBox="0 0 504 504" enable-background="new 0 0 504 504" xml:space="preserve">
<g>
	<path d="M151.5,426.5h-74v-239h74V426.5z M87.5,416.5h54v-219h-54V416.5z"/>
</g>
<g>
	<path d="M114.5,162.5c-25.916,0-47-21.084-47-47s21.084-47,47-47s47,21.084,47,47S140.416,162.5,114.5,162.5z M114.5,78.5
		c-20.402,0-37,16.598-37,37s16.598,37,37,37s37-16.598,37-37S134.902,78.5,114.5,78.5z"/>
</g>
<g>
	<path d="M416.5,426.5h-73V270.322c-9.906-11.527-20.485-17.37-31.465-17.37c-21.032,0-38.451,20.896-42.535,26.203V426.5h-74v-239
		h74v23.901c30.098-21.82,52.315-25.276,63.344-25.276c3.048,0,5.007,0.271,5.82,0.413c40.088,3.358,59.16,24.921,68.102,42.439
		c9.624,18.854,9.734,36.77,9.734,37.523V426.5z M353.5,416.5h53v-150c-0.001-0.155-0.157-16.566-8.812-33.308
		c-11.388-22.032-31.606-34.383-60.096-36.708l-0.623-0.091c0.001,0,0.001,0,0.001,0c-0.004,0-1.453-0.268-4.127-0.268
		c-8.605,0-32.188,2.853-65.221,29.279l-8.123,6.499V197.5h-54v219h54V275.924l0.904-1.291c0.905-1.294,22.513-31.68,51.631-31.68
		c14.534,0,28.101,7.526,40.324,22.369l1.141,1.385V416.5z"/>
</g>
</svg>
