<?xml version="1.0" encoding="utf-8"?>
<!-- Generator: Adobe Illustrator 15.1.0, SVG Export Plug-In . SVG Version: 6.00 Build 0)  -->
<!DOCTYPE svg PUBLIC "-//W3C//DTD SVG 1.1//EN" "http://www.w3.org/Graphics/SVG/1.1/DTD/svg11.dtd">
<svg version="1.1" id="Layer_1" xmlns="http://www.w3.org/2000/svg" xmlns:xlink="http://www.w3.org/1999/xlink" x="0px" y="0px"
	 width="504px" height="504px" viewBox="0 0 504 504" enable-background="new 0 0 504 504" xml:space="preserve">
<g>
	<path d="M449.877,22.105H51.788c-16.918,0-30.683,13.764-30.683,30.683v398.089c0,16.92,13.764,30.685,30.683,30.685h398.089
		c16.92,0,30.685-13.765,30.685-30.685V52.788C480.563,35.87,466.797,22.105,449.877,22.105z M449.877,471.563H51.788
		c-11.404,0-20.683-9.279-20.683-20.686V52.788c0-11.404,9.278-20.683,20.683-20.683h398.089c11.405,0,20.685,9.278,20.685,20.683
		v398.089h0.001C470.563,462.282,461.283,471.563,449.877,471.563z"/>
	<rect x="82.5" y="192.5" width="64" height="229"/>
	<circle cx="114.5" cy="115.5" r="42"/>
	<path d="M338,191.5c0,0-28.5-6-73.5,30v-29h-64v229h64v-144c0,0,42-60,84-9v153h63v-155C411.5,266.5,411.5,197.5,338,191.5z"/>
</g>
</svg>
