<?xml version="1.0" encoding="utf-8"?>
<!-- Generator: Adobe Illustrator 15.1.0, SVG Export Plug-In . SVG Version: 6.00 Build 0)  -->
<!DOCTYPE svg PUBLIC "-//W3C//DTD SVG 1.1//EN" "http://www.w3.org/Graphics/SVG/1.1/DTD/svg11.dtd">
<svg version="1.1" id="Layer_1" xmlns="http://www.w3.org/2000/svg" xmlns:xlink="http://www.w3.org/1999/xlink" x="0px" y="0px"
	 width="504px" height="504px" viewBox="0 0 504 504" enable-background="new 0 0 504 504" xml:space="preserve">
<path d="M339.264,45.07l-97.605,97.606c-23.235,23.234-22.797,60.47,0.438,83.705l3.584,3.584l-15.218,15.218l-3.585-3.585
	c-23.234-23.234-60.468-23.674-83.703-0.439l-97.606,97.604c-23.235,23.236-23.381,61.056-0.146,84.29l37.023,37.024
	c23.234,23.233,61.054,23.089,84.29-0.146l97.606-97.605c23.234-23.235,22.795-60.47-0.439-83.704l-3.586-3.586l15.219-15.217
	l3.585,3.585c23.234,23.235,60.47,23.672,83.705,0.438l97.605-97.607c23.233-23.234,23.381-61.055,0.146-84.289l-37.022-37.023
	C400.317,21.688,362.499,21.835,339.264,45.07z M208.743,353.537l-50.167,50.167c-11.878,11.878-30.469,13.06-41.435,2.096
	l-17.474-17.475c-10.965-10.966-9.749-29.522,2.129-41.4l50.167-50.167c9.456-9.457,22.882-12.348,34.015-7.092l-16.465,16.465
	l-14.34,14.341c-8.365,8.364-8.584,21.708-0.219,30.072c8.365,8.365,21.708,8.146,30.072-0.218l14.341-14.341l16.452-16.452
	C221.066,330.673,218.187,344.093,208.743,353.537z M406.297,116.641c10.967,10.966,9.785,29.557-2.094,41.436l-50.168,50.168
	c-9.443,9.443-22.862,12.323-34.003,7.077l16.452-16.453l14.341-14.34c8.365-8.365,8.584-21.709,0.219-30.074
	c-8.364-8.365-21.708-8.146-30.073,0.219l-14.341,14.34l-16.464,16.465c-5.257-11.132-2.365-24.56,7.09-34.014l50.168-50.168
	c11.879-11.879,30.436-13.095,41.4-2.13L406.297,116.641z"/>
</svg>
