<?xml version="1.0" encoding="utf-8"?>
<!-- Generator: Adobe Illustrator 15.1.0, SVG Export Plug-In . SVG Version: 6.00 Build 0)  -->
<!DOCTYPE svg PUBLIC "-//W3C//DTD SVG 1.1//EN" "http://www.w3.org/Graphics/SVG/1.1/DTD/svg11.dtd">
<svg version="1.1" id="Layer_1" xmlns="http://www.w3.org/2000/svg" xmlns:xlink="http://www.w3.org/1999/xlink" x="0px" y="0px"
	 width="504px" height="504px" viewBox="0 0 504 504" enable-background="new 0 0 504 504" xml:space="preserve">
<path d="M409.5,303.25"/>
<g>
	<path d="M433.127,381.273c-0.922-1.193-4.765-6.754-4.765-16.573l-0.001-0.161c-0.202-9.412-5.533-23.023-19.128-25.229
		c0.316-1.274,0.47-1.979,0.47-1.979c21.146-57.222-37.319-123.152-37.319-123.152c-54.735-69.663-39.807-104.494-39.807-104.494
		C340.5,4.5,249.853,12.657,249.853,12.657c-81.48,1.244-61.577,103.249-61.577,103.249c6.22,44.784-16.172,77.126-16.172,77.126
		c-72.772,77.748-62.198,138.702-62.198,138.702c0.008,0.356,0.038,0.702,0.05,1.058c-5.653,2.801-9.307,6.298-9.939,6.93
		l-0.863,0.863l-0.592,1.067c-5.941,10.693-10.073,13.824-11.601,14.685l-0.44-0.17l-2.376,0.419
		c-11.703,2.053-20.453,7.61-26.006,16.519c-9.13,14.644-6.096,33.877-4.537,40.919c-5.437,18.132-4.795,31.985,1.915,41.199
		c7.087,9.731,18.274,10.782,22.755,10.782c0.801,0,1.467-0.03,1.958-0.065c14.263,0.655,34.036,3.537,40.481,4.52
		c17.464,12.845,35.186,15.593,47.153,15.593c9.176,0,15.232-1.601,15.892-1.783l0.787-0.218l0.731-0.359
		c12.338-6.061,19.962-14.697,22.659-25.669c0.157-0.636,0.291-1.27,0.41-1.902c13.788,3.124,25.34-1.755,25.34-1.755
		c14.927-7.986,41.673-2.588,41.673-2.588c19.903,4.977,27.367,1.245,27.367,1.245c0.684-0.011,1.351-0.052,2.024-0.079
		c0.999,8.019,3.539,17.08,9.45,23.768c5.401,6.11,12.918,9.341,21.738,9.341c10.36,0,22.514-4.23,37.152-12.929l1.367-0.813
		l0.917-1.3c0.209-0.295,21.236-29.646,54.243-38.752c1.71-0.443,16.798-4.712,19.973-17.881
		C451.994,404.386,446.457,393.253,433.127,381.273z M275.977,75.477c32.343,16.793,13.062,50.381,13.062,50.381
		c-6.22-0.622-11.196-6.22-11.196-6.22c8.707-21.147-7.464-26.746-7.464-26.746c-14.305,1.244-11.195,19.904-11.195,19.904
		c-4.354-3.11-9.33-5.598-9.33-5.598C249.842,71.123,275.977,75.477,275.977,75.477z M213.156,79.831
		c21.147,1.866,17.416,27.989,17.416,27.989c-2.489,0-8.086,5.598-8.086,5.598c1.244-21.148-11.196-16.172-11.196-16.172
		c-9.952,10.574,0,24.257,0,24.257l-4.976,4.354C188.276,91.027,213.156,79.831,213.156,79.831z M205.691,131.456
		c0,0,11.196-2.488,21.77-14.927c0,0,20.869-8.708,34.381,4.976c0,0,16,11.818,19.732,9.952c0,0,21.77,4.976,6.842,23.014
		c0,0-31.721,9.33-33.588,14.927c0,0-5.764,7.458-14.305,6.842c0,0-8.708,3.732-21.147-9.952c0,0-15.549-8.085-19.904-17.415
		C199.472,148.872,193.874,135.188,205.691,131.456z M191.021,453.864c-1.376,5.6-5.497,10.11-12.583,13.771
		c-4.336,0.918-27.074,4.644-48.88-12.316l-1.76-1.37l-2.204-0.354c-1.092-0.177-26.962-4.308-45.174-5.08l-0.608-0.04l-0.705,0.086
		c-0.117,0.011-0.414,0.028-0.835,0.028c-1.816,0-6.298-0.352-8.677-3.618c-1.992-2.737-4.47-10.015,1.33-28l0.804-2.535
		l-0.721-2.539c-1.443-5.08-3.907-20.305,1.938-29.62c2.68-4.273,6.917-6.993,12.929-8.288c0.282,0.019,0.577,0.028,0.885,0.028
		c8.87,0,17.713-7.606,26.298-22.608c1.741-1.439,6.412-4.837,11.64-4.837c3.31,0,6.452,1.403,9.569,4.282
		c4.142,9.81,25.264,57.797,50.642,78.733C186.892,432.66,193.477,443.874,191.021,453.864z M315.171,397.294l-0.075,1.499
		c-1.148,3.873-3.305,8.829-7.398,13.8c0,0-49.759,41.052-103.25,6.22c0,0-0.622-2.487-14.928-18.037
		c0,0,27.368,5.598,11.818-26.745c0,0-16.171-27.367-42.917-35.453c0,0-53.491-34.21,7.464-113.202c0,0-34.975,62.857-9.952,94.231
		c0,0,0-49.035,27.989-85.627c0,0,21.148-52.143,20.526-72.668c0,0,0.543,0.191,1.462,0.596c3.138,1.382,10.662,5.25,15.953,12.465
		c0,0,15.892,15.55,39.979,0c0,0,8.536-11.196,22.842-13.062c0,0,10.574-6.22,13.062-11.818c0,0,8.087,59.711,40.43,106.359
		c0,0,13.062,27.368,12.439,44.161h10.573c0,0,17.416-41.673-23.013-80.236c0,0,46.648,34.831,33.587,83.969
		c0,0,23.636,11.817,24.88,19.281c0,0,4.976,4.976,3.109,13.684h-5.597c0,0,4.975-19.282-29.234-25.502
		c0,0-18.037-8.707-26.123,8.397v6.127c-1.754,0.385-4.231,1.424-6.909,4.054c-7.594,5.823-18.417,20.447-15.967,56.002
		C315.624,389.469,315.37,393.291,315.171,397.294z M435.08,410.854c-0.843,3.592-6.599,6.244-9.325,6.984
		c-34.281,9.457-56.637,36.704-61.576,43.205c-11.518,6.69-21.015,10.081-28.244,10.081c-4.6,0-7.947-1.361-10.537-4.281
		c-6.448-7.271-6.64-22.277-6.075-28.974c7.51-14.234,10.451-35.788,10.576-36.729l0.18-3.103
		c1.177-23.594,3.939-37.738,6.591-46.143c6.06,13.444,18.528,15.27,24.823,15.27c14.493,0,29.816-8.421,31.856-9.578
		c5.971-3.024,9.807-3.662,11.978-3.662c7.299,0,8.037,9.008,8.109,10.894c0.036,16.652,7.904,25.715,8.803,26.696l0.544,0.534
		C435.612,403.454,435.438,409.325,435.08,410.854z"/>
	<path d="M232.373,165.352c2.263,0.368,4.539,0.551,6.824,0.551c10.767,0,21.759-4.073,32.768-12.157l0.178-0.138
		c3.569-2.961,10.158-6.792,13.635-6.061c2.009,0.426,3.996-0.862,4.423-2.878c0.428-2.016-0.86-3.997-2.878-4.424
		c-8.188-1.725-18.319,6.279-19.861,7.548c-11.612,8.504-22.988,11.938-33.813,10.204c-16.206-2.594-26.02-16.07-26.157-16.261
		c-1.191-1.679-3.515-2.076-5.198-0.887c-1.682,1.189-2.083,3.519-0.893,5.202C201.866,146.708,213.02,162.208,232.373,165.352z"/>
</g>
</svg>
