<?xml version="1.0" encoding="utf-8"?>
<!-- Generator: Adobe Illustrator 15.1.0, SVG Export Plug-In . SVG Version: 6.00 Build 0)  -->
<!DOCTYPE svg PUBLIC "-//W3C//DTD SVG 1.1//EN" "http://www.w3.org/Graphics/SVG/1.1/DTD/svg11.dtd">
<svg version="1.1" id="Layer_1" xmlns="http://www.w3.org/2000/svg" xmlns:xlink="http://www.w3.org/1999/xlink" x="0px" y="0px"
	 width="504px" height="504px" viewBox="0 0 504 504" enable-background="new 0 0 504 504" xml:space="preserve">
<rect x="118.5" y="108" width="349.5" height="18"/>
<rect x="118.5" y="234" width="349.5" height="18"/>
<rect x="118.5" y="360" width="349.5" height="18"/>
<g enable-background="new    ">
	<g>
		<path d="M79.933,171.281H66.658V86.688c-3.197,3.048-7.386,6.097-12.575,9.145c-5.188,3.048-9.844,5.335-13.976,6.86V89.86
			c7.424-3.49,13.913-7.719,19.471-12.685c5.554-4.966,9.488-9.785,11.8-14.457h8.555V171.281z"/>
		<path d="M83.034,174.382H63.558v-81.07c-2.342,1.743-4.983,3.479-7.904,5.195c-5.326,3.128-10.195,5.516-14.472,7.095
			l-4.174,1.541V87.891l1.782-0.837c7.112-3.344,13.412-7.445,18.724-12.191c5.231-4.678,8.962-9.227,11.086-13.519l0.854-1.726
			h13.581V174.382z M69.759,168.181h7.074V65.819h-3.594c-2.543,4.465-6.435,9.055-11.593,13.667
			c-5.31,4.744-11.504,8.882-18.437,12.319v6.25c2.868-1.306,5.982-2.943,9.305-4.896c4.953-2.909,8.992-5.841,12.006-8.715
			l5.24-4.998V168.181z"/>
	</g>
</g>
<g enable-background="new    ">
	<g>
		<path d="M92.269,278.145v10.799H31.782c-0.084-2.704,0.353-5.305,1.311-7.803c1.54-4.119,4.004-8.178,7.397-12.172
			c3.392-3.995,8.291-8.615,14.7-13.859c9.947-8.157,16.668-14.617,20.162-19.382c3.496-4.766,5.244-9.27,5.244-13.515
			c0-4.453-1.591-8.208-4.775-11.267c-3.184-3.06-7.334-4.589-12.455-4.589c-5.409,0-9.737,1.623-12.985,4.869
			c-3.247,3.246-4.89,7.74-4.931,13.484l-11.548-1.186c0.79-8.615,3.766-15.181,8.925-19.695c5.161-4.515,12.089-6.772,20.788-6.772
			c8.781,0,15.729,2.435,20.85,7.304c5.118,4.868,7.677,10.903,7.677,18.102c0,3.663-0.749,7.262-2.247,10.799
			c-1.5,3.537-3.987,7.262-7.46,11.175c-3.475,3.911-9.249,9.281-17.322,16.104c-6.743,5.661-11.072,9.5-12.985,11.518
			c-1.915,2.019-3.497,4.047-4.746,6.086h44.888V278.145z"/>
		<path d="M95.37,292.045H28.776l-0.094-3.005c-0.097-3.105,0.413-6.137,1.514-9.01c1.65-4.416,4.321-8.821,7.929-13.069
			c3.501-4.123,8.582-8.918,15.1-14.252c9.699-7.953,16.303-14.284,19.625-18.815c3.081-4.201,4.644-8.131,4.644-11.681
			c0-3.606-1.25-6.561-3.822-9.031c-2.608-2.506-5.979-3.724-10.307-3.724c-4.596,0-8.126,1.295-10.793,3.961
			c-2.671,2.67-3.987,6.372-4.022,11.313l-0.025,3.41l-17.992-1.847l0.28-3.054c0.861-9.393,4.216-16.709,9.971-21.746
			c5.719-5.003,13.399-7.54,22.83-7.54c9.561,0,17.294,2.745,22.986,8.157c5.734,5.454,8.642,12.3,8.642,20.349
			c0,4.063-0.839,8.104-2.492,12.008c-1.625,3.832-4.315,7.877-7.997,12.023c-3.562,4.01-9.496,9.532-17.639,16.414
			c-6.633,5.569-10.916,9.362-12.736,11.283c-0.27,0.283-0.531,0.567-0.786,0.852H95.37V292.045z M35.05,285.844h54.119v-4.598
			l-47.321-0.003l2.889-4.72c1.355-2.212,3.084-4.433,5.141-6.601c2.008-2.118,6.339-5.965,13.24-11.758
			c7.91-6.686,13.631-12,16.997-15.789c3.233-3.642,5.563-7.116,6.924-10.326c1.328-3.134,2.001-6.36,2.001-9.588
			c0-6.372-2.196-11.559-6.713-15.855c-4.563-4.34-10.684-6.45-18.712-6.45c-7.884,0-14.191,2.021-18.746,6.005
			c-3.968,3.473-6.433,8.269-7.49,14.602l5.179,0.532c0.6-5.005,2.487-9.12,5.631-12.263c3.835-3.833,8.941-5.776,15.177-5.776
			c5.924,0,10.838,1.835,14.604,5.454c3.799,3.651,5.727,8.194,5.727,13.503c0,4.897-1.966,10.062-5.845,15.348
			c-3.68,5.02-10.449,11.544-20.695,19.947c-6.231,5.098-11.042,9.629-14.302,13.467c-3.142,3.699-5.449,7.485-6.856,11.251
			C35.545,283.404,35.229,284.612,35.05,285.844z"/>
	</g>
</g>
<g enable-background="new    ">
	<g>
		<path d="M30.027,391.495l12.05-1.608c1.382,6.829,3.737,11.75,7.062,14.761c3.325,3.014,7.375,4.52,12.15,4.52
			c5.667,0,10.454-1.964,14.359-5.892c3.906-3.927,5.858-8.791,5.858-14.593c0-5.534-1.808-10.098-5.423-13.69
			c-3.616-3.591-8.213-5.389-13.791-5.389c-2.274,0-5.109,0.446-8.501,1.339l1.339-10.576c0.803,0.088,1.449,0.133,1.942,0.133
			c5.132,0,9.751-1.34,13.856-4.017c4.106-2.678,6.159-6.807,6.159-12.384c0-4.419-1.496-8.078-4.485-10.979
			c-2.989-2.901-6.85-4.352-11.581-4.352c-4.686,0-8.591,1.473-11.715,4.418c-3.125,2.945-5.131,7.364-6.024,13.256l-12.05-2.143
			c1.472-8.079,4.82-14.337,10.041-18.779c5.221-4.439,11.715-6.66,19.479-6.66c5.357,0,10.287,1.149,14.795,3.448
			c4.507,2.298,7.956,5.435,10.343,9.404c2.386,3.974,3.583,8.191,3.583,12.653c0,4.241-1.139,8.101-3.414,11.581
			c-2.275,3.481-5.646,6.248-10.109,8.302c5.8,1.339,10.31,4.116,13.523,8.333c3.214,4.219,4.819,9.496,4.819,15.833
			c0,8.569-3.125,15.829-9.372,21.789c-6.25,5.958-14.149,8.936-23.698,8.936c-8.613,0-15.765-2.567-21.456-7.698
			C34.075,406.31,30.83,399.661,30.027,391.495z"/>
		<path d="M61.223,422.24c-9.361,0-17.278-2.858-23.531-8.497c-6.256-5.639-9.873-13.022-10.75-21.944l-0.293-2.98l17.893-2.389
			l0.575,2.842c1.241,6.134,3.295,10.533,6.104,13.078c2.76,2.501,6.053,3.716,10.069,3.716c4.854,0,8.831-1.627,12.16-4.977
			c3.335-3.353,4.956-7.41,4.956-12.406c0-4.718-1.475-8.478-4.509-11.49c-3.04-3.02-6.836-4.488-11.605-4.488
			c-2,0-4.595,0.416-7.712,1.237l-4.442,1.169l2.299-18.16l3.032,0.333c0.86,0.096,1.347,0.115,1.603,0.115
			c4.559,0,8.538-1.149,12.162-3.513c3.198-2.085,4.751-5.286,4.751-9.787c0-3.576-1.159-6.439-3.543-8.754
			c-2.411-2.339-5.492-3.476-9.421-3.476c-3.901,0-7.038,1.169-9.587,3.573c-2.593,2.443-4.303,6.302-5.086,11.465l-0.477,3.145
			l-18.248-3.245l0.559-3.063c1.596-8.761,5.325-15.686,11.082-20.584c5.774-4.91,13.004-7.399,21.489-7.399
			c5.824,0,11.276,1.274,16.204,3.786c5.01,2.555,8.91,6.11,11.591,10.569c2.672,4.45,4.026,9.244,4.026,14.251
			c0,4.832-1.319,9.3-3.92,13.278c-1.444,2.209-3.277,4.173-5.481,5.874c3.506,1.729,6.441,4.132,8.767,7.184
			c3.619,4.751,5.453,10.71,5.453,17.713c0,9.406-3.476,17.491-10.332,24.032C80.245,418.945,71.552,422.24,61.223,422.24z
			 M33.532,394.155c1.135,6.058,3.871,10.98,8.311,14.983c5.151,4.643,11.49,6.9,19.379,6.9c8.804,0,15.856-2.643,21.558-8.079
			c5.659-5.399,8.411-11.793,8.411-19.545c0-5.694-1.369-10.258-4.185-13.954c-2.787-3.655-6.631-6.009-11.754-7.191l-8.848-2.041
			l8.248-3.797c3.907-1.797,6.871-4.214,8.811-7.181c1.958-2.994,2.909-6.228,2.909-9.885c0-3.921-1.027-7.537-3.141-11.058
			c-2.073-3.446-5.132-6.219-9.092-8.237c-4.048-2.063-8.552-3.11-13.388-3.11c-7.07,0-12.785,1.937-17.471,5.922
			c-3.974,3.381-6.767,8.058-8.323,13.93l5.858,1.042c1.201-5.067,3.334-9.069,6.362-11.924c3.703-3.492,8.36-5.263,13.842-5.263
			c5.543,0,10.166,1.758,13.74,5.228c3.601,3.494,5.426,7.937,5.426,13.203c0,6.667-2.545,11.707-7.565,14.981
			c-4.391,2.863-9.357,4.379-14.774,4.51l-0.428,3.376c1.798-0.31,3.411-0.463,4.873-0.463c6.399,0,11.774,2.116,15.976,6.29
			c4.207,4.179,6.34,9.524,6.34,15.89c0,6.624-2.275,12.27-6.761,16.779c-4.489,4.515-10.06,6.806-16.557,6.806
			c-5.548,0-10.337-1.79-14.232-5.322c-3.312-2.999-5.784-7.571-7.365-13.611L33.532,394.155z"/>
	</g>
</g>
</svg>
