<?xml version="1.0" encoding="utf-8"?>
<!-- Generator: Adobe Illustrator 15.1.0, SVG Export Plug-In . SVG Version: 6.00 Build 0)  -->
<!DOCTYPE svg PUBLIC "-//W3C//DTD SVG 1.1//EN" "http://www.w3.org/Graphics/SVG/1.1/DTD/svg11.dtd">
<svg version="1.1" id="Layer_1" xmlns="http://www.w3.org/2000/svg" xmlns:xlink="http://www.w3.org/1999/xlink" x="0px" y="0px"
	 width="504px" height="504px" viewBox="0 0 504 504" enable-background="new 0 0 504 504" xml:space="preserve">
<rect x="118.5" y="108" width="349.5" height="18"/>
<rect x="118.5" y="234" width="349.5" height="18"/>
<rect x="118.5" y="360" width="349.5" height="18"/>
<path d="M101.5,140.5c0,6.627-5.373,12-12,12h-53c-6.627,0-12-5.373-12-12v-53c0-6.627,5.373-12,12-12h53c6.627,0,12,5.373,12,12
	V140.5z"/>
<path d="M101.5,269.5c0,6.627-5.373,12-12,12h-53c-6.627,0-12-5.373-12-12v-53c0-6.627,5.373-12,12-12h53c6.627,0,12,5.373,12,12
	V269.5z"/>
<path d="M101.5,395.5c0,6.627-5.373,12-12,12h-53c-6.627,0-12-5.373-12-12v-53c0-6.627,5.373-12,12-12h53c6.627,0,12,5.373,12,12
	V395.5z"/>
</svg>
