<?xml version="1.0" encoding="utf-8"?>
<!-- Generator: Adobe Illustrator 15.1.0, SVG Export Plug-In . SVG Version: 6.00 Build 0)  -->
<!DOCTYPE svg PUBLIC "-//W3C//DTD SVG 1.1//EN" "http://www.w3.org/Graphics/SVG/1.1/DTD/svg11.dtd">
<svg version="1.1" id="Layer_1" xmlns="http://www.w3.org/2000/svg" xmlns:xlink="http://www.w3.org/1999/xlink" x="0px" y="0px"
	 width="504px" height="504px" viewBox="0 0 504 504" enable-background="new 0 0 504 504" xml:space="preserve">
<path d="M129.429,112.602V47.145H60.288v65.458v4.25v182.771c0,47.247,16.519,86.596,47.771,113.788
	c42.375,36.873,102.6,43.443,140.158,43.443c1.29,0,2.549-0.009,3.783-0.023c1.236,0.015,2.495,0.023,3.785,0.023
	c37.559,0,97.786-6.573,140.157-43.443c31.251-27.192,47.771-66.541,47.771-113.788V112.602h-0.282V47.145h-69.143v65.458h-0.282
	v187.021c0,27.164-7.751,47.144-23.687,61.086c-19.925,17.426-50.733,24.037-77.023,25.916l-0.113-0.82
	c-5.077,0.683-12.442,1.268-21.151,1.405c-8.737-0.137-16.126-0.721-21.213-1.405l-0.113,0.822
	c-26.288-1.88-57.099-8.492-77.022-25.918c-15.939-13.942-23.687-33.922-23.687-61.086 M382.789,55.646h52.141v52.706h-52.141
	V55.646z M68.789,55.646h52.14v52.706h-52.14V55.646z"/>
</svg>
