<?xml version="1.0" encoding="utf-8"?>
<!-- Generator: Adobe Illustrator 15.1.0, SVG Export Plug-In . SVG Version: 6.00 Build 0)  -->
<!DOCTYPE svg PUBLIC "-//W3C//DTD SVG 1.1//EN" "http://www.w3.org/Graphics/SVG/1.1/DTD/svg11.dtd">
<svg version="1.1" id="Layer_1" xmlns="http://www.w3.org/2000/svg" xmlns:xlink="http://www.w3.org/1999/xlink" x="0px" y="0px"
	 width="504px" height="504px" viewBox="0 0 504 504" enable-background="new 0 0 504 504" xml:space="preserve">
<polygon points="14.711,141.987 132.655,132.702 141.94,14.758 90.615,66.083 52.784,28.253 27.8,53.237 65.63,91.068 "/>
<polygon points="490.411,141.987 372.467,132.702 363.182,14.758 414.508,66.083 452.338,28.253 477.322,53.237 439.492,91.068 "/>
<polygon points="14.151,363.301 132.095,372.586 141.38,490.529 90.054,439.205 52.224,477.035 27.24,452.051 65.07,414.22 "/>
<polygon points="489.851,363.301 371.906,372.586 362.621,490.529 413.947,439.205 451.777,477.035 476.762,452.051 438.932,414.22 
	"/>
<path d="M361.167,310.5c0,27.614-22.386,50-50,50H194.5c-27.614,0-50-22.386-50-50v-116c0-27.614,22.386-50,50-50h116.667
	c27.614,0,50,22.386,50,50V310.5z"/>
</svg>
