<?xml version="1.0" encoding="utf-8"?>
<!-- Generator: Adobe Illustrator 15.1.0, SVG Export Plug-In . SVG Version: 6.00 Build 0)  -->
<!DOCTYPE svg PUBLIC "-//W3C//DTD SVG 1.1//EN" "http://www.w3.org/Graphics/SVG/1.1/DTD/svg11.dtd">
<svg version="1.1" id="Layer_1" xmlns="http://www.w3.org/2000/svg" xmlns:xlink="http://www.w3.org/1999/xlink" x="0px" y="0px"
	 width="504px" height="504px" viewBox="0 0 504 504" enable-background="new 0 0 504 504" xml:space="preserve">
<g>
	<path d="M218.381,107.12c0-15.125,9.99-27.916,23.73-32.139V28.5h-16.578c-58.229,0-105.433,50.145-105.433,112.002v0.623h98.28
		V107.12z"/>
	<path d="M282.467,28.5h-19.081v46.981c12.964,4.666,22.234,17.068,22.234,31.639v34.005h102.278v-0.623
		C387.898,78.645,340.695,28.5,282.467,28.5z"/>
	<path d="M285.62,170.88c0,18.567-15.052,33.62-33.62,33.62c-18.567,0-33.619-15.052-33.619-33.62v-7.23h-98.28v200.855
		c0,61.856,47.203,112.002,105.433,112.002h56.933c58.229,0,105.432-50.146,105.432-112.002V163.65H285.62V170.88z"/>
	<path d="M242.111,176.069c0,6.865,4.762,12.431,10.637,12.431c5.875,0,10.638-5.566,10.638-12.431v-72.138
		c0-6.865-4.763-12.431-10.638-12.431c-5.875,0-10.637,5.566-10.637,12.431V176.069z"/>
</g>
</svg>
