<?xml version="1.0" encoding="utf-8"?>
<!-- Generator: Adobe Illustrator 15.1.0, SVG Export Plug-In . SVG Version: 6.00 Build 0)  -->
<!DOCTYPE svg PUBLIC "-//W3C//DTD SVG 1.1//EN" "http://www.w3.org/Graphics/SVG/1.1/DTD/svg11.dtd">
<svg version="1.1" id="Layer_1" xmlns="http://www.w3.org/2000/svg" xmlns:xlink="http://www.w3.org/1999/xlink" x="0px" y="0px"
	 width="504px" height="504px" viewBox="0 0 504 504" enable-background="new 0 0 504 504" xml:space="preserve">
<path d="M135.167,28.5v66v161.064c-6.805-2.3-14.086-3.565-21.667-3.565c-37.372,0-67.667,30.296-67.667,67.667
	s30.295,67.667,67.667,67.667s67.667-30.296,67.667-67.667V208.05l232.999,43.015v50.5C407.361,299.266,400.081,298,392.5,298
	c-37.371,0-67.666,30.295-67.666,67.666s30.295,67.666,67.666,67.666s67.666-30.295,67.666-67.666V154.5v-14v-52L135.167,28.5z
	 M414.166,196.19l-232.999-43.015v-50.183l232.999,43.016V196.19z"/>
</svg>
