<?xml version="1.0" encoding="utf-8"?>
<!-- Generator: Adobe Illustrator 15.1.0, SVG Export Plug-In . SVG Version: 6.00 Build 0)  -->
<!DOCTYPE svg PUBLIC "-//W3C//DTD SVG 1.1//EN" "http://www.w3.org/Graphics/SVG/1.1/DTD/svg11.dtd">
<svg version="1.1" id="Layer_1" xmlns="http://www.w3.org/2000/svg" xmlns:xlink="http://www.w3.org/1999/xlink" x="0px" y="0px"
	 width="504px" height="504px" viewBox="0 0 504 504" enable-background="new 0 0 504 504" xml:space="preserve">
<path d="M49.556,300.604c-35.949,43.354-31.744,107.747,10.363,146.004c43.074,39.135,109.583,36.169,149.022-6.46l0.009,0.007
	l237.031-260.891l-0.06-0.053C478.423,140.655,496,92,452.934,54.061c-35.336-32.104-84.602-28.776-119.703,9.86l-0.048-0.042
	L96.154,324.77l16.588,15.07L349.771,78.949l-0.122-0.112c27.677-30.462,61.979-35.292,89.841-9.979
	c33.51,29.642,15.27,65.22-9.988,95.434l-0.108-0.099l-236.375,260.17l-0.002-0.002c-31.03,34.152-83.871,36.686-118.024,5.654
	c-34.153-31.028-36.686-83.869-5.656-118.022l-0.003-0.002L303.088,54.705L286.5,39.636L49.47,300.525L49.556,300.604z"/>
</svg>
