<?xml version="1.0" encoding="utf-8"?>
<!-- Generator: Adobe Illustrator 15.1.0, SVG Export Plug-In . SVG Version: 6.00 Build 0)  -->
<!DOCTYPE svg PUBLIC "-//W3C//DTD SVG 1.1//EN" "http://www.w3.org/Graphics/SVG/1.1/DTD/svg11.dtd">
<svg version="1.1" id="Layer_1" xmlns="http://www.w3.org/2000/svg" xmlns:xlink="http://www.w3.org/1999/xlink" x="0px" y="0px"
	 width="504px" height="504px" viewBox="0 0 504 504" enable-background="new 0 0 504 504" xml:space="preserve">
<path d="M386.956,47.336h-78.649V19.25H195.694v28.086h-78.65c-11.983,0-21.697,9.714-21.697,21.697v394.02
	c0,11.982,9.714,21.697,21.697,21.697h269.912c11.983,0,21.697-9.715,21.697-21.697V69.033
	C408.653,57.05,398.939,47.336,386.956,47.336z M313.952,96.779l50.757,50.406h-50.757V96.779z M374.612,443.31H129.391V87.042
	h66.304v18.273h104.372v48.814c0,3.834,3.108,6.943,6.943,6.943h67.603V443.31z"/>
</svg>
