<?xml version="1.0" encoding="utf-8"?>
<!-- Generator: Adobe Illustrator 15.1.0, SVG Export Plug-In . SVG Version: 6.00 Build 0)  -->
<!DOCTYPE svg PUBLIC "-//W3C//DTD SVG 1.1//EN" "http://www.w3.org/Graphics/SVG/1.1/DTD/svg11.dtd">
<svg version="1.1" id="Layer_1" xmlns="http://www.w3.org/2000/svg" xmlns:xlink="http://www.w3.org/1999/xlink" x="0px" y="0px"
	 width="504px" height="504px" viewBox="0 0 504 504" enable-background="new 0 0 504 504" xml:space="preserve">
<g>
	<path d="M348,244h-22.368l-6.345,39.945l19.691-0.182c21.393-5.832,19.412-23.479,19.412-23.479C360.689,244.193,348,244,348,244z"
		/>
	<path d="M248.747,169.636c-105.061,0-190.229,45.122-190.229,100.785c0,55.66,85.169,100.783,190.229,100.783
		c105.062,0,190.23-45.123,190.23-100.783C438.977,214.758,353.809,169.636,248.747,169.636z M260.689,244.193l-21.839,0.575
		L228,301h-25.931l5.237-26.154c-12.259,37.53-65.582,27.394-65.582,27.394L136,329h-24.736l20.73-103.646l46.512-0.702
		C211.265,225.802,212.988,252,212.988,252L223,199h24.495l-3.472,27.354c51.724-7.024,48.276,16.114,48.276,16.114L284,302h-26.184
		l9.77-49.832C268.735,242.733,260.689,244.193,260.689,244.193z M383.678,258.734c-4.023,41.953-38.505,42.93-38.505,42.93
		l-31.035,0.575L309,329h-25.322l21.281-104h51.133C388.851,230,383.678,258.734,383.678,258.734z"/>
	<path d="M152.069,245.342l-5.747,36.782c0,0,36.207,9.771,39.081-18.391C185.402,263.733,192.299,237.296,152.069,245.342z"/>
</g>
</svg>
