<?xml version="1.0" encoding="utf-8"?>
<!-- Generator: Adobe Illustrator 15.1.0, SVG Export Plug-In . SVG Version: 6.00 Build 0)  -->
<!DOCTYPE svg PUBLIC "-//W3C//DTD SVG 1.1//EN" "http://www.w3.org/Graphics/SVG/1.1/DTD/svg11.dtd">
<svg version="1.1" id="Layer_1" xmlns="http://www.w3.org/2000/svg" xmlns:xlink="http://www.w3.org/1999/xlink" x="0px" y="0px"
	 width="504px" height="504px" viewBox="0 0 504 504" enable-background="new 0 0 504 504" xml:space="preserve">
<path d="M150.222,252.738c0,0-61.07-54.752,9.827-147.41c0,0,47.616-50.337,107.358-41.862c0.947,0.134,1.886,0.366,2.849,0.447
	c61.771,5.25,85.638,27.376,101.783,85.639c0,0,24.568,110.909-53.349,152.324c0,0-80.022,36.5-73.705-46.329l19.654-65.282
	c0,0,24.568-61.435-30.183-68.089c0,0-80.023,1.039-47.031,113.015l-34.396,143.9c0,0-11.933,80.684-3.51,107.399
	c0,0,47.733-36.504,58.964-84.938c0,0,18.25-68.792,16.846-75.108c0,0,65.281,74.407,159.343-4.913c0,0,98.977-101.082,35.8-221.116
	c0,0-53.35-114.418-223.923-72.301c0,0-95.466,18.952-122.14,130.563c0,0-18.953,93.97,48.435,128.458
	c0,0,18.953,12.635,21.761-5.615L150.222,252.738z"/>
</svg>
