<?xml version="1.0" encoding="utf-8"?>
<!-- Generator: Adobe Illustrator 15.1.0, SVG Export Plug-In . SVG Version: 6.00 Build 0)  -->
<!DOCTYPE svg PUBLIC "-//W3C//DTD SVG 1.1//EN" "http://www.w3.org/Graphics/SVG/1.1/DTD/svg11.dtd">
<svg version="1.1" id="Layer_1" xmlns="http://www.w3.org/2000/svg" xmlns:xlink="http://www.w3.org/1999/xlink" x="0px" y="0px"
	 width="504px" height="504px" viewBox="0 0 504 504" enable-background="new 0 0 504 504" xml:space="preserve">
<path d="M289.978,212.562l154.586,116.297c14.873-14.873,14.873-38.991,0-53.862L289.978,120.41V64.437
	c0-23.713-17.053-42.937-38.086-42.937c-21.036,0-38.088,19.223-38.088,42.937v56.194L59.437,274.997
	c-14.873,14.872-14.873,38.989,0,53.862l154.365-116.131v112.54c0,13.348,5.406,40.155,13.881,61.045h-1.569l-69.507,69.506
	c-7.369,7.367-7.369,19.315,0,26.682l95.391-40.433l95.395,40.433c7.37-7.367,7.37-19.315,0-26.682l-69.508-69.506h-1.791
	c8.477-20.89,13.884-47.697,13.884-61.045V212.562z"/>
</svg>
