<?xml version="1.0" encoding="utf-8"?>
<!-- Generator: Adobe Illustrator 15.1.0, SVG Export Plug-In . SVG Version: 6.00 Build 0)  -->
<!DOCTYPE svg PUBLIC "-//W3C//DTD SVG 1.1//EN" "http://www.w3.org/Graphics/SVG/1.1/DTD/svg11.dtd">
<svg version="1.1" id="Layer_1" xmlns="http://www.w3.org/2000/svg" xmlns:xlink="http://www.w3.org/1999/xlink" x="0px" y="0px"
	 width="504px" height="504px" viewBox="0 0 504 504" enable-background="new 0 0 504 504" xml:space="preserve">
<path d="M267.899,363.363h184.401c0-44.423-33.566-83.674-84.885-107.354L324.845,84.309c30.406-14.544,50.184-38.152,50.184-64.809
	H132.171c0,26.944,20.204,50.779,51.17,65.283L141.029,255.44c-52.021,23.618-86.131,63.143-86.131,107.923h184.401L253.6,487
	L267.899,363.363z M147.644,270.01l7.052-3.202l1.864-7.517l42.312-170.657l3.164-12.763l-11.907-5.577
	c-18.975-8.887-32.426-21.26-38.435-34.794h203.802c-5.927,13.314-19.062,25.529-37.554,34.375l-11.764,5.627l3.138,12.657
	l42.571,171.701l1.85,7.458l6.977,3.22c23.443,10.816,42.789,25.142,55.945,41.425c9.12,11.287,15.094,23.142,17.859,35.4H72.727
	C79.747,316.753,106.648,288.622,147.644,270.01z"/>
</svg>
