<?xml version="1.0" encoding="utf-8"?>
<!-- Generator: Adobe Illustrator 15.1.0, SVG Export Plug-In . SVG Version: 6.00 Build 0)  -->
<!DOCTYPE svg PUBLIC "-//W3C//DTD SVG 1.1//EN" "http://www.w3.org/Graphics/SVG/1.1/DTD/svg11.dtd">
<svg version="1.1" id="Layer_1" xmlns="http://www.w3.org/2000/svg" xmlns:xlink="http://www.w3.org/1999/xlink" x="0px" y="0px"
	 width="504px" height="504px" viewBox="0 0 504 504" enable-background="new 0 0 504 504" xml:space="preserve">
<path stroke="#000000" stroke-width="3" stroke-miterlimit="10" d="M144.5,432.5"/>
<path stroke="#000000" stroke-width="3" stroke-miterlimit="10" d="M368.5,341.5"/>
<path d="M277.571,405.889c0,0,27.285,23.566,24.805,44.651c0,0-3.1,48.371-53.332,42.17c0,0-42.169,1.17-48.371-43.136
	c0,0-7.441-13.918,27.287-43.686c0,0,3.721-22.325-27.955-17.364c0,0-69.409,1.86-84.912,9.923c0,0-13.644,3.164-12.404-8.961
	c0,0-11.783-59.875-5.582-93.363c0,0,0.533-15.463,10.994-16.723c0.822-0.1,1.703-0.111,2.651-0.021
	c13.022,1.24,14.263,7.441,28.525,19.225c0,0,50.853,25.426,62.635-44.031c0,0,3.721-51.471-44.65-56.432
	c0,0-15.504-3.722-33.488,19.844c0,0-21.085,18.604-24.806-6.821c0,0-11.163-51.474,6.821-102.326c0,0,74.467,11.112,101.705,8.683
	c0,0,13.644-1.86,20.465-12.403c0,0-3.101-19.224-19.845-27.285c0,0-31.628-50.854,40.929-66.977c0,0,40.01-4.341,53.494,40.93
	c0,0,2.939,24.187-22.486,42.17c0,0-11.162,16.744,13.643,21.085c0,0,84.824-1.013,104.807-6.202c0,0,14.883,73.178,8.682,99.226
	c0,0,1.24,35.967-29.148,6.201c0,0-16.123-19.845-31.625-15.503c0,0-42.172,0.436-42.172,53.239c0,0-9.303,49.704,38.451,52.185
	c0,0,24.805,1.861,36.586-20.465c0,0,26.049-19.845,29.418,13.023l-10.811,90.541c0,0,3.721,11.783-27.289,6.202
	c0,0-68.217-6.822-76.277-3.722C294.315,389.765,278.192,387.284,277.571,405.889z"/>
</svg>
