<?xml version="1.0" encoding="utf-8"?>
<!-- Generator: Adobe Illustrator 15.1.0, SVG Export Plug-In . SVG Version: 6.00 Build 0)  -->
<!DOCTYPE svg PUBLIC "-//W3C//DTD SVG 1.1//EN" "http://www.w3.org/Graphics/SVG/1.1/DTD/svg11.dtd">
<svg version="1.1" id="Layer_1" xmlns="http://www.w3.org/2000/svg" xmlns:xlink="http://www.w3.org/1999/xlink" x="0px" y="0px"
	 width="504px" height="504px" viewBox="0 0 504 504" enable-background="new 0 0 504 504" xml:space="preserve">
<path stroke="#000000" stroke-width="3" stroke-miterlimit="10" d="M144.5,432.5"/>
<path stroke="#000000" stroke-width="3" stroke-miterlimit="10" d="M368.5,341.5"/>
<path d="M98.111,277.572c0,0-23.566,27.285-44.651,24.805c0,0-48.371-3.1-42.17-53.332c0,0-1.17-42.169,43.135-48.371
	c0,0,13.918-7.441,43.686,27.287c0,0,22.325,3.721,17.364-27.955c0,0-1.86-69.409-9.923-84.912c0,0-3.164-13.644,8.961-12.404
	c0,0,59.875-11.783,93.363-5.582c0,0,15.463,0.533,16.723,10.994c0.1,0.822,0.111,1.703,0.021,2.651
	c-1.24,13.022-7.441,14.263-19.225,28.525c0,0-25.425,50.853,44.031,62.635c0,0,51.471,3.721,56.432-44.65
	c0,0,3.722-15.504-19.844-33.488c0,0-18.604-21.085,6.821-24.806c0,0,51.474-11.163,102.326,6.821c0,0-11.112,74.467-8.683,101.705
	c0,0,1.86,13.644,12.403,20.465c0,0,19.224-3.101,27.285-19.845c0,0,50.854-31.628,66.977,40.929c0,0,4.341,40.01-40.93,53.494
	c0,0-24.187,2.939-42.17-22.486c0,0-16.744-11.162-21.085,13.643c0,0,1.013,84.824,6.202,104.807c0,0-73.178,14.883-99.226,8.682
	c0,0-35.967,1.24-6.201-29.148c0,0,19.845-16.123,15.503-31.625c0,0-0.436-42.172-53.239-42.172c0,0-49.704-9.303-52.185,38.451
	c0,0-1.861,24.805,20.465,36.586c0,0,19.845,26.049-13.023,29.418l-90.541-10.811c0,0-11.783,3.721-6.202-27.289
	c0,0,6.822-68.217,3.722-76.277C114.235,294.316,116.716,278.193,98.111,277.572z"/>
</svg>
