<?xml version="1.0" encoding="utf-8"?>
<!-- Generator: Adobe Illustrator 15.1.0, SVG Export Plug-In . SVG Version: 6.00 Build 0)  -->
<!DOCTYPE svg PUBLIC "-//W3C//DTD SVG 1.1//EN" "http://www.w3.org/Graphics/SVG/1.1/DTD/svg11.dtd">
<svg version="1.1" id="Layer_1" xmlns="http://www.w3.org/2000/svg" xmlns:xlink="http://www.w3.org/1999/xlink" x="0px" y="0px"
	 width="504px" height="504px" viewBox="0 0 504 504" enable-background="new 0 0 504 504" xml:space="preserve">
<path fill="#221E1F" d="M252.5,27.167c-124.448,0-225.333,100.885-225.333,225.333S128.052,477.834,252.5,477.834
	c124.449,0,225.334-100.886,225.334-225.334S376.949,27.167,252.5,27.167z M274.006,412.982h-44.332V368.65h44.332V412.982z
	 M344.29,215.327c-6.487,11.678-19.177,25.88-38.062,42.601c-12.688,11.247-20.977,19.538-24.869,24.87
	c-3.892,5.336-6.777,11.461-8.649,18.382c-1.876,6.919-2.958,18.165-3.243,33.735h-37.413c-0.145-5.19-0.216-9.083-0.216-11.678
	c0-15.279,2.162-28.471,6.487-39.574c3.169-8.358,8.289-16.793,15.354-25.302c5.19-6.197,14.522-15.245,28.005-27.14
	c13.479-11.894,22.237-21.372,26.274-28.437c4.034-7.063,6.056-14.775,6.056-23.139c0-15.137-5.914-28.437-17.733-39.898
	c-11.822-11.461-26.312-17.192-43.467-17.192c-16.581,0-30.42,5.19-41.521,15.57c-11.103,10.38-18.382,26.599-21.842,48.657
	l-40.006-4.757c3.602-29.553,14.307-52.188,32.114-67.903c17.803-15.713,41.337-23.572,70.606-23.572
	c30.995,0,55.718,8.434,74.174,25.301c18.452,16.867,27.68,37.27,27.683,61.198C354.021,190.89,350.777,203.649,344.29,215.327z"/>
</svg>
