<?xml version="1.0" encoding="utf-8"?>
<!-- Generator: Adobe Illustrator 15.1.0, SVG Export Plug-In . SVG Version: 6.00 Build 0)  -->
<!DOCTYPE svg PUBLIC "-//W3C//DTD SVG 1.1//EN" "http://www.w3.org/Graphics/SVG/1.1/DTD/svg11.dtd">
<svg version="1.1" id="Layer_1" xmlns="http://www.w3.org/2000/svg" xmlns:xlink="http://www.w3.org/1999/xlink" x="0px" y="0px"
	 width="504px" height="504px" viewBox="0 0 504 504" enable-background="new 0 0 504 504" xml:space="preserve">
<g>
	<path fill="#221E1F" d="M327.339,113.851C308.883,96.983,284.16,88.55,253.165,88.55c-29.269,0-52.803,7.859-70.606,23.572
		c-17.807,15.715-28.512,38.351-32.114,67.903l40.006,4.757c3.46-22.058,10.739-38.277,21.842-48.657
		c11.1-10.38,24.939-15.57,41.521-15.57c17.155,0,31.645,5.731,43.467,17.192c11.819,11.461,17.733,24.761,17.733,39.898
		c0,8.364-2.021,16.077-6.056,23.139c-4.037,7.064-12.796,16.543-26.274,28.437c-13.482,11.895-22.814,20.942-28.005,27.14
		c-7.065,8.509-12.184,16.943-15.354,25.302c-4.325,11.104-6.487,24.295-6.487,39.574c0,2.595,0.071,6.487,0.216,11.678h37.413
		c0.285-15.57,1.367-26.816,3.243-33.735c1.872-6.921,4.758-13.046,8.649-18.382c3.893-5.332,12.182-13.623,24.869-24.87
		c18.885-16.721,31.574-30.923,38.062-42.601s9.731-24.437,9.731-38.277C355.019,151.121,345.791,130.718,327.339,113.851z"/>
	<rect x="230.674" y="366.65" fill="#221E1F" width="44.332" height="44.332"/>
	<path fill="#221E1F" d="M252.5,27.167c-124.448,0-225.333,100.885-225.333,225.333S128.052,477.834,252.5,477.834
		c124.449,0,225.334-100.886,225.334-225.334S376.949,27.167,252.5,27.167z M252.5,441.878
		c-104.591,0-189.378-84.787-189.378-189.377c0-104.591,84.787-189.378,189.378-189.378s189.378,84.787,189.378,189.378
		C441.878,357.091,357.091,441.878,252.5,441.878z"/>
</g>
</svg>
