<?xml version="1.0" encoding="utf-8"?>
<!-- Generator: Adobe Illustrator 15.1.0, SVG Export Plug-In . SVG Version: 6.00 Build 0)  -->
<!DOCTYPE svg PUBLIC "-//W3C//DTD SVG 1.1//EN" "http://www.w3.org/Graphics/SVG/1.1/DTD/svg11.dtd">
<svg version="1.1" id="Layer_1" xmlns="http://www.w3.org/2000/svg" xmlns:xlink="http://www.w3.org/1999/xlink" x="0px" y="0px"
	 width="504px" height="504px" viewBox="0 0 504 504" enable-background="new 0 0 504 504" xml:space="preserve">
<g>
	<path d="M468.127,210.487c-10.717-13.367-24.04-20.94-39.593-22.511c-19.112-1.938-37.004,6.093-48.108,12.696
		c-32.184-18.769-71.998-29.857-114.265-31.884l20.855-92.469l61.063,33.633c0.568,0.313,1.149,0.575,1.739,0.8
		c-0.893,3.782-1.414,7.703-1.414,11.754c0,28.244,22.978,51.222,51.222,51.222s51.221-22.978,51.221-51.222
		s-22.977-51.222-51.221-51.222c-14.352,0-27.323,5.95-36.633,15.492c-0.502-0.375-0.991-0.763-1.557-1.075l-77.194-42.518
		c-0.151-0.084-0.313-0.122-0.468-0.199c-0.428-0.217-0.873-0.395-1.328-0.567c-0.445-0.17-0.892-0.329-1.346-0.45
		c-0.171-0.044-0.319-0.124-0.492-0.164c-0.257-0.058-0.509-0.052-0.766-0.095c-0.481-0.08-0.96-0.147-1.443-0.176
		c-0.457-0.029-0.906-0.026-1.357-0.008c-0.43,0.016-0.854,0.043-1.279,0.1c-0.476,0.064-0.94,0.154-1.403,0.265
		c-0.4,0.096-0.792,0.203-1.182,0.334c-0.446,0.15-0.879,0.323-1.306,0.518c-0.387,0.176-0.766,0.363-1.136,0.574
		c-0.395,0.225-0.771,0.469-1.141,0.732c-0.357,0.251-0.703,0.515-1.039,0.803c-0.351,0.303-0.679,0.626-1,0.963
		c-0.289,0.309-0.57,0.621-0.835,0.957c-0.314,0.395-0.59,0.813-0.86,1.243c-0.133,0.214-0.3,0.393-0.425,0.616
		c-0.084,0.151-0.121,0.313-0.2,0.468c-0.213,0.427-0.392,0.872-0.564,1.327c-0.171,0.448-0.33,0.891-0.449,1.345
		c-0.046,0.171-0.127,0.319-0.165,0.492L238.55,165.366c-0.258,1.146-0.319,2.284-0.289,3.407
		c-42.936,2.012-83.372,13.356-115.852,32.618c-30.711-23.146-65.934-7.179-81.254,5.587l-1.492,1.243l-1.093,1.606
		c-14.16,20.825-14.769,43.907-1.715,64.995c5.343,8.63,11.856,15.176,16.595,19.302c-0.641,4.665-0.981,9.386-0.981,14.155
		c0,39.633,22.341,76.04,62.903,102.514c36.916,24.087,85.456,37.355,136.683,37.355c51.228,0,99.77-13.269,136.682-37.355
		c40.567-26.474,62.905-62.881,62.905-102.514c0-8.104-0.984-16.061-2.813-23.837c15.783-13.232,24.942-27.19,27.227-41.68
		C478.877,224.861,470.142,212.953,468.127,210.487z M399.626,90.665c17.583,0,31.84,14.254,31.84,31.84
		s-14.257,31.841-31.84,31.841s-31.842-14.255-31.842-31.841S382.043,90.665,399.626,90.665z M60.364,227.099
		c4.889-3.595,20.824-13.798,37.146-7.979c-15.604,13.255-27.394,28.294-34.978,44.531
		C56.027,254.754,51.301,241.865,60.364,227.099z M252.054,420.462c-94.938,0-171.899-50.224-171.899-112.182
		c0-61.956,76.962-112.181,171.899-112.181c94.938,0,171.9,50.225,171.9,112.181C423.954,370.238,346.992,420.462,252.054,420.462z
		 M448.706,238.45c-0.676,4.282-1.106,11.554-9.233,20.87c-7.658-14.723-18.866-28.378-33.267-40.532
		c6.216-2.378,13.092-3.942,19.644-3.254c7.971,0.832,14.745,4.861,20.711,12.318l0.352,0.422
		C446.942,228.307,449.69,232.208,448.706,238.45z"/>
	<path d="M316.556,351.328c-80.988,35.524-125.58,3.235-127.615,1.706c-6.02-4.629-14.665-3.545-19.351,2.449
		c-4.708,6.023-3.639,14.725,2.386,19.433c1.568,1.226,27.218,20.655,73.093,20.655c22.728,0,50.421-4.77,82.61-18.888
		c7.001-3.07,10.188-11.236,7.117-18.24C331.724,351.447,323.563,348.259,316.556,351.328z"/>
	<circle cx="181.326" cy="281.834" r="25.459"/>
	<circle cx="322.531" cy="281.834" r="25.459"/>
</g>
</svg>
