<?xml version="1.0" encoding="utf-8"?>
<!-- Generator: Adobe Illustrator 15.1.0, SVG Export Plug-In . SVG Version: 6.00 Build 0)  -->
<!DOCTYPE svg PUBLIC "-//W3C//DTD SVG 1.1//EN" "http://www.w3.org/Graphics/SVG/1.1/DTD/svg11.dtd">
<svg version="1.1" id="Layer_1" xmlns="http://www.w3.org/2000/svg" xmlns:xlink="http://www.w3.org/1999/xlink" x="0px" y="0px"
	 width="504px" height="504px" viewBox="0 0 504 504" enable-background="new 0 0 504 504" xml:space="preserve">
<path d="M252,402c-82.71,0-150-67.29-150-150c0-82.71,67.29-150,150-150c31.691,0,61.112,9.887,85.357,26.728L288,175
	l153.373,26.864L432,40l-50.191,47.054C346.056,58.856,300.963,42,252,42C136.206,42,42,136.206,42,252
	c0,115.794,94.206,210,210,210c82.026,0,153.208-47.28,187.755-116.014l-59.894-15.639C353.447,373.298,306.015,402,252,402z"/>
</svg>
