<?xml version="1.0" encoding="utf-8"?>
<!-- Generator: Adobe Illustrator 15.1.0, SVG Export Plug-In . SVG Version: 6.00 Build 0)  -->
<!DOCTYPE svg PUBLIC "-//W3C//DTD SVG 1.1//EN" "http://www.w3.org/Graphics/SVG/1.1/DTD/svg11.dtd">
<svg version="1.1" id="Layer_1" xmlns="http://www.w3.org/2000/svg" xmlns:xlink="http://www.w3.org/1999/xlink" x="0px" y="0px"
	 width="504px" height="504px" viewBox="0 0 504 504" enable-background="new 0 0 504 504" xml:space="preserve">
<g>
	<path fill-rule="evenodd" clip-rule="evenodd" fill="#221E1F" d="M170.547,114.15c49.238-31.517,107.823-33.882,158.066-6.86
		l-44.473,46.212l129.819-14.719V18.29l-44.533,46.606c-71.837-45.266-157.882-45.003-229.869,1.2
		C66.342,113.375,30.321,194.348,44.245,280.372l56.568-8.912C90.33,208.31,117.12,149.018,170.547,114.15z"/>
	<path fill-rule="evenodd" clip-rule="evenodd" fill="#221E1F" d="M460.008,224.958l-56.606,8.911
		c10.48,63.169-15.854,122.446-69.697,157.309c-49.319,31.569-107.702,33.891-158.237,7.029l44.606-46.382L90.668,366.548
		L90.29,487.041l44.512-46.23c71.869,44.889,157.91,44.626,229.855-1.576C437.91,391.956,473.932,310.983,460.008,224.958z"/>
</g>
</svg>
