<?xml version="1.0" encoding="utf-8"?>
<!-- Generator: Adobe Illustrator 15.1.0, SVG Export Plug-In . SVG Version: 6.00 Build 0)  -->
<!DOCTYPE svg PUBLIC "-//W3C//DTD SVG 1.1//EN" "http://www.w3.org/Graphics/SVG/1.1/DTD/svg11.dtd">
<svg version="1.1" id="Layer_1" xmlns="http://www.w3.org/2000/svg" xmlns:xlink="http://www.w3.org/1999/xlink" x="0px" y="0px"
	 width="504px" height="504px" viewBox="0 0 504 504" enable-background="new 0 0 504 504" xml:space="preserve">
<path d="M252.167,27.164C127.535,27.164,26.5,128.198,26.5,252.83c0,124.633,101.035,225.668,225.667,225.668
	c124.633,0,225.667-101.035,225.667-225.668C477.834,128.198,376.8,27.164,252.167,27.164z M325.001,146.497
	c18.778,0,34,15.222,34,34c0,18.778-15.222,34-34,34s-34-15.222-34-34C291.001,161.719,306.223,146.497,325.001,146.497z
	 M181.667,146.497c18.778,0,34,15.222,34,34s-15.222,34-34,34s-34-15.222-34-34S162.889,146.497,181.667,146.497z M123.112,383.161
	c0-63.33,57.78-114.668,129.055-114.668c71.276,0,129.056,51.338,129.056,114.668H123.112z"/>
</svg>
