<?xml version="1.0" encoding="utf-8"?>
<!-- Generator: Adobe Illustrator 15.1.0, SVG Export Plug-In . SVG Version: 6.00 Build 0)  -->
<!DOCTYPE svg PUBLIC "-//W3C//DTD SVG 1.1//EN" "http://www.w3.org/Graphics/SVG/1.1/DTD/svg11.dtd">
<svg version="1.1" id="Layer_1" xmlns="http://www.w3.org/2000/svg" xmlns:xlink="http://www.w3.org/1999/xlink" x="0px" y="0px"
	 width="504px" height="504px" viewBox="0 0 504 504" enable-background="new 0 0 504 504" xml:space="preserve">
<g>
	<path d="M307,245l-4-5.333L357,159l-74.667,61.667c0,0-5.718-2.069-16.646-3.333L242,166v56c0,0-9.052,4.571-15.667,11l-24-8.667
		l16,20c0,0-4.833,7.667-4.667,18.667L165,285.333l53.5-0.167l3.25,4.418l-56.708,85.374l76.979-64.646c0,0,5.916,2.27,17.823,3.344
		L282,361.667L283,311c0,0,9.475-5.119,16.667-14l24,8.667L307,285.333c0,0,2.614-6.809,2.667-17L360.333,245H307z M225,284.333
		c-9.333-26-1.186-41.454,8.496-49.113C254,219,275,226.333,275,226.333L245.667,252L225,284.333z M293,293.667
		c0,0-10.008,20.666-44.337,11.333L275,280.333L297.667,247C297.667,247,311.667,271.667,293,293.667z"/>
	<path d="M262.477,67.479c-8.978,0-17.817,0.591-26.486,1.723C235.991,69.134,236,69.068,236,69c0-3.077-0.908-5.93-2.454-8.288
		c5.004-4.413,8.12-10.591,8.12-17.435C241.667,29.869,229.728,19,215,19c-14.728,0-26.667,10.869-26.667,24.277
		c0,11.262,8.425,20.729,19.848,23.472C208.073,67.485,208,68.232,208,69c0,1.987,0.381,3.88,1.065,5.609
		C123.093,98.047,59.882,176.671,59.882,270.072c0,111.889,90.705,202.594,202.595,202.594
		c111.889,0,202.594-90.705,202.594-202.594C465.07,158.183,374.365,67.479,262.477,67.479z M193.333,43.277
		c0-10.646,9.48-19.277,21.174-19.277c11.694,0,21.174,8.63,21.174,19.277c0,5.237-2.302,9.979-6.024,13.453
		c-2.202-1.511-4.829-2.396-7.657-2.396c-5.324,0-9.952,3.113-12.32,7.696C200.316,60.039,193.333,52.408,193.333,43.277z
		 M262.07,417.334c-82.106,0-148.667-66.561-148.667-148.668C113.403,186.561,179.964,120,262.07,120
		s148.667,66.561,148.667,148.666C410.737,350.773,344.177,417.334,262.07,417.334z"/>
	<polygon points="227.944,141.551 230.605,164.108 226.541,166.206 226.603,168.919 239.971,167.342 239.934,164.419 
		235.208,163.746 233.333,147.846 250.668,166.85 256.074,165.237 252.877,138.148 256.948,136.307 257.117,133.386 
		243.799,134.957 243.682,137.872 248.564,138.786 250.568,155.773 233.192,136.208 223.192,137.388 223.209,140.365 	"/>
	<path d="M293.949,379.79c-1.016-0.633-2.121-1.191-3.316-1.675s-2.38-0.913-3.554-1.288c-1.173-0.375-2.255-0.765-3.243-1.171
		c-0.989-0.404-1.812-0.911-2.464-1.518c-0.653-0.607-1.039-1.409-1.157-2.405c-0.117-0.995,0.12-1.85,0.712-2.562
		c0.592-0.711,1.402-1.128,2.433-1.25c1.029-0.121,2.042,0.012,3.038,0.399c0.994,0.388,1.734,0.887,2.217,1.497l1.307,4.107
		l3.508,0.15l-0.303-8.229c-0.878-0.615-2.132-1.058-3.764-1.328c-1.632-0.27-3.157-0.319-4.574-0.152
		c-2.431,0.287-4.581,1.063-6.451,2.326c-3.218,2.176-4.61,5.087-4.181,8.732c0.313,2.65,1.553,4.678,3.722,6.081
		c0.946,0.624,1.981,1.171,3.105,1.636c1.125,0.468,2.238,0.879,3.342,1.237c1.103,0.357,2.117,0.721,3.042,1.091
		c0.925,0.369,1.699,0.844,2.324,1.421c0.624,0.575,0.994,1.358,1.11,2.346s-0.238,1.889-1.066,2.705
		c-0.827,0.815-1.832,1.295-3.014,1.435c-1.182,0.139-2.308,0.028-3.377-0.334c-1.068-0.361-1.901-0.884-2.494-1.567l-1.572-4.614
		l-3.606-0.113l0.355,8.018c0.903,0.989,2.296,1.731,4.178,2.229c1.881,0.497,3.978,0.608,6.29,0.336
		c2.312-0.272,4.472-1.041,6.479-2.305c3.675-2.35,5.294-5.382,4.856-9.095C297.515,383.245,296.22,381.199,293.949,379.79z"/>
	<polygon points="391.629,226.571 388.801,226.702 388.254,231.623 365.462,235.81 363.122,231.963 360.419,232.202 
		365.504,259.881 374.719,258.966 374.523,255.788 368.295,253.77 366.318,243.013 376.625,241.121 377.624,246.562 
		373.538,248.167 374.754,251.547 385.543,250.446 384.203,246.96 380.765,246.451 379.682,240.559 390.414,238.587 
		392.288,248.792 387.108,251.35 387.226,254.672 396.621,253.75 	"/>
	<polygon points="169.986,291.963 148.456,290.199 168.803,280.087 166.469,274.208 138.202,270.713 136.422,267.765 
		133.432,267.89 135.979,280.743 139.009,280.559 139.347,275.97 157.478,277.756 137.697,287.574 139.795,293.839 161.406,295.482 
		144.882,303.901 142.939,300.129 139.814,300.099 142.96,315.977 145.911,315.652 146.479,311.434 172.37,298.091 	"/>
</g>
</svg>
