<?xml version="1.0" encoding="utf-8"?>
<!-- Generator: Adobe Illustrator 15.1.0, SVG Export Plug-In . SVG Version: 6.00 Build 0)  -->
<!DOCTYPE svg PUBLIC "-//W3C//DTD SVG 1.1//EN" "http://www.w3.org/Graphics/SVG/1.1/DTD/svg11.dtd">
<svg version="1.1" id="Layer_1" xmlns="http://www.w3.org/2000/svg" xmlns:xlink="http://www.w3.org/1999/xlink" x="0px" y="0px"
	 width="504px" height="504px" viewBox="0 0 504 504" enable-background="new 0 0 504 504" xml:space="preserve">
<path d="M9,198"/>
<path d="M470.021,437.214L257.614,224.807c-0.013-0.012-0.025-0.022-0.038-0.034c14.891-21.234,23.635-47.092,23.635-74.996
	C281.211,77.551,222.661,19,150.434,19C78.208,19,19.656,77.551,19.656,149.777c0,72.227,58.551,130.777,130.777,130.777
	c24.097,0,46.667-6.524,66.053-17.891c0.496,0.585,1.002,1.166,1.554,1.719l212.407,212.406c10.928,10.927,28.645,10.927,39.573,0
	C480.947,465.861,480.947,448.142,470.021,437.214z M148.149,242.864c-50.779,0-91.944-41.165-91.944-91.944
	c0-50.779,41.165-91.943,91.944-91.943s91.945,41.165,91.945,91.943C240.094,201.699,198.929,242.864,148.149,242.864z"/>
</svg>
