<?xml version="1.0" encoding="utf-8"?>
<!-- Generator: Adobe Illustrator 15.1.0, SVG Export Plug-In . SVG Version: 6.00 Build 0)  -->
<!DOCTYPE svg PUBLIC "-//W3C//DTD SVG 1.1//EN" "http://www.w3.org/Graphics/SVG/1.1/DTD/svg11.dtd">
<svg version="1.1" id="Layer_1" xmlns="http://www.w3.org/2000/svg" xmlns:xlink="http://www.w3.org/1999/xlink" x="0px" y="0px"
	 width="504px" height="504px" viewBox="0 0 504 504" enable-background="new 0 0 504 504" xml:space="preserve">
<path d="M477.18,289.048v-72.981l-43.201-27.465c-2.703-7.76-5.889-15.292-9.521-22.564l9.7-43.991L382.553,70.44l-43.439,9.673
	c-7.538-3.828-15.365-7.168-23.434-9.993l-27.203-42.79h-72.981l-27.374,42.86c-8.002,2.812-15.765,6.129-23.245,9.928
	l-43.355-9.655l-51.605,51.605l9.674,43.873c-3.654,7.306-6.857,14.875-9.573,22.675l-43.178,27.45v72.981l43.742,27.937
	c2.662,7.43,5.765,14.647,9.282,21.622l-9.891,44.415l51.605,51.606l44.971-9.917c6.704,3.324,13.628,6.269,20.746,8.807
	l28.201,44.154h72.981l28.024-44.082c7.188-2.554,14.177-5.521,20.941-8.874l45.055,9.935l51.605-51.605l-9.917-44.533
	c3.494-6.941,6.581-14.122,9.229-21.512L477.18,289.048z M252,376.999c-69.036,0-125-55.964-125-125c0-69.035,55.964-125,125-125
	c69.035,0,125,55.964,125,125C377,321.035,321.035,376.999,252,376.999z"/>
</svg>
