<?xml version="1.0" encoding="utf-8"?>
<!-- Generator: Adobe Illustrator 15.1.0, SVG Export Plug-In . SVG Version: 6.00 Build 0)  -->
<!DOCTYPE svg PUBLIC "-//W3C//DTD SVG 1.1//EN" "http://www.w3.org/Graphics/SVG/1.1/DTD/svg11.dtd">
<svg version="1.1" id="Layer_1" xmlns="http://www.w3.org/2000/svg" xmlns:xlink="http://www.w3.org/1999/xlink" x="0px" y="0px"
	 width="504px" height="504px" viewBox="0 0 504 504" enable-background="new 0 0 504 504" xml:space="preserve">
<path d="M351.179,215.822V163.26l-31.114-19.781c-1.946-5.588-4.241-11.014-6.856-16.251l6.986-31.683l-37.167-37.167l-31.286,6.966
	c-5.429-2.757-11.066-5.163-16.877-7.197l-19.592-30.817H162.71l-19.715,30.868c-5.763,2.025-11.354,4.415-16.741,7.15L95.03,58.396
	L57.863,95.562l6.967,31.598c-2.631,5.262-4.938,10.713-6.894,16.33l-31.098,19.77v52.563l31.503,20.12
	c1.917,5.352,4.152,10.549,6.685,15.572l-7.124,31.989L95.07,320.67l32.389-7.143c4.829,2.395,9.815,4.516,14.941,6.343
	l20.311,31.801h52.563l20.184-31.748c5.176-1.84,10.21-3.976,15.082-6.392l32.449,7.155l37.167-37.167l-7.143-32.073
	c2.517-4.999,4.739-10.171,6.647-15.493L351.179,215.822z M189.002,279.165c-49.72,0-90.026-40.306-90.026-90.026
	c0-49.72,40.307-90.026,90.026-90.026s90.026,40.306,90.026,90.026C279.028,238.859,238.722,279.165,189.002,279.165z"/>
<path d="M477.675,396.668v-31.279l-18.516-11.771c-1.158-3.326-2.524-6.554-4.081-9.671l4.157-18.854l-22.116-22.116l-18.617,4.146
	c-3.23-1.642-6.586-3.072-10.044-4.283L396.8,284.501h-31.278l-11.732,18.369c-3.429,1.204-6.756,2.626-9.963,4.254l-18.581-4.137
	l-22.116,22.116l4.146,18.803c-1.564,3.132-2.938,6.375-4.102,9.718l-18.506,11.765v31.279l18.747,11.973
	c1.14,3.184,2.471,6.277,3.979,9.267l-4.24,19.035l22.117,22.118l19.274-4.251c2.873,1.425,5.841,2.688,8.892,3.775l12.086,18.923
	H396.8l12.011-18.893c3.081-1.095,6.076-2.366,8.975-3.804l19.311,4.258l22.117-22.117l-4.251-19.086
	c1.498-2.975,2.82-6.053,3.957-9.219L477.675,396.668z M381.167,434.362c-29.588,0-53.572-23.986-53.572-53.574
	c0-29.586,23.984-53.571,53.572-53.571c29.587,0,53.572,23.985,53.572,53.571C434.739,410.376,410.754,434.362,381.167,434.362z"/>
</svg>
