<?xml version="1.0" encoding="utf-8"?>
<!-- Generator: Adobe Illustrator 15.1.0, SVG Export Plug-In . SVG Version: 6.00 Build 0)  -->
<!DOCTYPE svg PUBLIC "-//W3C//DTD SVG 1.1//EN" "http://www.w3.org/Graphics/SVG/1.1/DTD/svg11.dtd">
<svg version="1.1" id="Layer_1" xmlns="http://www.w3.org/2000/svg" xmlns:xlink="http://www.w3.org/1999/xlink" x="0px" y="0px"
	 width="504px" height="504px" viewBox="0 0 504 504" enable-background="new 0 0 504 504" xml:space="preserve">
<path d="M306.5,106c0,0.614,0.031,1.222,0.046,1.832L170.97,194.94c-12.511-10.271-28.52-16.44-45.97-16.44
	c-40.041,0-72.5,32.459-72.5,72.5s32.459,72.5,72.5,72.5c17.147,0,32.893-5.966,45.306-15.918l136.217,87.521
	c-0.003,0.3-0.022,0.597-0.022,0.897c0,40.041,32.459,72.5,72.5,72.5s72.5-32.459,72.5-72.5s-32.459-72.5-72.5-72.5
	c-20.328,0-38.691,8.377-51.856,21.854l-130.418-83.794c0.503-3.448,0.774-6.973,0.774-10.561c0-3.285-0.239-6.513-0.663-9.683
	l130.868-84.083C340.827,170.372,358.964,178.5,379,178.5c40.041,0,72.5-32.459,72.5-72.5S419.041,33.5,379,33.5
	S306.5,65.959,306.5,106z"/>
</svg>
