<?xml version="1.0" encoding="utf-8"?>
<!-- Generator: Adobe Illustrator 15.1.0, SVG Export Plug-In . SVG Version: 6.00 Build 0)  -->
<!DOCTYPE svg PUBLIC "-//W3C//DTD SVG 1.1//EN" "http://www.w3.org/Graphics/SVG/1.1/DTD/svg11.dtd">
<svg version="1.1" id="Layer_1" xmlns="http://www.w3.org/2000/svg" xmlns:xlink="http://www.w3.org/1999/xlink" x="0px" y="0px"
	 width="504px" height="504px" viewBox="0 0 504 504" enable-background="new 0 0 504 504" xml:space="preserve">
<g>
	<circle cx="252" cy="252" r="76.5"/>
	<path d="M252,383.363c-65.461,0-119.888-48.132-129.76-110.863h-2.74H81.868H18.5v39h72.808
		C115.542,376.746,178.422,423.363,252,423.363c87.553,0,159.97-66.003,170.133-150.863H381.76
		C371.888,335.231,317.461,383.363,252,383.363z"/>
	<path d="M413.427,194.5C389.745,128.207,326.328,80.636,252,80.636c-88.24,0-161.106,67.042-170.362,152.864h40.308
		c9.019-63.705,63.899-112.864,130.054-112.864c66.154,0,121.035,49.159,130.055,112.864h2.445h37.861H485.5v-39H413.427z"/>
</g>
</svg>
