<?xml version="1.0" encoding="utf-8"?>
<!-- Generator: Adobe Illustrator 15.1.0, SVG Export Plug-In . SVG Version: 6.00 Build 0)  -->
<!DOCTYPE svg PUBLIC "-//W3C//DTD SVG 1.1//EN" "http://www.w3.org/Graphics/SVG/1.1/DTD/svg11.dtd">
<svg version="1.1" id="Layer_1" xmlns="http://www.w3.org/2000/svg" xmlns:xlink="http://www.w3.org/1999/xlink" x="0px" y="0px"
	 width="504px" height="504px" viewBox="0 0 504 504" enable-background="new 0 0 504 504" xml:space="preserve">
<g>
	<path d="M353.435,306.444c0,0-109.416,21.072-115.21-56.895c0,0,12.116-132.064-112.208-131.699H25.925v74.805
		c0,0,152.771-27.394,140.128,54.787c0,0-6.321,121.163,100.092,121.163h87.29v41.776l124.641-71.962l-124.641-71.962V306.444z"/>
	<path d="M255.849,215.15c32.403-30.134,97.586-17.594,97.586-17.594v39.985l124.641-71.961L353.435,93.617v41.776h-87.29
		c-17.236,0-31.494,3.196-43.317,8.527C244.473,164.572,252.798,193.102,255.849,215.15z"/>
	<path d="M148.699,300.332c-38.027,26.204-122.774,11.012-122.774,11.012v74.806h100.091c30.314,0.089,52.488-7.714,68.731-19.538
		C167.225,351.48,154.52,324.004,148.699,300.332z"/>
</g>
</svg>
