<?xml version="1.0" encoding="utf-8"?>
<!-- Generator: Adobe Illustrator 15.1.0, SVG Export Plug-In . SVG Version: 6.00 Build 0)  -->
<!DOCTYPE svg PUBLIC "-//W3C//DTD SVG 1.1//EN" "http://www.w3.org/Graphics/SVG/1.1/DTD/svg11.dtd">
<svg version="1.1" id="Layer_1" xmlns="http://www.w3.org/2000/svg" xmlns:xlink="http://www.w3.org/1999/xlink" x="0px" y="0px"
	 width="504px" height="504px" viewBox="0 0 504 504" enable-background="new 0 0 504 504" xml:space="preserve">
<path d="M452.773,313.255c5.755-19.438,8.86-40.021,8.86-61.332c0-118.824-96.059-215.15-214.553-215.15
	c-21.184,0-41.645,3.094-60.973,8.829c-39.636-25.944-93.333-21.513-128.155,13.31C23.798,93.066,18.9,145.369,43.204,184.761
	c-6.919,21.134-10.677,43.707-10.677,67.162c0,118.824,96.059,215.151,214.553,215.151c21.655,0,42.554-3.229,62.262-9.214
	c40.153,33.924,100.276,31.989,138.12-5.854C485.506,413.964,487.256,353.404,452.773,313.255z M245.603,420.1
	c-32.621,0-60.599-5.619-83.933-16.856c-8.195-3.901-14.791-9.207-19.783-15.919c-4.996-6.712-7.493-14.358-7.493-22.943
	c0-8.431,3.161-16.038,9.483-22.828c6.32-6.79,13.696-10.185,22.124-10.185c7.179,0,13.422,1.133,18.73,3.395l25.402,9.481
	c12.33,4.84,24.309,7.258,35.938,7.258c10.458,0,19.784-2.943,27.979-8.838c8.193-5.892,12.291-13.988,12.291-24.291
	c0-10.454-3.98-18.26-11.941-23.41c-6.555-4.136-12.954-7.239-19.197-9.308c-6.245-2.067-16.936-5.363-32.075-9.892
	c-19.59-5.696-35.314-11.666-47.176-17.911c-11.864-6.242-21.364-15.08-28.505-26.513c-7.141-11.432-10.711-26.357-10.711-44.776
	c0-20.524,5.385-38.552,16.154-54.082c10.771-15.529,25.09-27.431,42.962-35.704c17.87-8.271,36.874-12.409,57.009-12.409
	c12.096,0,24.992,1.308,38.689,3.921c13.694,2.615,25.615,7.278,35.762,13.988c10.143,6.713,15.217,15.766,15.217,27.159
	c0,9.99-3.159,18.496-9.481,25.519c-6.321,7.024-14.359,10.536-24.114,10.536c-4.216,0-7.885-0.507-11.004-1.522l-13.463-4.8
	c-11.63-4.135-22.672-6.204-33.128-6.204c-9.131,0-17.483,2.302-25.051,6.906c-7.571,4.606-11.355,11.083-11.355,19.434
	c0,13.11,9.911,22.24,29.734,27.392l19.666,5.267c30.904,8.353,55.409,19.648,73.514,33.89
	c18.105,14.242,30.745,34.905,30.745,61.983c0,33.091-7.362,56.441-30.861,78.198c-11.754,10.882-24.447,20.408-40.796,25.87
	C280.584,417.368,263.474,420.1,245.603,420.1z"/>
</svg>
