<?xml version="1.0" encoding="utf-8"?>
<!-- Generator: Adobe Illustrator 15.1.0, SVG Export Plug-In . SVG Version: 6.00 Build 0)  -->
<!DOCTYPE svg PUBLIC "-//W3C//DTD SVG 1.1//EN" "http://www.w3.org/Graphics/SVG/1.1/DTD/svg11.dtd">
<svg version="1.1" id="Layer_1" xmlns="http://www.w3.org/2000/svg" xmlns:xlink="http://www.w3.org/1999/xlink" x="0px" y="0px"
	 width="504px" height="504px" viewBox="0 0 504 504" enable-background="new 0 0 504 504" xml:space="preserve">
<polygon stroke="#000000" stroke-width="3" stroke-miterlimit="10" points="409.279,273.081 372.68,236.481 193.768,415.393 
	131.321,352.946 94.721,389.547 192.96,487.785 193.773,486.973 194.581,487.779 "/>
<g>
	<path d="M61.286,126.957l-34.296-6.187c3.854-13.807,10.491-24.029,19.905-30.665c9.415-6.635,23.402-9.953,41.962-9.953
		c16.856,0,29.409,1.997,37.659,5.985c8.249,3.991,14.055,9.057,17.417,15.198c3.362,6.143,5.043,17.417,5.043,33.826l-0.404,44.114
		c0,12.554,0.605,21.811,1.816,27.773c1.21,5.964,3.474,12.353,6.792,19.166h-37.39c-0.988-2.509-2.198-6.23-3.631-11.163
		c-0.628-2.24-1.076-3.719-1.345-4.438c-6.456,6.277-13.361,10.984-20.712,14.122c-7.353,3.138-15.198,4.707-23.537,4.707
		c-14.706,0-26.294-3.988-34.767-11.97c-8.473-7.979-12.709-18.066-12.709-30.261c0-8.069,1.927-15.265,5.783-21.586
		c3.854-6.321,9.257-11.163,16.207-14.525c6.948-3.363,16.967-6.298,30.06-8.81c17.663-3.316,29.902-6.409,36.717-9.28v-3.766
		c0-7.263-1.795-12.44-5.38-15.534c-3.587-3.093-10.356-4.64-20.309-4.64c-6.725,0-11.97,1.324-15.736,3.968
		C66.666,115.683,63.616,120.323,61.286,126.957z M111.856,157.622c-4.842,1.614-12.508,3.543-22.999,5.784
		c-10.491,2.242-17.35,4.438-20.578,6.59c-4.932,3.497-7.397,7.936-7.397,13.315c0,5.292,1.971,9.864,5.917,13.718
		c3.945,3.856,8.965,5.784,15.063,5.784c6.813,0,13.315-2.24,19.502-6.725c4.573-3.407,7.576-7.576,9.011-12.508
		c0.985-3.228,1.479-9.369,1.479-18.426V157.622z"/>
	<path d="M184.618,226.214V29.045h37.793v71.014c11.655-13.269,25.464-19.906,41.424-19.906c17.394,0,31.785,6.3,43.173,18.897
		c11.386,12.598,17.081,30.688,17.081,54.269c0,24.39-5.807,43.173-17.417,56.353c-11.613,13.181-25.712,19.771-42.299,19.771
		c-8.16,0-16.207-2.041-24.142-6.119c-7.936-4.08-14.774-10.109-20.511-18.09v20.981H184.618z M222.142,151.704
		c0,14.795,2.331,25.735,6.993,32.817c6.545,10.043,15.242,15.063,26.093,15.063c8.339,0,15.443-3.564,21.317-10.692
		c5.872-7.128,8.809-18.358,8.809-33.691c0-16.318-2.958-28.086-8.876-35.305c-5.917-7.217-13.496-10.827-22.729-10.827
		c-9.058,0-16.589,3.52-22.596,10.558C225.145,126.667,222.142,137.36,222.142,151.704z"/>
	<path d="M479.028,125.612l-37.256,6.725c-1.257-7.442-4.102-13.047-8.54-16.812c-4.439-3.766-10.201-5.649-17.283-5.649
		c-9.414,0-16.925,3.251-22.527,9.751c-5.605,6.501-8.406,17.373-8.406,32.615c0,16.946,2.846,28.917,8.541,35.911
		c5.692,6.993,13.335,10.49,22.932,10.49c7.172,0,13.046-2.038,17.617-6.12c4.573-4.079,7.801-11.096,9.685-21.048l37.12,6.321
		c-3.855,17.037-11.253,29.904-22.191,38.6c-10.94,8.699-25.601,13.046-43.979,13.046c-20.894,0-37.548-6.59-49.965-19.771
		c-12.42-13.18-18.628-31.425-18.628-54.739c0-23.581,6.23-41.939,18.695-55.076c12.462-13.134,29.319-19.704,50.569-19.704
		c17.395,0,31.225,3.745,41.492,11.23C467.169,98.871,474.543,110.279,479.028,125.612z"/>
</g>
</svg>
