<?xml version="1.0" encoding="utf-8"?>
<!-- Generator: Adobe Illustrator 15.1.0, SVG Export Plug-In . SVG Version: 6.00 Build 0)  -->
<!DOCTYPE svg PUBLIC "-//W3C//DTD SVG 1.1//EN" "http://www.w3.org/Graphics/SVG/1.1/DTD/svg11.dtd">
<svg version="1.1" id="Layer_1" xmlns="http://www.w3.org/2000/svg" xmlns:xlink="http://www.w3.org/1999/xlink" x="0px" y="0px"
	 width="504px" height="504px" viewBox="0 0 504 504" enable-background="new 0 0 504 504" xml:space="preserve">
<rect x="40" y="238" width="423" height="27"/>
<g>
	<path d="M124.095,308.065c-14.578,11.27-23.728,17.783-27.45,19.54c-5.583,2.584-11.53,3.878-17.835,3.878
		c-9.824,0-17.913-3.358-24.271-10.081C48.18,314.684,45,305.843,45,294.883c0-6.927,1.551-12.924,4.653-17.991
		c4.238-7.029,11.605-13.647,22.1-19.852c10.493-6.203,27.94-13.749,52.342-22.643v-5.583c0-14.164-2.249-23.884-6.746-29.157
		c-4.498-5.273-11.038-7.909-19.619-7.909c-6.513,0-11.685,1.759-15.508,5.273c-3.931,3.516-5.894,7.549-5.894,12.097l0.31,8.995
		c0,4.757-1.216,8.428-3.645,11.011c-2.431,2.585-5.61,3.877-9.538,3.877c-3.826,0-6.955-1.342-9.383-4.032
		c-2.431-2.687-3.645-6.358-3.645-11.011c0-8.891,4.549-17.06,13.648-24.504c9.097-7.444,21.867-11.167,38.307-11.167
		c12.613,0,22.953,2.12,31.018,6.359c6.099,3.206,10.597,8.22,13.493,15.043c1.861,4.447,2.792,13.546,2.792,27.295v48.233
		c0,13.546,0.256,21.843,0.775,24.892c0.516,3.051,1.369,5.093,2.559,6.126c1.188,1.034,2.559,1.551,4.11,1.551
		c1.653,0,3.102-0.361,4.342-1.086c2.171-1.342,6.358-5.118,12.562-11.321v8.686c-11.581,15.509-22.643,23.262-33.189,23.262
		c-5.067,0-9.099-1.758-12.097-5.271C125.748,322.542,124.197,316.544,124.095,308.065z M124.095,297.983v-54.125
		c-15.613,6.204-25.693,10.599-30.242,13.182c-8.169,4.551-14.011,9.306-17.525,14.269c-3.516,4.963-5.273,10.392-5.273,16.284
		c0,7.444,2.222,13.624,6.668,18.533c4.444,4.912,9.563,7.367,15.354,7.367C100.934,313.493,111.274,308.324,124.095,297.983z"/>
	<path d="M223.508,210.979c13.749-19.127,28.587-28.692,44.51-28.692c14.578,0,27.296,6.23,38.152,18.688
		c10.855,12.461,16.285,29.494,16.285,51.102c0,25.229-8.375,45.545-25.125,60.95c-14.373,13.235-30.398,19.852-48.078,19.852
		c-8.273,0-16.672-1.5-25.202-4.498c-8.53-2.996-17.242-7.495-26.133-13.492V167.709c0-16.129-0.388-26.055-1.164-29.777
		s-1.992-6.254-3.644-7.599c-1.655-1.343-3.723-2.017-6.204-2.017c-2.896,0-6.514,0.829-10.856,2.481l-2.171-5.428L216.528,108
		h6.979V210.979z M223.508,220.905v84.989c5.273,5.172,10.726,9.072,16.362,11.709c5.633,2.637,11.398,3.955,17.292,3.955
		c9.407,0,18.17-5.169,26.287-15.51c8.115-10.337,12.175-25.38,12.175-45.13c0-18.196-4.06-32.181-12.175-41.952
		c-8.117-9.771-17.346-14.656-27.683-14.656c-5.482,0-10.96,1.396-16.439,4.188C235.19,210.567,229.917,214.701,223.508,220.905z"/>
	<path d="M464.051,274.565c-3.826,18.715-11.32,33.111-22.488,43.192c-11.166,10.081-23.521,15.121-37.066,15.121
		c-16.129,0-30.191-6.771-42.184-20.317c-11.996-13.542-17.99-31.843-17.99-54.899c0-22.334,6.643-40.479,19.93-54.438
		c13.283-13.958,29.232-20.937,47.844-20.937c13.959,0,25.436,3.698,34.43,11.089c8.996,7.394,13.494,15.07,13.494,23.031
		c0,3.931-1.268,7.11-3.801,9.538c-2.535,2.43-6.074,3.645-10.623,3.645c-6.104,0-10.703-1.963-13.803-5.894
		c-1.76-2.171-2.924-6.306-3.49-12.407c-0.57-6.1-2.664-10.752-6.281-13.958c-3.621-3.102-8.633-4.652-15.043-4.652
		c-10.34,0-18.664,3.826-24.969,11.477c-8.375,10.134-12.564,23.522-12.564,40.168c0,16.958,4.162,31.923,12.486,44.899
		c8.32,12.976,19.564,19.462,33.732,19.462c10.131,0,19.229-3.461,27.295-10.391c5.684-4.754,11.217-13.389,16.594-25.899
		L464.051,274.565z"/>
</g>
</svg>
