<?xml version="1.0" encoding="utf-8"?>
<!-- Generator: Adobe Illustrator 15.1.0, SVG Export Plug-In . SVG Version: 6.00 Build 0)  -->
<!DOCTYPE svg PUBLIC "-//W3C//DTD SVG 1.1//EN" "http://www.w3.org/Graphics/SVG/1.1/DTD/svg11.dtd">
<svg version="1.1" id="Layer_1" xmlns="http://www.w3.org/2000/svg" xmlns:xlink="http://www.w3.org/1999/xlink" x="0px" y="0px"
	 width="504px" height="504px" viewBox="0 0 504 504" enable-background="new 0 0 504 504" xml:space="preserve">
<g>
	<path d="M355,209.02v-56.903c-4.08-87.806-101.493-81.164-101.493-81.164C148.046,67.184,146,159.331,146,159.331v167.376
		c-26.689,55.994-50,0-50,0V256H18v93.013c5.908,84.189,103.189,84.17,103.189,84.17c95.822,0.019,103.63-83.656,103.63-83.656
		l-0.033-179.373c27.156-32.28,52.573,0,52.573,0l-0.003,40.05l33.036,12.555L355,209.02z"/>
	<path d="M404,263.941v62.766c-26,44.85-50,0-50,0V261.94l-47.627,16.624L276,263.728v81.266c5.954,90.582,103,88.202,103,88.202
		c103-2.218,103-77.721,103-77.721V263.34L404,263.941z"/>
</g>
</svg>
