<?xml version="1.0" encoding="utf-8"?>
<!-- Generator: Adobe Illustrator 15.1.0, SVG Export Plug-In . SVG Version: 6.00 Build 0)  -->
<!DOCTYPE svg PUBLIC "-//W3C//DTD SVG 1.1//EN" "http://www.w3.org/Graphics/SVG/1.1/DTD/svg11.dtd">
<svg version="1.1" id="Layer_1" xmlns="http://www.w3.org/2000/svg" xmlns:xlink="http://www.w3.org/1999/xlink" x="0px" y="0px"
	 width="504px" height="504px" viewBox="0 0 504 504" enable-background="new 0 0 504 504" xml:space="preserve">
<g>
	<path d="M227.315,244.866l88.036,130.64c14.595,21.656,24.987,34.802,31.188,39.429c6.197,4.63,13.535,7.414,22.009,8.356V432
		H212.958v-8.709c12.394-0.942,20.397-2.825,24.009-5.649c3.608-2.825,5.414-6.275,5.414-10.357c0-2.825-0.551-5.334-1.646-7.532
		c-2.2-4.708-7.691-13.495-16.478-26.364l-46.607-68.969l-48.725,59.554c-14.594,18.048-21.891,30.288-21.891,36.721
		c0,4.554,1.883,8.79,5.649,12.711c3.766,3.924,9.334,6.749,16.713,8.474c3.295,0.942,10.041,1.413,20.243,1.413V432H27v-8.709
		c13.965-2.037,24.951-5.805,32.955-11.299c10.511-7.216,25.187-22.281,44.018-45.195l63.319-77.207L86.083,170.248
		c-13.339-19.614-20.95-30.52-22.833-32.719c-4.237-5.179-8.396-8.864-12.476-11.063c-4.083-2.196-9.732-3.844-16.948-4.943v-8.709
		h158.417v8.709h-8.002c-9.103,0-15.458,1.452-19.067,4.354c-3.612,2.905-5.414,6.554-5.414,10.945c0,3.454,0.548,6.437,1.648,8.945
		l16.241,24.48l39.545,60.26l33.661-41.193c17.261-21.185,25.894-36.015,25.894-44.489c0-4.237-1.219-8.157-3.648-11.769
		c-2.435-3.608-5.926-6.433-10.476-8.474c-4.554-2.038-11.614-3.06-21.185-3.06v-8.709h117.459v8.709
		c-9.261,0.158-16.713,1.294-22.362,3.413c-5.648,2.119-11.691,6.083-18.125,11.887c-4.083,3.766-14.281,15.458-30.601,35.073
		L227.315,244.866z"/>
</g>
<g>
	<path d="M475.033,486H378v-2.676c29.749-35.424,47.806-59.256,54.17-71.497c6.364-12.24,9.546-24.198,9.546-35.871
		c0-8.512-2.636-15.583-7.904-21.219c-5.271-5.634-11.714-8.451-19.333-8.451c-12.484,0-22.172,6.244-29.062,18.727l-4.498-1.581
		c4.377-15.564,11.022-27.074,19.941-34.533c8.916-7.457,19.212-11.187,30.885-11.187c8.349,0,15.969,1.945,22.86,5.836
		c6.889,3.892,12.281,9.223,16.171,15.99c3.892,6.77,5.837,13.113,5.837,19.029c0,10.782-3,21.726-8.998,32.831
		c-8.188,14.998-26.063,35.912-53.623,62.743h35.628c8.754,0,14.449-0.365,17.083-1.094c2.634-0.729,4.804-1.965,6.506-3.709
		c1.703-1.742,3.932-5.412,6.688-11.005h4.378L475.033,486z"/>
</g>
</svg>
