<?xml version="1.0" encoding="utf-8"?>
<!-- Generator: Adobe Illustrator 15.1.0, SVG Export Plug-In . SVG Version: 6.00 Build 0)  -->
<!DOCTYPE svg PUBLIC "-//W3C//DTD SVG 1.1//EN" "http://www.w3.org/Graphics/SVG/1.1/DTD/svg11.dtd">
<svg version="1.1" id="Layer_1" xmlns="http://www.w3.org/2000/svg" xmlns:xlink="http://www.w3.org/1999/xlink" x="0px" y="0px"
	 width="504px" height="504px" viewBox="0 0 504 504" enable-background="new 0 0 504 504" xml:space="preserve">
<g>
	<path fill-rule="evenodd" clip-rule="evenodd" fill="#221E1F" d="M20.96,214.301l224.163,217.653l151.921-147.575L172.879,66.725
		h-72.242L20.96,143.919V214.301z M82.348,175.545c-13.958-13.323-13.958-35.334,0-48.99c13.958-13.641,36.894-13.641,50.852,0
		c13.945,13.656,13.945,35.667,0,48.99C119.242,189.186,96.306,189.186,82.348,175.545z"/>
	<path fill-rule="evenodd" clip-rule="evenodd" fill="#221E1F" d="M254.419,73.856"/>
	<polyline fill-rule="evenodd" clip-rule="evenodd" fill="#221E1F" points="226.159,73.856 232.725,80.986 240.159,87.799 
		247.289,94.93 442.613,284.379 305.271,417.694 326.98,438.768 464.322,305.453 486.031,284.379 464.322,263.291 268.998,73.856 	
		"/>
</g>
</svg>
