<?xml version="1.0" encoding="utf-8"?>
<!-- Generator: Adobe Illustrator 15.1.0, SVG Export Plug-In . SVG Version: 6.00 Build 0)  -->
<!DOCTYPE svg PUBLIC "-//W3C//DTD SVG 1.1//EN" "http://www.w3.org/Graphics/SVG/1.1/DTD/svg11.dtd">
<svg version="1.1" id="Layer_1" xmlns="http://www.w3.org/2000/svg" xmlns:xlink="http://www.w3.org/1999/xlink" x="0px" y="0px"
	 width="504px" height="504px" viewBox="0 0 504 504" enable-background="new 0 0 504 504" xml:space="preserve">
<path d="M423.961,171.245h-83.097c6.463-25.042,21.104-92.278,10.175-152.387l-1.155-6.358h-75.087l-0.396,7.327
	c-0.026,0.48-2.816,48.629-22.382,100.422c-22.562,59.724-56.881,99.002-102.189,117.083v-35.666H29.25v276.56h120.58v-34.294
	h43.332l49.227,47.568h180.442l54.997-51.976V222.691L423.961,171.245z M462.341,432.853l-45.67,43.16H248.649l-49.228-47.568
	H149.83V253.854c26.536-9.52,49.981-25.549,69.855-47.847c18.995-21.311,34.748-48.322,46.822-80.285
	c16.05-42.482,21.234-81.857,22.771-97.734h47.573c10.243,68.866-13.317,147.94-13.563,148.756l-3.023,9.988h97.489l44.587,42.583
	V432.853z"/>
</svg>
