<?xml version="1.0" encoding="utf-8"?>
<!-- Generator: Adobe Illustrator 15.1.0, SVG Export Plug-In . SVG Version: 6.00 Build 0)  -->
<!DOCTYPE svg PUBLIC "-//W3C//DTD SVG 1.1//EN" "http://www.w3.org/Graphics/SVG/1.1/DTD/svg11.dtd">
<svg version="1.1" id="Layer_1" xmlns="http://www.w3.org/2000/svg" xmlns:xlink="http://www.w3.org/1999/xlink" x="0px" y="0px"
	 width="504px" height="504px" viewBox="0 0 504 504" enable-background="new 0 0 504 504" xml:space="preserve">
<path d="M477.828,281.309V64.476L422.831,12.5H242.389l-49.227,47.568H149.83V25.774H29.25v276.56h120.58v-35.666
	c45.308,18.08,79.627,57.359,102.189,117.083c19.566,51.794,22.356,99.942,22.382,100.423l0.396,7.326h75.087l1.155-6.357
	c10.93-60.109-3.712-127.346-10.175-152.387h83.097L477.828,281.309z M462.341,274.685l-44.587,42.583h-97.489l3.023,9.988
	c0.246,0.816,23.807,79.891,13.563,148.757h-47.573c-1.537-15.878-6.722-55.252-22.771-97.734
	c-12.074-31.962-27.827-58.974-46.822-80.284c-19.875-22.299-43.32-38.328-69.855-47.848V75.556h49.592l49.228-47.568h168.021
	l45.67,43.16V274.685z"/>
</svg>
