<?xml version="1.0" encoding="utf-8"?>
<!-- Generator: Adobe Illustrator 15.1.0, SVG Export Plug-In . SVG Version: 6.00 Build 0)  -->
<!DOCTYPE svg PUBLIC "-//W3C//DTD SVG 1.1//EN" "http://www.w3.org/Graphics/SVG/1.1/DTD/svg11.dtd">
<svg version="1.1" id="Layer_1" xmlns="http://www.w3.org/2000/svg" xmlns:xlink="http://www.w3.org/1999/xlink" x="0px" y="0px"
	 width="504px" height="504px" viewBox="0 0 504 504" enable-background="new 0 0 504 504" xml:space="preserve">
<g>
	<path d="M404.5,72.5v-36h-70.667v36H171.167v-36H100.5v36h-28v360h360v-360H404.5z M411.167,414.5H92.5v-294h318.667V414.5z"/>
</g>
<polygon points="212.292,155.251 200.569,143.527 143.26,200.836 123.257,180.833 111.534,192.557 143.001,224.024 143.262,223.764 
	143.521,224.022 "/>
<polygon points="215.346,235.413 203.622,223.689 146.313,280.998 126.311,260.995 114.587,272.719 146.055,304.187 
	146.315,303.925 146.574,304.185 "/>
<polygon points="215.346,319.392 203.622,307.668 146.313,364.977 126.311,344.974 114.587,356.697 146.055,388.165 
	146.315,387.904 146.574,388.163 "/>
<rect x="228.5" y="173.5" width="154" height="24"/>
<rect x="227.5" y="252.5" width="154" height="24"/>
<rect x="224.5" y="336.5" width="154" height="24"/>
</svg>
