<?xml version="1.0" encoding="utf-8"?>
<!-- Generator: Adobe Illustrator 15.1.0, SVG Export Plug-In . SVG Version: 6.00 Build 0)  -->
<!DOCTYPE svg PUBLIC "-//W3C//DTD SVG 1.1//EN" "http://www.w3.org/Graphics/SVG/1.1/DTD/svg11.dtd">
<svg version="1.1" id="Layer_1" xmlns="http://www.w3.org/2000/svg" xmlns:xlink="http://www.w3.org/1999/xlink" x="0px" y="0px"
	 width="504px" height="504px" viewBox="0 0 504 504" enable-background="new 0 0 504 504" xml:space="preserve">
<g>
	<path d="M165.664,440.934c-15.896,0-73.063-3.06-141.266-42.435L4.517,387.021l22.855,2.17c0.069,0.007,7.046,0.657,17.753,0.657
		c27.561,0,75.685-4.096,104.117-29.963c-19.259-2.907-58.682-15.229-77.21-66.98l-3.517-9.823l9.859,3.413
		c0.06,0.02,7.05,2.372,15.837,2.372c1.895,0,3.728-0.107,5.494-0.32c-6.313-2.822-14.073-7.021-21.933-13.078
		c-16.683-12.855-36.94-36.822-38.712-77.997l-0.401-9.332l7.988,4.841c0.151,0.091,13.428,8.054,24.93,10.132
		c-5.667-5.453-12.842-13.65-18.833-24.598c-10.792-19.721-19.585-52.391-0.183-96.045l3.403-7.658l5.123,6.632
		c0.183,0.236,18.756,24.034,50.47,47.484c29.064,21.49,75.481,47.108,131.561,47.108c0.408,0,0.816-0.001,1.226-0.004
		c-1.229-13.785-1.893-49.574,19.678-77.635c15.646-20.354,39.618-32.202,71.254-35.215l0.111-0.009
		c0.151-0.011,1.553-0.108,3.941-0.108c10.547,0,45.855,2.094,67.278,28.41c8.066-1.071,33.444-5.571,55.276-21.624l9.649-7.095
		l-1.74,11.85c-0.153,1.04-3.51,22.169-25.469,43.124c7.918-1.587,18.421-4.539,30.748-10.018l17.181-7.636l-11.118,15.162
		c-1.076,1.467-25.422,34.494-44.671,46.443c0.374,13.823-0.015,70.177-27.439,129.491c-18.215,39.395-44.63,71.74-78.511,96.139
		c-42.219,30.402-96.128,48.407-160.231,53.513C170.138,440.834,168.548,440.934,165.664,440.934z M48.003,399.834
		c57.581,28.673,103.853,31.1,117.661,31.1c2.524,0,3.893-0.083,3.906-0.084c112.854-8.989,190.393-57.397,230.376-143.874
		c29.867-64.597,26.446-127.192,26.408-127.817l-0.196-3.237l2.875-1.5c10.313-5.38,23.611-19.873,32.885-30.991
		c-18.029,5.765-30.338,6.131-33.149,6.131c-0.591,0-0.896-0.014-0.896-0.014l-14.687-0.665l12.024-8.428
		c16.973-11.874,25.8-25.199,30.291-34.676c-25.02,13.875-49.55,15.875-50.745,15.964l-2.744,0.206l-1.643-2.208
		c-18.405-24.751-51.375-26.675-61.042-26.675c-1.801,0-2.935,0.064-3.175,0.079c-28.729,2.749-50.328,13.295-64.204,31.347
		c-24.097,31.348-17.134,75.163-17.061,75.602l0.937,5.617l-5.691,0.202c-2.328,0.083-4.688,0.124-7.017,0.124
		c-58.92,0-107.432-26.782-137.753-49.25C82.439,119.799,66.417,102.966,58.6,94.049c-11.064,29.125-10.093,55.894,2.917,79.666
		c10.519,19.221,25.191,29.081,25.338,29.178l7.208,4.774l-7.733,3.867c-2.749,1.375-6.026,2.071-9.741,2.071c0,0,0,0,0,0
		c-9.055,0-19.651-4.203-26.824-7.652c3.053,25.792,14.503,46.483,34.113,61.594c16.306,12.564,32.222,16.311,32.38,16.347
		l12.488,2.859l-11.123,6.355c-6.686,3.82-14.562,5.758-23.411,5.758c-3.401,0-6.56-0.292-9.291-0.691
		c22.924,51.054,69.302,52.597,74.773,52.597l0.26-0.002l10.949-0.251l-6.971,8.437C135.355,393.485,80.236,399.509,48.003,399.834z
		"/>
</g>
</svg>
