<?xml version="1.0" encoding="utf-8"?>
<!-- Generator: Adobe Illustrator 15.1.0, SVG Export Plug-In . SVG Version: 6.00 Build 0)  -->
<!DOCTYPE svg PUBLIC "-//W3C//DTD SVG 1.1//EN" "http://www.w3.org/Graphics/SVG/1.1/DTD/svg11.dtd">
<svg version="1.1" id="Layer_1" xmlns="http://www.w3.org/2000/svg" xmlns:xlink="http://www.w3.org/1999/xlink" x="0px" y="0px"
	 width="504px" height="504px" viewBox="0 0 504 504" enable-background="new 0 0 504 504" xml:space="preserve">
<path d="M77.934,114.019c0,0,69.335,89.771,172.242,86.122c0,0-15.327-91.96,76.633-100.718c0,0,40.141-2.919,61.307,25.544
	c0,0,29.194-2.189,54.008-20.435c0,0-3.649,24.838-32.843,45.262c0,0,17.516,0.717,43.79-10.959c0,0-24.084,32.842-40.871,41.601
	c0,0,13.867,227.709-233.549,247.415c0,0-56.927,3.649-127.721-37.222c0,0,83.931,8.028,118.964-34.302
	c0,0-53.279,1.459-74.444-57.657c0,0,18.976,6.569,34.303-2.189c0,0-60.576-13.866-63.496-81.742c0,0,24.084,14.597,35.762,8.758
	C102.018,223.496,45.821,186.274,77.934,114.019z"/>
<g>
	<path d="M450.877,22.105H52.788c-16.918,0-30.683,13.764-30.683,30.683v398.089c0,16.92,13.764,30.685,30.683,30.685h398.089
		c16.92,0,30.685-13.765,30.685-30.685V52.788C481.563,35.87,467.797,22.105,450.877,22.105z M471.563,450.877
		c0,11.405-9.279,20.686-20.686,20.686H52.788c-11.404,0-20.683-9.279-20.683-20.686V52.788c0-11.404,9.278-20.683,20.683-20.683
		h398.089c11.405,0,20.685,9.278,20.685,20.683L471.563,450.877L471.563,450.877z"/>
</g>
</svg>
