<?xml version="1.0" encoding="utf-8"?>
<!-- Generator: Adobe Illustrator 15.1.0, SVG Export Plug-In . SVG Version: 6.00 Build 0)  -->
<!DOCTYPE svg PUBLIC "-//W3C//DTD SVG 1.1//EN" "http://www.w3.org/Graphics/SVG/1.1/DTD/svg11.dtd">
<svg version="1.1" id="Layer_1" xmlns="http://www.w3.org/2000/svg" xmlns:xlink="http://www.w3.org/1999/xlink" x="0px" y="0px"
	 width="504px" height="504px" viewBox="0 0 504 504" enable-background="new 0 0 504 504" xml:space="preserve">
<path d="M57.13,84.502c0,0,77.621,100.499,192.827,96.414c0,0-17.158-102.951,85.792-112.755c0,0,44.938-3.268,68.634,28.597
	c0,0,32.683-2.451,60.462-22.877c0,0-4.085,27.807-36.768,50.672c0,0,19.609,0.803,49.024-12.27c0,0-26.963,36.768-45.756,46.573
	c0,0,15.524,254.923-261.461,276.985c0,0-63.731,4.085-142.986-41.671c0,0,93.962,8.988,133.182-38.4
	c0,0-59.646,1.633-83.341-64.549c0,0,21.244,7.354,38.402-2.451c0,0-67.816-15.524-71.085-91.511c0,0,26.963,16.341,40.037,9.805
	C84.093,207.062,21.179,165.392,57.13,84.502z"/>
</svg>
