<?xml version="1.0" encoding="utf-8"?>
<!-- Generator: Adobe Illustrator 15.1.0, SVG Export Plug-In . SVG Version: 6.00 Build 0)  -->
<!DOCTYPE svg PUBLIC "-//W3C//DTD SVG 1.1//EN" "http://www.w3.org/Graphics/SVG/1.1/DTD/svg11.dtd">
<svg version="1.1" id="Layer_1" xmlns="http://www.w3.org/2000/svg" xmlns:xlink="http://www.w3.org/1999/xlink" x="0px" y="0px"
	 width="504px" height="504px" viewBox="0 0 504 504" enable-background="new 0 0 504 504" xml:space="preserve">
<g>
	<circle cx="398.473" cy="71.469" r="43.969"/>
	<circle cx="80.468" cy="254.5" r="43.969"/>
	<circle cx="398.473" cy="437.532" r="43.968"/>
	<path d="M224.644,167.585l-37.833-63.396c-61.352,38.856-71.577,98.163-71.577,98.163c60.329,50.104,0,107.364,0,107.364
		c16.36,64.419,72.599,96.117,72.599,96.117l36.811-66.464C130.572,249.387,224.644,167.585,224.644,167.585z"/>
	<path d="M403.413,241.141l73.818-1.096c-3.003-72.558-49.267-111.048-49.267-111.048c-73.544,27.224-93.002-53.645-93.002-53.645
		c-63.976-18.016-119.534,14.861-119.534,14.861l39.179,65.095C379.558,118.781,403.413,241.141,403.413,241.141z"/>
	<path d="M399.595,270.147C369.096,396.7,251.091,356.5,251.091,356.5l-35.785,64.573c64.43,33.504,120.839,12.532,120.839,12.532
		c12.987-77.339,92.813-53.971,92.813-53.971c47.464-46.526,46.598-111.076,46.598-111.076L399.595,270.147z"/>
</g>
</svg>
