<?xml version="1.0" encoding="utf-8"?>
<!-- Generator: Adobe Illustrator 15.1.0, SVG Export Plug-In . SVG Version: 6.00 Build 0)  -->
<!DOCTYPE svg PUBLIC "-//W3C//DTD SVG 1.1//EN" "http://www.w3.org/Graphics/SVG/1.1/DTD/svg11.dtd">
<svg version="1.1" id="Layer_1" xmlns="http://www.w3.org/2000/svg" xmlns:xlink="http://www.w3.org/1999/xlink" x="0px" y="0px"
	 width="504px" height="504px" viewBox="0 0 504 504" enable-background="new 0 0 504 504" xml:space="preserve">
<g>
	<path d="M328.623,39.713V28.97H468v10.744h-14.811c-15.488,0-27.394,6.488-35.715,19.455c-4.065,6.002-6.097,19.94-6.097,41.813
		v159.702c0,39.49-3.92,70.124-11.76,91.902c-7.84,21.777-23.23,40.461-46.169,56.04C330.511,424.205,299.296,432,259.805,432
		c-42.974,0-75.595-7.454-97.854-22.358c-22.263-14.904-38.038-34.939-47.33-60.106c-6.198-17.227-9.292-49.552-9.292-96.982V98.658
		c0-24.196-3.339-40.071-10.018-47.62c-6.678-7.55-17.472-11.325-32.376-11.325H48.127V28.97h170.155v10.744h-15.099
		c-16.261,0-27.875,5.131-34.844,15.39c-4.841,6.968-7.259,21.487-7.259,43.555v171.607c0,15.294,1.401,32.812,4.21,52.557
		c2.804,19.744,7.885,35.134,15.245,46.169c7.354,11.033,17.953,20.134,31.795,27.294c13.838,7.164,30.825,10.743,50.96,10.743
		c25.742,0,48.781-5.612,69.107-16.842c20.326-11.224,34.214-25.598,41.668-43.119c7.449-17.518,11.179-47.185,11.179-88.998V98.658
		c0-24.582-2.714-39.971-8.131-46.169c-7.549-8.516-18.777-12.776-33.682-12.776H328.623z"/>
</g>
<rect x="45" y="450" width="423" height="27"/>
</svg>
