<?xml version="1.0" encoding="utf-8"?>
<!-- Generator: Adobe Illustrator 15.1.0, SVG Export Plug-In . SVG Version: 6.00 Build 0)  -->
<!DOCTYPE svg PUBLIC "-//W3C//DTD SVG 1.1//EN" "http://www.w3.org/Graphics/SVG/1.1/DTD/svg11.dtd">
<svg version="1.1" id="Layer_1" xmlns="http://www.w3.org/2000/svg" xmlns:xlink="http://www.w3.org/1999/xlink" x="0px" y="0px"
	 width="504px" height="504px" viewBox="0 0 504 504" enable-background="new 0 0 504 504" xml:space="preserve">
<g>
	<path d="M333.426,57.395l-91.546,91.545c-21.792,21.792-21.381,56.715,0.411,78.507l3.363,3.362l-14.273,14.273l-3.362-3.363
		c-21.792-21.792-56.713-22.204-78.506-0.412l-91.544,91.544c-21.792,21.793-21.929,57.264-0.137,79.055l34.725,34.726
		c21.792,21.791,57.263,21.655,79.056-0.138l91.544-91.544c21.792-21.792,21.38-56.715-0.411-78.506l-3.362-3.363l14.272-14.272
		l3.362,3.362c21.792,21.793,56.715,22.203,78.506,0.411l91.546-91.545c21.79-21.79,21.929-57.263,0.138-79.055L412.48,57.257
		C390.688,35.465,355.217,35.603,333.426,57.395z M188.766,343.695l13.451-13.45l15.43-15.43
		c4.919,10.449,2.218,23.034-6.638,31.891l-47.053,47.054c-11.14,11.14-28.577,12.249-38.861,1.964l-16.389-16.389
		c-10.284-10.285-9.144-27.688,1.997-38.829l47.052-47.053c8.869-8.869,21.461-11.58,31.903-6.65l-15.442,15.442l-13.45,13.45
		c-7.845,7.845-8.051,20.359-0.205,28.204C168.407,351.745,180.921,351.54,188.766,343.695z M396.296,124.521
		c10.285,10.285,9.177,27.721-1.965,38.863l-47.053,47.053c-8.856,8.857-21.442,11.558-31.891,6.638l15.43-15.431l13.45-13.45
		c7.847-7.845,8.053-20.36,0.206-28.207c-7.846-7.846-20.36-7.64-28.205,0.206l-13.45,13.45l-15.443,15.442
		c-4.931-10.44-2.218-23.034,6.649-31.901l47.053-47.053c11.142-11.142,28.547-12.282,38.831-1.998L396.296,124.521z"/>
	<path d="M149.66,220.434c1.727,0.233,3.371-0.384,4.515-1.528c0.804-0.804,1.359-1.867,1.521-3.08
		c0.395-2.939-1.667-5.642-4.607-6.037L34.597,194.142c-2.938-0.394-5.642,1.667-6.036,4.607c-0.395,2.939,1.667,5.643,4.607,6.037
		L149.66,220.434z"/>
	<path d="M186.827,186.254c2.098-2.098,2.097-5.498,0-7.594l-77.461-77.461c-2.097-2.097-5.497-2.097-7.594,0
		c-2.098,2.097-2.097,5.498,0,7.595l77.461,77.46C181.329,188.35,184.73,188.351,186.827,186.254z"/>
	<path d="M215.34,156.184c1.211-0.162,2.276-0.718,3.08-1.521c1.144-1.144,1.758-2.787,1.528-4.515L204.299,33.657
		c-0.393-2.941-3.098-5.002-6.036-4.608c-2.938,0.394-5.002,3.099-4.607,6.036l15.646,116.493
		C209.697,154.517,212.399,156.579,215.34,156.184z"/>
	<path d="M356.592,288.312c-2.94-0.395-5.643,1.667-6.037,4.607c-0.393,2.939,1.667,5.643,4.608,6.038l116.493,15.646
		c1.725,0.234,3.37-0.384,4.515-1.526c0.804-0.804,1.359-1.867,1.521-3.079c0.394-2.938-1.667-5.643-4.607-6.037L356.592,288.312z"
		/>
	<path d="M319.425,322.491c-2.097,2.097-2.098,5.497,0,7.595l77.461,77.46c2.097,2.098,5.497,2.098,7.595,0
		c2.098-2.099,2.097-5.496-0.001-7.593l-77.462-77.462C324.922,320.394,321.522,320.394,319.425,322.491z"/>
	<path d="M290.912,352.561c-2.941,0.396-5.002,3.099-4.609,6.036l15.647,116.492c0.396,2.938,3.099,5.003,6.038,4.606
		c1.213-0.163,2.275-0.719,3.079-1.521c1.143-1.144,1.76-2.788,1.527-4.515l-15.648-116.492
		C296.554,354.229,293.852,352.166,290.912,352.561z"/>
</g>
</svg>
