<?xml version="1.0" encoding="utf-8"?>
<!-- Generator: Adobe Illustrator 15.1.0, SVG Export Plug-In . SVG Version: 6.00 Build 0)  -->
<!DOCTYPE svg PUBLIC "-//W3C//DTD SVG 1.1//EN" "http://www.w3.org/Graphics/SVG/1.1/DTD/svg11.dtd">
<svg version="1.1" id="Layer_1" xmlns="http://www.w3.org/2000/svg" xmlns:xlink="http://www.w3.org/1999/xlink" x="0px" y="0px"
	 width="504px" height="504px" viewBox="0 0 504 504" enable-background="new 0 0 504 504" xml:space="preserve">
<g>
	<path stroke="#000000" stroke-width="3" stroke-miterlimit="10" d="M197.087,256.44c28.717-12.925,48.729-41.796,48.729-75.309
		c0-45.561-36.982-82.544-82.543-82.544c-45.56,0-82.542,36.984-82.542,82.544c0,33.242,19.689,61.912,48.032,74.989
		C65.055,273.177,17.667,334.137,17.667,362.104C17.667,463,82.439,463,162.339,463c79.901,0,144.672,0,144.672-100.896
		C307.011,334.308,260.202,273.926,197.087,256.44z"/>
	<polygon stroke="#000000" stroke-width="3" stroke-miterlimit="10" points="462.485,240.531 391.108,169.154 462.141,98.121 
		437.313,73.293 366.28,144.326 294.903,72.949 270.076,97.775 341.453,169.153 269.73,240.876 294.559,265.704 366.281,193.981 
		437.659,265.358 	"/>
</g>
</svg>
