<?xml version="1.0" encoding="utf-8"?>
<!-- Generator: Adobe Illustrator 15.1.0, SVG Export Plug-In . SVG Version: 6.00 Build 0)  -->
<!DOCTYPE svg PUBLIC "-//W3C//DTD SVG 1.1//EN" "http://www.w3.org/Graphics/SVG/1.1/DTD/svg11.dtd">
<svg version="1.1" id="Layer_1" xmlns="http://www.w3.org/2000/svg" xmlns:xlink="http://www.w3.org/1999/xlink" x="0px" y="0px"
	 width="504px" height="504px" viewBox="0 0 504 504" enable-background="new 0 0 504 504" xml:space="preserve">
<g>
	<path stroke="#000000" stroke-width="3" stroke-miterlimit="10" d="M197.087,256.439c28.717-12.924,48.729-41.795,48.729-75.309
		c0-45.561-36.982-82.544-82.543-82.544c-45.56,0-82.542,36.984-82.542,82.544c0,33.242,19.689,61.912,48.032,74.989
		C65.055,273.177,17.667,334.137,17.667,362.104C17.667,463,82.439,463,162.339,463c79.901,0,144.672,0,144.672-100.896
		C307.011,334.309,260.202,273.926,197.087,256.439z"/>
</g>
<path d="M380.35,36.5c-55.044,0-99.667,44.623-99.667,99.667s44.623,99.667,99.667,99.667c55.045,0,99.667-44.623,99.667-99.667
	S435.394,36.5,380.35,36.5z M380.35,219.813c-46.026,0-83.338-37.312-83.338-83.338c0-46.027,37.312-83.338,83.338-83.338
	s83.338,37.311,83.338,83.338C463.688,182.501,426.376,219.813,380.35,219.813z"/>
<path d="M388.669,133.696c0,4.852-3.725,8.786-8.319,8.786l0,0c-4.594,0-8.318-3.934-8.318-8.786V70.242
	c0-4.852,3.725-8.786,8.318-8.786l0,0c4.595,0,8.319,3.934,8.319,8.786V133.696z"/>
<path d="M440.428,128.002c4.593,0,8.317,3.725,8.317,8.318l0,0c0,4.595-3.725,8.32-8.317,8.32H380.35
	c-4.594,0-8.318-3.725-8.318-8.32l0,0c0-4.593,3.725-8.318,8.318-8.318H440.428L440.428,128.002z"/>
</svg>
