<?xml version="1.0" encoding="utf-8"?>
<!-- Generator: Adobe Illustrator 15.1.0, SVG Export Plug-In . SVG Version: 6.00 Build 0)  -->
<!DOCTYPE svg PUBLIC "-//W3C//DTD SVG 1.1//EN" "http://www.w3.org/Graphics/SVG/1.1/DTD/svg11.dtd">
<svg version="1.1" id="Layer_1" xmlns="http://www.w3.org/2000/svg" xmlns:xlink="http://www.w3.org/1999/xlink" x="0px" y="0px"
	 width="504px" height="504px" viewBox="0 0 504 504" enable-background="new 0 0 504 504" xml:space="preserve">
<g>
	<path fill-rule="evenodd" clip-rule="evenodd" d="M238.991,244.853c32.012-14.408,54.321-46.593,54.321-83.951
		c0-50.788-41.226-92.015-92.015-92.015c-50.788,0-92.014,41.227-92.014,92.015c0,37.055,21.949,69.016,53.542,83.593
		C91.811,263.509,38.985,331.464,38.985,362.64c0,112.474,72.204,112.474,161.271,112.474c89.067,0,161.271,0,161.271-112.474
		C361.528,331.654,309.349,264.345,238.991,244.853z"/>
	<path fill-rule="evenodd" clip-rule="evenodd" d="M342.991,206.854c32.012-14.409,54.321-46.593,54.321-83.952
		c0-50.788-41.226-92.015-92.015-92.015c-26.075,0-49.627,10.869-66.376,28.317c47.227,3.881,84.391,43.478,84.391,91.698
		c0,37.358-22.31,69.543-54.321,83.952c70.357,19.491,122.537,86.801,122.537,117.786c0,40.326-9.284,66.191-25.297,82.784
		c58.306-5.152,99.297-26.043,99.297-110.784C465.528,293.654,413.349,226.345,342.991,206.854z"/>
</g>
</svg>
