<?xml version="1.0" encoding="utf-8"?>
<!-- Generator: Adobe Illustrator 15.1.0, SVG Export Plug-In . SVG Version: 6.00 Build 0)  -->
<!DOCTYPE svg PUBLIC "-//W3C//DTD SVG 1.1//EN" "http://www.w3.org/Graphics/SVG/1.1/DTD/svg11.dtd">
<svg version="1.1" id="Layer_1" xmlns="http://www.w3.org/2000/svg" xmlns:xlink="http://www.w3.org/1999/xlink" x="0px" y="0px"
	 width="504px" height="504px" viewBox="0 0 504 504" enable-background="new 0 0 504 504" xml:space="preserve">
<g>
	<path d="M173.333,417.184L81.379,166.035C14.713,343.621,173.333,417.184,173.333,417.184z"/>
	<path d="M203.218,429.253c0,0,66.667,22.989,118.965-4.022l-59.77-163.794L203.218,429.253z"/>
	<path d="M429.655,153.391c2.299,34.483-5.173,55.172-5.173,55.172c0.574,10.345-67.241,201.149-67.241,201.149
		C511.264,308.562,429.655,153.391,429.655,153.391z"/>
	<path d="M378.504,189.578c-25.285-23.543-25.289-52.898-25.289-52.898c2.299-37.931,35.052-35.681,35.052-35.681
		C218.151-33.484,96.879,136.533,96.879,136.533c7.454,3.828,62.086-0.379,62.086-0.379c14.368-3.448,8.046,12.069,8.046,12.069
		c0.575,5.168-27.012,5.168-27.012,5.168l70.115,206.32L252,235.579L221,153h-14.333c-14.368,0-12.644-10.146-12.644-10.146
		c0-9.195,9.195-8.425,9.195-8.425c20.689,7.471,98.276,2.298,98.276,2.298c13.219-4.023,13.219,6.321,13.219,6.321
		c7.471,12.07-29.886,10.339-29.886,10.339l70.413,206.323l31.034-102.305C404.249,212.59,378.504,189.578,378.504,189.578z"/>
	<path d="M257.805,18.609c-125.058,0-226.437,101.379-226.437,226.437c0,125.058,101.379,226.437,226.437,226.437
		s226.437-101.379,226.437-226.437C484.241,119.989,382.862,18.609,257.805,18.609z M257.311,459.494
		c-118.709,0-214.943-96.232-214.943-214.942c0-118.709,96.233-214.942,214.943-214.942c118.71,0,214.942,96.233,214.942,214.942
		C472.253,363.262,376.021,459.494,257.311,459.494z"/>
</g>
</svg>
