<?xml version="1.0" encoding="utf-8"?>
<!-- Generator: Adobe Illustrator 15.1.0, SVG Export Plug-In . SVG Version: 6.00 Build 0)  -->
<!DOCTYPE svg PUBLIC "-//W3C//DTD SVG 1.1//EN" "http://www.w3.org/Graphics/SVG/1.1/DTD/svg11.dtd">
<svg version="1.1" id="Layer_1" xmlns="http://www.w3.org/2000/svg" xmlns:xlink="http://www.w3.org/1999/xlink" x="0px" y="0px"
	 width="504px" height="504px" viewBox="0 0 504 504" enable-background="new 0 0 504 504" xml:space="preserve">
<g>
	<path fill-rule="evenodd" clip-rule="evenodd" fill="#221E1F" d="M361.23,103.57c-3.23-13.58-33.771-12.8-33.771-12.8l-11.09,8.29
		l7.19,5l16.89,6.4l1.64,9.14l19.939,5.85C349.45,108.05,364.46,117.14,361.23,103.57z"/>
	<g>
		<path fill-rule="evenodd" clip-rule="evenodd" fill="#221E1F" d="M482.23,210.515C462.14,98.965,365.416,18.001,252.243,18.001
			c-13.907,0-27.954,1.261-41.748,3.747C148.992,32.826,95.485,67.194,59.831,118.52c-35.656,51.326-49.188,113.463-38.103,174.963
			c20.094,111.551,116.819,192.514,229.992,192.514c13.906,0,27.952-1.26,41.746-3.746c61.502-11.085,115.01-45.454,150.663-96.776
			C479.783,334.151,493.314,272.015,482.23,210.515z M286.43,432.317c-1.193,8.733-1.609,15.108-1.532,19.74
			c-10.995,1.812-22.139,2.74-33.178,2.74c-98.061,0-181.872-70.169-199.287-166.846c-9.606-53.3,2.122-107.151,33.021-151.632
			c7.487-10.777,15.89-20.684,25.071-29.658l7.05-1.271l6.54,14.526l-2.808,27.993l-2.434,8.299l-14.913,26.246l-0.375,19.706
			l8.986,6.227l4.792,26.632l10.346,13.841l-9.285-29.74l8.299,2.433l2.047,11.407l11.032,17.647l2.746,15.214l22.451,15.588
			l11.407-2.048l13.466,9.348l7.6-1.372l9.672,10.045l21.753,11.781l14.538-6.539l3.42,19.019l-9.36,13.466l-1.062,15.9
			l24.51,27.006l25.561,11.094C293.218,404.585,291.946,392.056,286.43,432.317z M418.505,367.675
			c-27.301,39.298-66.683,67.114-112.247,79.688c4.265-7.973,7.492-16.033,7.492-16.033l15.211-2.744l2.434-8.288l6.916-5.18
			l16.96-14.837l8.672-17.26l10.048-9.672l12.467-17.96l-2.747-15.212l15.601-22.44l-9.673-10.046l-18.319,7.238l-5.179-6.928
			l-11.406,2.06l-12.107-1.747l2.436-8.298l-9.66-10.034l-22.827,4.106l-17.944-12.467l-10.047,9.658l-16.585-4.866l-8.288-2.436
			l-13.166,14.153l-19.006,3.433l-9.671-10.047l-6.54-14.527l-12.094-1.747l1.747-12.093l-1.372-7.612l-10.732,5.864
			c-23.637,26.846-26.246-14.912-26.246-14.912c-3.232-28.867,46.713-24.111,46.713-24.111l6.538,14.526l7.602-1.373l-7.227-18.333
			l11.794-21.752l2.434-8.299l14.901-26.245l15.899,1.06l16.96-14.838c0,0,4.506-7.688,2.436-8.299
			c-2.072-0.599-11.407,2.059-11.407,2.059l-3.508,5.054l-5.853,8.412l-8.288-2.434l-12.104-1.747l5.552-12.78l15.213-2.733
			l6.239-8.985c-15.823,4.817-22.438-15.588-22.438-15.588l-1.747,12.093l-8.3-2.433l-5.166-6.914l-12.106-1.747l1.373,7.6
			l5.867,10.72l-6.927,5.179l2.06,11.407l-12.092-1.747l-2.06-11.407l-17.272-8.673l-1.373-7.601l9.36-13.465l12.779,5.554
			l1.062-15.9l12.092,1.748l5.18,6.914l8.286,2.433l2.434-8.287l-25.56-11.107l-18.333,7.226c0,0-22.527,5.638-25.69,7.945
			c0.189,0.654,0.144,0.943-0.257,0.666c-0.235-0.165-0.116-0.394,0.257-0.666c-0.869-3.011-6.796-13.873-6.796-13.873
			l-11.406,2.059l-1.799-9.96c20.692-12.346,43.653-20.994,68.076-25.394c11.976-2.159,24.16-3.252,36.216-3.252
			c22.486,0,44.217,3.699,64.576,10.552l9.947,7.937l3.732-2.783c8.857,3.716,17.401,8.057,25.587,12.956l0.732,4.054l-24.873-7.301
			l11.719,21.453l6.914-5.179l21.766,11.793l2.059,11.407l14.827,16.96l6.239-8.973l-6.54-14.526l-1.124-6.234
			c5.02,4.53,9.813,9.312,14.363,14.33l2.287,12.67l-7.613,1.373l7.912,22.126l6.852,38.039l8.985,6.24l2.731,15.213l23.825,23.188
			l6.073-7.242C459.382,276.846,447.24,326.311,418.505,367.675z"/>
		<polygon fill-rule="evenodd" clip-rule="evenodd" fill="#221E1F" points="241.63,253.65 243.58,247 221.7,247.8 		"/>
		<polygon fill-rule="evenodd" clip-rule="evenodd" fill="#221E1F" points="254.92,257.55 263.52,252.85 250.779,252 		"/>
	</g>
</g>
</svg>
