<?xml version="1.0" encoding="utf-8"?>
<!-- Generator: Adobe Illustrator 15.1.0, SVG Export Plug-In . SVG Version: 6.00 Build 0)  -->
<!DOCTYPE svg PUBLIC "-//W3C//DTD SVG 1.1//EN" "http://www.w3.org/Graphics/SVG/1.1/DTD/svg11.dtd">
<svg version="1.1" id="Layer_1" xmlns="http://www.w3.org/2000/svg" xmlns:xlink="http://www.w3.org/1999/xlink" x="0px" y="0px"
	 width="504px" height="504px" viewBox="0 0 504 504" enable-background="new 0 0 504 504" xml:space="preserve">
<path d="M465.266,466.266c14.06-14.059,14.059-36.852,0-50.91L197.979,148.069c-14.059-14.06-36.853-14.06-50.912,0l0,0
	c-14.059,14.059-14.059,36.853,0,50.911l267.287,267.286C428.413,480.324,451.207,480.326,465.266,466.266L465.266,466.266z"/>
<polygon points="186.355,57.915 99.812,33.949 87.557,46.001 129.475,70.378 153.349,113.944 113.896,152.744 70.568,127.976 
	47.062,85.826 35.787,96.915 58.302,183.846 154.845,204.813 204.872,154.846 "/>
</svg>
